G04 Generated by Ultiboard 13.0 *
%FSLAX34Y34*%
%MOMM*%

%ADD10C,0.0001*%
%ADD11C,0.2540*%
%ADD12C,0.6350*%
%ADD13R,2.1844X2.1844*%
%ADD14R,2.2000X2.2000*%
%ADD15R,2.1800X2.1800*%
%ADD16R,2.1996X2.1996*%
%ADD17R,1.6510X1.6510*%


G04 ColorRGB 0000FF for the following layer *
%LNCopper Bottom*%
%LPD*%
G54D10*
G36*
X324700Y510530D02*
X324700Y510530D01*
X324700Y462888D01*
X321742Y462888D01*
G75*
D01*
G03X320460Y462715I2J-4850*
G01*
X320460Y462715D01*
X320460Y520700D01*
G74*
D01*
G03X318097Y526392I8040J1*
G01*
X318097Y526392D01*
X303239Y541251D01*
X505718Y541251D01*
X505718Y30249D01*
X397219Y30249D01*
X429857Y62888D01*
G75*
D01*
G03X432220Y68580I-5676J5693*
G01*
X432220Y68580D01*
X432220Y80671D01*
X435180Y80671D01*
G74*
D01*
G03X436880Y80978I2J4849*
G01*
G75*
D01*
G03X438580Y80671I1698J4542*
G01*
X438580Y80671D01*
X443960Y80671D01*
X443960Y90900D01*
X440029Y90900D01*
X440029Y102140D01*
X443960Y102140D01*
X443960Y112369D01*
X438580Y112369D01*
G75*
D01*
G03X436880Y112062I-2J-4849*
G01*
G74*
D01*
G03X435180Y112369I1698J4542*
G01*
X435180Y112369D01*
X413180Y112369D01*
G75*
D01*
G03X411480Y112062I-2J-4849*
G01*
G74*
D01*
G03X409780Y112369I1698J4542*
G01*
X409780Y112369D01*
X387780Y112369D01*
G75*
D01*
G03X386080Y112062I-2J-4849*
G01*
G74*
D01*
G03X384380Y112369I1698J4542*
G01*
X384380Y112369D01*
X362380Y112369D01*
G75*
D01*
G03X360680Y112062I-2J-4849*
G01*
G74*
D01*
G03X358980Y112369I1698J4542*
G01*
X358980Y112369D01*
X351121Y112369D01*
X312840Y150650D01*
X312840Y189969D01*
X318262Y189969D01*
G75*
D01*
G03X323111Y194818I0J4849*
G01*
X323111Y194818D01*
X323111Y216662D01*
G74*
D01*
G03X318262Y221511I4849J0*
G01*
X318262Y221511D01*
X296418Y221511D01*
G75*
D01*
G03X293370Y220434I-1J-4849*
G01*
G74*
D01*
G03X290322Y221511I3047J3772*
G01*
X290322Y221511D01*
X268478Y221511D01*
G75*
D01*
G03X265518Y220503I0J-4849*
G01*
G74*
D01*
G03X262460Y221589I3058J3762*
G01*
X262460Y221589D01*
X257080Y221589D01*
X257080Y211360D01*
X263629Y211360D01*
X263629Y200120D01*
X257080Y200120D01*
X257080Y189891D01*
X262460Y189891D01*
G74*
D01*
G03X265518Y190977I0J4849*
G01*
G75*
D01*
G03X268478Y189969I2960J3841*
G01*
X268478Y189969D01*
X271360Y189969D01*
X271360Y139716D01*
G75*
D01*
G03X273715Y134015I8040J-16*
G01*
X273715Y134015D01*
X306731Y100999D01*
X306731Y89288D01*
G74*
D01*
G03X305562Y89431I1169J4706*
G01*
X305562Y89431D01*
X283718Y89431D01*
G75*
D01*
G03X278869Y84582I0J-4849*
G01*
X278869Y84582D01*
X278869Y81700D01*
X275607Y81700D01*
G75*
D01*
G03X277469Y85520I-2987J3820*
G01*
X277469Y85520D01*
X277469Y107520D01*
G74*
D01*
G03X272620Y112369I4849J0*
G01*
X272620Y112369D01*
X250620Y112369D01*
G75*
D01*
G03X248920Y112062I-2J-4849*
G01*
G74*
D01*
G03X247220Y112369I1698J4542*
G01*
X247220Y112369D01*
X241840Y112369D01*
X241840Y102140D01*
X245771Y102140D01*
X245771Y90900D01*
X241840Y90900D01*
X241840Y80671D01*
X247220Y80671D01*
G74*
D01*
G03X248920Y80978I2J4849*
G01*
G75*
D01*
G03X250620Y80671I1698J4542*
G01*
X250620Y80671D01*
X253580Y80671D01*
X253580Y74080D01*
X184637Y74080D01*
X191097Y80541D01*
G74*
D01*
G03X191225Y80671I5664J5705*
G01*
X191225Y80671D01*
X196674Y80671D01*
G74*
D01*
G03X198247Y80933I1J4849*
G01*
G75*
D01*
G03X199820Y80671I1572J4587*
G01*
X199820Y80671D01*
X221820Y80671D01*
G74*
D01*
G03X223520Y80978I2J4849*
G01*
G75*
D01*
G03X225220Y80671I1698J4542*
G01*
X225220Y80671D01*
X230600Y80671D01*
X230600Y90900D01*
X226669Y90900D01*
X226669Y102140D01*
X230600Y102140D01*
X230600Y112369D01*
X225220Y112369D01*
G75*
D01*
G03X223520Y112062I-2J-4849*
G01*
G74*
D01*
G03X221820Y112369I1698J4542*
G01*
X221820Y112369D01*
X216320Y112369D01*
X216320Y131549D01*
X219202Y131549D01*
G75*
D01*
G03X224051Y136398I0J4849*
G01*
X224051Y136398D01*
X224051Y158242D01*
G74*
D01*
G03X219202Y163091I4849J0*
G01*
X219202Y163091D01*
X197358Y163091D01*
G75*
D01*
G03X192509Y158242I0J-4849*
G01*
X192509Y158242D01*
X192509Y136398D01*
G75*
D01*
G03X197358Y131549I4849J0*
G01*
X197358Y131549D01*
X200240Y131549D01*
X200240Y112369D01*
X199820Y112369D01*
G75*
D01*
G03X198247Y112107I-1J-4849*
G01*
G74*
D01*
G03X196674Y112369I1572J4587*
G01*
X196674Y112369D01*
X174674Y112369D01*
G75*
D01*
G03X172847Y112012I-1J-4849*
G01*
G74*
D01*
G03X171020Y112369I1826J4492*
G01*
X171020Y112369D01*
X168060Y112369D01*
X168060Y128750D01*
X180940Y141630D01*
G75*
D01*
G03X183300Y147320I-5679J5690*
G01*
X183300Y147320D01*
X183300Y166453D01*
G75*
D01*
G03X187120Y164591I3820J2987*
G01*
X187120Y164591D01*
X208920Y164591D01*
G74*
D01*
G03X211929Y165637I1J4849*
G01*
G75*
D01*
G03X215060Y164491I3131J3703*
G01*
X215060Y164491D01*
X237060Y164491D01*
G75*
D01*
G03X241909Y169340I0J4849*
G01*
X241909Y169340D01*
X241909Y189891D01*
X245840Y189891D01*
X245840Y200120D01*
X241909Y200120D01*
X241909Y211360D01*
X245840Y211360D01*
X245840Y221589D01*
X240460Y221589D01*
G75*
D01*
G03X238760Y221282I-2J-4849*
G01*
G74*
D01*
G03X237060Y221589I1698J4542*
G01*
X237060Y221589D01*
X215060Y221589D01*
G75*
D01*
G03X213769Y221414I0J-4849*
G01*
X213769Y221414D01*
X213769Y223100D01*
X395134Y223100D01*
G74*
D01*
G03X393169Y219202I2883J3898*
G01*
X393169Y219202D01*
X393169Y197358D01*
G75*
D01*
G03X398018Y192509I4849J0*
G01*
X398018Y192509D01*
X400900Y192509D01*
X400900Y177816D01*
G75*
D01*
G03X403255Y172115I8040J-16*
G01*
X403255Y172115D01*
X463084Y112286D01*
G74*
D01*
G03X462280Y112062I895J4766*
G01*
G74*
D01*
G03X460580Y112369I1698J4542*
G01*
X460580Y112369D01*
X455200Y112369D01*
X455200Y102140D01*
X459131Y102140D01*
X459131Y90900D01*
X455200Y90900D01*
X455200Y84351D01*
X451358Y84351D01*
G75*
D01*
G03X446509Y79502I0J-4849*
G01*
X446509Y79502D01*
X446509Y57658D01*
G75*
D01*
G03X451358Y52809I4849J0*
G01*
X451358Y52809D01*
X473202Y52809D01*
G75*
D01*
G03X478051Y57658I0J4849*
G01*
X478051Y57658D01*
X478051Y72981D01*
X480657Y75588D01*
G74*
D01*
G03X482997Y80671I5676J5693*
G01*
X482997Y80671D01*
X485980Y80671D01*
G75*
D01*
G03X490829Y85520I0J4849*
G01*
X490829Y85520D01*
X490829Y107520D01*
G74*
D01*
G03X485980Y112369I4849J0*
G01*
X485980Y112369D01*
X482997Y112369D01*
G74*
D01*
G03X480657Y117452I8017J610*
G01*
X480657Y117452D01*
X416980Y181130D01*
X416980Y192509D01*
X419862Y192509D01*
G75*
D01*
G03X424711Y197358I0J4849*
G01*
X424711Y197358D01*
X424711Y219202D01*
G74*
D01*
G03X422746Y223100I4849J0*
G01*
X422746Y223100D01*
X431800Y223100D01*
G74*
D01*
G03X437492Y225463I1J8040*
G01*
X437492Y225463D01*
X440017Y227988D01*
G74*
D01*
G03X442336Y232847I5677J5692*
G01*
X442336Y232847D01*
X470041Y260551D01*
X498437Y288948D01*
G75*
D01*
G03X500800Y294640I-5676J5693*
G01*
X500800Y294640D01*
X500800Y373355D01*
G74*
D01*
G03X492760Y381394I8040J1*
G01*
X492760Y381394D01*
X492745Y381394D01*
X492396Y381743D01*
G74*
D01*
G03X488878Y383806I5693J5676*
G01*
G75*
D01*
G03X486695Y384106I-2176J-7739*
G01*
X486695Y384106D01*
X370986Y384106D01*
G75*
D01*
G03X368096Y383568I2J-8040*
G01*
G74*
D01*
G03X365301Y381751I2889J7502*
G01*
X365301Y381751D01*
X352455Y368905D01*
G75*
D01*
G03X350100Y363207I5684J-5685*
G01*
X350100Y363207D01*
X350100Y361288D01*
X347142Y361288D01*
G75*
D01*
G03X345440Y360979I1J-4850*
G01*
G74*
D01*
G03X343738Y361288I1703J4540*
G01*
X343738Y361288D01*
X328262Y361288D01*
X320460Y369090D01*
X320460Y431365D01*
G75*
D01*
G03X321742Y431192I1284J4676*
G01*
X321742Y431192D01*
X343738Y431192D01*
G74*
D01*
G03X345440Y431501I1J4850*
G01*
G75*
D01*
G03X347142Y431192I1703J4540*
G01*
X347142Y431192D01*
X369138Y431192D01*
G74*
D01*
G03X370840Y431501I1J4850*
G01*
G75*
D01*
G03X372542Y431192I1703J4540*
G01*
X372542Y431192D01*
X377920Y431192D01*
X377920Y441420D01*
X373988Y441420D01*
X373988Y452660D01*
X377920Y452660D01*
X377920Y462888D01*
X373911Y462888D01*
X373911Y479451D01*
X378040Y479451D01*
X378040Y469234D01*
G75*
D01*
G03X380395Y463535I8040J-14*
G01*
X380395Y463535D01*
X382255Y461675D01*
G74*
D01*
G03X384752Y459979I5685J5684*
G01*
G74*
D01*
G03X389160Y456995I6456J4790*
G01*
X389160Y456995D01*
X389160Y452660D01*
X393092Y452660D01*
X393092Y441420D01*
X389160Y441420D01*
X389160Y431192D01*
X394538Y431192D01*
G74*
D01*
G03X396240Y431501I1J4850*
G01*
G75*
D01*
G03X397942Y431192I1703J4540*
G01*
X397942Y431192D01*
X419938Y431192D01*
G74*
D01*
G03X421640Y431501I1J4850*
G01*
G75*
D01*
G03X423342Y431192I1703J4540*
G01*
X423342Y431192D01*
X445338Y431192D01*
G74*
D01*
G03X447040Y431501I1J4850*
G01*
G75*
D01*
G03X448742Y431192I1703J4540*
G01*
X448742Y431192D01*
X470738Y431192D01*
G75*
D01*
G03X475588Y436042I0J4850*
G01*
X475588Y436042D01*
X475588Y458038D01*
G74*
D01*
G03X470738Y462888I4850J0*
G01*
X470738Y462888D01*
X467780Y462888D01*
X467780Y479451D01*
X470486Y479451D01*
G74*
D01*
G03X472313Y479808I1J4849*
G01*
G75*
D01*
G03X474140Y479451I1826J4492*
G01*
X474140Y479451D01*
X479520Y479451D01*
X479520Y489680D01*
X475335Y489680D01*
X475335Y500920D01*
X479520Y500920D01*
X479520Y504851D01*
X490760Y504851D01*
X490760Y500920D01*
X500989Y500920D01*
X500989Y506300D01*
G74*
D01*
G03X500682Y508000I4849J2*
G01*
G75*
D01*
G03X500989Y509700I-4542J1698*
G01*
X500989Y509700D01*
X500989Y531700D01*
G74*
D01*
G03X496140Y536549I4849J0*
G01*
X496140Y536549D01*
X474140Y536549D01*
G75*
D01*
G03X472440Y536242I-2J-4849*
G01*
G74*
D01*
G03X470740Y536549I1698J4542*
G01*
X470740Y536549D01*
X448740Y536549D01*
G75*
D01*
G03X447040Y536242I-2J-4849*
G01*
G74*
D01*
G03X445340Y536549I1698J4542*
G01*
X445340Y536549D01*
X423340Y536549D01*
G75*
D01*
G03X421640Y536242I-2J-4849*
G01*
G74*
D01*
G03X419940Y536549I1698J4542*
G01*
X419940Y536549D01*
X414560Y536549D01*
X414560Y526320D01*
X418491Y526320D01*
X418491Y515080D01*
X414560Y515080D01*
X414560Y511149D01*
X403320Y511149D01*
X403320Y515080D01*
X399389Y515080D01*
X399389Y526320D01*
X403320Y526320D01*
X403320Y536549D01*
X397940Y536549D01*
G75*
D01*
G03X396240Y536242I-2J-4849*
G01*
G74*
D01*
G03X394540Y536549I1698J4542*
G01*
X394540Y536549D01*
X372540Y536549D01*
G75*
D01*
G03X367691Y531700I0J-4849*
G01*
X367691Y531700D01*
X367691Y528740D01*
X342908Y528740D01*
G75*
D01*
G03X337215Y526385I-8J-8040*
G01*
X337215Y526385D01*
X327055Y516225D01*
G75*
D01*
G03X324700Y510530I5684J-5685*
G01*
D02*
G37*
%LPC*%
G36*
X403940Y520700D02*
G75*
D01*
G03X403940Y520700I5000J0*
G01*
D02*
G37*
G36*
X231220Y96520D02*
G75*
D01*
G03X231220Y96520I5000J0*
G01*
D02*
G37*
G36*
X246460Y205740D02*
G75*
D01*
G03X246460Y205740I5000J0*
G01*
D02*
G37*
G36*
X496140Y479451D02*
G75*
D01*
G03X500989Y484300I0J4849*
G01*
X500989Y484300D01*
X500989Y489680D01*
X490760Y489680D01*
X490760Y479451D01*
X496140Y479451D01*
D02*
G37*
G36*
X378540Y447040D02*
G75*
D01*
G03X378540Y447040I5000J0*
G01*
D02*
G37*
G36*
X480140Y495300D02*
G75*
D01*
G03X480140Y495300I5000J0*
G01*
D02*
G37*
G36*
X444580Y96520D02*
G75*
D01*
G03X444580Y96520I5000J0*
G01*
D02*
G37*
%LPD*%
G36*
X137769Y499640D02*
X137769Y499640D01*
X137769Y514919D01*
X150750Y527900D01*
X293850Y527900D01*
X304380Y517370D01*
X304380Y365767D01*
G75*
D01*
G03X306735Y360075I8040J-7*
G01*
X306735Y360075D01*
X316892Y349918D01*
X316892Y334442D01*
G75*
D01*
G03X317908Y331472I4850J0*
G01*
G74*
D01*
G03X316891Y328500I3832J2971*
G01*
X316891Y328500D01*
X316891Y322968D01*
G74*
D01*
G03X315722Y323111I1169J4706*
G01*
X315722Y323111D01*
X309289Y323111D01*
X307760Y324640D01*
X307760Y350520D01*
G74*
D01*
G03X305397Y356212I8040J1*
G01*
X305397Y356212D01*
X268144Y393466D01*
X268144Y393466D01*
X246992Y414617D01*
G74*
D01*
G03X241300Y416980I5693J5676*
G01*
X241300Y416980D01*
X213769Y416980D01*
X213769Y419840D01*
G74*
D01*
G03X213423Y421640I4849J1*
G01*
G75*
D01*
G03X213769Y423440I-4503J1799*
G01*
X213769Y423440D01*
X213769Y445240D01*
G74*
D01*
G03X213423Y447040I4849J1*
G01*
G75*
D01*
G03X213769Y448840I-4503J1799*
G01*
X213769Y448840D01*
X213769Y469466D01*
G75*
D01*
G03X215060Y469291I1291J4674*
G01*
X215060Y469291D01*
X237060Y469291D01*
G75*
D01*
G03X241909Y474140I0J4849*
G01*
X241909Y474140D01*
X241909Y496140D01*
G74*
D01*
G03X241602Y497840I4849J2*
G01*
G75*
D01*
G03X241909Y499540I-4542J1698*
G01*
X241909Y499540D01*
X241909Y521540D01*
G74*
D01*
G03X237060Y526389I4849J0*
G01*
X237060Y526389D01*
X215060Y526389D01*
G75*
D01*
G03X211929Y525243I0J-4849*
G01*
G74*
D01*
G03X208920Y526289I3008J3803*
G01*
X208920Y526289D01*
X187120Y526289D01*
G75*
D01*
G03X182271Y521440I0J-4849*
G01*
X182271Y521440D01*
X182271Y499640D01*
G75*
D01*
G03X182617Y497840I4849J-1*
G01*
G74*
D01*
G03X182271Y496040I4503J1799*
G01*
X182271Y496040D01*
X182271Y474240D01*
G75*
D01*
G03X182617Y472440I4849J-1*
G01*
G74*
D01*
G03X182271Y470640I4503J1799*
G01*
X182271Y470640D01*
X182271Y467780D01*
X175260Y467780D01*
G75*
D01*
G03X173257Y467526I2J-8040*
G01*
G74*
D01*
G03X169575Y465425I2002J7786*
G01*
X169575Y465425D01*
X162980Y458830D01*
X162980Y462002D01*
G74*
D01*
G03X160617Y467694I8040J1*
G01*
X160617Y467694D01*
X152988Y475323D01*
G74*
D01*
G03X147296Y477686I5693J5676*
G01*
X147296Y477686D01*
X146471Y477686D01*
G74*
D01*
G03X145325Y479124I6819J4259*
G01*
X145325Y479124D01*
X141404Y483045D01*
G74*
D01*
G03X137769Y485142I5695J5673*
G01*
X137769Y485142D01*
X137769Y496040D01*
G74*
D01*
G03X137423Y497840I4849J1*
G01*
G75*
D01*
G03X137769Y499640I-4503J1799*
G01*
D02*
G37*
G36*
X137769Y267440D02*
X137769Y267440D01*
X137769Y245640D01*
G75*
D01*
G02X137423Y243840I-4849J-1*
G01*
G74*
D01*
G02X137769Y242040I4503J1799*
G01*
X137769Y242040D01*
X137769Y220240D01*
G75*
D01*
G02X137423Y218440I-4849J-1*
G01*
G74*
D01*
G02X137769Y216640I4503J1799*
G01*
X137769Y216640D01*
X137769Y194840D01*
G75*
D01*
G02X137423Y193040I-4849J-1*
G01*
G74*
D01*
G02X137769Y191240I4503J1799*
G01*
X137769Y191240D01*
X137769Y169440D01*
G75*
D01*
G02X132920Y164591I-4849J0*
G01*
X132920Y164591D01*
X111120Y164591D01*
G75*
D01*
G02X108111Y165637I-1J4849*
G01*
G74*
D01*
G02X104980Y164491I3131J3703*
G01*
X104980Y164491D01*
X82980Y164491D01*
G75*
D01*
G02X79160Y166353I0J4849*
G01*
X79160Y166353D01*
X79160Y133493D01*
X131660Y80992D01*
X131660Y126984D01*
G75*
D01*
G02X134015Y132685I8040J16*
G01*
X134015Y132685D01*
X140669Y139339D01*
G75*
D01*
G02X139694Y139280I-972J7980*
G01*
X139694Y139280D01*
X132611Y139280D01*
X132611Y136398D01*
G75*
D01*
G02X127762Y131549I-4849J0*
G01*
X127762Y131549D01*
X105918Y131549D01*
G75*
D01*
G02X101069Y136398I0J4849*
G01*
X101069Y136398D01*
X101069Y158242D01*
G75*
D01*
G02X105918Y163091I4849J0*
G01*
X105918Y163091D01*
X127762Y163091D01*
G74*
D01*
G02X132611Y158242I0J4849*
G01*
X132611Y158242D01*
X132611Y155360D01*
X136370Y155360D01*
X146900Y165890D01*
X146900Y458671D01*
X143965Y461606D01*
X141556Y461606D01*
G75*
D01*
G02X137769Y462546I-14J8040*
G01*
X137769Y462546D01*
X137769Y448840D01*
G75*
D01*
G02X137423Y447040I-4849J-1*
G01*
G74*
D01*
G02X137769Y445240I4503J1799*
G01*
X137769Y445240D01*
X137769Y423440D01*
G75*
D01*
G02X137423Y421640I-4849J-1*
G01*
G74*
D01*
G02X137769Y419840I4503J1799*
G01*
X137769Y419840D01*
X137769Y398040D01*
G75*
D01*
G02X137423Y396240I-4849J-1*
G01*
G74*
D01*
G02X137769Y394440I4503J1799*
G01*
X137769Y394440D01*
X137769Y372640D01*
G75*
D01*
G02X137423Y370840I-4849J-1*
G01*
G74*
D01*
G02X137769Y369040I4503J1799*
G01*
X137769Y369040D01*
X137769Y347240D01*
G75*
D01*
G02X137423Y345440I-4849J-1*
G01*
G74*
D01*
G02X137769Y343640I4503J1799*
G01*
X137769Y343640D01*
X137769Y338325D01*
X127605Y338325D01*
X127605Y342391D01*
X116435Y342391D01*
X116435Y338325D01*
X106271Y338325D01*
X106271Y342466D01*
G74*
D01*
G02X104980Y342291I1291J4674*
G01*
X104980Y342291D01*
X88230Y342291D01*
X79160Y333220D01*
X79160Y321327D01*
G75*
D01*
G02X82980Y323189I3820J-2987*
G01*
X82980Y323189D01*
X104980Y323189D01*
G74*
D01*
G02X106271Y323014I0J4849*
G01*
X106271Y323014D01*
X106271Y327155D01*
X116435Y327155D01*
X116435Y323089D01*
X127605Y323089D01*
X127605Y327155D01*
X137769Y327155D01*
X137769Y321840D01*
G75*
D01*
G02X137423Y320040I-4849J-1*
G01*
G74*
D01*
G02X137769Y318240I4503J1799*
G01*
X137769Y318240D01*
X137769Y296440D01*
G75*
D01*
G02X137423Y294640I-4849J-1*
G01*
G74*
D01*
G02X137769Y292840I4503J1799*
G01*
X137769Y292840D01*
X137769Y271040D01*
G75*
D01*
G02X137423Y269240I-4849J-1*
G01*
G74*
D01*
G02X137769Y267440I4503J1799*
G01*
D02*
G37*
%LPC*%
G36*
X117020Y332740D02*
G75*
D01*
G02X117020Y332740I5000J0*
G01*
D02*
G37*
%LPD*%
G36*
X213769Y372640D02*
X213769Y372640D01*
X213769Y375500D01*
X248130Y375500D01*
X268144Y355486D01*
X271360Y352270D01*
X271360Y323111D01*
X268478Y323111D01*
G75*
D01*
G03X263629Y318262I0J-4849*
G01*
X263629Y318262D01*
X263629Y296418D01*
G75*
D01*
G03X268478Y291569I4849J0*
G01*
X268478Y291569D01*
X290322Y291569D01*
G74*
D01*
G03X292100Y291906I2J4849*
G01*
G75*
D01*
G03X293878Y291569I1776J4512*
G01*
X293878Y291569D01*
X315722Y291569D01*
G75*
D01*
G03X320571Y296418I0J4849*
G01*
X320571Y296418D01*
X320571Y301794D01*
G75*
D01*
G03X321740Y301651I1169J4706*
G01*
X321740Y301651D01*
X343740Y301651D01*
G74*
D01*
G03X345440Y301958I2J4849*
G01*
G75*
D01*
G03X347140Y301651I1698J4542*
G01*
X347140Y301651D01*
X369140Y301651D01*
G74*
D01*
G03X370840Y301958I2J4849*
G01*
G75*
D01*
G03X372540Y301651I1698J4542*
G01*
X372540Y301651D01*
X377920Y301651D01*
X377920Y311880D01*
X373989Y311880D01*
X373989Y323120D01*
X377920Y323120D01*
X377920Y329592D01*
X377920Y329592D01*
X377920Y339820D01*
X373988Y339820D01*
X373988Y351060D01*
X377920Y351060D01*
X377920Y361288D01*
X372542Y361288D01*
G75*
D01*
G03X370840Y360979I1J-4850*
G01*
G74*
D01*
G03X369138Y361288I1703J4540*
G01*
X369138Y361288D01*
X367577Y361288D01*
X374316Y368026D01*
X435396Y368026D01*
X428658Y361288D01*
X423342Y361288D01*
G75*
D01*
G03X421640Y360979I1J-4850*
G01*
G74*
D01*
G03X419938Y361288I1703J4540*
G01*
X419938Y361288D01*
X397942Y361288D01*
G75*
D01*
G03X396240Y360979I1J-4850*
G01*
G74*
D01*
G03X394538Y361288I1703J4540*
G01*
X394538Y361288D01*
X389160Y361288D01*
X389160Y351060D01*
X393092Y351060D01*
X393092Y339820D01*
X389160Y339820D01*
X389160Y329592D01*
X389160Y329592D01*
X389160Y323120D01*
X393091Y323120D01*
X393091Y311880D01*
X389160Y311880D01*
X389160Y301651D01*
X393169Y301651D01*
X393169Y282360D01*
X213769Y282360D01*
X213769Y291666D01*
G75*
D01*
G03X215060Y291491I1291J4674*
G01*
X215060Y291491D01*
X237060Y291491D01*
G75*
D01*
G03X241909Y296340I0J4849*
G01*
X241909Y296340D01*
X241909Y318340D01*
G74*
D01*
G03X241602Y320040I4849J2*
G01*
G75*
D01*
G03X241909Y321740I-4542J1698*
G01*
X241909Y321740D01*
X241909Y343740D01*
G74*
D01*
G03X237060Y348589I4849J0*
G01*
X237060Y348589D01*
X215060Y348589D01*
G75*
D01*
G03X213769Y348414I0J-4849*
G01*
X213769Y348414D01*
X213769Y352555D01*
X203605Y352555D01*
X203605Y348489D01*
X192435Y348489D01*
X192435Y352555D01*
X183300Y352555D01*
X183300Y363725D01*
X192435Y363725D01*
X192435Y367791D01*
X203605Y367791D01*
X203605Y363725D01*
X213769Y363725D01*
X213769Y369040D01*
G74*
D01*
G03X213423Y370840I4849J1*
G01*
G75*
D01*
G03X213769Y372640I-4503J1799*
G01*
D02*
G37*
%LPC*%
G36*
X193020Y358140D02*
G75*
D01*
G03X193020Y358140I5000J0*
G01*
D02*
G37*
G36*
X378540Y345440D02*
G75*
D01*
G03X378540Y345440I5000J0*
G01*
D02*
G37*
G36*
X378540Y317500D02*
G75*
D01*
G03X378540Y317500I5000J0*
G01*
D02*
G37*
%LPD*%
G36*
X111120Y526289D02*
X111120Y526289D01*
X126399Y526289D01*
X141361Y541251D01*
X37842Y541251D01*
X37842Y412432D01*
X42570Y417160D01*
X42575Y417165D01*
X42575Y417165D01*
X90835Y465425D01*
G74*
D01*
G02X94109Y467410I5685J5684*
G01*
G75*
D01*
G02X96520Y467780I2411J-7670*
G01*
X96520Y467780D01*
X106271Y467780D01*
X106271Y470640D01*
G74*
D01*
G02X106617Y472440I4849J1*
G01*
G75*
D01*
G02X106271Y474240I4503J1799*
G01*
X106271Y474240D01*
X106271Y496040D01*
G74*
D01*
G02X106617Y497840I4849J1*
G01*
G75*
D01*
G02X106271Y499640I4503J1799*
G01*
X106271Y499640D01*
X106271Y521440D01*
G75*
D01*
G02X111120Y526289I4849J0*
G01*
D02*
G37*
G36*
X37842Y30249D02*
X37842Y30249D01*
X113321Y30249D01*
X37842Y105728D01*
X37842Y30249D01*
D02*
G37*
G36*
X293370Y191046D02*
G75*
D01*
G03X296418Y189969I3047J3772*
G01*
X296418Y189969D01*
X296760Y189969D01*
X296760Y147336D01*
G75*
D01*
G03X299115Y141635I8040J-16*
G01*
X299115Y141635D01*
X328381Y112369D01*
X318101Y112369D01*
X287440Y143030D01*
X287440Y189969D01*
X290322Y189969D01*
G74*
D01*
G03X293370Y191046I1J4849*
G01*
D02*
G37*
G36*
X213769Y256960D02*
X213769Y256960D01*
X425930Y256960D01*
X429521Y260551D01*
X429521Y260551D01*
X435250Y266280D01*
X213769Y266280D01*
X213769Y256960D01*
D02*
G37*
G36*
X78131Y369140D02*
X78131Y369140D01*
X78131Y354931D01*
X69000Y345800D01*
X69000Y390370D01*
X79530Y400900D01*
X106271Y400900D01*
X106271Y399214D01*
G74*
D01*
G03X104980Y399389I1291J4674*
G01*
X104980Y399389D01*
X82980Y399389D01*
G75*
D01*
G03X78131Y394540I0J-4849*
G01*
X78131Y394540D01*
X78131Y372540D01*
G75*
D01*
G03X78438Y370840I4849J-2*
G01*
G74*
D01*
G03X78131Y369140I4542J1698*
G01*
D02*
G37*
G36*
X342369Y483362D02*
X342369Y483362D01*
X342369Y462888D01*
X340780Y462888D01*
X340780Y507210D01*
X346230Y512660D01*
X367691Y512660D01*
X367691Y509700D01*
G75*
D01*
G03X367998Y508000I4849J-2*
G01*
G74*
D01*
G03X367691Y506300I4542J1698*
G01*
X367691Y506300D01*
X367691Y488211D01*
X347218Y488211D01*
G75*
D01*
G03X342369Y483362I0J-4849*
G01*
D02*
G37*
G36*
X413180Y80671D02*
X413180Y80671D01*
X416140Y80671D01*
X416140Y71910D01*
X387830Y43600D01*
X385170Y43600D01*
X404457Y62888D01*
G75*
D01*
G03X406820Y68580I-5676J5693*
G01*
X406820Y68580D01*
X406820Y80671D01*
X409780Y80671D01*
G74*
D01*
G03X411480Y80978I2J4849*
G01*
G75*
D01*
G03X413180Y80671I1698J4542*
G01*
D02*
G37*
G36*
X362380Y80671D02*
X362380Y80671D01*
X365340Y80671D01*
X365340Y79530D01*
X349730Y63920D01*
X310411Y63920D01*
X310411Y80814D01*
G75*
D01*
G03X311580Y80671I1169J4706*
G01*
X311580Y80671D01*
X333580Y80671D01*
G74*
D01*
G03X335280Y80978I2J4849*
G01*
G75*
D01*
G03X336980Y80671I1698J4542*
G01*
X336980Y80671D01*
X358980Y80671D01*
G74*
D01*
G03X360680Y80978I2J4849*
G01*
G75*
D01*
G03X362380Y80671I1698J4542*
G01*
D02*
G37*
G36*
X387780Y80671D02*
X387780Y80671D01*
X390740Y80671D01*
X390740Y71910D01*
X372590Y53760D01*
X362310Y53760D01*
X379057Y70508D01*
G75*
D01*
G03X381420Y76200I-5676J5693*
G01*
X381420Y76200D01*
X381420Y80671D01*
X384380Y80671D01*
G74*
D01*
G03X386080Y80978I2J4849*
G01*
G75*
D01*
G03X387780Y80671I1698J4542*
G01*
D02*
G37*
G36*
X445340Y301651D02*
X445340Y301651D01*
X424711Y301651D01*
X424711Y282360D01*
X433550Y282360D01*
X443895Y292705D01*
G74*
D01*
G02X448747Y295016I5684J5685*
G01*
X448747Y295016D01*
X451700Y297970D01*
X451700Y301651D01*
X448740Y301651D01*
G75*
D01*
G02X447040Y301958I-2J4849*
G01*
G74*
D01*
G02X445340Y301651I1698J4542*
G01*
D02*
G37*
G36*
X426115Y239365D02*
X426115Y239365D01*
X427630Y240880D01*
X213769Y240880D01*
X213769Y239180D01*
X425936Y239180D01*
G74*
D01*
G02X426115Y239365I5866J5497*
G01*
D02*
G37*
G36*
X213769Y394440D02*
G74*
D01*
G03X213423Y396240I4849J1*
G01*
G75*
D01*
G03X213769Y398040I-4503J1799*
G01*
X213769Y398040D01*
X213769Y400900D01*
X237970Y400900D01*
X247290Y391580D01*
X213769Y391580D01*
X213769Y394440D01*
D02*
G37*
G36*
X106271Y423440D02*
G75*
D01*
G03X106617Y421640I4849J-1*
G01*
G74*
D01*
G03X106271Y419840I4503J1799*
G01*
X106271Y419840D01*
X106271Y416980D01*
X80370Y416980D01*
X89690Y426300D01*
X106271Y426300D01*
X106271Y423440D01*
D02*
G37*
G36*
X448742Y462888D02*
X448742Y462888D01*
X451700Y462888D01*
X451700Y479451D01*
X448486Y479451D01*
G75*
D01*
G02X446913Y479713I-1J4849*
G01*
G74*
D01*
G02X445340Y479451I1572J4587*
G01*
X445340Y479451D01*
X442380Y479451D01*
X442380Y462888D01*
X445338Y462888D01*
G74*
D01*
G02X447040Y462579I1J4850*
G01*
G75*
D01*
G02X448742Y462888I1703J-4540*
G01*
D02*
G37*
G36*
X106271Y448840D02*
G75*
D01*
G03X106617Y447040I4849J-1*
G01*
G74*
D01*
G03X106271Y445240I4503J1799*
G01*
X106271Y445240D01*
X106271Y442380D01*
X90530Y442380D01*
X99850Y451700D01*
X106271Y451700D01*
X106271Y448840D01*
D02*
G37*
G36*
X291680Y322917D02*
X291680Y322917D01*
X291680Y347190D01*
X287440Y351430D01*
X287440Y323111D01*
X290322Y323111D01*
G74*
D01*
G02X291680Y322917I0J4849*
G01*
D02*
G37*
G36*
X182271Y448840D02*
G75*
D01*
G03X182617Y447040I4849J-1*
G01*
G74*
D01*
G03X182271Y445240I4503J1799*
G01*
X182271Y445240D01*
X182271Y442380D01*
X177800Y442380D01*
G75*
D01*
G03X177162Y442354I8J-8040*
G01*
G74*
D01*
G03X173140Y440891I638J8014*
G01*
X173140Y440891D01*
X173140Y446250D01*
X178590Y451700D01*
X182271Y451700D01*
X182271Y448840D01*
D02*
G37*
G36*
X403456Y472506D02*
X403456Y472506D01*
X403456Y478155D01*
G74*
D01*
G02X403632Y479451I4849J1*
G01*
X403632Y479451D01*
X397940Y479451D01*
G75*
D01*
G02X396240Y479758I-2J4849*
G01*
G74*
D01*
G02X394540Y479451I1698J4542*
G01*
X394540Y479451D01*
X394120Y479451D01*
X394120Y473831D01*
G74*
D01*
G02X395043Y473036I4770J6471*
G01*
X395043Y473036D01*
X395270Y472809D01*
X401269Y472809D01*
G74*
D01*
G02X403456Y472506I1J8040*
G01*
D02*
G37*
G36*
X147740Y112197D02*
G75*
D01*
G02X149020Y112369I1280J-4676*
G01*
X149020Y112369D01*
X151980Y112369D01*
X151980Y127910D01*
X147740Y123670D01*
X147740Y112197D01*
D02*
G37*
G36*
X470740Y301651D02*
X470740Y301651D01*
X467780Y301651D01*
X467780Y296270D01*
X474560Y303050D01*
X474560Y303513D01*
G74*
D01*
G02X470740Y301651I3820J2987*
G01*
D02*
G37*
G36*
X278869Y65620D02*
X278869Y65620D01*
X278869Y63920D01*
X270870Y63920D01*
X272570Y65620D01*
X278869Y65620D01*
D02*
G37*
G54D11*
X37842Y30249D02*
X113321Y30249D01*
X37842Y105728D01*
X37842Y30249D01*
X403940Y520700D02*
G75*
D01*
G03X403940Y520700I5000J0*
G01*
X231220Y96520D02*
G75*
D01*
G03X231220Y96520I5000J0*
G01*
X246460Y205740D02*
G75*
D01*
G03X246460Y205740I5000J0*
G01*
X496140Y479451D02*
G75*
D01*
G03X500989Y484300I0J4849*
G01*
X500989Y489680D01*
X490760Y489680D01*
X490760Y479451D01*
X496140Y479451D01*
X378540Y447040D02*
G75*
D01*
G03X378540Y447040I5000J0*
G01*
X480140Y495300D02*
G75*
D01*
G03X480140Y495300I5000J0*
G01*
X444580Y96520D02*
G75*
D01*
G03X444580Y96520I5000J0*
G01*
X324700Y510530D02*
X324700Y462888D01*
X321742Y462888D01*
G75*
D01*
G03X320460Y462715I2J-4850*
G01*
X320460Y520700D01*
G74*
D01*
G03X318097Y526392I8040J1*
G01*
X303239Y541251D01*
X505718Y541251D01*
X505718Y30249D01*
X397219Y30249D01*
X429857Y62888D01*
G75*
D01*
G03X432220Y68580I-5676J5693*
G01*
X432220Y80671D01*
X435180Y80671D01*
G74*
D01*
G03X436880Y80978I2J4849*
G01*
G75*
D01*
G03X438580Y80671I1698J4542*
G01*
X443960Y80671D01*
X443960Y90900D01*
X440029Y90900D01*
X440029Y102140D01*
X443960Y102140D01*
X443960Y112369D01*
X438580Y112369D01*
G75*
D01*
G03X436880Y112062I-2J-4849*
G01*
G74*
D01*
G03X435180Y112369I1698J4542*
G01*
X413180Y112369D01*
G75*
D01*
G03X411480Y112062I-2J-4849*
G01*
G74*
D01*
G03X409780Y112369I1698J4542*
G01*
X387780Y112369D01*
G75*
D01*
G03X386080Y112062I-2J-4849*
G01*
G74*
D01*
G03X384380Y112369I1698J4542*
G01*
X362380Y112369D01*
G75*
D01*
G03X360680Y112062I-2J-4849*
G01*
G74*
D01*
G03X358980Y112369I1698J4542*
G01*
X351121Y112369D01*
X312840Y150650D01*
X312840Y189969D01*
X318262Y189969D01*
G75*
D01*
G03X323111Y194818I0J4849*
G01*
X323111Y216662D01*
G74*
D01*
G03X318262Y221511I4849J0*
G01*
X296418Y221511D01*
G75*
D01*
G03X293370Y220434I-1J-4849*
G01*
G74*
D01*
G03X290322Y221511I3047J3772*
G01*
X268478Y221511D01*
G75*
D01*
G03X265518Y220503I0J-4849*
G01*
G74*
D01*
G03X262460Y221589I3058J3762*
G01*
X257080Y221589D01*
X257080Y211360D01*
X263629Y211360D01*
X263629Y200120D01*
X257080Y200120D01*
X257080Y189891D01*
X262460Y189891D01*
G74*
D01*
G03X265518Y190977I0J4849*
G01*
G75*
D01*
G03X268478Y189969I2960J3841*
G01*
X271360Y189969D01*
X271360Y139716D01*
G75*
D01*
G03X273715Y134015I8040J-16*
G01*
X306731Y100999D01*
X306731Y89288D01*
G74*
D01*
G03X305562Y89431I1169J4706*
G01*
X283718Y89431D01*
G75*
D01*
G03X278869Y84582I0J-4849*
G01*
X278869Y81700D01*
X275607Y81700D01*
G75*
D01*
G03X277469Y85520I-2987J3820*
G01*
X277469Y107520D01*
G74*
D01*
G03X272620Y112369I4849J0*
G01*
X250620Y112369D01*
G75*
D01*
G03X248920Y112062I-2J-4849*
G01*
G74*
D01*
G03X247220Y112369I1698J4542*
G01*
X241840Y112369D01*
X241840Y102140D01*
X245771Y102140D01*
X245771Y90900D01*
X241840Y90900D01*
X241840Y80671D01*
X247220Y80671D01*
G74*
D01*
G03X248920Y80978I2J4849*
G01*
G75*
D01*
G03X250620Y80671I1698J4542*
G01*
X253580Y80671D01*
X253580Y74080D01*
X184637Y74080D01*
X191097Y80541D01*
G74*
D01*
G03X191225Y80671I5664J5705*
G01*
X196674Y80671D01*
G74*
D01*
G03X198247Y80933I1J4849*
G01*
G75*
D01*
G03X199820Y80671I1572J4587*
G01*
X221820Y80671D01*
G74*
D01*
G03X223520Y80978I2J4849*
G01*
G75*
D01*
G03X225220Y80671I1698J4542*
G01*
X230600Y80671D01*
X230600Y90900D01*
X226669Y90900D01*
X226669Y102140D01*
X230600Y102140D01*
X230600Y112369D01*
X225220Y112369D01*
G75*
D01*
G03X223520Y112062I-2J-4849*
G01*
G74*
D01*
G03X221820Y112369I1698J4542*
G01*
X216320Y112369D01*
X216320Y131549D01*
X219202Y131549D01*
G75*
D01*
G03X224051Y136398I0J4849*
G01*
X224051Y158242D01*
G74*
D01*
G03X219202Y163091I4849J0*
G01*
X197358Y163091D01*
G75*
D01*
G03X192509Y158242I0J-4849*
G01*
X192509Y136398D01*
G75*
D01*
G03X197358Y131549I4849J0*
G01*
X200240Y131549D01*
X200240Y112369D01*
X199820Y112369D01*
G75*
D01*
G03X198247Y112107I-1J-4849*
G01*
G74*
D01*
G03X196674Y112369I1572J4587*
G01*
X174674Y112369D01*
G75*
D01*
G03X172847Y112012I-1J-4849*
G01*
G74*
D01*
G03X171020Y112369I1826J4492*
G01*
X168060Y112369D01*
X168060Y128750D01*
X180940Y141630D01*
G75*
D01*
G03X183300Y147320I-5679J5690*
G01*
X183300Y166453D01*
G75*
D01*
G03X187120Y164591I3820J2987*
G01*
X208920Y164591D01*
G74*
D01*
G03X211929Y165637I1J4849*
G01*
G75*
D01*
G03X215060Y164491I3131J3703*
G01*
X237060Y164491D01*
G75*
D01*
G03X241909Y169340I0J4849*
G01*
X241909Y189891D01*
X245840Y189891D01*
X245840Y200120D01*
X241909Y200120D01*
X241909Y211360D01*
X245840Y211360D01*
X245840Y221589D01*
X240460Y221589D01*
G75*
D01*
G03X238760Y221282I-2J-4849*
G01*
G74*
D01*
G03X237060Y221589I1698J4542*
G01*
X215060Y221589D01*
G75*
D01*
G03X213769Y221414I0J-4849*
G01*
X213769Y223100D01*
X395134Y223100D01*
G74*
D01*
G03X393169Y219202I2883J3898*
G01*
X393169Y197358D01*
G75*
D01*
G03X398018Y192509I4849J0*
G01*
X400900Y192509D01*
X400900Y177816D01*
G75*
D01*
G03X403255Y172115I8040J-16*
G01*
X463084Y112286D01*
G74*
D01*
G03X462280Y112062I895J4766*
G01*
G74*
D01*
G03X460580Y112369I1698J4542*
G01*
X455200Y112369D01*
X455200Y102140D01*
X459131Y102140D01*
X459131Y90900D01*
X455200Y90900D01*
X455200Y84351D01*
X451358Y84351D01*
G75*
D01*
G03X446509Y79502I0J-4849*
G01*
X446509Y57658D01*
G75*
D01*
G03X451358Y52809I4849J0*
G01*
X473202Y52809D01*
G75*
D01*
G03X478051Y57658I0J4849*
G01*
X478051Y72981D01*
X480657Y75588D01*
G74*
D01*
G03X482997Y80671I5676J5693*
G01*
X485980Y80671D01*
G75*
D01*
G03X490829Y85520I0J4849*
G01*
X490829Y107520D01*
G74*
D01*
G03X485980Y112369I4849J0*
G01*
X482997Y112369D01*
G74*
D01*
G03X480657Y117452I8017J610*
G01*
X416980Y181130D01*
X416980Y192509D01*
X419862Y192509D01*
G75*
D01*
G03X424711Y197358I0J4849*
G01*
X424711Y219202D01*
G74*
D01*
G03X422746Y223100I4849J0*
G01*
X431800Y223100D01*
G74*
D01*
G03X437492Y225463I1J8040*
G01*
X440017Y227988D01*
G74*
D01*
G03X442336Y232847I5677J5692*
G01*
X470041Y260551D01*
X498437Y288948D01*
G75*
D01*
G03X500800Y294640I-5676J5693*
G01*
X500800Y373355D01*
G74*
D01*
G03X492760Y381394I8040J1*
G01*
X492745Y381394D01*
X492396Y381743D01*
G74*
D01*
G03X488878Y383806I5693J5676*
G01*
G75*
D01*
G03X486695Y384106I-2176J-7739*
G01*
X370986Y384106D01*
G75*
D01*
G03X368096Y383568I2J-8040*
G01*
G74*
D01*
G03X365301Y381751I2889J7502*
G01*
X352455Y368905D01*
G75*
D01*
G03X350100Y363207I5684J-5685*
G01*
X350100Y361288D01*
X347142Y361288D01*
G75*
D01*
G03X345440Y360979I1J-4850*
G01*
G74*
D01*
G03X343738Y361288I1703J4540*
G01*
X328262Y361288D01*
X320460Y369090D01*
X320460Y431365D01*
G75*
D01*
G03X321742Y431192I1284J4676*
G01*
X343738Y431192D01*
G74*
D01*
G03X345440Y431501I1J4850*
G01*
G75*
D01*
G03X347142Y431192I1703J4540*
G01*
X369138Y431192D01*
G74*
D01*
G03X370840Y431501I1J4850*
G01*
G75*
D01*
G03X372542Y431192I1703J4540*
G01*
X377920Y431192D01*
X377920Y441420D01*
X373988Y441420D01*
X373988Y452660D01*
X377920Y452660D01*
X377920Y462888D01*
X373911Y462888D01*
X373911Y479451D01*
X378040Y479451D01*
X378040Y469234D01*
G75*
D01*
G03X380395Y463535I8040J-14*
G01*
X382255Y461675D01*
G74*
D01*
G03X384752Y459979I5685J5684*
G01*
G74*
D01*
G03X389160Y456995I6456J4790*
G01*
X389160Y452660D01*
X393092Y452660D01*
X393092Y441420D01*
X389160Y441420D01*
X389160Y431192D01*
X394538Y431192D01*
G74*
D01*
G03X396240Y431501I1J4850*
G01*
G75*
D01*
G03X397942Y431192I1703J4540*
G01*
X419938Y431192D01*
G74*
D01*
G03X421640Y431501I1J4850*
G01*
G75*
D01*
G03X423342Y431192I1703J4540*
G01*
X445338Y431192D01*
G74*
D01*
G03X447040Y431501I1J4850*
G01*
G75*
D01*
G03X448742Y431192I1703J4540*
G01*
X470738Y431192D01*
G75*
D01*
G03X475588Y436042I0J4850*
G01*
X475588Y458038D01*
G74*
D01*
G03X470738Y462888I4850J0*
G01*
X467780Y462888D01*
X467780Y479451D01*
X470486Y479451D01*
G74*
D01*
G03X472313Y479808I1J4849*
G01*
G75*
D01*
G03X474140Y479451I1826J4492*
G01*
X479520Y479451D01*
X479520Y489680D01*
X475335Y489680D01*
X475335Y500920D01*
X479520Y500920D01*
X479520Y504851D01*
X490760Y504851D01*
X490760Y500920D01*
X500989Y500920D01*
X500989Y506300D01*
G74*
D01*
G03X500682Y508000I4849J2*
G01*
G75*
D01*
G03X500989Y509700I-4542J1698*
G01*
X500989Y531700D01*
G74*
D01*
G03X496140Y536549I4849J0*
G01*
X474140Y536549D01*
G75*
D01*
G03X472440Y536242I-2J-4849*
G01*
G74*
D01*
G03X470740Y536549I1698J4542*
G01*
X448740Y536549D01*
G75*
D01*
G03X447040Y536242I-2J-4849*
G01*
G74*
D01*
G03X445340Y536549I1698J4542*
G01*
X423340Y536549D01*
G75*
D01*
G03X421640Y536242I-2J-4849*
G01*
G74*
D01*
G03X419940Y536549I1698J4542*
G01*
X414560Y536549D01*
X414560Y526320D01*
X418491Y526320D01*
X418491Y515080D01*
X414560Y515080D01*
X414560Y511149D01*
X403320Y511149D01*
X403320Y515080D01*
X399389Y515080D01*
X399389Y526320D01*
X403320Y526320D01*
X403320Y536549D01*
X397940Y536549D01*
G75*
D01*
G03X396240Y536242I-2J-4849*
G01*
G74*
D01*
G03X394540Y536549I1698J4542*
G01*
X372540Y536549D01*
G75*
D01*
G03X367691Y531700I0J-4849*
G01*
X367691Y528740D01*
X342908Y528740D01*
G75*
D01*
G03X337215Y526385I-8J-8040*
G01*
X327055Y516225D01*
G75*
D01*
G03X324700Y510530I5684J-5685*
G01*
X413180Y80671D02*
X416140Y80671D01*
X416140Y71910D01*
X387830Y43600D01*
X385170Y43600D01*
X404457Y62888D01*
G75*
D01*
G03X406820Y68580I-5676J5693*
G01*
X406820Y80671D01*
X409780Y80671D01*
G74*
D01*
G03X411480Y80978I2J4849*
G01*
G75*
D01*
G03X413180Y80671I1698J4542*
G01*
X278869Y65620D02*
X278869Y63920D01*
X270870Y63920D01*
X272570Y65620D01*
X278869Y65620D01*
X362380Y80671D02*
X365340Y80671D01*
X365340Y79530D01*
X349730Y63920D01*
X310411Y63920D01*
X310411Y80814D01*
G75*
D01*
G03X311580Y80671I1169J4706*
G01*
X333580Y80671D01*
G74*
D01*
G03X335280Y80978I2J4849*
G01*
G75*
D01*
G03X336980Y80671I1698J4542*
G01*
X358980Y80671D01*
G74*
D01*
G03X360680Y80978I2J4849*
G01*
G75*
D01*
G03X362380Y80671I1698J4542*
G01*
X387780Y80671D02*
X390740Y80671D01*
X390740Y71910D01*
X372590Y53760D01*
X362310Y53760D01*
X379057Y70508D01*
G75*
D01*
G03X381420Y76200I-5676J5693*
G01*
X381420Y80671D01*
X384380Y80671D01*
G74*
D01*
G03X386080Y80978I2J4849*
G01*
G75*
D01*
G03X387780Y80671I1698J4542*
G01*
X117020Y332740D02*
G75*
D01*
G02X117020Y332740I5000J0*
G01*
X137769Y267440D02*
X137769Y245640D01*
G75*
D01*
G02X137423Y243840I-4849J-1*
G01*
G74*
D01*
G02X137769Y242040I4503J1799*
G01*
X137769Y220240D01*
G75*
D01*
G02X137423Y218440I-4849J-1*
G01*
G74*
D01*
G02X137769Y216640I4503J1799*
G01*
X137769Y194840D01*
G75*
D01*
G02X137423Y193040I-4849J-1*
G01*
G74*
D01*
G02X137769Y191240I4503J1799*
G01*
X137769Y169440D01*
G75*
D01*
G02X132920Y164591I-4849J0*
G01*
X111120Y164591D01*
G75*
D01*
G02X108111Y165637I-1J4849*
G01*
G74*
D01*
G02X104980Y164491I3131J3703*
G01*
X82980Y164491D01*
G75*
D01*
G02X79160Y166353I0J4849*
G01*
X79160Y133493D01*
X131660Y80992D01*
X131660Y126984D01*
G75*
D01*
G02X134015Y132685I8040J16*
G01*
X140669Y139339D01*
G75*
D01*
G02X139694Y139280I-972J7980*
G01*
X132611Y139280D01*
X132611Y136398D01*
G75*
D01*
G02X127762Y131549I-4849J0*
G01*
X105918Y131549D01*
G75*
D01*
G02X101069Y136398I0J4849*
G01*
X101069Y158242D01*
G75*
D01*
G02X105918Y163091I4849J0*
G01*
X127762Y163091D01*
G74*
D01*
G02X132611Y158242I0J4849*
G01*
X132611Y155360D01*
X136370Y155360D01*
X146900Y165890D01*
X146900Y458671D01*
X143965Y461606D01*
X141556Y461606D01*
G75*
D01*
G02X137769Y462546I-14J8040*
G01*
X137769Y448840D01*
G75*
D01*
G02X137423Y447040I-4849J-1*
G01*
G74*
D01*
G02X137769Y445240I4503J1799*
G01*
X137769Y423440D01*
G75*
D01*
G02X137423Y421640I-4849J-1*
G01*
G74*
D01*
G02X137769Y419840I4503J1799*
G01*
X137769Y398040D01*
G75*
D01*
G02X137423Y396240I-4849J-1*
G01*
G74*
D01*
G02X137769Y394440I4503J1799*
G01*
X137769Y372640D01*
G75*
D01*
G02X137423Y370840I-4849J-1*
G01*
G74*
D01*
G02X137769Y369040I4503J1799*
G01*
X137769Y347240D01*
G75*
D01*
G02X137423Y345440I-4849J-1*
G01*
G74*
D01*
G02X137769Y343640I4503J1799*
G01*
X137769Y338325D01*
X127605Y338325D01*
X127605Y342391D01*
X116435Y342391D01*
X116435Y338325D01*
X106271Y338325D01*
X106271Y342466D01*
G74*
D01*
G02X104980Y342291I1291J4674*
G01*
X88230Y342291D01*
X79160Y333220D01*
X79160Y321327D01*
G75*
D01*
G02X82980Y323189I3820J-2987*
G01*
X104980Y323189D01*
G74*
D01*
G02X106271Y323014I0J4849*
G01*
X106271Y327155D01*
X116435Y327155D01*
X116435Y323089D01*
X127605Y323089D01*
X127605Y327155D01*
X137769Y327155D01*
X137769Y321840D01*
G75*
D01*
G02X137423Y320040I-4849J-1*
G01*
G74*
D01*
G02X137769Y318240I4503J1799*
G01*
X137769Y296440D01*
G75*
D01*
G02X137423Y294640I-4849J-1*
G01*
G74*
D01*
G02X137769Y292840I4503J1799*
G01*
X137769Y271040D01*
G75*
D01*
G02X137423Y269240I-4849J-1*
G01*
G74*
D01*
G02X137769Y267440I4503J1799*
G01*
X147740Y112197D02*
G75*
D01*
G02X149020Y112369I1280J-4676*
G01*
X151980Y112369D01*
X151980Y127910D01*
X147740Y123670D01*
X147740Y112197D01*
X293370Y191046D02*
G75*
D01*
G03X296418Y189969I3047J3772*
G01*
X296760Y189969D01*
X296760Y147336D01*
G75*
D01*
G03X299115Y141635I8040J-16*
G01*
X328381Y112369D01*
X318101Y112369D01*
X287440Y143030D01*
X287440Y189969D01*
X290322Y189969D01*
G74*
D01*
G03X293370Y191046I1J4849*
G01*
X426115Y239365D02*
X427630Y240880D01*
X213769Y240880D01*
X213769Y239180D01*
X425936Y239180D01*
G74*
D01*
G02X426115Y239365I5866J5497*
G01*
X213769Y256960D02*
X425930Y256960D01*
X429521Y260551D01*
X429521Y260551D01*
X435250Y266280D01*
X213769Y266280D01*
X213769Y256960D01*
X193020Y358140D02*
G75*
D01*
G03X193020Y358140I5000J0*
G01*
X378540Y345440D02*
G75*
D01*
G03X378540Y345440I5000J0*
G01*
X378540Y317500D02*
G75*
D01*
G03X378540Y317500I5000J0*
G01*
X213769Y372640D02*
X213769Y375500D01*
X248130Y375500D01*
X268144Y355486D01*
X271360Y352270D01*
X271360Y323111D01*
X268478Y323111D01*
G75*
D01*
G03X263629Y318262I0J-4849*
G01*
X263629Y296418D01*
G75*
D01*
G03X268478Y291569I4849J0*
G01*
X290322Y291569D01*
G74*
D01*
G03X292100Y291906I2J4849*
G01*
G75*
D01*
G03X293878Y291569I1776J4512*
G01*
X315722Y291569D01*
G75*
D01*
G03X320571Y296418I0J4849*
G01*
X320571Y301794D01*
G75*
D01*
G03X321740Y301651I1169J4706*
G01*
X343740Y301651D01*
G74*
D01*
G03X345440Y301958I2J4849*
G01*
G75*
D01*
G03X347140Y301651I1698J4542*
G01*
X369140Y301651D01*
G74*
D01*
G03X370840Y301958I2J4849*
G01*
G75*
D01*
G03X372540Y301651I1698J4542*
G01*
X377920Y301651D01*
X377920Y311880D01*
X373989Y311880D01*
X373989Y323120D01*
X377920Y323120D01*
X377920Y329592D01*
X377920Y329592D01*
X377920Y339820D01*
X373988Y339820D01*
X373988Y351060D01*
X377920Y351060D01*
X377920Y361288D01*
X372542Y361288D01*
G75*
D01*
G03X370840Y360979I1J-4850*
G01*
G74*
D01*
G03X369138Y361288I1703J4540*
G01*
X367577Y361288D01*
X374316Y368026D01*
X435396Y368026D01*
X428658Y361288D01*
X423342Y361288D01*
G75*
D01*
G03X421640Y360979I1J-4850*
G01*
G74*
D01*
G03X419938Y361288I1703J4540*
G01*
X397942Y361288D01*
G75*
D01*
G03X396240Y360979I1J-4850*
G01*
G74*
D01*
G03X394538Y361288I1703J4540*
G01*
X389160Y361288D01*
X389160Y351060D01*
X393092Y351060D01*
X393092Y339820D01*
X389160Y339820D01*
X389160Y329592D01*
X389160Y329592D01*
X389160Y323120D01*
X393091Y323120D01*
X393091Y311880D01*
X389160Y311880D01*
X389160Y301651D01*
X393169Y301651D01*
X393169Y282360D01*
X213769Y282360D01*
X213769Y291666D01*
G75*
D01*
G03X215060Y291491I1291J4674*
G01*
X237060Y291491D01*
G75*
D01*
G03X241909Y296340I0J4849*
G01*
X241909Y318340D01*
G74*
D01*
G03X241602Y320040I4849J2*
G01*
G75*
D01*
G03X241909Y321740I-4542J1698*
G01*
X241909Y343740D01*
G74*
D01*
G03X237060Y348589I4849J0*
G01*
X215060Y348589D01*
G75*
D01*
G03X213769Y348414I0J-4849*
G01*
X213769Y352555D01*
X203605Y352555D01*
X203605Y348489D01*
X192435Y348489D01*
X192435Y352555D01*
X183300Y352555D01*
X183300Y363725D01*
X192435Y363725D01*
X192435Y367791D01*
X203605Y367791D01*
X203605Y363725D01*
X213769Y363725D01*
X213769Y369040D01*
G74*
D01*
G03X213423Y370840I4849J1*
G01*
G75*
D01*
G03X213769Y372640I-4503J1799*
G01*
X445340Y301651D02*
X424711Y301651D01*
X424711Y282360D01*
X433550Y282360D01*
X443895Y292705D01*
G74*
D01*
G02X448747Y295016I5684J5685*
G01*
X451700Y297970D01*
X451700Y301651D01*
X448740Y301651D01*
G75*
D01*
G02X447040Y301958I-2J4849*
G01*
G74*
D01*
G02X445340Y301651I1698J4542*
G01*
X470740Y301651D02*
X467780Y301651D01*
X467780Y296270D01*
X474560Y303050D01*
X474560Y303513D01*
G74*
D01*
G02X470740Y301651I3820J2987*
G01*
X137769Y499640D02*
X137769Y514919D01*
X150750Y527900D01*
X293850Y527900D01*
X304380Y517370D01*
X304380Y365767D01*
G75*
D01*
G03X306735Y360075I8040J-7*
G01*
X316892Y349918D01*
X316892Y334442D01*
G75*
D01*
G03X317908Y331472I4850J0*
G01*
G74*
D01*
G03X316891Y328500I3832J2971*
G01*
X316891Y322968D01*
G74*
D01*
G03X315722Y323111I1169J4706*
G01*
X309289Y323111D01*
X307760Y324640D01*
X307760Y350520D01*
G74*
D01*
G03X305397Y356212I8040J1*
G01*
X268144Y393466D01*
X268144Y393466D01*
X246992Y414617D01*
G74*
D01*
G03X241300Y416980I5693J5676*
G01*
X213769Y416980D01*
X213769Y419840D01*
G74*
D01*
G03X213423Y421640I4849J1*
G01*
G75*
D01*
G03X213769Y423440I-4503J1799*
G01*
X213769Y445240D01*
G74*
D01*
G03X213423Y447040I4849J1*
G01*
G75*
D01*
G03X213769Y448840I-4503J1799*
G01*
X213769Y469466D01*
G75*
D01*
G03X215060Y469291I1291J4674*
G01*
X237060Y469291D01*
G75*
D01*
G03X241909Y474140I0J4849*
G01*
X241909Y496140D01*
G74*
D01*
G03X241602Y497840I4849J2*
G01*
G75*
D01*
G03X241909Y499540I-4542J1698*
G01*
X241909Y521540D01*
G74*
D01*
G03X237060Y526389I4849J0*
G01*
X215060Y526389D01*
G75*
D01*
G03X211929Y525243I0J-4849*
G01*
G74*
D01*
G03X208920Y526289I3008J3803*
G01*
X187120Y526289D01*
G75*
D01*
G03X182271Y521440I0J-4849*
G01*
X182271Y499640D01*
G75*
D01*
G03X182617Y497840I4849J-1*
G01*
G74*
D01*
G03X182271Y496040I4503J1799*
G01*
X182271Y474240D01*
G75*
D01*
G03X182617Y472440I4849J-1*
G01*
G74*
D01*
G03X182271Y470640I4503J1799*
G01*
X182271Y467780D01*
X175260Y467780D01*
G75*
D01*
G03X173257Y467526I2J-8040*
G01*
G74*
D01*
G03X169575Y465425I2002J7786*
G01*
X162980Y458830D01*
X162980Y462002D01*
G74*
D01*
G03X160617Y467694I8040J1*
G01*
X152988Y475323D01*
G74*
D01*
G03X147296Y477686I5693J5676*
G01*
X146471Y477686D01*
G74*
D01*
G03X145325Y479124I6819J4259*
G01*
X141404Y483045D01*
G74*
D01*
G03X137769Y485142I5695J5673*
G01*
X137769Y496040D01*
G74*
D01*
G03X137423Y497840I4849J1*
G01*
G75*
D01*
G03X137769Y499640I-4503J1799*
G01*
X291680Y322917D02*
X291680Y347190D01*
X287440Y351430D01*
X287440Y323111D01*
X290322Y323111D01*
G74*
D01*
G02X291680Y322917I0J4849*
G01*
X78131Y369140D02*
X78131Y354931D01*
X69000Y345800D01*
X69000Y390370D01*
X79530Y400900D01*
X106271Y400900D01*
X106271Y399214D01*
G74*
D01*
G03X104980Y399389I1291J4674*
G01*
X82980Y399389D01*
G75*
D01*
G03X78131Y394540I0J-4849*
G01*
X78131Y372540D01*
G75*
D01*
G03X78438Y370840I4849J-2*
G01*
G74*
D01*
G03X78131Y369140I4542J1698*
G01*
X213769Y394440D02*
G74*
D01*
G03X213423Y396240I4849J1*
G01*
G75*
D01*
G03X213769Y398040I-4503J1799*
G01*
X213769Y400900D01*
X237970Y400900D01*
X247290Y391580D01*
X213769Y391580D01*
X213769Y394440D01*
X111120Y526289D02*
X126399Y526289D01*
X141361Y541251D01*
X37842Y541251D01*
X37842Y412432D01*
X42570Y417160D01*
X42575Y417165D01*
X90835Y465425D01*
G74*
D01*
G02X94109Y467410I5685J5684*
G01*
G75*
D01*
G02X96520Y467780I2411J-7670*
G01*
X106271Y467780D01*
X106271Y470640D01*
G74*
D01*
G02X106617Y472440I4849J1*
G01*
G75*
D01*
G02X106271Y474240I4503J1799*
G01*
X106271Y496040D01*
G74*
D01*
G02X106617Y497840I4849J1*
G01*
G75*
D01*
G02X106271Y499640I4503J1799*
G01*
X106271Y521440D01*
G75*
D01*
G02X111120Y526289I4849J0*
G01*
X106271Y423440D02*
G75*
D01*
G03X106617Y421640I4849J-1*
G01*
G74*
D01*
G03X106271Y419840I4503J1799*
G01*
X106271Y416980D01*
X80370Y416980D01*
X89690Y426300D01*
X106271Y426300D01*
X106271Y423440D01*
X106271Y448840D02*
G75*
D01*
G03X106617Y447040I4849J-1*
G01*
G74*
D01*
G03X106271Y445240I4503J1799*
G01*
X106271Y442380D01*
X90530Y442380D01*
X99850Y451700D01*
X106271Y451700D01*
X106271Y448840D01*
X182271Y448840D02*
G75*
D01*
G03X182617Y447040I4849J-1*
G01*
G74*
D01*
G03X182271Y445240I4503J1799*
G01*
X182271Y442380D01*
X177800Y442380D01*
G75*
D01*
G03X177162Y442354I8J-8040*
G01*
G74*
D01*
G03X173140Y440891I638J8014*
G01*
X173140Y446250D01*
X178590Y451700D01*
X182271Y451700D01*
X182271Y448840D01*
X342369Y483362D02*
X342369Y462888D01*
X340780Y462888D01*
X340780Y507210D01*
X346230Y512660D01*
X367691Y512660D01*
X367691Y509700D01*
G75*
D01*
G03X367998Y508000I4849J-2*
G01*
G74*
D01*
G03X367691Y506300I4542J1698*
G01*
X367691Y488211D01*
X347218Y488211D01*
G75*
D01*
G03X342369Y483362I0J-4849*
G01*
X448742Y462888D02*
X451700Y462888D01*
X451700Y479451D01*
X448486Y479451D01*
G75*
D01*
G02X446913Y479713I-1J4849*
G01*
G74*
D01*
G02X445340Y479451I1572J4587*
G01*
X442380Y479451D01*
X442380Y462888D01*
X445338Y462888D01*
G74*
D01*
G02X447040Y462579I1J4850*
G01*
G75*
D01*
G02X448742Y462888I1703J-4540*
G01*
X403456Y472506D02*
X403456Y478155D01*
G74*
D01*
G02X403632Y479451I4849J1*
G01*
X397940Y479451D01*
G75*
D01*
G02X396240Y479758I-2J4849*
G01*
G74*
D01*
G02X394540Y479451I1698J4542*
G01*
X394120Y479451D01*
X394120Y473831D01*
G74*
D01*
G02X395043Y473036I4770J6471*
G01*
X395270Y472809D01*
X401269Y472809D01*
G74*
D01*
G02X403456Y472506I1J8040*
G01*
G54D12*
X40640Y114300D02*
X119380Y35560D01*
X391160Y35560D01*
X424180Y68580D01*
X60960Y124460D02*
X129540Y55880D01*
X50800Y119380D02*
X124460Y45720D01*
X129540Y55880D02*
X353060Y55880D01*
X124460Y45720D02*
X375920Y45720D01*
X353060Y55880D02*
X373380Y76200D01*
X375920Y45720D02*
X398780Y68580D01*
X71120Y130163D02*
X135243Y66040D01*
X139700Y80956D02*
X144456Y76200D01*
X175387Y76200D01*
X135243Y66040D02*
X261620Y66040D01*
X175387Y76200D02*
X185420Y86233D01*
X261620Y66040D02*
X261620Y96520D01*
X269240Y73660D02*
X294640Y73660D01*
X261620Y66040D02*
X269240Y73660D01*
X373380Y76200D02*
X373380Y96520D01*
X398780Y68580D02*
X398780Y96520D01*
X424180Y68580D02*
X424180Y96520D01*
X474980Y81280D02*
X459740Y66040D01*
X160020Y132080D02*
X160020Y96520D01*
X139700Y127000D02*
X139700Y80956D01*
X185420Y86233D02*
X185420Y96393D01*
X210820Y96520D02*
X208280Y99060D01*
X236220Y124460D02*
X236220Y96520D01*
X322580Y96520D02*
X279400Y139700D01*
X347980Y96520D02*
X347980Y104140D01*
X474980Y81280D02*
X474980Y111760D01*
X40640Y114300D02*
X40640Y403860D01*
X208280Y99060D02*
X208280Y147320D01*
X347980Y104140D02*
X304800Y147320D01*
X474980Y111760D02*
X408940Y177800D01*
X60960Y124460D02*
X60960Y393700D01*
X50800Y119380D02*
X50800Y398780D01*
X71120Y336550D02*
X71120Y130163D01*
X175260Y147320D02*
X160020Y132080D01*
X165100Y152400D02*
X139700Y127000D01*
X139700Y147320D02*
X116840Y147320D01*
X154940Y162560D02*
X139700Y147320D01*
X175260Y431800D02*
X175260Y147320D01*
X165100Y152400D02*
X165100Y449580D01*
X279400Y139700D02*
X279400Y208280D01*
X304800Y208280D02*
X304800Y147320D01*
X154940Y462002D02*
X154940Y162560D01*
X93980Y180340D02*
X122020Y180340D01*
X226060Y180340D02*
X198020Y180340D01*
X256540Y200660D02*
X256540Y177800D01*
X408940Y208280D02*
X408940Y177800D01*
X93980Y205740D02*
X122020Y205740D01*
X226060Y205740D02*
X198020Y205740D01*
X251460Y205740D02*
X256540Y200660D01*
X93980Y231140D02*
X122020Y231140D01*
X198020Y231140D02*
X431800Y231140D01*
X431800Y233680D02*
X492760Y294640D01*
X431800Y231140D02*
X434340Y233680D01*
X434340Y236220D01*
X93980Y256540D02*
X122020Y256540D01*
X205640Y248920D02*
X198020Y256540D01*
X205640Y248920D02*
X429260Y248920D01*
X441960Y261620D01*
X205640Y274320D02*
X198020Y281940D01*
X441960Y259080D02*
X482600Y299720D01*
X441960Y261620D02*
X444500Y261620D01*
X93980Y281940D02*
X122020Y281940D01*
X378460Y312420D02*
X378460Y292100D01*
X408940Y292100D02*
X408940Y345440D01*
X492760Y294640D02*
X492760Y373355D01*
X93980Y307340D02*
X122020Y307340D01*
X226060Y307340D02*
X198020Y307340D01*
X279400Y307975D02*
X279400Y355600D01*
X299720Y321310D02*
X304800Y316230D01*
X304800Y306416D01*
X383540Y317500D02*
X378460Y312420D01*
X482600Y366160D02*
X482600Y299720D01*
X92710Y358140D02*
X71120Y336550D01*
X226060Y332740D02*
X198020Y332740D01*
X299720Y350520D02*
X299720Y321310D01*
X332740Y345440D02*
X332740Y317500D01*
X358140Y317500D02*
X358140Y363220D01*
X434340Y317500D02*
X434340Y355600D01*
X241300Y408940D02*
X299720Y350520D01*
X251460Y383540D02*
X279400Y355600D01*
X312420Y365760D02*
X332740Y345440D01*
X444500Y365760D02*
X434340Y355600D01*
X121920Y358140D02*
X93980Y358140D01*
X198020Y358140D02*
X200560Y360680D01*
X228600Y360680D01*
X312420Y520700D02*
X312420Y365760D01*
X370986Y376066D02*
X358140Y363220D01*
X486703Y376066D02*
X370986Y376066D01*
X482200Y365760D02*
X444500Y365760D01*
X492760Y373355D02*
X489414Y373355D01*
X486703Y376066D01*
X76200Y408940D02*
X60960Y393700D01*
X121920Y383540D02*
X93980Y383540D01*
X198020Y383540D02*
X251460Y383540D01*
X48260Y411480D02*
X40640Y403860D01*
X86360Y434340D02*
X50800Y398780D01*
X96520Y459740D02*
X48260Y411480D01*
X76200Y408940D02*
X122020Y408940D01*
X198020Y408940D02*
X241300Y408940D01*
X122020Y434340D02*
X86360Y434340D01*
X177800Y434340D02*
X198020Y434340D01*
X177800Y434340D02*
X175260Y431800D01*
X175260Y459740D02*
X165100Y449580D01*
X332740Y510540D02*
X332740Y447040D01*
X358140Y472440D02*
X358140Y447040D01*
X401269Y464769D02*
X401269Y454711D01*
X408940Y447040D01*
X434340Y447040D02*
X434340Y495300D01*
X459740Y495046D02*
X459740Y447040D01*
X122020Y459740D02*
X96520Y459740D01*
X147296Y469646D02*
X154940Y462002D01*
X139651Y471537D02*
X141542Y469646D01*
X135708Y477371D02*
X139651Y473428D01*
X139651Y471537D01*
X141542Y469646D02*
X147296Y469646D01*
X175260Y459740D02*
X198020Y459740D01*
X391209Y464769D02*
X401269Y464769D01*
X416560Y487680D02*
X416560Y472440D01*
X122020Y485140D02*
X129789Y477371D01*
X135708Y477371D01*
X226060Y485140D02*
X198020Y485140D01*
X383540Y495300D02*
X386080Y492760D01*
X408940Y495300D02*
X416560Y487680D01*
X122020Y510540D02*
X147420Y535940D01*
X226060Y510540D02*
X198020Y510540D01*
X332740Y510540D02*
X342900Y520700D01*
X147420Y535940D02*
X297180Y535940D01*
X312420Y520700D02*
X297180Y535940D01*
X342900Y520700D02*
X383540Y520700D01*
X386080Y492760D02*
X386080Y469220D01*
X391209Y465500D02*
X391209Y464769D01*
X387940Y467360D02*
X389349Y467360D01*
X391209Y465500D01*
X387940Y467360D02*
X386080Y469220D01*
X205640Y274320D02*
X436880Y274320D01*
X449580Y287020D01*
X459740Y294640D02*
X459740Y345440D01*
X449580Y284480D02*
X459740Y294640D01*
G54D13*
X294640Y73660D03*
X462280Y68580D03*
X236220Y121920D03*
X116840Y121920D03*
X116840Y147320D03*
X208280Y147320D03*
X254000Y177800D03*
X330200Y177800D03*
X279400Y307340D03*
X279400Y205740D03*
X304800Y307340D03*
X307340Y205740D03*
X381000Y292100D03*
X381000Y208280D03*
X408940Y292100D03*
X408940Y208280D03*
X228600Y363220D03*
X228600Y431800D03*
X358140Y472440D03*
G54D14*
X261620Y96520D03*
X210820Y96520D03*
X185674Y96520D03*
X236220Y96520D03*
X160020Y96520D03*
X474980Y96520D03*
X449580Y96520D03*
X424180Y96520D03*
X398780Y96520D03*
X373380Y96520D03*
X347980Y96520D03*
X322580Y96520D03*
X93980Y180340D03*
X93980Y205740D03*
X93980Y231140D03*
X93980Y256540D03*
X93980Y281940D03*
X93980Y307340D03*
X226060Y180340D03*
X226060Y205740D03*
X251460Y205740D03*
X226060Y332740D03*
X226060Y307340D03*
X434340Y317500D03*
X332740Y317500D03*
X358140Y317500D03*
X383540Y317500D03*
X459740Y317500D03*
X408940Y317500D03*
X93980Y358140D03*
X93980Y383540D03*
X226060Y510540D03*
X226060Y485140D03*
X383540Y495300D03*
X459486Y495300D03*
X434340Y495300D03*
X408940Y495300D03*
X485140Y495300D03*
X459740Y520700D03*
X383540Y520700D03*
X408940Y520700D03*
X434340Y520700D03*
X485140Y520700D03*
G54D15*
X122020Y510540D03*
X122020Y485140D03*
X122020Y459740D03*
X122020Y434340D03*
X122020Y408940D03*
X122020Y383540D03*
X122020Y358140D03*
X122020Y332740D03*
X122020Y307340D03*
X122020Y281940D03*
X122020Y256540D03*
X122020Y231140D03*
X122020Y205740D03*
X122020Y180340D03*
X198020Y510540D03*
X198020Y485140D03*
X198020Y459740D03*
X198020Y434340D03*
X198020Y408940D03*
X198020Y383540D03*
X198020Y358140D03*
X198020Y332740D03*
X198020Y307340D03*
X198020Y281940D03*
X198020Y256540D03*
X198020Y231140D03*
X198020Y205740D03*
X198020Y180340D03*
G54D16*
X408940Y345440D03*
X408940Y447040D03*
X459740Y447040D03*
X434340Y447040D03*
X358140Y447040D03*
X358140Y345440D03*
X434340Y345440D03*
X459740Y345440D03*
X383540Y447040D03*
X383540Y345440D03*
X332740Y447040D03*
X332740Y345440D03*
G54D17*
X416560Y469900D03*

M02*
