M48
INCH,TZ
VER,1
FMAT,2
DETECT,ON
ATC,ON
T1C0.03937
T2C0.00700
%
T1
X0.42000Y3.34000
X0.82000
Y3.14000
Y3.24000
Y3.54000
X0.42000
Y3.24000
Y3.14000
X0.82000Y3.44000
X0.42000
X0.82000Y3.64000
X0.42000
X0.26000Y3.24000
Y3.64000
Y3.54000
Y3.44000
Y3.14000
Y3.34000
X0.98000Y3.72000
X1.27900
X1.18000
X1.08000
X1.38000
X1.28000Y3.82000
X0.98000
X1.08000
X1.18000
X1.38000
X1.42000Y2.42000
X1.32000
X1.22000
X1.12000
X1.02000
X0.92000
X0.82000
X0.46000
X0.26000
X0.16100
X0.36000
X0.06000
X0.14000Y3.34000
T2
X0.51000Y3.54000
X0.67000
X0.53000Y3.43000
X0.72000Y3.44000
X0.53000Y3.32000
X0.72000Y3.33000
X0.98000Y3.62000
Y3.34000
X0.42000Y2.99000
X0.82000
Y2.42000
Y2.79000
X0.96000
Y2.98000
X0.15000Y2.76000
X0.25000Y2.56000
X0.36000Y2.63000
Y2.87000
M30
