M48
INCH,TZ
VER,1
FMAT,2
DETECT,ON
ATC,ON
T1C0.03937
T2C0.00700
%
T1
X1.03000Y0.38000
X0.83000
X0.73100
X0.93000
X0.63000
X1.87000
X1.77000
X1.67000
X1.57000
X1.47000
X1.37000
X1.27000
X0.37000Y0.71000
Y0.81000
Y0.91000
Y1.01000
Y1.11000
Y1.21000
X0.48039Y2.01000
Y1.91000
Y1.81000
Y1.71000
Y1.61000
Y1.51000
Y1.41000
Y1.31000
Y1.21000
Y1.11000
Y1.01000
Y0.91000
Y0.81000
Y0.71000
X0.77961Y2.01000
Y1.91000
Y1.81000
Y1.71000
Y1.61000
Y1.51000
Y1.41000
Y1.31000
Y1.21000
Y1.11000
Y1.01000
Y0.91000
Y0.81000
Y0.71000
X0.89000
Y0.81000
X0.99000
X0.89000Y1.31000
Y1.21000
X1.61000Y1.36000
Y1.76000
X1.81000
X1.71000
X1.41000
Y1.36000
X1.71000
X1.81000
X1.51000Y1.76000
Y1.36000
X1.31000Y1.76000
Y1.36000
X1.71000Y1.25000
X1.31000
X1.41000
X1.51000
X1.81000
X1.61000
X0.37000Y1.41000
Y1.51000
X0.89000Y2.01000
Y1.91000
X1.51000Y1.95000
X1.80900
X1.71000
X1.61000
X1.91000
X1.81000Y2.05000
X1.51000
X1.61000
X1.71000
X1.91000
T2
X1.16000Y0.29000
X1.82000Y0.27000
X0.93000Y0.48000
X0.46000
Y0.58000
X0.82000
X1.00000Y0.70000
X1.30000
X1.10000Y1.21000
Y0.81000
X1.20000Y1.21000
X1.21000Y0.81000
X1.50000Y1.15000
Y0.82000
X1.61000Y1.15000
Y0.82000
X0.90000Y1.43000
Y1.70000
X1.64000Y1.85000
X1.41000Y1.86000
M30
