G04 Generated by Ultiboard 13.0 *
%FSLAX34Y34*%
%MOMM*%

%ADD10C,0.0001*%
%ADD11C,0.0100*%
%ADD12C,0.1000*%
%ADD13C,0.0010*%


G04 ColorRGB 000000 for the following layer *
%LNDrill Symbols-Copper Top-Copper Bottom*%
%LPD*%
G54D11*
X294640Y72771D02*
X294640Y74549D01*
X293751Y73660D02*
X295529Y73660D01*
X461391Y68580D02*
X463169Y68580D01*
X462280Y67691D02*
X462280Y69469D01*
X236220Y121031D02*
X236220Y122809D01*
X235331Y121920D02*
X237109Y121920D01*
X115951Y121920D02*
X117729Y121920D01*
X116840Y121031D02*
X116840Y122809D01*
X116840Y146431D02*
X116840Y148209D01*
X115951Y147320D02*
X117729Y147320D01*
X208280Y146431D02*
X208280Y148209D01*
X207391Y147320D02*
X209169Y147320D01*
X254000Y176911D02*
X254000Y178689D01*
X253111Y177800D02*
X254889Y177800D01*
X329311Y177800D02*
X331089Y177800D01*
X330200Y176911D02*
X330200Y178689D01*
X278511Y307340D02*
X280289Y307340D01*
X279400Y306451D02*
X279400Y308229D01*
X279400Y204851D02*
X279400Y206629D01*
X278511Y205740D02*
X280289Y205740D01*
X304800Y306451D02*
X304800Y308229D01*
X303911Y307340D02*
X305689Y307340D01*
X306451Y205740D02*
X308229Y205740D01*
X307340Y204851D02*
X307340Y206629D01*
X380111Y292100D02*
X381889Y292100D01*
X381000Y291211D02*
X381000Y292989D01*
X380111Y208280D02*
X381889Y208280D01*
X381000Y207391D02*
X381000Y209169D01*
X408051Y292100D02*
X409829Y292100D01*
X408940Y291211D02*
X408940Y292989D01*
X408051Y208280D02*
X409829Y208280D01*
X408940Y207391D02*
X408940Y209169D01*
X228600Y362331D02*
X228600Y364109D01*
X227711Y363220D02*
X229489Y363220D01*
X228600Y430911D02*
X228600Y432689D01*
X227711Y431800D02*
X229489Y431800D01*
X416560Y469011D02*
X416560Y470789D01*
X415671Y469900D02*
X417449Y469900D01*
X357251Y472440D02*
X359029Y472440D01*
X358140Y471551D02*
X358140Y473329D01*
X870607Y412426D02*
X872385Y412426D01*
X871496Y411537D02*
X871496Y413315D01*
G54D12*
X258084Y100056D02*
X265156Y92984D01*
X258084Y92984D02*
X265156Y100056D01*
X207284Y100056D02*
X214356Y92984D01*
X207284Y92984D02*
X214356Y100056D01*
X182138Y92984D02*
X189210Y100056D01*
X182138Y100056D02*
X189210Y92984D01*
X232684Y100056D02*
X239756Y92984D01*
X232684Y92984D02*
X239756Y100056D01*
X156484Y92984D02*
X163556Y100056D01*
X156484Y100056D02*
X163556Y92984D01*
X471444Y92984D02*
X478516Y100056D01*
X471444Y100056D02*
X478516Y92984D01*
X446044Y92984D02*
X453116Y100056D01*
X446044Y100056D02*
X453116Y92984D01*
X420644Y92984D02*
X427716Y100056D01*
X420644Y100056D02*
X427716Y92984D01*
X395244Y92984D02*
X402316Y100056D01*
X395244Y100056D02*
X402316Y92984D01*
X369844Y100056D02*
X376916Y92984D01*
X369844Y92984D02*
X376916Y100056D01*
X344444Y92984D02*
X351516Y100056D01*
X344444Y100056D02*
X351516Y92984D01*
X319044Y100056D02*
X326116Y92984D01*
X319044Y92984D02*
X326116Y100056D01*
X90444Y183876D02*
X97516Y176804D01*
X90444Y176804D02*
X97516Y183876D01*
X90444Y202204D02*
X97516Y209276D01*
X90444Y209276D02*
X97516Y202204D01*
X90444Y227604D02*
X97516Y234676D01*
X90444Y234676D02*
X97516Y227604D01*
X90444Y253004D02*
X97516Y260076D01*
X90444Y260076D02*
X97516Y253004D01*
X90444Y285476D02*
X97516Y278404D01*
X90444Y278404D02*
X97516Y285476D01*
X90444Y310876D02*
X97516Y303804D01*
X90444Y303804D02*
X97516Y310876D01*
X118484Y514076D02*
X125556Y507004D01*
X118484Y507004D02*
X125556Y514076D01*
X118484Y488676D02*
X125556Y481604D01*
X118484Y481604D02*
X125556Y488676D01*
X118484Y456204D02*
X125556Y463276D01*
X118484Y463276D02*
X125556Y456204D01*
X118484Y430804D02*
X125556Y437876D01*
X118484Y437876D02*
X125556Y430804D01*
X118484Y412476D02*
X125556Y405404D01*
X118484Y405404D02*
X125556Y412476D01*
X118484Y387076D02*
X125556Y380004D01*
X118484Y380004D02*
X125556Y387076D01*
X118484Y361676D02*
X125556Y354604D01*
X118484Y354604D02*
X125556Y361676D01*
X118484Y336276D02*
X125556Y329204D01*
X118484Y329204D02*
X125556Y336276D01*
X118484Y303804D02*
X125556Y310876D01*
X118484Y310876D02*
X125556Y303804D01*
X118484Y278404D02*
X125556Y285476D01*
X118484Y285476D02*
X125556Y278404D01*
X118484Y260076D02*
X125556Y253004D01*
X118484Y253004D02*
X125556Y260076D01*
X118484Y227604D02*
X125556Y234676D01*
X118484Y234676D02*
X125556Y227604D01*
X118484Y202204D02*
X125556Y209276D01*
X118484Y209276D02*
X125556Y202204D01*
X118484Y183876D02*
X125556Y176804D01*
X118484Y176804D02*
X125556Y183876D01*
X194484Y507004D02*
X201556Y514076D01*
X194484Y514076D02*
X201556Y507004D01*
X194484Y481604D02*
X201556Y488676D01*
X194484Y488676D02*
X201556Y481604D01*
X194484Y456204D02*
X201556Y463276D01*
X194484Y463276D02*
X201556Y456204D01*
X194484Y430804D02*
X201556Y437876D01*
X194484Y437876D02*
X201556Y430804D01*
X194484Y405404D02*
X201556Y412476D01*
X194484Y412476D02*
X201556Y405404D01*
X194484Y380004D02*
X201556Y387076D01*
X194484Y387076D02*
X201556Y380004D01*
X194484Y354604D02*
X201556Y361676D01*
X194484Y361676D02*
X201556Y354604D01*
X194484Y336276D02*
X201556Y329204D01*
X194484Y329204D02*
X201556Y336276D01*
X194484Y303804D02*
X201556Y310876D01*
X194484Y310876D02*
X201556Y303804D01*
X194484Y285476D02*
X201556Y278404D01*
X194484Y278404D02*
X201556Y285476D01*
X194484Y260076D02*
X201556Y253004D01*
X194484Y253004D02*
X201556Y260076D01*
X194484Y234676D02*
X201556Y227604D01*
X194484Y227604D02*
X201556Y234676D01*
X194484Y209276D02*
X201556Y202204D01*
X194484Y202204D02*
X201556Y209276D01*
X194484Y183876D02*
X201556Y176804D01*
X194484Y176804D02*
X201556Y183876D01*
X222524Y183876D02*
X229596Y176804D01*
X222524Y176804D02*
X229596Y183876D01*
X222524Y209276D02*
X229596Y202204D01*
X222524Y202204D02*
X229596Y209276D01*
X247924Y202204D02*
X254996Y209276D01*
X247924Y209276D02*
X254996Y202204D01*
X222524Y336276D02*
X229596Y329204D01*
X222524Y329204D02*
X229596Y336276D01*
X222524Y310876D02*
X229596Y303804D01*
X222524Y303804D02*
X229596Y310876D01*
X405404Y348976D02*
X412476Y341904D01*
X405404Y341904D02*
X412476Y348976D01*
X405404Y450576D02*
X412476Y443504D01*
X405404Y443504D02*
X412476Y450576D01*
X456204Y450576D02*
X463276Y443504D01*
X456204Y443504D02*
X463276Y450576D01*
X430804Y443504D02*
X437876Y450576D01*
X430804Y450576D02*
X437876Y443504D01*
X354604Y443504D02*
X361676Y450576D01*
X354604Y450576D02*
X361676Y443504D01*
X354604Y341904D02*
X361676Y348976D01*
X354604Y348976D02*
X361676Y341904D01*
X430804Y348976D02*
X437876Y341904D01*
X430804Y341904D02*
X437876Y348976D01*
X456204Y348976D02*
X463276Y341904D01*
X456204Y341904D02*
X463276Y348976D01*
X380004Y450576D02*
X387076Y443504D01*
X380004Y443504D02*
X387076Y450576D01*
X380004Y348976D02*
X387076Y341904D01*
X380004Y341904D02*
X387076Y348976D01*
X329204Y443504D02*
X336276Y450576D01*
X329204Y450576D02*
X336276Y443504D01*
X329204Y341904D02*
X336276Y348976D01*
X329204Y348976D02*
X336276Y341904D01*
X430804Y313964D02*
X437876Y321036D01*
X430804Y321036D02*
X437876Y313964D01*
X329204Y321036D02*
X336276Y313964D01*
X329204Y313964D02*
X336276Y321036D01*
X354604Y313964D02*
X361676Y321036D01*
X354604Y321036D02*
X361676Y313964D01*
X380004Y313964D02*
X387076Y321036D01*
X380004Y321036D02*
X387076Y313964D01*
X456204Y321036D02*
X463276Y313964D01*
X456204Y313964D02*
X463276Y321036D01*
X405404Y321036D02*
X412476Y313964D01*
X405404Y313964D02*
X412476Y321036D01*
X90444Y354604D02*
X97516Y361676D01*
X90444Y361676D02*
X97516Y354604D01*
X90444Y387076D02*
X97516Y380004D01*
X90444Y380004D02*
X97516Y387076D01*
X222524Y514076D02*
X229596Y507004D01*
X222524Y507004D02*
X229596Y514076D01*
X222524Y481604D02*
X229596Y488676D01*
X222524Y488676D02*
X229596Y481604D01*
X380004Y491764D02*
X387076Y498836D01*
X380004Y498836D02*
X387076Y491764D01*
X455950Y498836D02*
X463022Y491764D01*
X455950Y491764D02*
X463022Y498836D01*
X430804Y491764D02*
X437876Y498836D01*
X430804Y498836D02*
X437876Y491764D01*
X405404Y498836D02*
X412476Y491764D01*
X405404Y491764D02*
X412476Y498836D01*
X481604Y491764D02*
X488676Y498836D01*
X481604Y498836D02*
X488676Y491764D01*
X456204Y517164D02*
X463276Y524236D01*
X456204Y524236D02*
X463276Y517164D01*
X380004Y517164D02*
X387076Y524236D01*
X380004Y524236D02*
X387076Y517164D01*
X405404Y517164D02*
X412476Y524236D01*
X405404Y524236D02*
X412476Y517164D01*
X430804Y517164D02*
X437876Y524236D01*
X430804Y524236D02*
X437876Y517164D01*
X481604Y517164D02*
X488676Y524236D01*
X481604Y524236D02*
X488676Y517164D01*
X867960Y374962D02*
X875032Y367890D01*
X867960Y367890D02*
X875032Y374962D01*
X975829Y420997D02*
X982496Y425283D01*
X989163Y425283D01*
X995829Y420997D01*
X995829Y408140D01*
X989163Y403855D01*
X982496Y403855D01*
X975829Y408140D01*
X975829Y420997D01*
X995829Y420997D02*
X975829Y408140D01*
X1015829Y403855D02*
X1015829Y405997D01*
X1039163Y420997D02*
X1045829Y425283D01*
X1045829Y403855D01*
X1035829Y403855D02*
X1055829Y403855D01*
X1075829Y403855D02*
X1075829Y414569D01*
X1085829Y420997D01*
X1085829Y425283D01*
X1065829Y425283D01*
X1065829Y420997D01*
X1105829Y403855D02*
X1105829Y414569D01*
X1115829Y420997D01*
X1115829Y425283D01*
X1095829Y425283D01*
X1095829Y420997D01*
X1139163Y403855D02*
X1132496Y403855D01*
X1125829Y408140D01*
X1125829Y412426D01*
X1129163Y414569D01*
X1125829Y416712D01*
X1125829Y420997D01*
X1132496Y425283D01*
X1139163Y425283D01*
X1145829Y420997D01*
X1145829Y416712D01*
X1142496Y414569D01*
X1145829Y412426D01*
X1145829Y408140D01*
X1139163Y403855D01*
X1129163Y414569D02*
X1142496Y414569D01*
X1256829Y420997D02*
X1263496Y425283D01*
X1270163Y425283D01*
X1276829Y420997D01*
X1276829Y418855D01*
X1256829Y403855D01*
X1276829Y403855D01*
X1276829Y405997D01*
X1286829Y420997D02*
X1293496Y425283D01*
X1300163Y425283D01*
X1306829Y420997D01*
X1306829Y408140D01*
X1300163Y403855D01*
X1293496Y403855D01*
X1286829Y408140D01*
X1286829Y420997D01*
X1306829Y420997D02*
X1286829Y408140D01*
X1462829Y403855D02*
X1462829Y425283D01*
X1476163Y425283D01*
X1482829Y420997D01*
X1482829Y418855D01*
X1476163Y414569D01*
X1462829Y414569D01*
X1502829Y403855D02*
X1502829Y425283D01*
X1492829Y425283D02*
X1512829Y425283D01*
X1522829Y403855D02*
X1522829Y425283D01*
X1542829Y403855D02*
X1542829Y425283D01*
X1522829Y414569D02*
X1542829Y414569D01*
X1638829Y379997D02*
X1645496Y384283D01*
X1652163Y384283D01*
X1658829Y379997D01*
X1658829Y367140D01*
X1652163Y362855D01*
X1645496Y362855D01*
X1638829Y367140D01*
X1638829Y379997D01*
X1658829Y379997D02*
X1638829Y367140D01*
X1715496Y362855D02*
X1712163Y362855D01*
X1705496Y367140D01*
X1705496Y379997D01*
X1712163Y384283D01*
X1715496Y384283D01*
X1728829Y362855D02*
X1728829Y384283D01*
X1742163Y384283D01*
X1748829Y379997D01*
X1748829Y377855D01*
X1742163Y373569D01*
X1728829Y373569D01*
X1732163Y373569D02*
X1748829Y362855D01*
X1758829Y367140D02*
X1765496Y362855D01*
X1772163Y362855D01*
X1778829Y367140D01*
X1778829Y379997D01*
X1772163Y384283D01*
X1765496Y384283D01*
X1758829Y379997D01*
X1758829Y367140D01*
X1788829Y384283D02*
X1788829Y367140D01*
X1795496Y362855D01*
X1802163Y362855D01*
X1808829Y367140D01*
X1808829Y384283D01*
X1818829Y362855D02*
X1818829Y384283D01*
X1838829Y362855D01*
X1838829Y384283D01*
X1848829Y362855D02*
X1862163Y362855D01*
X1868829Y367140D01*
X1868829Y379997D01*
X1862163Y384283D01*
X1848829Y384283D01*
X1852163Y384283D02*
X1852163Y362855D01*
X1882163Y384283D02*
X1885496Y384283D01*
X1892163Y379997D01*
X1892163Y367140D01*
X1885496Y362855D01*
X1882163Y362855D01*
X1462829Y362855D02*
X1462829Y384283D01*
X1476163Y384283D01*
X1482829Y379997D01*
X1482829Y377855D01*
X1476163Y373569D01*
X1462829Y373569D01*
X1502829Y362855D02*
X1502829Y384283D01*
X1492829Y384283D02*
X1512829Y384283D01*
X1522829Y362855D02*
X1522829Y384283D01*
X1542829Y362855D02*
X1542829Y384283D01*
X1522829Y373569D02*
X1542829Y373569D01*
X979163Y379997D02*
X985829Y384283D01*
X985829Y362855D01*
X975829Y362855D02*
X995829Y362855D01*
X1015829Y362855D02*
X1015829Y364997D01*
X1035829Y379997D02*
X1042496Y384283D01*
X1049163Y384283D01*
X1055829Y379997D01*
X1055829Y367140D01*
X1049163Y362855D01*
X1042496Y362855D01*
X1035829Y367140D01*
X1035829Y379997D01*
X1055829Y379997D02*
X1035829Y367140D01*
X1065829Y379997D02*
X1072496Y384283D01*
X1079163Y384283D01*
X1085829Y379997D01*
X1085829Y367140D01*
X1079163Y362855D01*
X1072496Y362855D01*
X1065829Y367140D01*
X1065829Y379997D01*
X1085829Y379997D02*
X1065829Y367140D01*
X1095829Y379997D02*
X1102496Y384283D01*
X1109163Y384283D01*
X1115829Y379997D01*
X1115829Y367140D01*
X1109163Y362855D01*
X1102496Y362855D01*
X1095829Y367140D01*
X1095829Y379997D01*
X1115829Y379997D02*
X1095829Y367140D01*
X1125829Y379997D02*
X1132496Y384283D01*
X1139163Y384283D01*
X1145829Y379997D01*
X1145829Y367140D01*
X1139163Y362855D01*
X1132496Y362855D01*
X1125829Y367140D01*
X1125829Y379997D01*
X1145829Y379997D02*
X1125829Y367140D01*
X1638829Y420997D02*
X1645496Y425283D01*
X1652163Y425283D01*
X1658829Y420997D01*
X1658829Y408140D01*
X1652163Y403855D01*
X1645496Y403855D01*
X1638829Y408140D01*
X1638829Y420997D01*
X1658829Y420997D02*
X1638829Y408140D01*
X1715496Y403855D02*
X1712163Y403855D01*
X1705496Y408140D01*
X1705496Y420997D01*
X1712163Y425283D01*
X1715496Y425283D01*
X1728829Y403855D02*
X1728829Y425283D01*
X1742163Y425283D01*
X1748829Y420997D01*
X1748829Y418855D01*
X1742163Y414569D01*
X1728829Y414569D01*
X1732163Y414569D02*
X1748829Y403855D01*
X1758829Y408140D02*
X1765496Y403855D01*
X1772163Y403855D01*
X1778829Y408140D01*
X1778829Y420997D01*
X1772163Y425283D01*
X1765496Y425283D01*
X1758829Y420997D01*
X1758829Y408140D01*
X1788829Y425283D02*
X1788829Y408140D01*
X1795496Y403855D01*
X1802163Y403855D01*
X1808829Y408140D01*
X1808829Y425283D01*
X1818829Y403855D02*
X1818829Y425283D01*
X1838829Y403855D01*
X1838829Y425283D01*
X1848829Y403855D02*
X1862163Y403855D01*
X1868829Y408140D01*
X1868829Y420997D01*
X1862163Y425283D01*
X1848829Y425283D01*
X1852163Y425283D02*
X1852163Y403855D01*
X1882163Y425283D02*
X1885496Y425283D01*
X1892163Y420997D01*
X1892163Y408140D01*
X1885496Y403855D01*
X1882163Y403855D01*
X1270163Y362855D02*
X1263496Y362855D01*
X1256829Y367140D01*
X1256829Y371426D01*
X1260163Y373569D01*
X1256829Y375712D01*
X1256829Y379997D01*
X1263496Y384283D01*
X1270163Y384283D01*
X1276829Y379997D01*
X1276829Y375712D01*
X1273496Y373569D01*
X1276829Y371426D01*
X1276829Y367140D01*
X1270163Y362855D01*
X1260163Y373569D02*
X1273496Y373569D01*
X1290163Y382140D02*
X1293496Y384283D01*
X1300163Y384283D01*
X1306829Y379997D01*
X1306829Y375712D01*
X1303496Y373569D01*
X1306829Y371426D01*
X1306829Y367140D01*
X1300163Y362855D01*
X1293496Y362855D01*
X1290163Y364997D01*
X1293496Y373569D02*
X1303496Y373569D01*
G04 ColorRGB 00FFFF for the following layer *
%LNBoard Outline*%
%LPD*%
G54D10*
G54D13*
X32993Y25400D02*
X510567Y25400D01*
X510567Y546100D01*
X32993Y546100D01*
X32993Y25400D01*
G04 ColorRGB 66FFCC for the following layer *
%LNLegend Description*%
%LPD*%
G54D12*
X775996Y350926D02*
X1940996Y350926D01*
X1940996Y555926D01*
X775996Y555926D01*
X775996Y350926D01*
X966996Y473926D02*
X966996Y350926D01*
X1157996Y473926D02*
X1157996Y350926D01*
X1408996Y473926D02*
X1408996Y350926D01*
X1599996Y473926D02*
X1599996Y350926D01*
X1940996Y473926D02*
X1940996Y350926D01*
X775996Y391926D02*
X1940996Y391926D01*
X775996Y432926D02*
X1940996Y432926D01*
X784829Y449140D02*
X791496Y444855D01*
X798163Y444855D01*
X804829Y449140D01*
X784829Y461997D01*
X791496Y466283D01*
X798163Y466283D01*
X804829Y461997D01*
X814829Y438426D02*
X818163Y438426D01*
X834829Y459855D01*
X814829Y459855D02*
X824829Y446997D01*
X844829Y444855D02*
X844829Y457712D01*
X844829Y459855D01*
X844829Y457712D02*
X848163Y459855D01*
X851496Y459855D01*
X854829Y457712D01*
X858163Y459855D01*
X861496Y459855D01*
X864829Y457712D01*
X864829Y444855D01*
X854829Y457712D02*
X854829Y444855D01*
X874829Y449140D02*
X881496Y444855D01*
X888163Y444855D01*
X894829Y449140D01*
X894829Y453426D01*
X888163Y457712D01*
X881496Y457712D01*
X874829Y453426D01*
X874829Y466283D02*
X874829Y444855D01*
X904829Y449140D02*
X911496Y444855D01*
X918163Y444855D01*
X924829Y449140D01*
X924829Y455569D01*
X918163Y459855D01*
X911496Y459855D01*
X904829Y455569D01*
X904829Y449140D01*
X938163Y466283D02*
X938163Y449140D01*
X944829Y444855D01*
X1005829Y449140D02*
X1012496Y444855D01*
X1019163Y444855D01*
X1025829Y449140D01*
X1005829Y461997D01*
X1012496Y466283D01*
X1019163Y466283D01*
X1025829Y461997D01*
X1045829Y444855D02*
X1045829Y457712D01*
X1045829Y461997D02*
X1045829Y464140D01*
X1065829Y459855D02*
X1085829Y459855D01*
X1065829Y444855D01*
X1085829Y444855D01*
X1115829Y449140D02*
X1109163Y444855D01*
X1102496Y444855D01*
X1095829Y449140D01*
X1095829Y455569D01*
X1102496Y459855D01*
X1109163Y459855D01*
X1115829Y455569D01*
X1112496Y453426D01*
X1095829Y453426D01*
X1166829Y449140D02*
X1173496Y444855D01*
X1180163Y444855D01*
X1186829Y449140D01*
X1186829Y461997D01*
X1180163Y466283D01*
X1173496Y466283D01*
X1166829Y461997D01*
X1166829Y449140D01*
X1180163Y449140D02*
X1186829Y444855D01*
X1196829Y459855D02*
X1196829Y449140D01*
X1203496Y444855D01*
X1210163Y444855D01*
X1216829Y449140D01*
X1216829Y459855D01*
X1216829Y449140D02*
X1216829Y444855D01*
X1230163Y459855D02*
X1240163Y459855D01*
X1243496Y457712D01*
X1243496Y446997D01*
X1240163Y444855D01*
X1230163Y444855D01*
X1226829Y446997D01*
X1226829Y451283D01*
X1230163Y453426D01*
X1243496Y453426D01*
X1243496Y446997D02*
X1246829Y444855D01*
X1256829Y444855D02*
X1256829Y457712D01*
X1256829Y459855D01*
X1256829Y457712D02*
X1260163Y459855D01*
X1266829Y459855D01*
X1270163Y457712D01*
X1270163Y444855D01*
X1303496Y446997D02*
X1300163Y444855D01*
X1296829Y446997D01*
X1296829Y466283D01*
X1290163Y459855D02*
X1303496Y459855D01*
X1326829Y444855D02*
X1326829Y457712D01*
X1326829Y461997D02*
X1326829Y464140D01*
X1363496Y446997D02*
X1360163Y444855D01*
X1356829Y446997D01*
X1356829Y466283D01*
X1350163Y459855D02*
X1363496Y459855D01*
X1376829Y438426D02*
X1380163Y438426D01*
X1396829Y459855D01*
X1376829Y459855D02*
X1386829Y446997D01*
X1417829Y444855D02*
X1417829Y466283D01*
X1431163Y466283D01*
X1437829Y461997D01*
X1437829Y459855D01*
X1431163Y455569D01*
X1417829Y455569D01*
X1451163Y466283D02*
X1451163Y449140D01*
X1457829Y444855D01*
X1481163Y459855D02*
X1491163Y459855D01*
X1494496Y457712D01*
X1494496Y446997D01*
X1491163Y444855D01*
X1481163Y444855D01*
X1477829Y446997D01*
X1477829Y451283D01*
X1481163Y453426D01*
X1494496Y453426D01*
X1494496Y446997D02*
X1497829Y444855D01*
X1524496Y446997D02*
X1521163Y444855D01*
X1517829Y446997D01*
X1517829Y466283D01*
X1511163Y459855D02*
X1524496Y459855D01*
X1557829Y449140D02*
X1551163Y444855D01*
X1544496Y444855D01*
X1537829Y449140D01*
X1537829Y455569D01*
X1544496Y459855D01*
X1551163Y459855D01*
X1557829Y455569D01*
X1554496Y453426D01*
X1537829Y453426D01*
X1587829Y449140D02*
X1581163Y444855D01*
X1574496Y444855D01*
X1567829Y449140D01*
X1567829Y453426D01*
X1574496Y457712D01*
X1581163Y457712D01*
X1587829Y453426D01*
X1587829Y466283D02*
X1587829Y444855D01*
X1608829Y449140D02*
X1615496Y444855D01*
X1622163Y444855D01*
X1628829Y449140D01*
X1608829Y461997D01*
X1615496Y466283D01*
X1622163Y466283D01*
X1628829Y461997D01*
X1642163Y466283D02*
X1642163Y449140D01*
X1648829Y444855D01*
X1668829Y449140D02*
X1675496Y444855D01*
X1682163Y444855D01*
X1688829Y449140D01*
X1688829Y455569D01*
X1682163Y459855D01*
X1675496Y459855D01*
X1668829Y455569D01*
X1668829Y449140D01*
X1715496Y446997D02*
X1712163Y444855D01*
X1708829Y446997D01*
X1708829Y466283D01*
X1702163Y459855D02*
X1715496Y459855D01*
X1758829Y466283D02*
X1758829Y444855D01*
X1778829Y444855D01*
X1808829Y449140D02*
X1802163Y444855D01*
X1795496Y444855D01*
X1788829Y449140D01*
X1788829Y455569D01*
X1795496Y459855D01*
X1802163Y459855D01*
X1808829Y455569D01*
X1805496Y453426D01*
X1788829Y453426D01*
X1818829Y444855D02*
X1818829Y457712D01*
X1818829Y459855D01*
X1818829Y457712D02*
X1822163Y459855D01*
X1828829Y459855D01*
X1832163Y457712D01*
X1832163Y444855D01*
X1848829Y442712D02*
X1855496Y438426D01*
X1862163Y438426D01*
X1868829Y442712D01*
X1868829Y449140D01*
X1868829Y455569D01*
X1862163Y459855D01*
X1855496Y459855D01*
X1848829Y455569D01*
X1848829Y449140D01*
X1855496Y444855D01*
X1862163Y444855D01*
X1868829Y449140D01*
X1895496Y446997D02*
X1892163Y444855D01*
X1888829Y446997D01*
X1888829Y466283D01*
X1882163Y459855D02*
X1895496Y459855D01*
X1908829Y455569D02*
X1915496Y459855D01*
X1922163Y459855D01*
X1928829Y455569D01*
X1928829Y444855D01*
X1908829Y466283D02*
X1908829Y444855D01*
X775996Y473926D02*
X1940996Y473926D01*
X1076829Y485855D02*
X1076829Y498712D01*
X1083496Y507283D01*
X1090163Y507283D01*
X1096829Y498712D01*
X1096829Y485855D01*
X1076829Y492283D02*
X1096829Y492283D01*
X1110163Y507283D02*
X1110163Y490140D01*
X1116829Y485855D01*
X1140163Y507283D02*
X1140163Y490140D01*
X1146829Y485855D01*
X1196829Y500855D02*
X1196829Y490140D01*
X1203496Y485855D01*
X1210163Y485855D01*
X1216829Y490140D01*
X1216829Y500855D01*
X1216829Y490140D02*
X1216829Y485855D01*
X1226829Y485855D02*
X1226829Y498712D01*
X1226829Y500855D01*
X1226829Y498712D02*
X1230163Y500855D01*
X1236829Y500855D01*
X1240163Y498712D01*
X1240163Y485855D01*
X1266829Y485855D02*
X1266829Y498712D01*
X1266829Y502997D02*
X1266829Y505140D01*
X1303496Y487997D02*
X1300163Y485855D01*
X1296829Y487997D01*
X1296829Y507283D01*
X1290163Y500855D02*
X1303496Y500855D01*
X1316829Y490140D02*
X1323496Y485855D01*
X1330163Y485855D01*
X1336829Y490140D01*
X1316829Y496569D01*
X1323496Y500855D01*
X1330163Y500855D01*
X1336829Y496569D01*
X1380163Y500855D02*
X1390163Y500855D01*
X1393496Y498712D01*
X1393496Y487997D01*
X1390163Y485855D01*
X1380163Y485855D01*
X1376829Y487997D01*
X1376829Y492283D01*
X1380163Y494426D01*
X1393496Y494426D01*
X1393496Y487997D02*
X1396829Y485855D01*
X1406829Y494426D02*
X1416829Y500855D01*
X1420163Y500855D01*
X1426829Y496569D01*
X1406829Y485855D02*
X1406829Y500855D01*
X1456829Y490140D02*
X1450163Y485855D01*
X1443496Y485855D01*
X1436829Y490140D01*
X1436829Y496569D01*
X1443496Y500855D01*
X1450163Y500855D01*
X1456829Y496569D01*
X1453496Y494426D01*
X1436829Y494426D01*
X1506829Y485855D02*
X1506829Y498712D01*
X1506829Y502997D02*
X1506829Y505140D01*
X1526829Y485855D02*
X1526829Y498712D01*
X1526829Y500855D01*
X1526829Y498712D02*
X1530163Y500855D01*
X1536829Y500855D01*
X1540163Y498712D01*
X1540163Y485855D01*
X1586829Y485855D02*
X1586829Y498712D01*
X1586829Y500855D01*
X1586829Y498712D02*
X1590163Y500855D01*
X1593496Y500855D01*
X1596829Y498712D01*
X1600163Y500855D01*
X1603496Y500855D01*
X1606829Y498712D01*
X1606829Y485855D01*
X1596829Y498712D02*
X1596829Y485855D01*
X1616829Y485855D02*
X1616829Y498712D01*
X1616829Y500855D01*
X1616829Y498712D02*
X1620163Y500855D01*
X1623496Y500855D01*
X1626829Y498712D01*
X1630163Y500855D01*
X1633496Y500855D01*
X1636829Y498712D01*
X1636829Y485855D01*
X1626829Y498712D02*
X1626829Y485855D01*
X775996Y514926D02*
X1940996Y514926D01*
X1181829Y526855D02*
X1195163Y526855D01*
X1201829Y531140D01*
X1201829Y543997D01*
X1195163Y548283D01*
X1181829Y548283D01*
X1185163Y548283D02*
X1185163Y526855D01*
X1211829Y535426D02*
X1221829Y541855D01*
X1225163Y541855D01*
X1231829Y537569D01*
X1211829Y526855D02*
X1211829Y541855D01*
X1251829Y526855D02*
X1251829Y539712D01*
X1251829Y543997D02*
X1251829Y546140D01*
X1275163Y548283D02*
X1275163Y531140D01*
X1281829Y526855D01*
X1305163Y548283D02*
X1305163Y531140D01*
X1311829Y526855D01*
X1361829Y548283D02*
X1361829Y526855D01*
X1381829Y526855D01*
X1411829Y531140D02*
X1405163Y526855D01*
X1398496Y526855D01*
X1391829Y531140D01*
X1391829Y537569D01*
X1398496Y541855D01*
X1405163Y541855D01*
X1411829Y537569D01*
X1408496Y535426D01*
X1391829Y535426D01*
X1421829Y524712D02*
X1428496Y520426D01*
X1435163Y520426D01*
X1441829Y524712D01*
X1441829Y531140D01*
X1441829Y537569D01*
X1435163Y541855D01*
X1428496Y541855D01*
X1421829Y537569D01*
X1421829Y531140D01*
X1428496Y526855D01*
X1435163Y526855D01*
X1441829Y531140D01*
X1471829Y531140D02*
X1465163Y526855D01*
X1458496Y526855D01*
X1451829Y531140D01*
X1451829Y537569D01*
X1458496Y541855D01*
X1465163Y541855D01*
X1471829Y537569D01*
X1468496Y535426D01*
X1451829Y535426D01*
X1481829Y526855D02*
X1481829Y539712D01*
X1481829Y541855D01*
X1481829Y539712D02*
X1485163Y541855D01*
X1491829Y541855D01*
X1495163Y539712D01*
X1495163Y526855D01*
X1531829Y531140D02*
X1525163Y526855D01*
X1518496Y526855D01*
X1511829Y531140D01*
X1511829Y535426D01*
X1518496Y539712D01*
X1525163Y539712D01*
X1531829Y535426D01*
X1531829Y548283D02*
X1531829Y526855D01*

M02*
