G04 Generated by Ultiboard 13.0 *
%FSLAX34Y34*%
%MOMM*%

%ADD10C,0.0001*%
%ADD11R,2.1844X2.1844*%
%ADD12R,2.0320X2.0320*%
%ADD13R,2.1996X2.1996*%
%ADD14R,0.9200X2.0000*%
%ADD15R,2.2000X2.2000*%


G04 ColorRGB FF00CC for the following layer *
%LNSolder Mask Top*%
%LPD*%
G54D10*
G54D11*
X129540Y899160D03*
X170180Y899160D03*
X134620Y871220D03*
X182880Y873760D03*
X134620Y843280D03*
X248920Y919480D03*
X248920Y848360D03*
X106680Y759460D03*
X208280Y759460D03*
X208280Y614680D03*
X208280Y708660D03*
X243840Y708660D03*
X243840Y756920D03*
X38100Y701040D03*
X63500Y650240D03*
X91440Y668020D03*
X91440Y728980D03*
G54D12*
X182880Y845820D03*
G54D13*
X106680Y848360D03*
X208280Y848360D03*
X208280Y797560D03*
X208280Y822960D03*
X208280Y899160D03*
X106680Y899160D03*
X106680Y822960D03*
X106680Y797560D03*
X208280Y873760D03*
X106680Y873760D03*
X208280Y924560D03*
X106680Y924560D03*
G54D14*
X114300Y681120D03*
X127000Y681120D03*
X139700Y681120D03*
X152400Y681120D03*
X165100Y681120D03*
X177800Y681120D03*
X190500Y681120D03*
X114300Y731120D03*
X127000Y731120D03*
X139700Y731120D03*
X152400Y731120D03*
X165100Y731120D03*
X177800Y731120D03*
X190500Y731120D03*
G54D15*
X66040Y822960D03*
X66040Y924560D03*
X66040Y899160D03*
X66040Y873760D03*
X66040Y797560D03*
X66040Y848360D03*
X248920Y944880D03*
X324866Y944880D03*
X299720Y944880D03*
X274320Y944880D03*
X350520Y944880D03*
X325120Y970280D03*
X248920Y970280D03*
X274320Y970280D03*
X299720Y970280D03*
X350520Y970280D03*
X360680Y614680D03*
X335280Y614680D03*
X309880Y614680D03*
X284480Y614680D03*
X259080Y614680D03*
X233680Y614680D03*
X208280Y614680D03*
X116840Y614680D03*
X66040Y614680D03*
X40894Y614680D03*
X91440Y614680D03*
X15240Y614680D03*
X35560Y848360D03*

M02*
