G04 Generated by Ultiboard 13.0 *
%FSLAX34Y34*%
%MOMM*%

%ADD10C,0.0001*%
%ADD11C,0.2540*%
%ADD12C,2.0000*%
%ADD13C,3.0000*%
%ADD14C,5.0000*%
%ADD15C,2.2000*%
%ADD16C,2.8000*%
%ADD17C,1.0000*%
%ADD18R,4.5000X4.5000*%
%ADD19R,2.2000X2.2000*%


G04 ColorRGB 0000FF for the following layer *
%LNCopper Bottom*%
%LPD*%
G54D10*
G36*
X3828Y3828D02*
X3828Y3828D01*
X896172Y3828D01*
X896172Y896172D01*
X3828Y896172D01*
X3828Y3828D01*
D02*
G37*
%LPC*%
G36*
X65031Y734902D02*
G75*
D01*
G02X67571Y763140I26409J11858*
G01*
X67571Y763140D01*
X67571Y802819D01*
G75*
D01*
G02X76050Y823310I28949J21*
G01*
X76050Y823310D01*
X126650Y873910D01*
G75*
D01*
G02X148490Y882357I20470J-20469*
G01*
G75*
D01*
G02X149860Y882389I1361J-28917*
G01*
X149860Y882389D01*
X628250Y882389D01*
G74*
D01*
G02X648735Y873896I1J28949*
G01*
X648735Y873896D01*
X703716Y818915D01*
G74*
D01*
G02X712209Y798430I20456J20484*
G01*
X712209Y798430D01*
X712209Y749700D01*
G75*
D01*
G02X654311Y749700I-28949J0*
G01*
X654311Y749700D01*
X654311Y786439D01*
X616259Y824491D01*
X470909Y824491D01*
X470909Y756120D01*
G75*
D01*
G02X413011Y756120I-28949J0*
G01*
X413011Y756120D01*
X413011Y824491D01*
X237229Y824491D01*
X237229Y745960D01*
G75*
D01*
G02X179331Y745960I-28949J0*
G01*
X179331Y745960D01*
X179331Y824491D01*
X159111Y824491D01*
X125469Y790849D01*
X125469Y751840D01*
G75*
D01*
G02X122770Y739633I-28949J-1*
G01*
G74*
D01*
G02X122929Y736600I28790J3030*
G01*
X122929Y736600D01*
X122929Y424180D01*
G75*
D01*
G02X110341Y400297I-28949J-1*
G01*
X110341Y400297D01*
X110341Y392684D01*
G75*
D01*
G02X107345Y369855I-16361J-9464*
G01*
X107345Y369855D01*
X106122Y368632D01*
G74*
D01*
G02X103276Y365944I3682J1048*
G01*
G75*
D01*
G02X79604Y365944I-11836J14735*
G01*
G74*
D01*
G02X76704Y368844I836J3736*
G01*
G75*
D01*
G02X72540Y380841I14735J11836*
G01*
G75*
D01*
G02X72539Y381000I18899J198*
G01*
X72539Y381000D01*
X72539Y404729D01*
G75*
D01*
G02X65031Y424180I21441J19451*
G01*
X65031Y424180D01*
X65031Y734902D01*
D02*
G37*
G36*
X122929Y298930D02*
X122929Y298930D01*
X122929Y94860D01*
G75*
D01*
G02X120748Y83836I-28949J0*
G01*
X120748Y83836D01*
X120748Y71920D01*
G75*
D01*
G02X116920Y68092I-3828J0*
G01*
X116920Y68092D01*
X105004Y68092D01*
G75*
D01*
G02X82956Y68092I-11024J26768*
G01*
X82956Y68092D01*
X71920Y68092D01*
G75*
D01*
G02X68092Y71920I0J3828*
G01*
X68092Y71920D01*
X68092Y81904D01*
G75*
D01*
G02X65031Y94860I25888J12956*
G01*
X65031Y94860D01*
X65031Y298930D01*
G74*
D01*
G02X72539Y318381I28949J0*
G01*
X72539Y318381D01*
X72539Y341790D01*
G75*
D01*
G02X110341Y341790I18901J0*
G01*
X110341Y341790D01*
X110341Y322813D01*
G74*
D01*
G02X122929Y298930I16361J23882*
G01*
D02*
G37*
G36*
X627323Y289594D02*
X627323Y289594D01*
X604636Y266907D01*
X604636Y180828D01*
X608800Y180828D01*
G74*
D01*
G02X612628Y177000I0J3828*
G01*
X612628Y177000D01*
X612628Y132000D01*
G75*
D01*
G02X608800Y128172I-3828J0*
G01*
X608800Y128172D01*
X604636Y128172D01*
X604636Y125828D01*
X608800Y125828D01*
G74*
D01*
G02X612628Y122000I0J3828*
G01*
X612628Y122000D01*
X612628Y77000D01*
G75*
D01*
G02X608800Y73172I-3828J0*
G01*
X608800Y73172D01*
X563800Y73172D01*
G75*
D01*
G02X559972Y77000I0J3828*
G01*
X559972Y77000D01*
X559972Y122000D01*
G75*
D01*
G02X563800Y125828I3828J0*
G01*
X563800Y125828D01*
X568844Y125828D01*
X568844Y128172D01*
X563800Y128172D01*
G75*
D01*
G02X559972Y132000I0J3828*
G01*
X559972Y132000D01*
X559972Y177000D01*
G75*
D01*
G02X563800Y180828I3828J0*
G01*
X563800Y180828D01*
X568844Y180828D01*
X568844Y274297D01*
G75*
D01*
G02X574085Y286974I17896J23*
G01*
X574085Y286974D01*
X596784Y309673D01*
X596784Y374135D01*
G74*
D01*
G02X595200Y373792I1584J3485*
G01*
X595200Y373792D01*
X573200Y373792D01*
G75*
D01*
G02X570674Y374743I-1J3828*
G01*
X570674Y374743D01*
X516288Y374743D01*
X482262Y340718D01*
G74*
D01*
G02X472440Y336643I9823J9801*
G01*
X472440Y336643D01*
X456753Y336643D01*
G74*
D01*
G02X456788Y336120I3793J517*
G01*
X456788Y336120D01*
X456788Y314120D01*
G75*
D01*
G02X452960Y310292I-3828J0*
G01*
X452960Y310292D01*
X430960Y310292D01*
G75*
D01*
G02X427132Y314120I0J3828*
G01*
X427132Y314120D01*
X427132Y336120D01*
G74*
D01*
G02X427530Y337820I3828J0*
G01*
G75*
D01*
G02X427132Y339520I3430J1700*
G01*
X427132Y339520D01*
X427132Y361520D01*
G74*
D01*
G02X427530Y363220I3828J0*
G01*
G75*
D01*
G02X427132Y364920I3430J1700*
G01*
X427132Y364920D01*
X427132Y371879D01*
X407760Y391250D01*
G75*
D01*
G02X405167Y397520I6259J6260*
G01*
X405167Y397520D01*
X405167Y463535D01*
G75*
D01*
G02X407760Y469810I8853J15*
G01*
X407760Y469810D01*
X411570Y473620D01*
G74*
D01*
G02X415087Y475777I6259J6260*
G01*
G75*
D01*
G02X417830Y476213I2744J-8416*
G01*
X417830Y476213D01*
X422052Y476213D01*
X422052Y478360D01*
G74*
D01*
G02X422450Y480060I3828J0*
G01*
G75*
D01*
G02X422052Y481760I3430J1700*
G01*
X422052Y481760D01*
X422052Y487502D01*
X431622Y487502D01*
X431622Y482188D01*
X442138Y482188D01*
X442138Y487502D01*
X451708Y487502D01*
X451708Y481760D01*
G75*
D01*
G02X451310Y480060I-3828J0*
G01*
G74*
D01*
G02X451708Y478360I3430J1700*
G01*
X451708Y478360D01*
X451708Y457316D01*
X569318Y457316D01*
X569318Y464820D01*
G74*
D01*
G02X569372Y466077I14882J10*
G01*
X569372Y466077D01*
X569372Y475820D01*
G74*
D01*
G02X569770Y477520I3828J0*
G01*
G75*
D01*
G02X569372Y479220I3430J1700*
G01*
X569372Y479220D01*
X569372Y484962D01*
X578942Y484962D01*
X578942Y479648D01*
X582943Y479648D01*
G75*
D01*
G02X585457Y479648I1257J-14828*
G01*
X585457Y479648D01*
X589458Y479648D01*
X589458Y484962D01*
X599028Y484962D01*
X599028Y479220D01*
G75*
D01*
G02X598630Y477520I-3828J0*
G01*
G74*
D01*
G02X599028Y475820I3430J1700*
G01*
X599028Y475820D01*
X599028Y466077D01*
G74*
D01*
G02X599082Y464820I14827J1267*
G01*
X599082Y464820D01*
X599082Y457316D01*
X605790Y457316D01*
G74*
D01*
G02X618456Y452063I0J17896*
G01*
X618456Y452063D01*
X627323Y443196D01*
G74*
D01*
G02X632576Y430530I12643J12666*
G01*
X632576Y430530D01*
X632576Y302260D01*
G75*
D01*
G02X627323Y289594I-17896J0*
G01*
D02*
G37*
G36*
X792364Y264160D02*
G74*
D01*
G02X794992Y273495I17896J1*
G01*
X794992Y273495D01*
X794992Y275160D01*
G75*
D01*
G02X798820Y278988I3828J0*
G01*
X798820Y278988D01*
X800240Y278988D01*
G74*
D01*
G02X807492Y281841I10020J14828*
G01*
X807492Y281841D01*
X845704Y320053D01*
X845704Y374135D01*
G74*
D01*
G02X844120Y373792I1584J3485*
G01*
X844120Y373792D01*
X822120Y373792D01*
G75*
D01*
G02X819594Y374743I-1J3828*
G01*
X819594Y374743D01*
X752508Y374743D01*
X718482Y340718D01*
G74*
D01*
G02X708660Y336643I9823J9801*
G01*
X708660Y336643D01*
X695513Y336643D01*
G74*
D01*
G02X695548Y336120I3793J517*
G01*
X695548Y336120D01*
X695548Y314120D01*
G75*
D01*
G02X691720Y310292I-3828J0*
G01*
X691720Y310292D01*
X669720Y310292D01*
G75*
D01*
G02X665892Y314120I0J3828*
G01*
X665892Y314120D01*
X665892Y336120D01*
G74*
D01*
G02X666290Y337820I3828J0*
G01*
G75*
D01*
G02X665892Y339520I3430J1700*
G01*
X665892Y339520D01*
X665892Y361520D01*
G74*
D01*
G02X666290Y363220I3828J0*
G01*
G75*
D01*
G02X665892Y364920I3430J1700*
G01*
X665892Y364920D01*
X665892Y373149D01*
X646520Y392520D01*
G75*
D01*
G02X643927Y398792I6259J6260*
G01*
X643927Y398792D01*
X643927Y458455D01*
G75*
D01*
G02X646520Y464730I8853J15*
G01*
X646520Y464730D01*
X650330Y468540D01*
G74*
D01*
G02X653847Y470697I6259J6260*
G01*
G75*
D01*
G02X656590Y471133I2744J-8416*
G01*
X656590Y471133D01*
X660812Y471133D01*
X660812Y473280D01*
G74*
D01*
G02X661210Y474980I3828J0*
G01*
G75*
D01*
G02X660812Y476680I3430J1700*
G01*
X660812Y476680D01*
X660812Y482422D01*
X670382Y482422D01*
X670382Y477108D01*
X680898Y477108D01*
X680898Y482422D01*
X690468Y482422D01*
X690468Y476680D01*
G75*
D01*
G02X690070Y474980I-3828J0*
G01*
G74*
D01*
G02X690468Y473280I3430J1700*
G01*
X690468Y473280D01*
X690468Y452236D01*
X818238Y452236D01*
X818238Y464820D01*
G74*
D01*
G02X818292Y466077I14882J10*
G01*
X818292Y466077D01*
X818292Y475820D01*
G74*
D01*
G02X818690Y477520I3828J0*
G01*
G75*
D01*
G02X818292Y479220I3430J1700*
G01*
X818292Y479220D01*
X818292Y484962D01*
X827862Y484962D01*
X827862Y479648D01*
X831863Y479648D01*
G75*
D01*
G02X834377Y479648I1257J-14828*
G01*
X834377Y479648D01*
X838378Y479648D01*
X838378Y484962D01*
X847948Y484962D01*
X847948Y479220D01*
G75*
D01*
G02X847550Y477520I-3828J0*
G01*
G74*
D01*
G02X847948Y475820I3430J1700*
G01*
X847948Y475820D01*
X847948Y466077D01*
G74*
D01*
G02X848002Y464820I14827J1267*
G01*
X848002Y464820D01*
X848002Y457316D01*
X853440Y457316D01*
G74*
D01*
G02X866106Y452063I0J17896*
G01*
X866106Y452063D01*
X876243Y441926D01*
G74*
D01*
G02X881496Y429260I12643J12666*
G01*
X881496Y429260D01*
X881496Y312640D01*
G75*
D01*
G02X876243Y299974I-17896J0*
G01*
X876243Y299974D01*
X828156Y251887D01*
X828156Y219661D01*
G74*
D01*
G02X829161Y213580I17895J6081*
G01*
X829161Y213580D01*
X829161Y180828D01*
X832320Y180828D01*
G74*
D01*
G02X836148Y177000I0J3828*
G01*
X836148Y177000D01*
X836148Y132000D01*
G75*
D01*
G02X832320Y128172I-3828J0*
G01*
X832320Y128172D01*
X829161Y128172D01*
X829161Y125828D01*
X832320Y125828D01*
G74*
D01*
G02X836148Y122000I0J3828*
G01*
X836148Y122000D01*
X836148Y77000D01*
G75*
D01*
G02X832320Y73172I-3828J0*
G01*
X832320Y73172D01*
X787320Y73172D01*
G75*
D01*
G02X783492Y77000I0J3828*
G01*
X783492Y77000D01*
X783492Y122000D01*
G75*
D01*
G02X787320Y125828I3828J0*
G01*
X787320Y125828D01*
X791359Y125828D01*
X791359Y128172D01*
X787320Y128172D01*
G75*
D01*
G02X783492Y132000I0J3828*
G01*
X783492Y132000D01*
X783492Y177000D01*
G75*
D01*
G02X787320Y180828I3828J0*
G01*
X787320Y180828D01*
X791359Y180828D01*
X791359Y213580D01*
G74*
D01*
G02X792364Y219661I18901J0*
G01*
X792364Y219661D01*
X792364Y264160D01*
D02*
G37*
G36*
X217993Y346803D02*
G74*
D01*
G02X218028Y346280I3793J517*
G01*
X218028Y346280D01*
X218028Y324280D01*
G75*
D01*
G02X214200Y320452I-3828J0*
G01*
X214200Y320452D01*
X192200Y320452D01*
G75*
D01*
G02X188372Y324280I0J3828*
G01*
X188372Y324280D01*
X188372Y346280D01*
G74*
D01*
G02X188770Y347980I3828J0*
G01*
G75*
D01*
G02X188372Y349680I3430J1700*
G01*
X188372Y349680D01*
X188372Y371680D01*
G74*
D01*
G02X188770Y373380I3828J0*
G01*
G75*
D01*
G02X188372Y375080I3430J1700*
G01*
X188372Y375080D01*
X188372Y377227D01*
X185429Y377227D01*
G75*
D01*
G02X179160Y379820I-9J8853*
G01*
X179160Y379820D01*
X171540Y387440D01*
G75*
D01*
G02X168947Y393711I6259J6260*
G01*
X168947Y393711D01*
X168947Y467344D01*
G75*
D01*
G02X171540Y473620I8853J16*
G01*
X171540Y473620D01*
X174092Y476172D01*
X174092Y476172D01*
X176620Y478700D01*
G74*
D01*
G02X181588Y481198I6259J6259*
G01*
G75*
D01*
G02X182880Y481293I1293J-8757*
G01*
X182880Y481293D01*
X188372Y481293D01*
X188372Y483440D01*
G74*
D01*
G02X188770Y485140I3828J0*
G01*
G75*
D01*
G02X188372Y486840I3430J1700*
G01*
X188372Y486840D01*
X188372Y492582D01*
X197942Y492582D01*
X197942Y487268D01*
X208458Y487268D01*
X208458Y492582D01*
X218028Y492582D01*
X218028Y486840D01*
G75*
D01*
G02X217630Y485140I-3828J0*
G01*
G74*
D01*
G02X218028Y483440I3430J1700*
G01*
X218028Y483440D01*
X218028Y462396D01*
X330558Y462396D01*
X330558Y464820D01*
G74*
D01*
G02X330612Y466077I14882J10*
G01*
X330612Y466077D01*
X330612Y475820D01*
G74*
D01*
G02X331010Y477520I3828J0*
G01*
G75*
D01*
G02X330612Y479220I3430J1700*
G01*
X330612Y479220D01*
X330612Y484962D01*
X340182Y484962D01*
X340182Y479648D01*
X344183Y479648D01*
G75*
D01*
G02X346697Y479648I1257J-14828*
G01*
X346697Y479648D01*
X350698Y479648D01*
X350698Y484962D01*
X360268Y484962D01*
X360268Y479220D01*
G75*
D01*
G02X359870Y477520I-3828J0*
G01*
G74*
D01*
G02X360268Y475820I3430J1700*
G01*
X360268Y475820D01*
X360268Y466077D01*
G74*
D01*
G02X360322Y464820I14827J1267*
G01*
X360322Y464820D01*
X360322Y457316D01*
X365760Y457316D01*
G74*
D01*
G02X378426Y452063I0J17896*
G01*
X378426Y452063D01*
X388563Y441926D01*
G74*
D01*
G02X393816Y429260I12643J12666*
G01*
X393816Y429260D01*
X393816Y312420D01*
G75*
D01*
G02X388563Y299754I-17896J0*
G01*
X388563Y299754D01*
X370956Y282147D01*
X370956Y180828D01*
X375120Y180828D01*
G74*
D01*
G02X378948Y177000I0J3828*
G01*
X378948Y177000D01*
X378948Y132000D01*
G75*
D01*
G02X375120Y128172I-3828J0*
G01*
X375120Y128172D01*
X370956Y128172D01*
X370956Y125828D01*
X375120Y125828D01*
G74*
D01*
G02X378948Y122000I0J3828*
G01*
X378948Y122000D01*
X378948Y77000D01*
G75*
D01*
G02X375120Y73172I-3828J0*
G01*
X375120Y73172D01*
X330120Y73172D01*
G75*
D01*
G02X326292Y77000I0J3828*
G01*
X326292Y77000D01*
X326292Y122000D01*
G75*
D01*
G02X330120Y125828I3828J0*
G01*
X330120Y125828D01*
X335164Y125828D01*
X335164Y128172D01*
X330120Y128172D01*
G75*
D01*
G02X326292Y132000I0J3828*
G01*
X326292Y132000D01*
X326292Y177000D01*
G75*
D01*
G02X330120Y180828I3828J0*
G01*
X330120Y180828D01*
X335164Y180828D01*
X335164Y289536D01*
G75*
D01*
G02X340405Y302214I17896J24*
G01*
X340405Y302214D01*
X358024Y319833D01*
X358024Y374135D01*
G74*
D01*
G02X356440Y373792I1584J3485*
G01*
X356440Y373792D01*
X334440Y373792D01*
G75*
D01*
G02X331914Y374743I-1J3828*
G01*
X331914Y374743D01*
X277528Y374743D01*
X253662Y350878D01*
G74*
D01*
G02X243840Y346803I9823J9801*
G01*
X243840Y346803D01*
X217993Y346803D01*
D02*
G37*
G36*
X242719Y780816D02*
G75*
D01*
G02X248255Y794195I18901J14*
G01*
X248255Y794195D01*
X264985Y810925D01*
G75*
D01*
G02X278360Y816461I13365J-13364*
G01*
X278360Y816461D01*
X287020Y816461D01*
G74*
D01*
G02X298755Y812377I0J18901*
G01*
G74*
D01*
G02X302256Y809054I295J3817*
G01*
X302256Y809054D01*
X361345Y749965D01*
G75*
D01*
G02X361342Y723232I-13364J-13365*
G01*
X361342Y723232D01*
X323701Y685591D01*
X323701Y636121D01*
X330558Y636121D01*
X330558Y642620D01*
G74*
D01*
G02X330612Y643877I14882J10*
G01*
X330612Y643877D01*
X330612Y653620D01*
G74*
D01*
G02X331010Y655320I3828J0*
G01*
G75*
D01*
G02X330612Y657020I3430J1700*
G01*
X330612Y657020D01*
X330612Y679020D01*
G75*
D01*
G02X334440Y682848I3828J0*
G01*
X334440Y682848D01*
X356440Y682848D01*
G74*
D01*
G02X360268Y679020I0J3828*
G01*
X360268Y679020D01*
X360268Y657020D01*
G75*
D01*
G02X359870Y655320I-3828J0*
G01*
G74*
D01*
G02X360268Y653620I3430J1700*
G01*
X360268Y653620D01*
X360268Y643877D01*
G74*
D01*
G02X360322Y642620I14827J1267*
G01*
X360322Y642620D01*
X360322Y628873D01*
G75*
D01*
G02X360322Y605567I-14881J-11653*
G01*
X360322Y605567D01*
X360322Y591820D01*
G75*
D01*
G02X360268Y590563I-14882J10*
G01*
X360268Y590563D01*
X360268Y580820D01*
G75*
D01*
G02X359870Y579120I-3828J0*
G01*
G74*
D01*
G02X360268Y577420I3430J1700*
G01*
X360268Y577420D01*
X360268Y571678D01*
X350698Y571678D01*
X350698Y576992D01*
X346697Y576992D01*
G75*
D01*
G02X344183Y576992I-1257J14828*
G01*
X344183Y576992D01*
X340182Y576992D01*
X340182Y571678D01*
X330612Y571678D01*
X330612Y577420D01*
G74*
D01*
G02X331010Y579120I3828J0*
G01*
G75*
D01*
G02X330612Y580820I3430J1700*
G01*
X330612Y580820D01*
X330612Y590563D01*
G75*
D01*
G02X330558Y591820I14827J1267*
G01*
X330558Y591820D01*
X330558Y598319D01*
X313694Y598319D01*
G75*
D01*
G02X300325Y603855I-4J18901*
G01*
X300325Y603855D01*
X291435Y612745D01*
G75*
D01*
G02X285899Y626121I13364J13365*
G01*
X285899Y626121D01*
X285899Y693395D01*
G75*
D01*
G02X291435Y706785I18901J25*
G01*
X291435Y706785D01*
X302183Y717533D01*
X321250Y736600D01*
X282685Y775165D01*
X280521Y773001D01*
X280521Y699300D01*
G75*
D01*
G02X274973Y685923I-18901J0*
G01*
X274973Y685923D01*
X236172Y647122D01*
X222962Y633912D01*
G74*
D01*
G02X220116Y631224I3682J1048*
G01*
G75*
D01*
G02X196444Y631224I-11836J14735*
G01*
G74*
D01*
G02X193544Y634124I836J3736*
G01*
G75*
D01*
G02X193544Y657796I14735J11836*
G01*
G74*
D01*
G02X196232Y660642I3736J836*
G01*
X196232Y660642D01*
X236172Y700582D01*
X236172Y700582D01*
X242719Y707129D01*
X242719Y780816D01*
D02*
G37*
G36*
X750421Y701840D02*
G75*
D01*
G02X744873Y688463I-18901J0*
G01*
X744873Y688463D01*
X716172Y659762D01*
X695402Y638992D01*
G74*
D01*
G02X692556Y636304I3682J1048*
G01*
G75*
D01*
G02X668884Y636304I-11836J14735*
G01*
G74*
D01*
G02X665984Y639204I836J3736*
G01*
G75*
D01*
G02X665984Y662876I14735J11836*
G01*
G74*
D01*
G02X668672Y665722I3736J836*
G01*
X668672Y665722D01*
X712619Y709669D01*
X712619Y783355D01*
G75*
D01*
G02X718155Y796735I18901J15*
G01*
X718155Y796735D01*
X732345Y810925D01*
G75*
D01*
G02X745721Y816461I13365J-13364*
G01*
X745721Y816461D01*
X759460Y816461D01*
G74*
D01*
G02X771195Y812377I0J18901*
G01*
G74*
D01*
G02X774696Y809054I295J3817*
G01*
X774696Y809054D01*
X833785Y749965D01*
G75*
D01*
G02X828775Y719646I-13363J-13365*
G01*
X828775Y719646D01*
X807836Y698707D01*
X807836Y646223D01*
X818238Y635821D01*
X818238Y642620D01*
G74*
D01*
G02X818292Y643877I14882J10*
G01*
X818292Y643877D01*
X818292Y653620D01*
G74*
D01*
G02X818690Y655320I3828J0*
G01*
G75*
D01*
G02X818292Y657020I3430J1700*
G01*
X818292Y657020D01*
X818292Y679020D01*
G75*
D01*
G02X822120Y682848I3828J0*
G01*
X822120Y682848D01*
X844120Y682848D01*
G74*
D01*
G02X847948Y679020I0J3828*
G01*
X847948Y679020D01*
X847948Y657020D01*
G75*
D01*
G02X847550Y655320I-3828J0*
G01*
G74*
D01*
G02X847948Y653620I3430J1700*
G01*
X847948Y653620D01*
X847948Y643877D01*
G74*
D01*
G02X848002Y642620I14827J1267*
G01*
X848002Y642620D01*
X848002Y627160D01*
G75*
D01*
G02X848002Y607280I-14882J-9940*
G01*
X848002Y607280D01*
X848002Y591820D01*
G75*
D01*
G02X847948Y590563I-14882J10*
G01*
X847948Y590563D01*
X847948Y580820D01*
G75*
D01*
G02X847550Y579120I-3828J0*
G01*
G74*
D01*
G02X847948Y577420I3430J1700*
G01*
X847948Y577420D01*
X847948Y571678D01*
X838378Y571678D01*
X838378Y576992D01*
X834377Y576992D01*
G75*
D01*
G02X831863Y576992I-1257J14828*
G01*
X831863Y576992D01*
X827862Y576992D01*
X827862Y571678D01*
X818292Y571678D01*
X818292Y577420D01*
G74*
D01*
G02X818690Y579120I3828J0*
G01*
G75*
D01*
G02X818292Y580820I3430J1700*
G01*
X818292Y580820D01*
X818292Y590563D01*
G75*
D01*
G02X818238Y591820I14827J1267*
G01*
X818238Y591820D01*
X818238Y599324D01*
X811541Y599324D01*
G75*
D01*
G02X798875Y604565I-12J17896*
G01*
X798875Y604565D01*
X777285Y626155D01*
G75*
D01*
G02X772044Y638825I12655J12654*
G01*
X772044Y638825D01*
X772044Y706098D01*
G75*
D01*
G02X777285Y718774I17896J22*
G01*
X777285Y718774D01*
X794400Y735889D01*
X752585Y777705D01*
X750421Y775541D01*
X750421Y701840D01*
D02*
G37*
G36*
X476399Y780815D02*
G75*
D01*
G02X481935Y794195I18901J15*
G01*
X481935Y794195D01*
X496125Y808385D01*
G75*
D01*
G02X509501Y813921I13365J-13364*
G01*
X509501Y813921D01*
X524730Y813921D01*
G74*
D01*
G02X532186Y812388I1J18901*
G01*
X532186Y812388D01*
X537220Y812388D01*
G74*
D01*
G02X541048Y808560I0J3828*
G01*
X541048Y808560D01*
X541048Y805432D01*
X600105Y746375D01*
G75*
D01*
G02X595095Y716056I-13363J-13365*
G01*
X595095Y716056D01*
X561456Y682417D01*
X561456Y646223D01*
X569318Y638361D01*
X569318Y642620D01*
G74*
D01*
G02X569372Y643877I14882J10*
G01*
X569372Y643877D01*
X569372Y653620D01*
G74*
D01*
G02X569770Y655320I3828J0*
G01*
G75*
D01*
G02X569372Y657020I3430J1700*
G01*
X569372Y657020D01*
X569372Y679020D01*
G75*
D01*
G02X573200Y682848I3828J0*
G01*
X573200Y682848D01*
X595200Y682848D01*
G74*
D01*
G02X599028Y679020I0J3828*
G01*
X599028Y679020D01*
X599028Y657020D01*
G75*
D01*
G02X598630Y655320I-3828J0*
G01*
G74*
D01*
G02X599028Y653620I3430J1700*
G01*
X599028Y653620D01*
X599028Y643877D01*
G74*
D01*
G02X599082Y642620I14827J1267*
G01*
X599082Y642620D01*
X599082Y629700D01*
G75*
D01*
G02X599082Y609820I-14882J-9940*
G01*
X599082Y609820D01*
X599082Y591820D01*
G75*
D01*
G02X599028Y590563I-14882J10*
G01*
X599028Y590563D01*
X599028Y580820D01*
G75*
D01*
G02X598630Y579120I-3828J0*
G01*
G74*
D01*
G02X599028Y577420I3430J1700*
G01*
X599028Y577420D01*
X599028Y571678D01*
X589458Y571678D01*
X589458Y576992D01*
X585457Y576992D01*
G75*
D01*
G02X582943Y576992I-1257J14828*
G01*
X582943Y576992D01*
X578942Y576992D01*
X578942Y571678D01*
X569372Y571678D01*
X569372Y577420D01*
G74*
D01*
G02X569770Y579120I3828J0*
G01*
G75*
D01*
G02X569372Y580820I3430J1700*
G01*
X569372Y580820D01*
X569372Y590563D01*
G75*
D01*
G02X569318Y591820I14827J1267*
G01*
X569318Y591820D01*
X569318Y599324D01*
X565161Y599324D01*
G75*
D01*
G02X552495Y604565I-12J17896*
G01*
X552495Y604565D01*
X530905Y626155D01*
G75*
D01*
G02X525664Y638825I12655J12654*
G01*
X525664Y638825D01*
X525664Y689806D01*
G75*
D01*
G02X530905Y702484I17896J24*
G01*
X530905Y702484D01*
X544593Y716172D01*
X560720Y732299D01*
X517110Y775910D01*
X514201Y773001D01*
X514201Y699300D01*
G75*
D01*
G02X508653Y685923I-18901J0*
G01*
X508653Y685923D01*
X461722Y638992D01*
G74*
D01*
G02X458876Y636304I3682J1048*
G01*
G75*
D01*
G02X435204Y636304I-11836J14735*
G01*
G74*
D01*
G02X432304Y639204I836J3736*
G01*
G75*
D01*
G02X432304Y662876I14735J11836*
G01*
G74*
D01*
G02X434992Y665722I3736J836*
G01*
X434992Y665722D01*
X476172Y706902D01*
X476399Y707129D01*
X476399Y780815D01*
D02*
G37*
G36*
X520300Y254412D02*
G75*
D01*
G02X516472Y258240I0J3828*
G01*
X516472Y258240D01*
X516472Y263982D01*
X526042Y263982D01*
X526042Y254412D01*
X520300Y254412D01*
D02*
G37*
G36*
X542300Y254412D02*
X542300Y254412D01*
X536558Y254412D01*
X536558Y263982D01*
X546128Y263982D01*
X546128Y258240D01*
G75*
D01*
G02X542300Y254412I-3828J0*
G01*
D02*
G37*
G36*
X520300Y284068D02*
X520300Y284068D01*
X526042Y284068D01*
X526042Y274498D01*
X516472Y274498D01*
X516472Y280240D01*
G75*
D01*
G02X520300Y284068I3828J0*
G01*
D02*
G37*
G36*
X546128Y280240D02*
X546128Y280240D01*
X546128Y274498D01*
X536558Y274498D01*
X536558Y284068D01*
X542300Y284068D01*
G74*
D01*
G02X546128Y280240I0J3828*
G01*
D02*
G37*
G36*
X526300Y269240D02*
G75*
D01*
G02X526300Y269240I5000J0*
G01*
D02*
G37*
G36*
X286620Y254412D02*
G75*
D01*
G02X282792Y258240I0J3828*
G01*
X282792Y258240D01*
X282792Y263982D01*
X292362Y263982D01*
X292362Y254412D01*
X286620Y254412D01*
D02*
G37*
G36*
X308620Y254412D02*
X308620Y254412D01*
X302878Y254412D01*
X302878Y263982D01*
X312448Y263982D01*
X312448Y258240D01*
G75*
D01*
G02X308620Y254412I-3828J0*
G01*
D02*
G37*
G36*
X286620Y284068D02*
X286620Y284068D01*
X292362Y284068D01*
X292362Y274498D01*
X282792Y274498D01*
X282792Y280240D01*
G75*
D01*
G02X286620Y284068I3828J0*
G01*
D02*
G37*
G36*
X292620Y269240D02*
G75*
D01*
G02X292620Y269240I5000J0*
G01*
D02*
G37*
G36*
X312448Y280240D02*
X312448Y280240D01*
X312448Y274498D01*
X302878Y274498D01*
X302878Y284068D01*
X308620Y284068D01*
G74*
D01*
G02X312448Y280240I0J3828*
G01*
D02*
G37*
G36*
X743820Y249332D02*
G75*
D01*
G02X739992Y253160I0J3828*
G01*
X739992Y253160D01*
X739992Y258902D01*
X749562Y258902D01*
X749562Y249332D01*
X743820Y249332D01*
D02*
G37*
G36*
X749820Y264160D02*
G75*
D01*
G02X749820Y264160I5000J0*
G01*
D02*
G37*
G36*
X765820Y249332D02*
X765820Y249332D01*
X760078Y249332D01*
X760078Y258902D01*
X769648Y258902D01*
X769648Y253160D01*
G75*
D01*
G02X765820Y249332I-3828J0*
G01*
D02*
G37*
G36*
X743820Y278988D02*
X743820Y278988D01*
X749562Y278988D01*
X749562Y269418D01*
X739992Y269418D01*
X739992Y275160D01*
G75*
D01*
G02X743820Y278988I3828J0*
G01*
D02*
G37*
G36*
X769648Y275160D02*
X769648Y275160D01*
X769648Y269418D01*
X760078Y269418D01*
X760078Y278988D01*
X765820Y278988D01*
G74*
D01*
G02X769648Y275160I0J3828*
G01*
D02*
G37*
G36*
X337460Y797560D02*
G75*
D01*
G02X337460Y797560I5000J0*
G01*
D02*
G37*
G36*
X331460Y782732D02*
G75*
D01*
G02X327632Y786560I0J3828*
G01*
X327632Y786560D01*
X327632Y792302D01*
X337202Y792302D01*
X337202Y782732D01*
X331460Y782732D01*
D02*
G37*
G36*
X353460Y782732D02*
X353460Y782732D01*
X347718Y782732D01*
X347718Y792302D01*
X357288Y792302D01*
X357288Y786560D01*
G75*
D01*
G02X353460Y782732I-3828J0*
G01*
D02*
G37*
G36*
X331460Y812388D02*
X331460Y812388D01*
X337202Y812388D01*
X337202Y802818D01*
X327632Y802818D01*
X327632Y808560D01*
G75*
D01*
G02X331460Y812388I3828J0*
G01*
D02*
G37*
G36*
X357288Y808560D02*
X357288Y808560D01*
X357288Y802818D01*
X347718Y802818D01*
X347718Y812388D01*
X353460Y812388D01*
G74*
D01*
G02X357288Y808560I0J3828*
G01*
D02*
G37*
G36*
X198200Y497840D02*
G75*
D01*
G02X198200Y497840I5000J0*
G01*
D02*
G37*
G36*
X192200Y512668D02*
X192200Y512668D01*
X197942Y512668D01*
X197942Y503098D01*
X188372Y503098D01*
X188372Y508840D01*
G75*
D01*
G02X192200Y512668I3828J0*
G01*
D02*
G37*
G36*
X218028Y508840D02*
X218028Y508840D01*
X218028Y503098D01*
X208458Y503098D01*
X208458Y512668D01*
X214200Y512668D01*
G74*
D01*
G02X218028Y508840I0J3828*
G01*
D02*
G37*
G36*
X809900Y797560D02*
G75*
D01*
G02X809900Y797560I5000J0*
G01*
D02*
G37*
G36*
X803900Y782732D02*
G75*
D01*
G02X800072Y786560I0J3828*
G01*
X800072Y786560D01*
X800072Y792302D01*
X809642Y792302D01*
X809642Y782732D01*
X803900Y782732D01*
D02*
G37*
G36*
X825900Y782732D02*
X825900Y782732D01*
X820158Y782732D01*
X820158Y792302D01*
X829728Y792302D01*
X829728Y786560D01*
G75*
D01*
G02X825900Y782732I-3828J0*
G01*
D02*
G37*
G36*
X803900Y812388D02*
X803900Y812388D01*
X809642Y812388D01*
X809642Y802818D01*
X800072Y802818D01*
X800072Y808560D01*
G75*
D01*
G02X803900Y812388I3828J0*
G01*
D02*
G37*
G36*
X829728Y808560D02*
X829728Y808560D01*
X829728Y802818D01*
X820158Y802818D01*
X820158Y812388D01*
X825900Y812388D01*
G74*
D01*
G02X829728Y808560I0J3828*
G01*
D02*
G37*
G36*
X769648Y224360D02*
X769648Y224360D01*
X769648Y218618D01*
X760078Y218618D01*
X760078Y228188D01*
X765820Y228188D01*
G74*
D01*
G02X769648Y224360I0J3828*
G01*
D02*
G37*
G36*
X728492Y77000D02*
X728492Y77000D01*
X728492Y91880D01*
X747200Y91880D01*
X747200Y73172D01*
X732320Y73172D01*
G75*
D01*
G02X728492Y77000I0J3828*
G01*
D02*
G37*
G36*
X777320Y73172D02*
X777320Y73172D01*
X762440Y73172D01*
X762440Y91880D01*
X781148Y91880D01*
X781148Y77000D01*
G75*
D01*
G02X777320Y73172I-3828J0*
G01*
D02*
G37*
G36*
X749820Y99500D02*
G75*
D01*
G02X749820Y99500I5000J0*
G01*
D02*
G37*
G36*
X728492Y122000D02*
G75*
D01*
G02X732320Y125828I3828J0*
G01*
X732320Y125828D01*
X747200Y125828D01*
X747200Y107120D01*
X728492Y107120D01*
X728492Y122000D01*
D02*
G37*
G36*
X781148Y122000D02*
X781148Y122000D01*
X781148Y107120D01*
X762440Y107120D01*
X762440Y125828D01*
X777320Y125828D01*
G74*
D01*
G02X781148Y122000I0J3828*
G01*
D02*
G37*
G36*
X728492Y132000D02*
X728492Y132000D01*
X728492Y146880D01*
X747200Y146880D01*
X747200Y128172D01*
X732320Y128172D01*
G75*
D01*
G02X728492Y132000I0J3828*
G01*
D02*
G37*
G36*
X777320Y128172D02*
X777320Y128172D01*
X762440Y128172D01*
X762440Y146880D01*
X781148Y146880D01*
X781148Y132000D01*
G75*
D01*
G02X777320Y128172I-3828J0*
G01*
D02*
G37*
G36*
X749820Y154500D02*
G75*
D01*
G02X749820Y154500I5000J0*
G01*
D02*
G37*
G36*
X728492Y177000D02*
G75*
D01*
G02X732320Y180828I3828J0*
G01*
X732320Y180828D01*
X747200Y180828D01*
X747200Y162120D01*
X728492Y162120D01*
X728492Y177000D01*
D02*
G37*
G36*
X781148Y177000D02*
X781148Y177000D01*
X781148Y162120D01*
X762440Y162120D01*
X762440Y180828D01*
X777320Y180828D01*
G74*
D01*
G02X781148Y177000I0J3828*
G01*
D02*
G37*
G36*
X743820Y198532D02*
G75*
D01*
G02X739992Y202360I0J3828*
G01*
X739992Y202360D01*
X739992Y208102D01*
X749562Y208102D01*
X749562Y198532D01*
X743820Y198532D01*
D02*
G37*
G36*
X765820Y198532D02*
X765820Y198532D01*
X760078Y198532D01*
X760078Y208102D01*
X769648Y208102D01*
X769648Y202360D01*
G75*
D01*
G02X765820Y198532I-3828J0*
G01*
D02*
G37*
G36*
X743820Y228188D02*
X743820Y228188D01*
X749562Y228188D01*
X749562Y218618D01*
X739992Y218618D01*
X739992Y224360D01*
G75*
D01*
G02X743820Y228188I3828J0*
G01*
D02*
G37*
G36*
X749820Y213360D02*
G75*
D01*
G02X749820Y213360I5000J0*
G01*
D02*
G37*
G36*
X576220Y797560D02*
G75*
D01*
G02X576220Y797560I5000J0*
G01*
D02*
G37*
G36*
X570220Y782732D02*
G75*
D01*
G02X566392Y786560I0J3828*
G01*
X566392Y786560D01*
X566392Y792302D01*
X575962Y792302D01*
X575962Y782732D01*
X570220Y782732D01*
D02*
G37*
G36*
X592220Y782732D02*
X592220Y782732D01*
X586478Y782732D01*
X586478Y792302D01*
X596048Y792302D01*
X596048Y786560D01*
G75*
D01*
G02X592220Y782732I-3828J0*
G01*
D02*
G37*
G36*
X570220Y812388D02*
X570220Y812388D01*
X575962Y812388D01*
X575962Y802818D01*
X566392Y802818D01*
X566392Y808560D01*
G75*
D01*
G02X570220Y812388I3828J0*
G01*
D02*
G37*
G36*
X596048Y808560D02*
X596048Y808560D01*
X596048Y802818D01*
X586478Y802818D01*
X586478Y812388D01*
X592220Y812388D01*
G74*
D01*
G02X596048Y808560I0J3828*
G01*
D02*
G37*
G36*
X818292Y501220D02*
G74*
D01*
G02X818690Y502920I3828J0*
G01*
G75*
D01*
G02X818292Y504620I3430J1700*
G01*
X818292Y504620D01*
X818292Y510362D01*
X827862Y510362D01*
X827862Y495478D01*
X818292Y495478D01*
X818292Y501220D01*
D02*
G37*
G36*
X847948Y501220D02*
X847948Y501220D01*
X847948Y495478D01*
X838378Y495478D01*
X838378Y510362D01*
X847948Y510362D01*
X847948Y504620D01*
G75*
D01*
G02X847550Y502920I-3828J0*
G01*
G74*
D01*
G02X847948Y501220I3430J1700*
G01*
D02*
G37*
G36*
X828120Y490220D02*
G75*
D01*
G02X828120Y490220I5000J0*
G01*
D02*
G37*
G36*
X828120Y515620D02*
G75*
D01*
G02X828120Y515620I5000J0*
G01*
D02*
G37*
G36*
X818292Y526620D02*
G74*
D01*
G02X818690Y528320I3828J0*
G01*
G75*
D01*
G02X818292Y530020I3430J1700*
G01*
X818292Y530020D01*
X818292Y535762D01*
X827862Y535762D01*
X827862Y520878D01*
X818292Y520878D01*
X818292Y526620D01*
D02*
G37*
G36*
X847948Y526620D02*
X847948Y526620D01*
X847948Y520878D01*
X838378Y520878D01*
X838378Y535762D01*
X847948Y535762D01*
X847948Y530020D01*
G75*
D01*
G02X847550Y528320I-3828J0*
G01*
G74*
D01*
G02X847948Y526620I3430J1700*
G01*
D02*
G37*
G36*
X828120Y541020D02*
G75*
D01*
G02X828120Y541020I5000J0*
G01*
D02*
G37*
G36*
X818292Y552020D02*
G74*
D01*
G02X818690Y553720I3828J0*
G01*
G75*
D01*
G02X818292Y555420I3430J1700*
G01*
X818292Y555420D01*
X818292Y561162D01*
X827862Y561162D01*
X827862Y546278D01*
X818292Y546278D01*
X818292Y552020D01*
D02*
G37*
G36*
X847948Y552020D02*
X847948Y552020D01*
X847948Y546278D01*
X838378Y546278D01*
X838378Y561162D01*
X847948Y561162D01*
X847948Y555420D01*
G75*
D01*
G02X847550Y553720I-3828J0*
G01*
G74*
D01*
G02X847948Y552020I3430J1700*
G01*
D02*
G37*
G36*
X828120Y566420D02*
G75*
D01*
G02X828120Y566420I5000J0*
G01*
D02*
G37*
G36*
X144420Y149420D02*
G75*
D01*
G02X144420Y149420I5000J0*
G01*
D02*
G37*
G36*
X123092Y71920D02*
X123092Y71920D01*
X123092Y86800D01*
X141800Y86800D01*
X141800Y68092D01*
X126920Y68092D01*
G75*
D01*
G02X123092Y71920I0J3828*
G01*
D02*
G37*
G36*
X175748Y71920D02*
G75*
D01*
G02X171920Y68092I-3828J0*
G01*
X171920Y68092D01*
X157040Y68092D01*
X157040Y86800D01*
X175748Y86800D01*
X175748Y71920D01*
D02*
G37*
G36*
X144420Y94420D02*
G75*
D01*
G02X144420Y94420I5000J0*
G01*
D02*
G37*
G36*
X126920Y120748D02*
X126920Y120748D01*
X141800Y120748D01*
X141800Y102040D01*
X123092Y102040D01*
X123092Y116920D01*
G75*
D01*
G02X126920Y120748I3828J0*
G01*
D02*
G37*
G36*
X175748Y116920D02*
X175748Y116920D01*
X175748Y102040D01*
X157040Y102040D01*
X157040Y120748D01*
X171920Y120748D01*
G74*
D01*
G02X175748Y116920I0J3828*
G01*
D02*
G37*
G36*
X123092Y126920D02*
X123092Y126920D01*
X123092Y141800D01*
X141800Y141800D01*
X141800Y123092D01*
X126920Y123092D01*
G75*
D01*
G02X123092Y126920I0J3828*
G01*
D02*
G37*
G36*
X175748Y126920D02*
G75*
D01*
G02X171920Y123092I-3828J0*
G01*
X171920Y123092D01*
X157040Y123092D01*
X157040Y141800D01*
X175748Y141800D01*
X175748Y126920D01*
D02*
G37*
G36*
X126920Y175748D02*
X126920Y175748D01*
X141800Y175748D01*
X141800Y157040D01*
X123092Y157040D01*
X123092Y171920D01*
G75*
D01*
G02X126920Y175748I3828J0*
G01*
D02*
G37*
G36*
X175748Y171920D02*
X175748Y171920D01*
X175748Y157040D01*
X157040Y157040D01*
X157040Y175748D01*
X171920Y175748D01*
G74*
D01*
G02X175748Y171920I0J3828*
G01*
D02*
G37*
G36*
X526300Y213360D02*
G75*
D01*
G02X526300Y213360I5000J0*
G01*
D02*
G37*
G36*
X504972Y77000D02*
X504972Y77000D01*
X504972Y91880D01*
X523680Y91880D01*
X523680Y73172D01*
X508800Y73172D01*
G75*
D01*
G02X504972Y77000I0J3828*
G01*
D02*
G37*
G36*
X553800Y73172D02*
X553800Y73172D01*
X538920Y73172D01*
X538920Y91880D01*
X557628Y91880D01*
X557628Y77000D01*
G75*
D01*
G02X553800Y73172I-3828J0*
G01*
D02*
G37*
G36*
X526300Y99500D02*
G75*
D01*
G02X526300Y99500I5000J0*
G01*
D02*
G37*
G36*
X504972Y122000D02*
G75*
D01*
G02X508800Y125828I3828J0*
G01*
X508800Y125828D01*
X523680Y125828D01*
X523680Y107120D01*
X504972Y107120D01*
X504972Y122000D01*
D02*
G37*
G36*
X557628Y122000D02*
X557628Y122000D01*
X557628Y107120D01*
X538920Y107120D01*
X538920Y125828D01*
X553800Y125828D01*
G74*
D01*
G02X557628Y122000I0J3828*
G01*
D02*
G37*
G36*
X504972Y132000D02*
X504972Y132000D01*
X504972Y146880D01*
X523680Y146880D01*
X523680Y128172D01*
X508800Y128172D01*
G75*
D01*
G02X504972Y132000I0J3828*
G01*
D02*
G37*
G36*
X553800Y128172D02*
X553800Y128172D01*
X538920Y128172D01*
X538920Y146880D01*
X557628Y146880D01*
X557628Y132000D01*
G75*
D01*
G02X553800Y128172I-3828J0*
G01*
D02*
G37*
G36*
X526300Y154500D02*
G75*
D01*
G02X526300Y154500I5000J0*
G01*
D02*
G37*
G36*
X504972Y177000D02*
G75*
D01*
G02X508800Y180828I3828J0*
G01*
X508800Y180828D01*
X523680Y180828D01*
X523680Y162120D01*
X504972Y162120D01*
X504972Y177000D01*
D02*
G37*
G36*
X557628Y177000D02*
X557628Y177000D01*
X557628Y162120D01*
X538920Y162120D01*
X538920Y180828D01*
X553800Y180828D01*
G74*
D01*
G02X557628Y177000I0J3828*
G01*
D02*
G37*
G36*
X520300Y198532D02*
G75*
D01*
G02X516472Y202360I0J3828*
G01*
X516472Y202360D01*
X516472Y208102D01*
X526042Y208102D01*
X526042Y198532D01*
X520300Y198532D01*
D02*
G37*
G36*
X542300Y198532D02*
X542300Y198532D01*
X536558Y198532D01*
X536558Y208102D01*
X546128Y208102D01*
X546128Y202360D01*
G75*
D01*
G02X542300Y198532I-3828J0*
G01*
D02*
G37*
G36*
X520300Y228188D02*
X520300Y228188D01*
X526042Y228188D01*
X526042Y218618D01*
X516472Y218618D01*
X516472Y224360D01*
G75*
D01*
G02X520300Y228188I3828J0*
G01*
D02*
G37*
G36*
X546128Y224360D02*
X546128Y224360D01*
X546128Y218618D01*
X536558Y218618D01*
X536558Y228188D01*
X542300Y228188D01*
G74*
D01*
G02X546128Y224360I0J3828*
G01*
D02*
G37*
G36*
X312448Y224360D02*
X312448Y224360D01*
X312448Y218618D01*
X302878Y218618D01*
X302878Y228188D01*
X308620Y228188D01*
G74*
D01*
G02X312448Y224360I0J3828*
G01*
D02*
G37*
G36*
X271292Y77000D02*
X271292Y77000D01*
X271292Y91880D01*
X290000Y91880D01*
X290000Y73172D01*
X275120Y73172D01*
G75*
D01*
G02X271292Y77000I0J3828*
G01*
D02*
G37*
G36*
X320120Y73172D02*
X320120Y73172D01*
X305240Y73172D01*
X305240Y91880D01*
X323948Y91880D01*
X323948Y77000D01*
G75*
D01*
G02X320120Y73172I-3828J0*
G01*
D02*
G37*
G36*
X292620Y99500D02*
G75*
D01*
G02X292620Y99500I5000J0*
G01*
D02*
G37*
G36*
X271292Y122000D02*
G75*
D01*
G02X275120Y125828I3828J0*
G01*
X275120Y125828D01*
X290000Y125828D01*
X290000Y107120D01*
X271292Y107120D01*
X271292Y122000D01*
D02*
G37*
G36*
X323948Y122000D02*
X323948Y122000D01*
X323948Y107120D01*
X305240Y107120D01*
X305240Y125828D01*
X320120Y125828D01*
G74*
D01*
G02X323948Y122000I0J3828*
G01*
D02*
G37*
G36*
X271292Y132000D02*
X271292Y132000D01*
X271292Y146880D01*
X290000Y146880D01*
X290000Y128172D01*
X275120Y128172D01*
G75*
D01*
G02X271292Y132000I0J3828*
G01*
D02*
G37*
G36*
X320120Y128172D02*
X320120Y128172D01*
X305240Y128172D01*
X305240Y146880D01*
X323948Y146880D01*
X323948Y132000D01*
G75*
D01*
G02X320120Y128172I-3828J0*
G01*
D02*
G37*
G36*
X292620Y154500D02*
G75*
D01*
G02X292620Y154500I5000J0*
G01*
D02*
G37*
G36*
X271292Y177000D02*
G75*
D01*
G02X275120Y180828I3828J0*
G01*
X275120Y180828D01*
X290000Y180828D01*
X290000Y162120D01*
X271292Y162120D01*
X271292Y177000D01*
D02*
G37*
G36*
X323948Y177000D02*
X323948Y177000D01*
X323948Y162120D01*
X305240Y162120D01*
X305240Y180828D01*
X320120Y180828D01*
G74*
D01*
G02X323948Y177000I0J3828*
G01*
D02*
G37*
G36*
X286620Y198532D02*
G75*
D01*
G02X282792Y202360I0J3828*
G01*
X282792Y202360D01*
X282792Y208102D01*
X292362Y208102D01*
X292362Y198532D01*
X286620Y198532D01*
D02*
G37*
G36*
X308620Y198532D02*
X308620Y198532D01*
X302878Y198532D01*
X302878Y208102D01*
X312448Y208102D01*
X312448Y202360D01*
G75*
D01*
G02X308620Y198532I-3828J0*
G01*
D02*
G37*
G36*
X286620Y228188D02*
X286620Y228188D01*
X292362Y228188D01*
X292362Y218618D01*
X282792Y218618D01*
X282792Y224360D01*
G75*
D01*
G02X286620Y228188I3828J0*
G01*
D02*
G37*
G36*
X292620Y213360D02*
G75*
D01*
G02X292620Y213360I5000J0*
G01*
D02*
G37*
G36*
X569372Y501220D02*
G74*
D01*
G02X569770Y502920I3828J0*
G01*
G75*
D01*
G02X569372Y504620I3430J1700*
G01*
X569372Y504620D01*
X569372Y510362D01*
X578942Y510362D01*
X578942Y495478D01*
X569372Y495478D01*
X569372Y501220D01*
D02*
G37*
G36*
X579200Y490220D02*
G75*
D01*
G02X579200Y490220I5000J0*
G01*
D02*
G37*
G36*
X599028Y501220D02*
X599028Y501220D01*
X599028Y495478D01*
X589458Y495478D01*
X589458Y510362D01*
X599028Y510362D01*
X599028Y504620D01*
G75*
D01*
G02X598630Y502920I-3828J0*
G01*
G74*
D01*
G02X599028Y501220I3430J1700*
G01*
D02*
G37*
G36*
X664640Y502508D02*
X664640Y502508D01*
X670382Y502508D01*
X670382Y492938D01*
X660812Y492938D01*
X660812Y498680D01*
G75*
D01*
G02X664640Y502508I3828J0*
G01*
D02*
G37*
G36*
X670640Y487680D02*
G75*
D01*
G02X670640Y487680I5000J0*
G01*
D02*
G37*
G36*
X690468Y498680D02*
X690468Y498680D01*
X690468Y492938D01*
X680898Y492938D01*
X680898Y502508D01*
X686640Y502508D01*
G74*
D01*
G02X690468Y498680I0J3828*
G01*
D02*
G37*
G36*
X579200Y515620D02*
G75*
D01*
G02X579200Y515620I5000J0*
G01*
D02*
G37*
G36*
X579200Y541020D02*
G75*
D01*
G02X579200Y541020I5000J0*
G01*
D02*
G37*
G36*
X569372Y526620D02*
G74*
D01*
G02X569770Y528320I3828J0*
G01*
G75*
D01*
G02X569372Y530020I3430J1700*
G01*
X569372Y530020D01*
X569372Y535762D01*
X578942Y535762D01*
X578942Y520878D01*
X569372Y520878D01*
X569372Y526620D01*
D02*
G37*
G36*
X599028Y526620D02*
X599028Y526620D01*
X599028Y520878D01*
X589458Y520878D01*
X589458Y535762D01*
X599028Y535762D01*
X599028Y530020D01*
G75*
D01*
G02X598630Y528320I-3828J0*
G01*
G74*
D01*
G02X599028Y526620I3430J1700*
G01*
D02*
G37*
G36*
X569372Y555420D02*
X569372Y555420D01*
X569372Y561162D01*
X578942Y561162D01*
X578942Y546278D01*
X569372Y546278D01*
X569372Y552020D01*
G74*
D01*
G02X569770Y553720I3828J0*
G01*
G75*
D01*
G02X569372Y555420I3430J1700*
G01*
D02*
G37*
G36*
X599028Y555420D02*
G75*
D01*
G02X598630Y553720I-3828J0*
G01*
G74*
D01*
G02X599028Y552020I3430J1700*
G01*
X599028Y552020D01*
X599028Y546278D01*
X589458Y546278D01*
X589458Y561162D01*
X599028Y561162D01*
X599028Y555420D01*
D02*
G37*
G36*
X579200Y566420D02*
G75*
D01*
G02X579200Y566420I5000J0*
G01*
D02*
G37*
G36*
X330612Y501220D02*
G74*
D01*
G02X331010Y502920I3828J0*
G01*
G75*
D01*
G02X330612Y504620I3430J1700*
G01*
X330612Y504620D01*
X330612Y510362D01*
X340182Y510362D01*
X340182Y495478D01*
X330612Y495478D01*
X330612Y501220D01*
D02*
G37*
G36*
X360268Y501220D02*
X360268Y501220D01*
X360268Y495478D01*
X350698Y495478D01*
X350698Y510362D01*
X360268Y510362D01*
X360268Y504620D01*
G75*
D01*
G02X359870Y502920I-3828J0*
G01*
G74*
D01*
G02X360268Y501220I3430J1700*
G01*
D02*
G37*
G36*
X340440Y490220D02*
G75*
D01*
G02X340440Y490220I5000J0*
G01*
D02*
G37*
G36*
X425880Y507588D02*
X425880Y507588D01*
X431622Y507588D01*
X431622Y498018D01*
X422052Y498018D01*
X422052Y503760D01*
G75*
D01*
G02X425880Y507588I3828J0*
G01*
D02*
G37*
G36*
X431880Y492760D02*
G75*
D01*
G02X431880Y492760I5000J0*
G01*
D02*
G37*
G36*
X451708Y503760D02*
X451708Y503760D01*
X451708Y498018D01*
X442138Y498018D01*
X442138Y507588D01*
X447880Y507588D01*
G74*
D01*
G02X451708Y503760I0J3828*
G01*
D02*
G37*
G36*
X340440Y515620D02*
G75*
D01*
G02X340440Y515620I5000J0*
G01*
D02*
G37*
G36*
X330612Y526620D02*
G74*
D01*
G02X331010Y528320I3828J0*
G01*
G75*
D01*
G02X330612Y530020I3430J1700*
G01*
X330612Y530020D01*
X330612Y535762D01*
X340182Y535762D01*
X340182Y520878D01*
X330612Y520878D01*
X330612Y526620D01*
D02*
G37*
G36*
X360268Y526620D02*
X360268Y526620D01*
X360268Y520878D01*
X350698Y520878D01*
X350698Y535762D01*
X360268Y535762D01*
X360268Y530020D01*
G75*
D01*
G02X359870Y528320I-3828J0*
G01*
G74*
D01*
G02X360268Y526620I3430J1700*
G01*
D02*
G37*
G36*
X340440Y541020D02*
G75*
D01*
G02X340440Y541020I5000J0*
G01*
D02*
G37*
G36*
X330612Y552020D02*
G74*
D01*
G02X331010Y553720I3828J0*
G01*
G75*
D01*
G02X330612Y555420I3430J1700*
G01*
X330612Y555420D01*
X330612Y561162D01*
X340182Y561162D01*
X340182Y546278D01*
X330612Y546278D01*
X330612Y552020D01*
D02*
G37*
G36*
X360268Y552020D02*
X360268Y552020D01*
X360268Y546278D01*
X350698Y546278D01*
X350698Y561162D01*
X360268Y561162D01*
X360268Y555420D01*
G75*
D01*
G02X359870Y553720I-3828J0*
G01*
G74*
D01*
G02X360268Y552020I3430J1700*
G01*
D02*
G37*
G36*
X340440Y566420D02*
G75*
D01*
G02X340440Y566420I5000J0*
G01*
D02*
G37*
%LPD*%
G36*
X500728Y398432D02*
X500728Y398432D01*
X476172Y373876D01*
X466692Y364397D01*
X456753Y364397D01*
G75*
D01*
G03X456788Y364920I-3793J517*
G01*
X456788Y364920D01*
X456788Y386920D01*
G74*
D01*
G03X452960Y390748I3828J0*
G01*
X452960Y390748D01*
X433301Y390748D01*
X422873Y401177D01*
X422873Y428281D01*
G75*
D01*
G03X436880Y421524I14007J11139*
G01*
X436880Y421524D01*
X569318Y421524D01*
X569318Y414020D01*
G75*
D01*
G03X569372Y412763I14882J10*
G01*
X569372Y412763D01*
X569372Y403020D01*
G75*
D01*
G03X569407Y402497I3828J-6*
G01*
X569407Y402497D01*
X510546Y402497D01*
G75*
D01*
G03X500728Y398432I-5J-13877*
G01*
D02*
G37*
G36*
X818238Y414020D02*
X818238Y414020D01*
X818238Y416444D01*
X675640Y416444D01*
G75*
D01*
G02X661633Y423201I0J17896*
G01*
X661633Y423201D01*
X661633Y402447D01*
X673331Y390748D01*
X691720Y390748D01*
G74*
D01*
G02X695548Y386920I0J3828*
G01*
X695548Y386920D01*
X695548Y364920D01*
G75*
D01*
G02X695513Y364397I-3828J-6*
G01*
X695513Y364397D01*
X702912Y364397D01*
X716172Y377656D01*
X736948Y398432D01*
G75*
D01*
G02X746766Y402497I9813J-9811*
G01*
X746766Y402497D01*
X818327Y402497D01*
G75*
D01*
G02X818292Y403020I3793J517*
G01*
X818292Y403020D01*
X818292Y412763D01*
G75*
D01*
G02X818238Y414020I14827J1267*
G01*
D02*
G37*
G36*
X261968Y398432D02*
X261968Y398432D01*
X238092Y374557D01*
X217993Y374557D01*
G75*
D01*
G03X218028Y375080I-3793J517*
G01*
X218028Y375080D01*
X218028Y397080D01*
G74*
D01*
G03X214200Y400908I3828J0*
G01*
X214200Y400908D01*
X192200Y400908D01*
G75*
D01*
G03X188372Y397080I0J-3828*
G01*
X188372Y397080D01*
X188372Y395648D01*
X186653Y397367D01*
X186653Y433361D01*
G75*
D01*
G03X200660Y426604I14007J11139*
G01*
X200660Y426604D01*
X330558Y426604D01*
X330558Y414020D01*
G75*
D01*
G03X330612Y412763I14882J10*
G01*
X330612Y412763D01*
X330612Y403020D01*
G75*
D01*
G03X330647Y402497I3828J-6*
G01*
X330647Y402497D01*
X271791Y402497D01*
G75*
D01*
G03X261968Y398432I-10J-13877*
G01*
D02*
G37*
G36*
X188372Y457510D02*
X188372Y457510D01*
X188372Y458040D01*
G74*
D01*
G02X188770Y459740I3828J0*
G01*
G75*
D01*
G02X188372Y461440I3430J1700*
G01*
X188372Y461440D01*
X188372Y463587D01*
X186653Y463587D01*
X186653Y455639D01*
G74*
D01*
G02X188372Y457510I14005J11142*
G01*
D02*
G37*
G54D11*
X818238Y414020D02*
X818238Y416444D01*
X675640Y416444D01*
G75*
D01*
G02X661633Y423201I0J17896*
G01*
X661633Y402447D01*
X673331Y390748D01*
X691720Y390748D01*
G74*
D01*
G02X695548Y386920I0J3828*
G01*
X695548Y364920D01*
G75*
D01*
G02X695513Y364397I-3828J-6*
G01*
X702912Y364397D01*
X716172Y377656D01*
X736948Y398432D01*
G75*
D01*
G02X746766Y402497I9813J-9811*
G01*
X818327Y402497D01*
G75*
D01*
G02X818292Y403020I3793J517*
G01*
X818292Y412763D01*
G75*
D01*
G02X818238Y414020I14827J1267*
G01*
X261968Y398432D02*
X238092Y374557D01*
X217993Y374557D01*
G75*
D01*
G03X218028Y375080I-3793J517*
G01*
X218028Y397080D01*
G74*
D01*
G03X214200Y400908I3828J0*
G01*
X192200Y400908D01*
G75*
D01*
G03X188372Y397080I0J-3828*
G01*
X188372Y395648D01*
X186653Y397367D01*
X186653Y433361D01*
G75*
D01*
G03X200660Y426604I14007J11139*
G01*
X330558Y426604D01*
X330558Y414020D01*
G75*
D01*
G03X330612Y412763I14882J10*
G01*
X330612Y403020D01*
G75*
D01*
G03X330647Y402497I3828J-6*
G01*
X271791Y402497D01*
G75*
D01*
G03X261968Y398432I-10J-13877*
G01*
X500728Y398432D02*
X476172Y373876D01*
X466692Y364397D01*
X456753Y364397D01*
G75*
D01*
G03X456788Y364920I-3793J517*
G01*
X456788Y386920D01*
G74*
D01*
G03X452960Y390748I3828J0*
G01*
X433301Y390748D01*
X422873Y401177D01*
X422873Y428281D01*
G75*
D01*
G03X436880Y421524I14007J11139*
G01*
X569318Y421524D01*
X569318Y414020D01*
G75*
D01*
G03X569372Y412763I14882J10*
G01*
X569372Y403020D01*
G75*
D01*
G03X569407Y402497I3828J-6*
G01*
X510546Y402497D01*
G75*
D01*
G03X500728Y398432I-5J-13877*
G01*
X188372Y457510D02*
X188372Y458040D01*
G74*
D01*
G02X188770Y459740I3828J0*
G01*
G75*
D01*
G02X188372Y461440I3430J1700*
G01*
X188372Y463587D01*
X186653Y463587D01*
X186653Y455639D01*
G74*
D01*
G02X188372Y457510I14005J11142*
G01*
X65031Y734902D02*
G75*
D01*
G02X67571Y763140I26409J11858*
G01*
X67571Y802819D01*
G75*
D01*
G02X76050Y823310I28949J21*
G01*
X126650Y873910D01*
G75*
D01*
G02X148490Y882357I20470J-20469*
G01*
G75*
D01*
G02X149860Y882389I1361J-28917*
G01*
X628250Y882389D01*
G74*
D01*
G02X648735Y873896I1J28949*
G01*
X703716Y818915D01*
G74*
D01*
G02X712209Y798430I20456J20484*
G01*
X712209Y749700D01*
G75*
D01*
G02X654311Y749700I-28949J0*
G01*
X654311Y786439D01*
X616259Y824491D01*
X470909Y824491D01*
X470909Y756120D01*
G75*
D01*
G02X413011Y756120I-28949J0*
G01*
X413011Y824491D01*
X237229Y824491D01*
X237229Y745960D01*
G75*
D01*
G02X179331Y745960I-28949J0*
G01*
X179331Y824491D01*
X159111Y824491D01*
X125469Y790849D01*
X125469Y751840D01*
G75*
D01*
G02X122770Y739633I-28949J-1*
G01*
G74*
D01*
G02X122929Y736600I28790J3030*
G01*
X122929Y424180D01*
G75*
D01*
G02X110341Y400297I-28949J-1*
G01*
X110341Y392684D01*
G75*
D01*
G02X107345Y369855I-16361J-9464*
G01*
X106122Y368632D01*
G74*
D01*
G02X103276Y365944I3682J1048*
G01*
G75*
D01*
G02X79604Y365944I-11836J14735*
G01*
G74*
D01*
G02X76704Y368844I836J3736*
G01*
G75*
D01*
G02X72540Y380841I14735J11836*
G01*
G75*
D01*
G02X72539Y381000I18899J198*
G01*
X72539Y404729D01*
G75*
D01*
G02X65031Y424180I21441J19451*
G01*
X65031Y734902D01*
X122929Y298930D02*
X122929Y94860D01*
G75*
D01*
G02X120748Y83836I-28949J0*
G01*
X120748Y71920D01*
G75*
D01*
G02X116920Y68092I-3828J0*
G01*
X105004Y68092D01*
G75*
D01*
G02X82956Y68092I-11024J26768*
G01*
X71920Y68092D01*
G75*
D01*
G02X68092Y71920I0J3828*
G01*
X68092Y81904D01*
G75*
D01*
G02X65031Y94860I25888J12956*
G01*
X65031Y298930D01*
G74*
D01*
G02X72539Y318381I28949J0*
G01*
X72539Y341790D01*
G75*
D01*
G02X110341Y341790I18901J0*
G01*
X110341Y322813D01*
G74*
D01*
G02X122929Y298930I16361J23882*
G01*
X627323Y289594D02*
X604636Y266907D01*
X604636Y180828D01*
X608800Y180828D01*
G74*
D01*
G02X612628Y177000I0J3828*
G01*
X612628Y132000D01*
G75*
D01*
G02X608800Y128172I-3828J0*
G01*
X604636Y128172D01*
X604636Y125828D01*
X608800Y125828D01*
G74*
D01*
G02X612628Y122000I0J3828*
G01*
X612628Y77000D01*
G75*
D01*
G02X608800Y73172I-3828J0*
G01*
X563800Y73172D01*
G75*
D01*
G02X559972Y77000I0J3828*
G01*
X559972Y122000D01*
G75*
D01*
G02X563800Y125828I3828J0*
G01*
X568844Y125828D01*
X568844Y128172D01*
X563800Y128172D01*
G75*
D01*
G02X559972Y132000I0J3828*
G01*
X559972Y177000D01*
G75*
D01*
G02X563800Y180828I3828J0*
G01*
X568844Y180828D01*
X568844Y274297D01*
G75*
D01*
G02X574085Y286974I17896J23*
G01*
X596784Y309673D01*
X596784Y374135D01*
G74*
D01*
G02X595200Y373792I1584J3485*
G01*
X573200Y373792D01*
G75*
D01*
G02X570674Y374743I-1J3828*
G01*
X516288Y374743D01*
X482262Y340718D01*
G74*
D01*
G02X472440Y336643I9823J9801*
G01*
X456753Y336643D01*
G74*
D01*
G02X456788Y336120I3793J517*
G01*
X456788Y314120D01*
G75*
D01*
G02X452960Y310292I-3828J0*
G01*
X430960Y310292D01*
G75*
D01*
G02X427132Y314120I0J3828*
G01*
X427132Y336120D01*
G74*
D01*
G02X427530Y337820I3828J0*
G01*
G75*
D01*
G02X427132Y339520I3430J1700*
G01*
X427132Y361520D01*
G74*
D01*
G02X427530Y363220I3828J0*
G01*
G75*
D01*
G02X427132Y364920I3430J1700*
G01*
X427132Y371879D01*
X407760Y391250D01*
G75*
D01*
G02X405167Y397520I6259J6260*
G01*
X405167Y463535D01*
G75*
D01*
G02X407760Y469810I8853J15*
G01*
X411570Y473620D01*
G74*
D01*
G02X415087Y475777I6259J6260*
G01*
G75*
D01*
G02X417830Y476213I2744J-8416*
G01*
X422052Y476213D01*
X422052Y478360D01*
G74*
D01*
G02X422450Y480060I3828J0*
G01*
G75*
D01*
G02X422052Y481760I3430J1700*
G01*
X422052Y487502D01*
X431622Y487502D01*
X431622Y482188D01*
X442138Y482188D01*
X442138Y487502D01*
X451708Y487502D01*
X451708Y481760D01*
G75*
D01*
G02X451310Y480060I-3828J0*
G01*
G74*
D01*
G02X451708Y478360I3430J1700*
G01*
X451708Y457316D01*
X569318Y457316D01*
X569318Y464820D01*
G74*
D01*
G02X569372Y466077I14882J10*
G01*
X569372Y475820D01*
G74*
D01*
G02X569770Y477520I3828J0*
G01*
G75*
D01*
G02X569372Y479220I3430J1700*
G01*
X569372Y484962D01*
X578942Y484962D01*
X578942Y479648D01*
X582943Y479648D01*
G75*
D01*
G02X585457Y479648I1257J-14828*
G01*
X589458Y479648D01*
X589458Y484962D01*
X599028Y484962D01*
X599028Y479220D01*
G75*
D01*
G02X598630Y477520I-3828J0*
G01*
G74*
D01*
G02X599028Y475820I3430J1700*
G01*
X599028Y466077D01*
G74*
D01*
G02X599082Y464820I14827J1267*
G01*
X599082Y457316D01*
X605790Y457316D01*
G74*
D01*
G02X618456Y452063I0J17896*
G01*
X627323Y443196D01*
G74*
D01*
G02X632576Y430530I12643J12666*
G01*
X632576Y302260D01*
G75*
D01*
G02X627323Y289594I-17896J0*
G01*
X792364Y264160D02*
G74*
D01*
G02X794992Y273495I17896J1*
G01*
X794992Y275160D01*
G75*
D01*
G02X798820Y278988I3828J0*
G01*
X800240Y278988D01*
G74*
D01*
G02X807492Y281841I10020J14828*
G01*
X845704Y320053D01*
X845704Y374135D01*
G74*
D01*
G02X844120Y373792I1584J3485*
G01*
X822120Y373792D01*
G75*
D01*
G02X819594Y374743I-1J3828*
G01*
X752508Y374743D01*
X718482Y340718D01*
G74*
D01*
G02X708660Y336643I9823J9801*
G01*
X695513Y336643D01*
G74*
D01*
G02X695548Y336120I3793J517*
G01*
X695548Y314120D01*
G75*
D01*
G02X691720Y310292I-3828J0*
G01*
X669720Y310292D01*
G75*
D01*
G02X665892Y314120I0J3828*
G01*
X665892Y336120D01*
G74*
D01*
G02X666290Y337820I3828J0*
G01*
G75*
D01*
G02X665892Y339520I3430J1700*
G01*
X665892Y361520D01*
G74*
D01*
G02X666290Y363220I3828J0*
G01*
G75*
D01*
G02X665892Y364920I3430J1700*
G01*
X665892Y373149D01*
X646520Y392520D01*
G75*
D01*
G02X643927Y398792I6259J6260*
G01*
X643927Y458455D01*
G75*
D01*
G02X646520Y464730I8853J15*
G01*
X650330Y468540D01*
G74*
D01*
G02X653847Y470697I6259J6260*
G01*
G75*
D01*
G02X656590Y471133I2744J-8416*
G01*
X660812Y471133D01*
X660812Y473280D01*
G74*
D01*
G02X661210Y474980I3828J0*
G01*
G75*
D01*
G02X660812Y476680I3430J1700*
G01*
X660812Y482422D01*
X670382Y482422D01*
X670382Y477108D01*
X680898Y477108D01*
X680898Y482422D01*
X690468Y482422D01*
X690468Y476680D01*
G75*
D01*
G02X690070Y474980I-3828J0*
G01*
G74*
D01*
G02X690468Y473280I3430J1700*
G01*
X690468Y452236D01*
X818238Y452236D01*
X818238Y464820D01*
G74*
D01*
G02X818292Y466077I14882J10*
G01*
X818292Y475820D01*
G74*
D01*
G02X818690Y477520I3828J0*
G01*
G75*
D01*
G02X818292Y479220I3430J1700*
G01*
X818292Y484962D01*
X827862Y484962D01*
X827862Y479648D01*
X831863Y479648D01*
G75*
D01*
G02X834377Y479648I1257J-14828*
G01*
X838378Y479648D01*
X838378Y484962D01*
X847948Y484962D01*
X847948Y479220D01*
G75*
D01*
G02X847550Y477520I-3828J0*
G01*
G74*
D01*
G02X847948Y475820I3430J1700*
G01*
X847948Y466077D01*
G74*
D01*
G02X848002Y464820I14827J1267*
G01*
X848002Y457316D01*
X853440Y457316D01*
G74*
D01*
G02X866106Y452063I0J17896*
G01*
X876243Y441926D01*
G74*
D01*
G02X881496Y429260I12643J12666*
G01*
X881496Y312640D01*
G75*
D01*
G02X876243Y299974I-17896J0*
G01*
X828156Y251887D01*
X828156Y219661D01*
G74*
D01*
G02X829161Y213580I17895J6081*
G01*
X829161Y180828D01*
X832320Y180828D01*
G74*
D01*
G02X836148Y177000I0J3828*
G01*
X836148Y132000D01*
G75*
D01*
G02X832320Y128172I-3828J0*
G01*
X829161Y128172D01*
X829161Y125828D01*
X832320Y125828D01*
G74*
D01*
G02X836148Y122000I0J3828*
G01*
X836148Y77000D01*
G75*
D01*
G02X832320Y73172I-3828J0*
G01*
X787320Y73172D01*
G75*
D01*
G02X783492Y77000I0J3828*
G01*
X783492Y122000D01*
G75*
D01*
G02X787320Y125828I3828J0*
G01*
X791359Y125828D01*
X791359Y128172D01*
X787320Y128172D01*
G75*
D01*
G02X783492Y132000I0J3828*
G01*
X783492Y177000D01*
G75*
D01*
G02X787320Y180828I3828J0*
G01*
X791359Y180828D01*
X791359Y213580D01*
G74*
D01*
G02X792364Y219661I18901J0*
G01*
X792364Y264160D01*
X217993Y346803D02*
G74*
D01*
G02X218028Y346280I3793J517*
G01*
X218028Y324280D01*
G75*
D01*
G02X214200Y320452I-3828J0*
G01*
X192200Y320452D01*
G75*
D01*
G02X188372Y324280I0J3828*
G01*
X188372Y346280D01*
G74*
D01*
G02X188770Y347980I3828J0*
G01*
G75*
D01*
G02X188372Y349680I3430J1700*
G01*
X188372Y371680D01*
G74*
D01*
G02X188770Y373380I3828J0*
G01*
G75*
D01*
G02X188372Y375080I3430J1700*
G01*
X188372Y377227D01*
X185429Y377227D01*
G75*
D01*
G02X179160Y379820I-9J8853*
G01*
X171540Y387440D01*
G75*
D01*
G02X168947Y393711I6259J6260*
G01*
X168947Y467344D01*
G75*
D01*
G02X171540Y473620I8853J16*
G01*
X174092Y476172D01*
X174092Y476172D01*
X176620Y478700D01*
G74*
D01*
G02X181588Y481198I6259J6259*
G01*
G75*
D01*
G02X182880Y481293I1293J-8757*
G01*
X188372Y481293D01*
X188372Y483440D01*
G74*
D01*
G02X188770Y485140I3828J0*
G01*
G75*
D01*
G02X188372Y486840I3430J1700*
G01*
X188372Y492582D01*
X197942Y492582D01*
X197942Y487268D01*
X208458Y487268D01*
X208458Y492582D01*
X218028Y492582D01*
X218028Y486840D01*
G75*
D01*
G02X217630Y485140I-3828J0*
G01*
G74*
D01*
G02X218028Y483440I3430J1700*
G01*
X218028Y462396D01*
X330558Y462396D01*
X330558Y464820D01*
G74*
D01*
G02X330612Y466077I14882J10*
G01*
X330612Y475820D01*
G74*
D01*
G02X331010Y477520I3828J0*
G01*
G75*
D01*
G02X330612Y479220I3430J1700*
G01*
X330612Y484962D01*
X340182Y484962D01*
X340182Y479648D01*
X344183Y479648D01*
G75*
D01*
G02X346697Y479648I1257J-14828*
G01*
X350698Y479648D01*
X350698Y484962D01*
X360268Y484962D01*
X360268Y479220D01*
G75*
D01*
G02X359870Y477520I-3828J0*
G01*
G74*
D01*
G02X360268Y475820I3430J1700*
G01*
X360268Y466077D01*
G74*
D01*
G02X360322Y464820I14827J1267*
G01*
X360322Y457316D01*
X365760Y457316D01*
G74*
D01*
G02X378426Y452063I0J17896*
G01*
X388563Y441926D01*
G74*
D01*
G02X393816Y429260I12643J12666*
G01*
X393816Y312420D01*
G75*
D01*
G02X388563Y299754I-17896J0*
G01*
X370956Y282147D01*
X370956Y180828D01*
X375120Y180828D01*
G74*
D01*
G02X378948Y177000I0J3828*
G01*
X378948Y132000D01*
G75*
D01*
G02X375120Y128172I-3828J0*
G01*
X370956Y128172D01*
X370956Y125828D01*
X375120Y125828D01*
G74*
D01*
G02X378948Y122000I0J3828*
G01*
X378948Y77000D01*
G75*
D01*
G02X375120Y73172I-3828J0*
G01*
X330120Y73172D01*
G75*
D01*
G02X326292Y77000I0J3828*
G01*
X326292Y122000D01*
G75*
D01*
G02X330120Y125828I3828J0*
G01*
X335164Y125828D01*
X335164Y128172D01*
X330120Y128172D01*
G75*
D01*
G02X326292Y132000I0J3828*
G01*
X326292Y177000D01*
G75*
D01*
G02X330120Y180828I3828J0*
G01*
X335164Y180828D01*
X335164Y289536D01*
G75*
D01*
G02X340405Y302214I17896J24*
G01*
X358024Y319833D01*
X358024Y374135D01*
G74*
D01*
G02X356440Y373792I1584J3485*
G01*
X334440Y373792D01*
G75*
D01*
G02X331914Y374743I-1J3828*
G01*
X277528Y374743D01*
X253662Y350878D01*
G74*
D01*
G02X243840Y346803I9823J9801*
G01*
X217993Y346803D01*
X242719Y780816D02*
G75*
D01*
G02X248255Y794195I18901J14*
G01*
X264985Y810925D01*
G75*
D01*
G02X278360Y816461I13365J-13364*
G01*
X287020Y816461D01*
G74*
D01*
G02X298755Y812377I0J18901*
G01*
G74*
D01*
G02X302256Y809054I295J3817*
G01*
X361345Y749965D01*
G75*
D01*
G02X361342Y723232I-13364J-13365*
G01*
X323701Y685591D01*
X323701Y636121D01*
X330558Y636121D01*
X330558Y642620D01*
G74*
D01*
G02X330612Y643877I14882J10*
G01*
X330612Y653620D01*
G74*
D01*
G02X331010Y655320I3828J0*
G01*
G75*
D01*
G02X330612Y657020I3430J1700*
G01*
X330612Y679020D01*
G75*
D01*
G02X334440Y682848I3828J0*
G01*
X356440Y682848D01*
G74*
D01*
G02X360268Y679020I0J3828*
G01*
X360268Y657020D01*
G75*
D01*
G02X359870Y655320I-3828J0*
G01*
G74*
D01*
G02X360268Y653620I3430J1700*
G01*
X360268Y643877D01*
G74*
D01*
G02X360322Y642620I14827J1267*
G01*
X360322Y628873D01*
G75*
D01*
G02X360322Y605567I-14881J-11653*
G01*
X360322Y591820D01*
G75*
D01*
G02X360268Y590563I-14882J10*
G01*
X360268Y580820D01*
G75*
D01*
G02X359870Y579120I-3828J0*
G01*
G74*
D01*
G02X360268Y577420I3430J1700*
G01*
X360268Y571678D01*
X350698Y571678D01*
X350698Y576992D01*
X346697Y576992D01*
G75*
D01*
G02X344183Y576992I-1257J14828*
G01*
X340182Y576992D01*
X340182Y571678D01*
X330612Y571678D01*
X330612Y577420D01*
G74*
D01*
G02X331010Y579120I3828J0*
G01*
G75*
D01*
G02X330612Y580820I3430J1700*
G01*
X330612Y590563D01*
G75*
D01*
G02X330558Y591820I14827J1267*
G01*
X330558Y598319D01*
X313694Y598319D01*
G75*
D01*
G02X300325Y603855I-4J18901*
G01*
X291435Y612745D01*
G75*
D01*
G02X285899Y626121I13364J13365*
G01*
X285899Y693395D01*
G75*
D01*
G02X291435Y706785I18901J25*
G01*
X302183Y717533D01*
X321250Y736600D01*
X282685Y775165D01*
X280521Y773001D01*
X280521Y699300D01*
G75*
D01*
G02X274973Y685923I-18901J0*
G01*
X236172Y647122D01*
X222962Y633912D01*
G74*
D01*
G02X220116Y631224I3682J1048*
G01*
G75*
D01*
G02X196444Y631224I-11836J14735*
G01*
G74*
D01*
G02X193544Y634124I836J3736*
G01*
G75*
D01*
G02X193544Y657796I14735J11836*
G01*
G74*
D01*
G02X196232Y660642I3736J836*
G01*
X236172Y700582D01*
X236172Y700582D01*
X242719Y707129D01*
X242719Y780816D01*
X750421Y701840D02*
G75*
D01*
G02X744873Y688463I-18901J0*
G01*
X716172Y659762D01*
X695402Y638992D01*
G74*
D01*
G02X692556Y636304I3682J1048*
G01*
G75*
D01*
G02X668884Y636304I-11836J14735*
G01*
G74*
D01*
G02X665984Y639204I836J3736*
G01*
G75*
D01*
G02X665984Y662876I14735J11836*
G01*
G74*
D01*
G02X668672Y665722I3736J836*
G01*
X712619Y709669D01*
X712619Y783355D01*
G75*
D01*
G02X718155Y796735I18901J15*
G01*
X732345Y810925D01*
G75*
D01*
G02X745721Y816461I13365J-13364*
G01*
X759460Y816461D01*
G74*
D01*
G02X771195Y812377I0J18901*
G01*
G74*
D01*
G02X774696Y809054I295J3817*
G01*
X833785Y749965D01*
G75*
D01*
G02X828775Y719646I-13363J-13365*
G01*
X807836Y698707D01*
X807836Y646223D01*
X818238Y635821D01*
X818238Y642620D01*
G74*
D01*
G02X818292Y643877I14882J10*
G01*
X818292Y653620D01*
G74*
D01*
G02X818690Y655320I3828J0*
G01*
G75*
D01*
G02X818292Y657020I3430J1700*
G01*
X818292Y679020D01*
G75*
D01*
G02X822120Y682848I3828J0*
G01*
X844120Y682848D01*
G74*
D01*
G02X847948Y679020I0J3828*
G01*
X847948Y657020D01*
G75*
D01*
G02X847550Y655320I-3828J0*
G01*
G74*
D01*
G02X847948Y653620I3430J1700*
G01*
X847948Y643877D01*
G74*
D01*
G02X848002Y642620I14827J1267*
G01*
X848002Y627160D01*
G75*
D01*
G02X848002Y607280I-14882J-9940*
G01*
X848002Y591820D01*
G75*
D01*
G02X847948Y590563I-14882J10*
G01*
X847948Y580820D01*
G75*
D01*
G02X847550Y579120I-3828J0*
G01*
G74*
D01*
G02X847948Y577420I3430J1700*
G01*
X847948Y571678D01*
X838378Y571678D01*
X838378Y576992D01*
X834377Y576992D01*
G75*
D01*
G02X831863Y576992I-1257J14828*
G01*
X827862Y576992D01*
X827862Y571678D01*
X818292Y571678D01*
X818292Y577420D01*
G74*
D01*
G02X818690Y579120I3828J0*
G01*
G75*
D01*
G02X818292Y580820I3430J1700*
G01*
X818292Y590563D01*
G75*
D01*
G02X818238Y591820I14827J1267*
G01*
X818238Y599324D01*
X811541Y599324D01*
G75*
D01*
G02X798875Y604565I-12J17896*
G01*
X777285Y626155D01*
G75*
D01*
G02X772044Y638825I12655J12654*
G01*
X772044Y706098D01*
G75*
D01*
G02X777285Y718774I17896J22*
G01*
X794400Y735889D01*
X752585Y777705D01*
X750421Y775541D01*
X750421Y701840D01*
X476399Y780815D02*
G75*
D01*
G02X481935Y794195I18901J15*
G01*
X496125Y808385D01*
G75*
D01*
G02X509501Y813921I13365J-13364*
G01*
X524730Y813921D01*
G74*
D01*
G02X532186Y812388I1J18901*
G01*
X537220Y812388D01*
G74*
D01*
G02X541048Y808560I0J3828*
G01*
X541048Y805432D01*
X600105Y746375D01*
G75*
D01*
G02X595095Y716056I-13363J-13365*
G01*
X561456Y682417D01*
X561456Y646223D01*
X569318Y638361D01*
X569318Y642620D01*
G74*
D01*
G02X569372Y643877I14882J10*
G01*
X569372Y653620D01*
G74*
D01*
G02X569770Y655320I3828J0*
G01*
G75*
D01*
G02X569372Y657020I3430J1700*
G01*
X569372Y679020D01*
G75*
D01*
G02X573200Y682848I3828J0*
G01*
X595200Y682848D01*
G74*
D01*
G02X599028Y679020I0J3828*
G01*
X599028Y657020D01*
G75*
D01*
G02X598630Y655320I-3828J0*
G01*
G74*
D01*
G02X599028Y653620I3430J1700*
G01*
X599028Y643877D01*
G74*
D01*
G02X599082Y642620I14827J1267*
G01*
X599082Y629700D01*
G75*
D01*
G02X599082Y609820I-14882J-9940*
G01*
X599082Y591820D01*
G75*
D01*
G02X599028Y590563I-14882J10*
G01*
X599028Y580820D01*
G75*
D01*
G02X598630Y579120I-3828J0*
G01*
G74*
D01*
G02X599028Y577420I3430J1700*
G01*
X599028Y571678D01*
X589458Y571678D01*
X589458Y576992D01*
X585457Y576992D01*
G75*
D01*
G02X582943Y576992I-1257J14828*
G01*
X578942Y576992D01*
X578942Y571678D01*
X569372Y571678D01*
X569372Y577420D01*
G74*
D01*
G02X569770Y579120I3828J0*
G01*
G75*
D01*
G02X569372Y580820I3430J1700*
G01*
X569372Y590563D01*
G75*
D01*
G02X569318Y591820I14827J1267*
G01*
X569318Y599324D01*
X565161Y599324D01*
G75*
D01*
G02X552495Y604565I-12J17896*
G01*
X530905Y626155D01*
G75*
D01*
G02X525664Y638825I12655J12654*
G01*
X525664Y689806D01*
G75*
D01*
G02X530905Y702484I17896J24*
G01*
X544593Y716172D01*
X560720Y732299D01*
X517110Y775910D01*
X514201Y773001D01*
X514201Y699300D01*
G75*
D01*
G02X508653Y685923I-18901J0*
G01*
X461722Y638992D01*
G74*
D01*
G02X458876Y636304I3682J1048*
G01*
G75*
D01*
G02X435204Y636304I-11836J14735*
G01*
G74*
D01*
G02X432304Y639204I836J3736*
G01*
G75*
D01*
G02X432304Y662876I14735J11836*
G01*
G74*
D01*
G02X434992Y665722I3736J836*
G01*
X476172Y706902D01*
X476399Y707129D01*
X476399Y780815D01*
X520300Y254412D02*
G75*
D01*
G02X516472Y258240I0J3828*
G01*
X516472Y263982D01*
X526042Y263982D01*
X526042Y254412D01*
X520300Y254412D01*
X542300Y254412D02*
X536558Y254412D01*
X536558Y263982D01*
X546128Y263982D01*
X546128Y258240D01*
G75*
D01*
G02X542300Y254412I-3828J0*
G01*
X520300Y284068D02*
X526042Y284068D01*
X526042Y274498D01*
X516472Y274498D01*
X516472Y280240D01*
G75*
D01*
G02X520300Y284068I3828J0*
G01*
X546128Y280240D02*
X546128Y274498D01*
X536558Y274498D01*
X536558Y284068D01*
X542300Y284068D01*
G74*
D01*
G02X546128Y280240I0J3828*
G01*
X526300Y269240D02*
G75*
D01*
G02X526300Y269240I5000J0*
G01*
X286620Y254412D02*
G75*
D01*
G02X282792Y258240I0J3828*
G01*
X282792Y263982D01*
X292362Y263982D01*
X292362Y254412D01*
X286620Y254412D01*
X308620Y254412D02*
X302878Y254412D01*
X302878Y263982D01*
X312448Y263982D01*
X312448Y258240D01*
G75*
D01*
G02X308620Y254412I-3828J0*
G01*
X286620Y284068D02*
X292362Y284068D01*
X292362Y274498D01*
X282792Y274498D01*
X282792Y280240D01*
G75*
D01*
G02X286620Y284068I3828J0*
G01*
X292620Y269240D02*
G75*
D01*
G02X292620Y269240I5000J0*
G01*
X312448Y280240D02*
X312448Y274498D01*
X302878Y274498D01*
X302878Y284068D01*
X308620Y284068D01*
G74*
D01*
G02X312448Y280240I0J3828*
G01*
X743820Y249332D02*
G75*
D01*
G02X739992Y253160I0J3828*
G01*
X739992Y258902D01*
X749562Y258902D01*
X749562Y249332D01*
X743820Y249332D01*
X749820Y264160D02*
G75*
D01*
G02X749820Y264160I5000J0*
G01*
X765820Y249332D02*
X760078Y249332D01*
X760078Y258902D01*
X769648Y258902D01*
X769648Y253160D01*
G75*
D01*
G02X765820Y249332I-3828J0*
G01*
X743820Y278988D02*
X749562Y278988D01*
X749562Y269418D01*
X739992Y269418D01*
X739992Y275160D01*
G75*
D01*
G02X743820Y278988I3828J0*
G01*
X769648Y275160D02*
X769648Y269418D01*
X760078Y269418D01*
X760078Y278988D01*
X765820Y278988D01*
G74*
D01*
G02X769648Y275160I0J3828*
G01*
X337460Y797560D02*
G75*
D01*
G02X337460Y797560I5000J0*
G01*
X331460Y782732D02*
G75*
D01*
G02X327632Y786560I0J3828*
G01*
X327632Y792302D01*
X337202Y792302D01*
X337202Y782732D01*
X331460Y782732D01*
X353460Y782732D02*
X347718Y782732D01*
X347718Y792302D01*
X357288Y792302D01*
X357288Y786560D01*
G75*
D01*
G02X353460Y782732I-3828J0*
G01*
X331460Y812388D02*
X337202Y812388D01*
X337202Y802818D01*
X327632Y802818D01*
X327632Y808560D01*
G75*
D01*
G02X331460Y812388I3828J0*
G01*
X357288Y808560D02*
X357288Y802818D01*
X347718Y802818D01*
X347718Y812388D01*
X353460Y812388D01*
G74*
D01*
G02X357288Y808560I0J3828*
G01*
X198200Y497840D02*
G75*
D01*
G02X198200Y497840I5000J0*
G01*
X192200Y512668D02*
X197942Y512668D01*
X197942Y503098D01*
X188372Y503098D01*
X188372Y508840D01*
G75*
D01*
G02X192200Y512668I3828J0*
G01*
X218028Y508840D02*
X218028Y503098D01*
X208458Y503098D01*
X208458Y512668D01*
X214200Y512668D01*
G74*
D01*
G02X218028Y508840I0J3828*
G01*
X809900Y797560D02*
G75*
D01*
G02X809900Y797560I5000J0*
G01*
X803900Y782732D02*
G75*
D01*
G02X800072Y786560I0J3828*
G01*
X800072Y792302D01*
X809642Y792302D01*
X809642Y782732D01*
X803900Y782732D01*
X825900Y782732D02*
X820158Y782732D01*
X820158Y792302D01*
X829728Y792302D01*
X829728Y786560D01*
G75*
D01*
G02X825900Y782732I-3828J0*
G01*
X803900Y812388D02*
X809642Y812388D01*
X809642Y802818D01*
X800072Y802818D01*
X800072Y808560D01*
G75*
D01*
G02X803900Y812388I3828J0*
G01*
X829728Y808560D02*
X829728Y802818D01*
X820158Y802818D01*
X820158Y812388D01*
X825900Y812388D01*
G74*
D01*
G02X829728Y808560I0J3828*
G01*
X769648Y224360D02*
X769648Y218618D01*
X760078Y218618D01*
X760078Y228188D01*
X765820Y228188D01*
G74*
D01*
G02X769648Y224360I0J3828*
G01*
X728492Y77000D02*
X728492Y91880D01*
X747200Y91880D01*
X747200Y73172D01*
X732320Y73172D01*
G75*
D01*
G02X728492Y77000I0J3828*
G01*
X777320Y73172D02*
X762440Y73172D01*
X762440Y91880D01*
X781148Y91880D01*
X781148Y77000D01*
G75*
D01*
G02X777320Y73172I-3828J0*
G01*
X749820Y99500D02*
G75*
D01*
G02X749820Y99500I5000J0*
G01*
X728492Y122000D02*
G75*
D01*
G02X732320Y125828I3828J0*
G01*
X747200Y125828D01*
X747200Y107120D01*
X728492Y107120D01*
X728492Y122000D01*
X781148Y122000D02*
X781148Y107120D01*
X762440Y107120D01*
X762440Y125828D01*
X777320Y125828D01*
G74*
D01*
G02X781148Y122000I0J3828*
G01*
X728492Y132000D02*
X728492Y146880D01*
X747200Y146880D01*
X747200Y128172D01*
X732320Y128172D01*
G75*
D01*
G02X728492Y132000I0J3828*
G01*
X777320Y128172D02*
X762440Y128172D01*
X762440Y146880D01*
X781148Y146880D01*
X781148Y132000D01*
G75*
D01*
G02X777320Y128172I-3828J0*
G01*
X749820Y154500D02*
G75*
D01*
G02X749820Y154500I5000J0*
G01*
X728492Y177000D02*
G75*
D01*
G02X732320Y180828I3828J0*
G01*
X747200Y180828D01*
X747200Y162120D01*
X728492Y162120D01*
X728492Y177000D01*
X781148Y177000D02*
X781148Y162120D01*
X762440Y162120D01*
X762440Y180828D01*
X777320Y180828D01*
G74*
D01*
G02X781148Y177000I0J3828*
G01*
X743820Y198532D02*
G75*
D01*
G02X739992Y202360I0J3828*
G01*
X739992Y208102D01*
X749562Y208102D01*
X749562Y198532D01*
X743820Y198532D01*
X765820Y198532D02*
X760078Y198532D01*
X760078Y208102D01*
X769648Y208102D01*
X769648Y202360D01*
G75*
D01*
G02X765820Y198532I-3828J0*
G01*
X743820Y228188D02*
X749562Y228188D01*
X749562Y218618D01*
X739992Y218618D01*
X739992Y224360D01*
G75*
D01*
G02X743820Y228188I3828J0*
G01*
X749820Y213360D02*
G75*
D01*
G02X749820Y213360I5000J0*
G01*
X576220Y797560D02*
G75*
D01*
G02X576220Y797560I5000J0*
G01*
X570220Y782732D02*
G75*
D01*
G02X566392Y786560I0J3828*
G01*
X566392Y792302D01*
X575962Y792302D01*
X575962Y782732D01*
X570220Y782732D01*
X592220Y782732D02*
X586478Y782732D01*
X586478Y792302D01*
X596048Y792302D01*
X596048Y786560D01*
G75*
D01*
G02X592220Y782732I-3828J0*
G01*
X570220Y812388D02*
X575962Y812388D01*
X575962Y802818D01*
X566392Y802818D01*
X566392Y808560D01*
G75*
D01*
G02X570220Y812388I3828J0*
G01*
X596048Y808560D02*
X596048Y802818D01*
X586478Y802818D01*
X586478Y812388D01*
X592220Y812388D01*
G74*
D01*
G02X596048Y808560I0J3828*
G01*
X818292Y501220D02*
G74*
D01*
G02X818690Y502920I3828J0*
G01*
G75*
D01*
G02X818292Y504620I3430J1700*
G01*
X818292Y510362D01*
X827862Y510362D01*
X827862Y495478D01*
X818292Y495478D01*
X818292Y501220D01*
X847948Y501220D02*
X847948Y495478D01*
X838378Y495478D01*
X838378Y510362D01*
X847948Y510362D01*
X847948Y504620D01*
G75*
D01*
G02X847550Y502920I-3828J0*
G01*
G74*
D01*
G02X847948Y501220I3430J1700*
G01*
X828120Y490220D02*
G75*
D01*
G02X828120Y490220I5000J0*
G01*
X828120Y515620D02*
G75*
D01*
G02X828120Y515620I5000J0*
G01*
X818292Y526620D02*
G74*
D01*
G02X818690Y528320I3828J0*
G01*
G75*
D01*
G02X818292Y530020I3430J1700*
G01*
X818292Y535762D01*
X827862Y535762D01*
X827862Y520878D01*
X818292Y520878D01*
X818292Y526620D01*
X847948Y526620D02*
X847948Y520878D01*
X838378Y520878D01*
X838378Y535762D01*
X847948Y535762D01*
X847948Y530020D01*
G75*
D01*
G02X847550Y528320I-3828J0*
G01*
G74*
D01*
G02X847948Y526620I3430J1700*
G01*
X828120Y541020D02*
G75*
D01*
G02X828120Y541020I5000J0*
G01*
X818292Y552020D02*
G74*
D01*
G02X818690Y553720I3828J0*
G01*
G75*
D01*
G02X818292Y555420I3430J1700*
G01*
X818292Y561162D01*
X827862Y561162D01*
X827862Y546278D01*
X818292Y546278D01*
X818292Y552020D01*
X847948Y552020D02*
X847948Y546278D01*
X838378Y546278D01*
X838378Y561162D01*
X847948Y561162D01*
X847948Y555420D01*
G75*
D01*
G02X847550Y553720I-3828J0*
G01*
G74*
D01*
G02X847948Y552020I3430J1700*
G01*
X828120Y566420D02*
G75*
D01*
G02X828120Y566420I5000J0*
G01*
X144420Y149420D02*
G75*
D01*
G02X144420Y149420I5000J0*
G01*
X123092Y71920D02*
X123092Y86800D01*
X141800Y86800D01*
X141800Y68092D01*
X126920Y68092D01*
G75*
D01*
G02X123092Y71920I0J3828*
G01*
X175748Y71920D02*
G75*
D01*
G02X171920Y68092I-3828J0*
G01*
X157040Y68092D01*
X157040Y86800D01*
X175748Y86800D01*
X175748Y71920D01*
X144420Y94420D02*
G75*
D01*
G02X144420Y94420I5000J0*
G01*
X126920Y120748D02*
X141800Y120748D01*
X141800Y102040D01*
X123092Y102040D01*
X123092Y116920D01*
G75*
D01*
G02X126920Y120748I3828J0*
G01*
X175748Y116920D02*
X175748Y102040D01*
X157040Y102040D01*
X157040Y120748D01*
X171920Y120748D01*
G74*
D01*
G02X175748Y116920I0J3828*
G01*
X123092Y126920D02*
X123092Y141800D01*
X141800Y141800D01*
X141800Y123092D01*
X126920Y123092D01*
G75*
D01*
G02X123092Y126920I0J3828*
G01*
X175748Y126920D02*
G75*
D01*
G02X171920Y123092I-3828J0*
G01*
X157040Y123092D01*
X157040Y141800D01*
X175748Y141800D01*
X175748Y126920D01*
X126920Y175748D02*
X141800Y175748D01*
X141800Y157040D01*
X123092Y157040D01*
X123092Y171920D01*
G75*
D01*
G02X126920Y175748I3828J0*
G01*
X175748Y171920D02*
X175748Y157040D01*
X157040Y157040D01*
X157040Y175748D01*
X171920Y175748D01*
G74*
D01*
G02X175748Y171920I0J3828*
G01*
X526300Y213360D02*
G75*
D01*
G02X526300Y213360I5000J0*
G01*
X504972Y77000D02*
X504972Y91880D01*
X523680Y91880D01*
X523680Y73172D01*
X508800Y73172D01*
G75*
D01*
G02X504972Y77000I0J3828*
G01*
X553800Y73172D02*
X538920Y73172D01*
X538920Y91880D01*
X557628Y91880D01*
X557628Y77000D01*
G75*
D01*
G02X553800Y73172I-3828J0*
G01*
X526300Y99500D02*
G75*
D01*
G02X526300Y99500I5000J0*
G01*
X504972Y122000D02*
G75*
D01*
G02X508800Y125828I3828J0*
G01*
X523680Y125828D01*
X523680Y107120D01*
X504972Y107120D01*
X504972Y122000D01*
X557628Y122000D02*
X557628Y107120D01*
X538920Y107120D01*
X538920Y125828D01*
X553800Y125828D01*
G74*
D01*
G02X557628Y122000I0J3828*
G01*
X504972Y132000D02*
X504972Y146880D01*
X523680Y146880D01*
X523680Y128172D01*
X508800Y128172D01*
G75*
D01*
G02X504972Y132000I0J3828*
G01*
X553800Y128172D02*
X538920Y128172D01*
X538920Y146880D01*
X557628Y146880D01*
X557628Y132000D01*
G75*
D01*
G02X553800Y128172I-3828J0*
G01*
X526300Y154500D02*
G75*
D01*
G02X526300Y154500I5000J0*
G01*
X504972Y177000D02*
G75*
D01*
G02X508800Y180828I3828J0*
G01*
X523680Y180828D01*
X523680Y162120D01*
X504972Y162120D01*
X504972Y177000D01*
X557628Y177000D02*
X557628Y162120D01*
X538920Y162120D01*
X538920Y180828D01*
X553800Y180828D01*
G74*
D01*
G02X557628Y177000I0J3828*
G01*
X520300Y198532D02*
G75*
D01*
G02X516472Y202360I0J3828*
G01*
X516472Y208102D01*
X526042Y208102D01*
X526042Y198532D01*
X520300Y198532D01*
X542300Y198532D02*
X536558Y198532D01*
X536558Y208102D01*
X546128Y208102D01*
X546128Y202360D01*
G75*
D01*
G02X542300Y198532I-3828J0*
G01*
X520300Y228188D02*
X526042Y228188D01*
X526042Y218618D01*
X516472Y218618D01*
X516472Y224360D01*
G75*
D01*
G02X520300Y228188I3828J0*
G01*
X546128Y224360D02*
X546128Y218618D01*
X536558Y218618D01*
X536558Y228188D01*
X542300Y228188D01*
G74*
D01*
G02X546128Y224360I0J3828*
G01*
X312448Y224360D02*
X312448Y218618D01*
X302878Y218618D01*
X302878Y228188D01*
X308620Y228188D01*
G74*
D01*
G02X312448Y224360I0J3828*
G01*
X271292Y77000D02*
X271292Y91880D01*
X290000Y91880D01*
X290000Y73172D01*
X275120Y73172D01*
G75*
D01*
G02X271292Y77000I0J3828*
G01*
X320120Y73172D02*
X305240Y73172D01*
X305240Y91880D01*
X323948Y91880D01*
X323948Y77000D01*
G75*
D01*
G02X320120Y73172I-3828J0*
G01*
X292620Y99500D02*
G75*
D01*
G02X292620Y99500I5000J0*
G01*
X271292Y122000D02*
G75*
D01*
G02X275120Y125828I3828J0*
G01*
X290000Y125828D01*
X290000Y107120D01*
X271292Y107120D01*
X271292Y122000D01*
X323948Y122000D02*
X323948Y107120D01*
X305240Y107120D01*
X305240Y125828D01*
X320120Y125828D01*
G74*
D01*
G02X323948Y122000I0J3828*
G01*
X271292Y132000D02*
X271292Y146880D01*
X290000Y146880D01*
X290000Y128172D01*
X275120Y128172D01*
G75*
D01*
G02X271292Y132000I0J3828*
G01*
X320120Y128172D02*
X305240Y128172D01*
X305240Y146880D01*
X323948Y146880D01*
X323948Y132000D01*
G75*
D01*
G02X320120Y128172I-3828J0*
G01*
X292620Y154500D02*
G75*
D01*
G02X292620Y154500I5000J0*
G01*
X271292Y177000D02*
G75*
D01*
G02X275120Y180828I3828J0*
G01*
X290000Y180828D01*
X290000Y162120D01*
X271292Y162120D01*
X271292Y177000D01*
X323948Y177000D02*
X323948Y162120D01*
X305240Y162120D01*
X305240Y180828D01*
X320120Y180828D01*
G74*
D01*
G02X323948Y177000I0J3828*
G01*
X286620Y198532D02*
G75*
D01*
G02X282792Y202360I0J3828*
G01*
X282792Y208102D01*
X292362Y208102D01*
X292362Y198532D01*
X286620Y198532D01*
X308620Y198532D02*
X302878Y198532D01*
X302878Y208102D01*
X312448Y208102D01*
X312448Y202360D01*
G75*
D01*
G02X308620Y198532I-3828J0*
G01*
X286620Y228188D02*
X292362Y228188D01*
X292362Y218618D01*
X282792Y218618D01*
X282792Y224360D01*
G75*
D01*
G02X286620Y228188I3828J0*
G01*
X292620Y213360D02*
G75*
D01*
G02X292620Y213360I5000J0*
G01*
X569372Y501220D02*
G74*
D01*
G02X569770Y502920I3828J0*
G01*
G75*
D01*
G02X569372Y504620I3430J1700*
G01*
X569372Y510362D01*
X578942Y510362D01*
X578942Y495478D01*
X569372Y495478D01*
X569372Y501220D01*
X579200Y490220D02*
G75*
D01*
G02X579200Y490220I5000J0*
G01*
X599028Y501220D02*
X599028Y495478D01*
X589458Y495478D01*
X589458Y510362D01*
X599028Y510362D01*
X599028Y504620D01*
G75*
D01*
G02X598630Y502920I-3828J0*
G01*
G74*
D01*
G02X599028Y501220I3430J1700*
G01*
X664640Y502508D02*
X670382Y502508D01*
X670382Y492938D01*
X660812Y492938D01*
X660812Y498680D01*
G75*
D01*
G02X664640Y502508I3828J0*
G01*
X670640Y487680D02*
G75*
D01*
G02X670640Y487680I5000J0*
G01*
X690468Y498680D02*
X690468Y492938D01*
X680898Y492938D01*
X680898Y502508D01*
X686640Y502508D01*
G74*
D01*
G02X690468Y498680I0J3828*
G01*
X579200Y515620D02*
G75*
D01*
G02X579200Y515620I5000J0*
G01*
X579200Y541020D02*
G75*
D01*
G02X579200Y541020I5000J0*
G01*
X569372Y526620D02*
G74*
D01*
G02X569770Y528320I3828J0*
G01*
G75*
D01*
G02X569372Y530020I3430J1700*
G01*
X569372Y535762D01*
X578942Y535762D01*
X578942Y520878D01*
X569372Y520878D01*
X569372Y526620D01*
X599028Y526620D02*
X599028Y520878D01*
X589458Y520878D01*
X589458Y535762D01*
X599028Y535762D01*
X599028Y530020D01*
G75*
D01*
G02X598630Y528320I-3828J0*
G01*
G74*
D01*
G02X599028Y526620I3430J1700*
G01*
X569372Y555420D02*
X569372Y561162D01*
X578942Y561162D01*
X578942Y546278D01*
X569372Y546278D01*
X569372Y552020D01*
G74*
D01*
G02X569770Y553720I3828J0*
G01*
G75*
D01*
G02X569372Y555420I3430J1700*
G01*
X599028Y555420D02*
G75*
D01*
G02X598630Y553720I-3828J0*
G01*
G74*
D01*
G02X599028Y552020I3430J1700*
G01*
X599028Y546278D01*
X589458Y546278D01*
X589458Y561162D01*
X599028Y561162D01*
X599028Y555420D01*
X579200Y566420D02*
G75*
D01*
G02X579200Y566420I5000J0*
G01*
X330612Y501220D02*
G74*
D01*
G02X331010Y502920I3828J0*
G01*
G75*
D01*
G02X330612Y504620I3430J1700*
G01*
X330612Y510362D01*
X340182Y510362D01*
X340182Y495478D01*
X330612Y495478D01*
X330612Y501220D01*
X360268Y501220D02*
X360268Y495478D01*
X350698Y495478D01*
X350698Y510362D01*
X360268Y510362D01*
X360268Y504620D01*
G75*
D01*
G02X359870Y502920I-3828J0*
G01*
G74*
D01*
G02X360268Y501220I3430J1700*
G01*
X340440Y490220D02*
G75*
D01*
G02X340440Y490220I5000J0*
G01*
X425880Y507588D02*
X431622Y507588D01*
X431622Y498018D01*
X422052Y498018D01*
X422052Y503760D01*
G75*
D01*
G02X425880Y507588I3828J0*
G01*
X431880Y492760D02*
G75*
D01*
G02X431880Y492760I5000J0*
G01*
X451708Y503760D02*
X451708Y498018D01*
X442138Y498018D01*
X442138Y507588D01*
X447880Y507588D01*
G74*
D01*
G02X451708Y503760I0J3828*
G01*
X340440Y515620D02*
G75*
D01*
G02X340440Y515620I5000J0*
G01*
X330612Y526620D02*
G74*
D01*
G02X331010Y528320I3828J0*
G01*
G75*
D01*
G02X330612Y530020I3430J1700*
G01*
X330612Y535762D01*
X340182Y535762D01*
X340182Y520878D01*
X330612Y520878D01*
X330612Y526620D01*
X360268Y526620D02*
X360268Y520878D01*
X350698Y520878D01*
X350698Y535762D01*
X360268Y535762D01*
X360268Y530020D01*
G75*
D01*
G02X359870Y528320I-3828J0*
G01*
G74*
D01*
G02X360268Y526620I3430J1700*
G01*
X340440Y541020D02*
G75*
D01*
G02X340440Y541020I5000J0*
G01*
X330612Y552020D02*
G74*
D01*
G02X331010Y553720I3828J0*
G01*
G75*
D01*
G02X330612Y555420I3430J1700*
G01*
X330612Y561162D01*
X340182Y561162D01*
X340182Y546278D01*
X330612Y546278D01*
X330612Y552020D01*
X360268Y552020D02*
X360268Y546278D01*
X350698Y546278D01*
X350698Y561162D01*
X360268Y561162D01*
X360268Y555420D01*
G75*
D01*
G02X359870Y553720I-3828J0*
G01*
G74*
D01*
G02X360268Y552020I3430J1700*
G01*
X340440Y566420D02*
G75*
D01*
G02X340440Y566420I5000J0*
G01*
X3828Y3828D02*
X896172Y3828D01*
X896172Y896172D01*
X3828Y896172D01*
X3828Y3828D01*
X93980Y298930D02*
X91440Y301470D01*
G54D12*
X441960Y350520D02*
X472440Y350520D01*
X510540Y388620D01*
X243840Y360680D02*
X203200Y360680D01*
X243840Y360680D02*
X271780Y388620D01*
X708660Y350520D02*
X746760Y388620D01*
X680720Y350520D02*
X708660Y350520D01*
X271780Y388620D02*
X345440Y388620D01*
X746760Y388620D02*
X833120Y388620D01*
X510540Y388620D02*
X584200Y388620D01*
G54D13*
X208280Y645960D02*
X261620Y699300D01*
X680720Y651040D02*
X731520Y701840D01*
X261620Y699300D02*
X261620Y780830D01*
X731520Y701840D02*
X731520Y783370D01*
X731520Y783370D02*
X745710Y797560D01*
X759460Y797560D01*
X759460Y797560D02*
X820420Y736600D01*
X91440Y301470D02*
X91440Y341790D01*
X91440Y421640D02*
X91440Y381000D01*
X304800Y626110D02*
X313690Y617220D01*
X345440Y617220D01*
X304800Y693420D02*
X304800Y626110D01*
X447040Y651040D02*
X495300Y699300D01*
X495300Y780830D01*
X278350Y797560D02*
X287020Y797560D01*
X261620Y780830D02*
X278350Y797560D01*
X495300Y780830D02*
X509490Y795020D01*
X524730Y795020D01*
X287020Y797560D02*
X347980Y736600D01*
X304800Y693420D01*
X524730Y795020D02*
X586740Y733010D01*
X810260Y99371D02*
X810260Y213580D01*
X93980Y424180D02*
X91440Y421640D01*
X91440Y380680D02*
X93980Y383220D01*
X147120Y853440D02*
X149860Y853440D01*
X447040Y751040D02*
X441960Y756120D01*
G54D14*
X208280Y853440D02*
X208280Y745960D01*
X683260Y798430D02*
X683260Y749700D01*
X93980Y94860D02*
X93980Y298930D01*
X93980Y424180D02*
X93980Y736600D01*
X96520Y751840D02*
X96520Y802840D01*
X147120Y853440D01*
X96520Y751840D02*
X91440Y746760D01*
X441960Y756120D02*
X441960Y853440D01*
X628250Y853440D02*
X683260Y798430D01*
X149860Y853440D02*
X628250Y853440D01*
G54D15*
X345440Y591820D02*
X345440Y642620D01*
X584200Y619760D02*
X584200Y642620D01*
X584200Y617220D02*
X584200Y591820D01*
X833120Y591820D02*
X833120Y642620D01*
X345440Y464820D02*
X345440Y414020D01*
X584200Y414020D02*
X584200Y464820D01*
X833120Y414020D02*
X833120Y464820D01*
G54D16*
X581660Y617220D02*
X584200Y619760D01*
X565150Y617220D02*
X581660Y617220D01*
X543560Y638810D02*
X565150Y617220D01*
X543560Y689830D02*
X543560Y638810D01*
X586740Y733010D02*
X543560Y689830D01*
X811530Y617220D02*
X833120Y617220D01*
X789940Y638810D02*
X811530Y617220D01*
X789940Y706120D02*
X789940Y638810D01*
X820420Y736600D02*
X789940Y706120D01*
X365760Y439420D02*
X345440Y439420D01*
X353060Y154940D02*
X353060Y289560D01*
X353060Y99940D02*
X353060Y154629D01*
X586740Y99371D02*
X586740Y274320D01*
X853440Y439420D02*
X833120Y439420D01*
X815120Y264160D02*
X810260Y264160D01*
X810260Y213580D02*
X810260Y264160D01*
X345440Y439420D02*
X340360Y444500D01*
X200660Y444500D01*
X436880Y439420D02*
X605790Y439420D01*
X833120Y439420D02*
X828040Y434340D01*
X675640Y434340D01*
X863600Y429260D02*
X863600Y312640D01*
X815120Y264160D01*
X853440Y439420D02*
X863600Y429260D01*
X614680Y430530D02*
X614680Y302260D01*
X586740Y274320D01*
X605790Y439420D02*
X614680Y430530D01*
X375920Y429260D02*
X375920Y312420D01*
X353060Y289560D01*
X365760Y439420D02*
X375920Y429260D01*
G54D17*
X652780Y398780D02*
X678180Y373380D01*
X679450Y373380D01*
X652780Y458470D02*
X652780Y398780D01*
X656590Y462280D02*
X652780Y458470D01*
X656590Y462280D02*
X675640Y462280D01*
X435610Y375920D02*
X441960Y375920D01*
X417830Y467360D02*
X436880Y467360D01*
X185420Y386080D02*
X203200Y386080D01*
X203200Y472440D02*
X182880Y472440D01*
X177800Y393700D02*
X177800Y467360D01*
X177800Y393700D02*
X185420Y386080D01*
X182880Y472440D02*
X177800Y467360D01*
X414020Y463550D02*
X414020Y397510D01*
X435610Y375920D01*
X417830Y467360D02*
X414020Y463550D01*
G54D18*
X352620Y99500D03*
X352620Y154500D03*
X297620Y99500D03*
X297620Y154500D03*
X586300Y99500D03*
X586300Y154500D03*
X531300Y99500D03*
X531300Y154500D03*
X809820Y99500D03*
X809820Y154500D03*
X754820Y99500D03*
X754820Y154500D03*
X94420Y149420D03*
X94420Y94420D03*
X149420Y149420D03*
X149420Y94420D03*
G54D19*
X297620Y213360D03*
X352620Y213360D03*
X531300Y213360D03*
X586300Y213360D03*
X754820Y213360D03*
X809820Y213360D03*
X441960Y325120D03*
X441960Y350520D03*
X441960Y375920D03*
X680720Y325120D03*
X680720Y350520D03*
X680720Y375920D03*
X203200Y335280D03*
X203200Y360680D03*
X203200Y386080D03*
X203200Y447040D03*
X203200Y472440D03*
X203200Y497840D03*
X436880Y441960D03*
X436880Y467360D03*
X436880Y492760D03*
X675640Y436880D03*
X675640Y462280D03*
X675640Y487680D03*
X208280Y745960D03*
X208280Y645960D03*
X447040Y651040D03*
X447040Y751040D03*
X680720Y751040D03*
X680720Y651040D03*
X287460Y797560D03*
X342460Y797560D03*
X526220Y797560D03*
X581220Y797560D03*
X759900Y797560D03*
X814900Y797560D03*
X833120Y668020D03*
X833120Y642620D03*
X833120Y617220D03*
X833120Y591820D03*
X833120Y566420D03*
X833120Y541020D03*
X833120Y515620D03*
X833120Y490220D03*
X833120Y464820D03*
X833120Y439420D03*
X833120Y414020D03*
X833120Y388620D03*
X584200Y668020D03*
X584200Y642620D03*
X584200Y617220D03*
X584200Y591820D03*
X584200Y566420D03*
X584200Y541020D03*
X584200Y515620D03*
X584200Y490220D03*
X584200Y464820D03*
X584200Y439420D03*
X584200Y414020D03*
X584200Y388620D03*
X345440Y668020D03*
X345440Y642620D03*
X345440Y617220D03*
X345440Y591820D03*
X345440Y566420D03*
X345440Y541020D03*
X345440Y515620D03*
X345440Y490220D03*
X345440Y464820D03*
X345440Y439420D03*
X345440Y414020D03*
X345440Y388620D03*
X91440Y420680D03*
X91440Y380680D03*
X91440Y340680D03*
X91440Y300680D03*
X297620Y269240D03*
X352620Y269240D03*
X531300Y269240D03*
X586300Y269240D03*
X754820Y264160D03*
X809820Y264160D03*

M02*
