M48
METRIC,TZ
VER,1
FMAT,2
DETECT,ON
ATC,ON
T1C1.0000
%
T1
X35.2620Y9.9500
Y15.4500
X29.7620Y9.9500
Y15.4500
X58.6300Y9.9500
Y15.4500
X53.1300Y9.9500
Y15.4500
X80.9820Y9.9500
Y15.4500
X75.4820Y9.9500
Y15.4500
X29.7620Y21.3360
X35.2620
X53.1300
X58.6300
X75.4820
X80.9820
X44.1960Y32.5120
Y35.0520
Y37.5920
X68.0720Y32.5120
Y35.0520
Y37.5920
X20.3200Y33.5280
Y36.0680
Y38.6080
Y44.7040
Y47.2440
Y49.7840
X43.6880Y44.1960
Y46.7360
Y49.2760
X67.5640Y43.6880
Y46.2280
Y48.7680
X20.8280Y74.5960
Y64.5960
X44.7040Y65.1040
Y75.1040
X68.0720
Y65.1040
X28.7460Y79.7560
X34.2460
X52.6220
X58.1220
X75.9900
X81.4900
X83.3120Y66.8020
Y64.2620
Y61.7220
Y59.1820
Y56.6420
Y54.1020
Y51.5620
Y49.0220
Y46.4820
Y43.9420
Y41.4020
Y38.8620
X58.4200Y66.8020
Y64.2620
Y61.7220
Y59.1820
Y56.6420
Y54.1020
Y51.5620
Y49.0220
Y46.4820
Y43.9420
Y41.4020
Y38.8620
X34.5440Y66.8020
Y64.2620
Y61.7220
Y59.1820
Y56.6420
Y54.1020
Y51.5620
Y49.0220
Y46.4820
Y43.9420
Y41.4020
Y38.8620
X9.4420Y14.9420
Y9.4420
X14.9420Y14.9420
Y9.4420
X9.1440Y42.0680
Y38.0680
Y34.0680
Y30.0680
X29.7620Y26.9240
X35.2620
X53.1300
X58.6300
X75.4820Y26.4160
X80.9820
M30
