G04 Generated by Ultiboard 13.0 *
%FSLAX34Y34*%
%MOMM*%

%ADD10C,0.0001*%
%ADD11C,0.2540*%
%ADD12C,0.6350*%
%ADD13C,2.5400*%
%ADD14C,5.0800*%
%ADD15C,6.3500*%
%ADD16R,2.1000X2.1000*%
%ADD17R,2.5400X2.5400*%
%ADD18R,2.1500X2.1500*%
%ADD19R,2.1590X2.1590*%
%ADD20R,3.8100X3.8100*%
%ADD21R,5.2070X5.2070*%


G04 ColorRGB 0000FF for the following layer *
%LNCopper Bottom*%
%LPD*%
G54D10*
G36*
X1126172Y3828D02*
X1126172Y3828D01*
X1126172Y996172D01*
X3828Y996172D01*
X3828Y3828D01*
X1126172Y3828D01*
D02*
G37*
%LPC*%
G36*
X223520Y18970D02*
G75*
D01*
G02X215685Y20937I1J16590*
G01*
X215685Y20937D01*
X212725Y20937D01*
G75*
D01*
G02X208897Y24765I0J3828*
G01*
X208897Y24765D01*
X208897Y27725D01*
G75*
D01*
G02X208897Y43395I14622J7835*
G01*
X208897Y43395D01*
X208897Y46355D01*
G75*
D01*
G02X212725Y50183I3828J0*
G01*
X212725Y50183D01*
X215685Y50183D01*
G75*
D01*
G02X223520Y52150I7835J-14622*
G01*
X223520Y52150D01*
X410130Y52150D01*
X410130Y85010D01*
X384610Y85010D01*
G75*
D01*
G02X376071Y87377I1J16590*
G01*
X376071Y87377D01*
X375285Y87377D01*
G75*
D01*
G02X371457Y91205I0J3828*
G01*
X371457Y91205D01*
X371457Y91490D01*
G75*
D01*
G02X371457Y111710I13152J10110*
G01*
X371457Y111710D01*
X371457Y112795D01*
G75*
D01*
G02X375285Y116623I3828J0*
G01*
X375285Y116623D01*
X377573Y116623D01*
G75*
D01*
G02X384610Y118190I7038J-15022*
G01*
X384610Y118190D01*
X426720Y118190D01*
G74*
D01*
G02X433757Y116623I1J16590*
G01*
X433757Y116623D01*
X437515Y116623D01*
G74*
D01*
G02X441343Y112795I0J3828*
G01*
X441343Y112795D01*
X441343Y109435D01*
G74*
D01*
G02X443310Y101600I14622J7835*
G01*
X443310Y101600D01*
X443310Y52150D01*
X864790Y52150D01*
X864790Y85010D01*
X850900Y85010D01*
G75*
D01*
G02X842361Y87377I1J16590*
G01*
X842361Y87377D01*
X840105Y87377D01*
G75*
D01*
G02X836277Y91205I0J3828*
G01*
X836277Y91205D01*
X836277Y93765D01*
G75*
D01*
G02X836277Y109435I14622J7835*
G01*
X836277Y109435D01*
X836277Y112795D01*
G75*
D01*
G02X840105Y116623I3828J0*
G01*
X840105Y116623D01*
X843863Y116623D01*
G75*
D01*
G02X850900Y118190I7038J-15022*
G01*
X850900Y118190D01*
X887330Y118190D01*
G74*
D01*
G02X894367Y116623I1J16590*
G01*
X894367Y116623D01*
X898525Y116623D01*
G74*
D01*
G02X902353Y112795I0J3828*
G01*
X902353Y112795D01*
X902353Y108637D01*
G75*
D01*
G02X902353Y94563I-15023J-7037*
G01*
X902353Y94563D01*
X902353Y91205D01*
G75*
D01*
G02X898525Y87377I-3828J0*
G01*
X898525Y87377D01*
X897970Y87377D01*
X897970Y52150D01*
X1027450Y52150D01*
X1042851Y67551D01*
G75*
D01*
G02X1041228Y78199I34109J10647*
G01*
X1041228Y78199D01*
X1041228Y186610D01*
X1036320Y186610D01*
G75*
D01*
G02X1027958Y188872I1J16590*
G01*
X1027958Y188872D01*
X1025500Y188872D01*
G75*
D01*
G02X1022236Y190699I-1J3828*
G01*
G74*
D01*
G02X1019951Y186695I26556J12501*
G01*
X1019951Y186695D01*
X1019951Y170746D01*
G74*
D01*
G02X1021293Y167835I2486J2911*
G01*
X1021293Y167835D01*
X1021293Y115765D01*
G75*
D01*
G02X1021002Y114300I-3828J-1*
G01*
G74*
D01*
G02X1021293Y112835I3537J1464*
G01*
X1021293Y112835D01*
X1021293Y60765D01*
G75*
D01*
G02X1017465Y56937I-3828J0*
G01*
X1017465Y56937D01*
X965395Y56937D01*
G75*
D01*
G02X963930Y57228I-1J3828*
G01*
G74*
D01*
G02X962465Y56937I1464J3537*
G01*
X962465Y56937D01*
X944050Y56937D01*
X944050Y79180D01*
X961567Y79180D01*
X961567Y82052D01*
G75*
D01*
G02X961249Y86360I29032J4309*
G01*
X961249Y86360D01*
X961249Y94420D01*
X944050Y94420D01*
X944050Y134180D01*
X961249Y134180D01*
X961249Y149420D01*
X944050Y149420D01*
X944050Y171663D01*
X961249Y171663D01*
X961249Y173849D01*
X956000Y173849D01*
G75*
D01*
G02X956000Y232551I0J29351*
G01*
X956000Y232551D01*
X995680Y232551D01*
G74*
D01*
G02X1022236Y215701I0J29351*
G01*
G75*
D01*
G02X1025500Y217528I3263J-2001*
G01*
X1025500Y217528D01*
X1027958Y217528D01*
G75*
D01*
G02X1036320Y219790I8363J-14327*
G01*
X1036320Y219790D01*
X1038688Y219790D01*
X1038688Y852805D01*
G74*
D01*
G02X1040311Y863452I35732J0*
G01*
X1040311Y863452D01*
X1023733Y880030D01*
X708371Y880030D01*
G74*
D01*
G02X706355Y879457I2015J3255*
G01*
X706355Y879457D01*
X704930Y879457D01*
X704930Y862983D01*
X706355Y862983D01*
G74*
D01*
G02X710183Y859155I0J3828*
G01*
X710183Y859155D01*
X710183Y837565D01*
G75*
D01*
G02X706355Y833737I-3828J0*
G01*
X706355Y833737D01*
X704930Y833737D01*
X704930Y767080D01*
G75*
D01*
G02X702963Y759245I-16590J1*
G01*
X702963Y759245D01*
X702963Y756285D01*
G75*
D01*
G02X699135Y752457I-3828J0*
G01*
X699135Y752457D01*
X696175Y752457D01*
G75*
D01*
G02X680505Y752457I-7835J14622*
G01*
X680505Y752457D01*
X677545Y752457D01*
G75*
D01*
G02X673717Y756285I0J3828*
G01*
X673717Y756285D01*
X673717Y759245D01*
G75*
D01*
G02X671750Y767080I14622J7835*
G01*
X671750Y767080D01*
X671750Y891517D01*
G75*
D01*
G02X671750Y891563I16590J23*
G01*
X671750Y891563D01*
X671750Y892810D01*
G74*
D01*
G02X672302Y897055I16590J1*
G01*
G75*
D01*
G02X671750Y901323I16038J4244*
G01*
X671750Y901323D01*
X671750Y912408D01*
X663488Y920670D01*
X548668Y920670D01*
G74*
D01*
G02X546100Y920470I2568J16389*
G01*
X546100Y920470D01*
X280992Y920470D01*
X248644Y888122D01*
G74*
D01*
G02X244141Y879809I16233J3417*
G01*
X244141Y879809D01*
X242823Y878492D01*
X242823Y878205D01*
G75*
D01*
G02X238995Y874377I-3828J0*
G01*
X238995Y874377D01*
X238708Y874377D01*
X237570Y873238D01*
X237570Y862983D01*
X238995Y862983D01*
G74*
D01*
G02X242823Y859155I0J3828*
G01*
X242823Y859155D01*
X242823Y837565D01*
G75*
D01*
G02X238995Y833737I-3828J0*
G01*
X238995Y833737D01*
X237570Y833737D01*
X237570Y765810D01*
G75*
D01*
G02X235603Y757975I-16590J1*
G01*
X235603Y757975D01*
X235603Y755015D01*
G75*
D01*
G02X231775Y751187I-3828J0*
G01*
X231775Y751187D01*
X228815Y751187D01*
G75*
D01*
G02X213145Y751187I-7835J14622*
G01*
X213145Y751187D01*
X210185Y751187D01*
G75*
D01*
G02X206357Y755015I0J3828*
G01*
X206357Y755015D01*
X206357Y757975D01*
G75*
D01*
G02X204390Y765810I14622J7835*
G01*
X204390Y765810D01*
X204390Y880086D01*
G75*
D01*
G02X209249Y891841I16590J24*
G01*
X209249Y891841D01*
X212366Y894958D01*
G74*
D01*
G02X213577Y898577I16233J3420*
G01*
X213577Y898577D01*
X213577Y899795D01*
G74*
D01*
G02X217217Y903619I3828J1*
G01*
X217217Y903619D01*
X236172Y922573D01*
X236172Y922573D01*
X262389Y948791D01*
G74*
D01*
G02X273360Y953632I11730J11732*
G01*
G75*
D01*
G02X274120Y953650I773J-16571*
G01*
X274120Y953650D01*
X543732Y953650D01*
G75*
D01*
G02X546300Y953850I2568J-16389*
G01*
X546300Y953850D01*
X670560Y953850D01*
G74*
D01*
G02X683719Y947362I1J16590*
G01*
X683719Y947362D01*
X700060Y931022D01*
G74*
D01*
G02X704930Y919280I11720J11742*
G01*
X704930Y919280D01*
X704930Y913210D01*
X1030590Y913210D01*
G75*
D01*
G02X1036684Y912056I15J-16590*
G01*
G74*
D01*
G02X1042347Y908340I6078J15435*
G01*
X1042347Y908340D01*
X1063773Y886914D01*
G75*
D01*
G02X1110152Y852805I10647J-34109*
G01*
X1110152Y852805D01*
X1110152Y215471D01*
G74*
D01*
G02X1112692Y202240I33191J13231*
G01*
X1112692Y202240D01*
X1112692Y78199D01*
G75*
D01*
G02X1066313Y44090I-35732J0*
G01*
X1066313Y44090D01*
X1046063Y23840D01*
G74*
D01*
G02X1040046Y19989I11741J11719*
G01*
G75*
D01*
G02X1034308Y18970I-5725J15570*
G01*
X1034308Y18970D01*
X223520Y18970D01*
D02*
G37*
G36*
X710010Y340360D02*
X710010Y340360D01*
X710010Y213360D01*
G75*
D01*
G02X682053Y201277I-16590J1*
G01*
X682053Y201277D01*
X680085Y201277D01*
G75*
D01*
G02X676257Y205105I0J3828*
G01*
X676257Y205105D01*
X676257Y226695D01*
G74*
D01*
G02X676830Y228711I3828J1*
G01*
X676830Y228711D01*
X676830Y340360D01*
G74*
D01*
G02X678797Y348195I16590J1*
G01*
X678797Y348195D01*
X678797Y352425D01*
G75*
D01*
G02X682625Y356253I3828J0*
G01*
X682625Y356253D01*
X688664Y356253D01*
G75*
D01*
G02X698176Y356253I4756J-15893*
G01*
X698176Y356253D01*
X704215Y356253D01*
G74*
D01*
G02X708043Y352425I0J3828*
G01*
X708043Y352425D01*
X708043Y348195D01*
G74*
D01*
G02X710010Y340360I14622J7835*
G01*
D02*
G37*
G36*
X753963Y727075D02*
X753963Y727075D01*
X753963Y706503D01*
X777116Y683350D01*
G74*
D01*
G02X779179Y678380I4955J4970*
G01*
X779179Y678380D01*
X779179Y675023D01*
X782955Y675023D01*
G74*
D01*
G02X784860Y674516I1J3828*
G01*
G75*
D01*
G02X786765Y675023I1904J-3321*
G01*
X786765Y675023D01*
X808355Y675023D01*
G74*
D01*
G02X812183Y671195I0J3828*
G01*
X812183Y671195D01*
X812183Y649605D01*
G75*
D01*
G02X808355Y645777I-3828J0*
G01*
X808355Y645777D01*
X786765Y645777D01*
G75*
D01*
G02X784860Y646284I-1J3828*
G01*
G74*
D01*
G02X782955Y645777I1904J3321*
G01*
X782955Y645777D01*
X761365Y645777D01*
G75*
D01*
G02X759460Y646284I-1J3828*
G01*
G74*
D01*
G02X758493Y645893I1905J3320*
G01*
X758493Y645893D01*
X762367Y642019D01*
X789847Y642019D01*
G75*
D01*
G02X793430Y644498I3582J-1349*
G01*
X793430Y644498D01*
X814930Y644498D01*
G74*
D01*
G02X818758Y640670I0J3828*
G01*
X818758Y640670D01*
X818758Y619170D01*
G75*
D01*
G02X814930Y615342I-3828J0*
G01*
X814930Y615342D01*
X793430Y615342D01*
G75*
D01*
G02X789602Y619170I0J3828*
G01*
X789602Y619170D01*
X789602Y627981D01*
X759460Y627981D01*
G75*
D01*
G02X757430Y628281I0J7019*
G01*
G74*
D01*
G02X754497Y630037I2030J6718*
G01*
X754497Y630037D01*
X741797Y642737D01*
G74*
D01*
G02X740010Y645777I4963J4962*
G01*
X740010Y645777D01*
X735965Y645777D01*
G75*
D01*
G02X732137Y649605I0J3828*
G01*
X732137Y649605D01*
X732137Y671195D01*
G75*
D01*
G02X735965Y675023I3828J0*
G01*
X735965Y675023D01*
X737450Y675023D01*
X724022Y688452D01*
G74*
D01*
G02X724017Y688457I4960J4965*
G01*
X724017Y688457D01*
X717377Y695097D01*
G75*
D01*
G02X715321Y700071I4962J4963*
G01*
X715321Y700071D01*
X715321Y701657D01*
X710526Y701657D01*
X710526Y711094D01*
X715321Y711094D01*
X715321Y721466D01*
X710526Y721466D01*
X710526Y730903D01*
X715321Y730903D01*
X715321Y752457D01*
X711545Y752457D01*
G75*
D01*
G02X707717Y756285I0J3828*
G01*
X707717Y756285D01*
X707717Y777875D01*
G75*
D01*
G02X711545Y781703I3828J0*
G01*
X711545Y781703D01*
X733135Y781703D01*
G74*
D01*
G02X736963Y777875I0J3828*
G01*
X736963Y777875D01*
X736963Y756285D01*
G75*
D01*
G02X733135Y752457I-3828J0*
G01*
X733135Y752457D01*
X729359Y752457D01*
X729359Y730903D01*
X750135Y730903D01*
G74*
D01*
G02X753963Y727075I0J3828*
G01*
D02*
G37*
G36*
X787963Y727075D02*
X787963Y727075D01*
X787963Y711583D01*
X806727Y692819D01*
X816810Y692819D01*
G74*
D01*
G02X821780Y690756I0J7019*
G01*
X821780Y690756D01*
X837513Y675023D01*
X849395Y675023D01*
G74*
D01*
G02X853223Y671195I0J3828*
G01*
X853223Y671195D01*
X853223Y649605D01*
G75*
D01*
G02X849395Y645777I-3828J0*
G01*
X849395Y645777D01*
X827805Y645777D01*
G75*
D01*
G02X823977Y649605I0J3828*
G01*
X823977Y649605D01*
X823977Y668707D01*
X813903Y678781D01*
X803827Y678781D01*
G75*
D01*
G02X798857Y680837I-7J7019*
G01*
X798857Y680837D01*
X778037Y701657D01*
X762545Y701657D01*
G75*
D01*
G02X758717Y705485I0J3828*
G01*
X758717Y705485D01*
X758717Y727075D01*
G75*
D01*
G02X762545Y730903I3828J0*
G01*
X762545Y730903D01*
X784135Y730903D01*
G74*
D01*
G02X787963Y727075I0J3828*
G01*
D02*
G37*
G36*
X849550Y614658D02*
G75*
D01*
G02X854409Y626411I16590J22*
G01*
X854409Y626411D01*
X870960Y642961D01*
X870960Y672759D01*
X793228Y750490D01*
X756340Y750490D01*
G75*
D01*
G02X748505Y752457I1J16590*
G01*
X748505Y752457D01*
X745545Y752457D01*
G75*
D01*
G02X741717Y756285I0J3828*
G01*
X741717Y756285D01*
X741717Y759245D01*
G75*
D01*
G02X741717Y774915I14622J7835*
G01*
X741717Y774915D01*
X741717Y777875D01*
G75*
D01*
G02X745545Y781703I3828J0*
G01*
X745545Y781703D01*
X748505Y781703D01*
G75*
D01*
G02X756340Y783670I7835J-14622*
G01*
X756340Y783670D01*
X800100Y783670D01*
G74*
D01*
G02X811842Y778800I0J16590*
G01*
X811842Y778800D01*
X900524Y690118D01*
G74*
D01*
G02X903742Y685589I11724J11738*
G01*
G75*
D01*
G02X904139Y672061I-14942J-7208*
G01*
X904139Y672061D01*
X904139Y636090D01*
G75*
D01*
G02X899269Y624348I-16589J-1*
G01*
X899269Y624348D01*
X882730Y607808D01*
X882730Y222266D01*
G75*
D01*
G02X867410Y199310I-15320J-6366*
G01*
X867410Y199310D01*
X859042Y199310D01*
X824310Y164578D01*
X824310Y114300D01*
G75*
D01*
G02X819440Y102558I-16590J0*
G01*
X819440Y102558D01*
X791962Y75080D01*
G74*
D01*
G02X780220Y70210I11742J11720*
G01*
X780220Y70210D01*
X748243Y70210D01*
X748243Y60765D01*
G75*
D01*
G02X744415Y56937I-3828J0*
G01*
X744415Y56937D01*
X692345Y56937D01*
G75*
D01*
G02X690880Y57228I-1J3828*
G01*
G74*
D01*
G02X689415Y56937I1464J3537*
G01*
X689415Y56937D01*
X637345Y56937D01*
G75*
D01*
G02X633517Y60765I0J3828*
G01*
X633517Y60765D01*
X633517Y69090D01*
X605200Y69090D01*
G75*
D01*
G02X602492Y69313I3J16590*
G01*
G74*
D01*
G02X593469Y73949I2707J16367*
G01*
X593469Y73949D01*
X488649Y178769D01*
G75*
D01*
G02X483790Y190522I11731J11731*
G01*
X483790Y190522D01*
X483790Y515605D01*
G75*
D01*
G02X488649Y527351I16590J15*
G01*
X488649Y527351D01*
X493950Y532652D01*
X493950Y543537D01*
G75*
D01*
G02X498809Y555291I16590J23*
G01*
X498809Y555291D01*
X519350Y575832D01*
X519350Y648465D01*
G75*
D01*
G02X519177Y649605I3655J1138*
G01*
X519177Y649605D01*
X519177Y671195D01*
G74*
D01*
G02X519350Y672335I3828J2*
G01*
X519350Y672335D01*
X519350Y718798D01*
G75*
D01*
G02X524209Y730551I16590J22*
G01*
X524209Y730551D01*
X572469Y778811D01*
G74*
D01*
G02X581145Y783386I11730J11731*
G01*
G75*
D01*
G02X584200Y783670I3056J-16305*
G01*
X584200Y783670D01*
X620340Y783670D01*
G74*
D01*
G02X628175Y781703I1J16590*
G01*
X628175Y781703D01*
X631135Y781703D01*
G74*
D01*
G02X634963Y777875I0J3828*
G01*
X634963Y777875D01*
X634963Y774915D01*
G75*
D01*
G02X634963Y759245I-14622J-7835*
G01*
X634963Y759245D01*
X634963Y756285D01*
G75*
D01*
G02X631135Y752457I-3828J0*
G01*
X631135Y752457D01*
X628175Y752457D01*
G74*
D01*
G02X620340Y750490I7835J14622*
G01*
X620340Y750490D01*
X591072Y750490D01*
X556753Y716172D01*
X552530Y711948D01*
X552530Y568960D01*
G75*
D01*
G02X547660Y557218I-16590J0*
G01*
X547660Y557218D01*
X527130Y536688D01*
X527130Y525780D01*
G75*
D01*
G02X522260Y514038I-16590J0*
G01*
X522260Y514038D01*
X516970Y508748D01*
X516970Y197372D01*
X612072Y102270D01*
X633517Y102270D01*
X633517Y112835D01*
G74*
D01*
G02X633808Y114300I3828J1*
G01*
G75*
D01*
G02X633517Y115765I3537J1464*
G01*
X633517Y115765D01*
X633517Y150742D01*
X613109Y171149D01*
G75*
D01*
G02X608250Y182899I11731J11731*
G01*
X608250Y182899D01*
X608250Y297180D01*
G74*
D01*
G02X608299Y298450I16590J4*
G01*
G75*
D01*
G02X608250Y299720I16540J1274*
G01*
X608250Y299720D01*
X608250Y323770D01*
X604920Y323770D01*
G75*
D01*
G02X589364Y334594I0J16590*
G01*
X589364Y334594D01*
X529289Y394669D01*
G75*
D01*
G02X524430Y406423I11731J11731*
G01*
X524430Y406423D01*
X524430Y444500D01*
G74*
D01*
G02X528937Y455867I16590J1*
G01*
X528937Y455867D01*
X528937Y458235D01*
G75*
D01*
G02X532765Y462063I3828J0*
G01*
X532765Y462063D01*
X554321Y462063D01*
X554321Y476953D01*
X548457Y482817D01*
X532765Y482817D01*
G75*
D01*
G02X528937Y486645I0J3828*
G01*
X528937Y486645D01*
X528937Y508235D01*
G75*
D01*
G02X532765Y512063I3828J0*
G01*
X532765Y512063D01*
X554355Y512063D01*
G74*
D01*
G02X558183Y508235I0J3828*
G01*
X558183Y508235D01*
X558183Y492943D01*
X566296Y484830D01*
G74*
D01*
G02X568082Y481813I4955J4970*
G01*
X568082Y481813D01*
X568082Y498430D01*
G75*
D01*
G02X571910Y502258I3828J0*
G01*
X571910Y502258D01*
X593410Y502258D01*
G74*
D01*
G02X597238Y498430I0J3828*
G01*
X597238Y498430D01*
X597238Y489619D01*
X627380Y489619D01*
G74*
D01*
G02X632350Y487556I0J7019*
G01*
X632350Y487556D01*
X639956Y479950D01*
G74*
D01*
G02X642019Y474980I4955J4970*
G01*
X642019Y474980D01*
X642019Y466743D01*
X645795Y466743D01*
G74*
D01*
G02X649623Y462915I0J3828*
G01*
X649623Y462915D01*
X649623Y447423D01*
X664887Y432159D01*
G75*
D01*
G02X666929Y426755I-4962J-4963*
G01*
X666929Y426755D01*
X666929Y407053D01*
X671234Y407053D01*
X671234Y397616D01*
X666929Y397616D01*
X666929Y387244D01*
X671234Y387244D01*
X671234Y377807D01*
X666929Y377807D01*
X666929Y356253D01*
X670215Y356253D01*
G74*
D01*
G02X674043Y352425I0J3828*
G01*
X674043Y352425D01*
X674043Y330835D01*
G75*
D01*
G02X670215Y327007I-3828J0*
G01*
X670215Y327007D01*
X648625Y327007D01*
G75*
D01*
G02X644797Y330835I0J3828*
G01*
X644797Y330835D01*
X644797Y352425D01*
G75*
D01*
G02X648625Y356253I3828J0*
G01*
X648625Y356253D01*
X652891Y356253D01*
X652891Y377807D01*
X631625Y377807D01*
G75*
D01*
G02X627797Y381635I0J3828*
G01*
X627797Y381635D01*
X627797Y403225D01*
G74*
D01*
G02X627804Y403470I3828J13*
G01*
X627804Y403470D01*
X604637Y426637D01*
G75*
D01*
G02X602581Y431615I4962J4963*
G01*
X602581Y431615D01*
X602581Y437497D01*
X598805Y437497D01*
G75*
D01*
G02X596900Y438004I-1J3828*
G01*
G74*
D01*
G02X594995Y437497I1904J3321*
G01*
X594995Y437497D01*
X573405Y437497D01*
G75*
D01*
G02X571504Y438002I-1J3828*
G01*
X571504Y438002D01*
X602453Y407053D01*
X619215Y407053D01*
G74*
D01*
G02X623043Y403225I0J3828*
G01*
X623043Y403225D01*
X623043Y381635D01*
G75*
D01*
G02X619215Y377807I-3828J0*
G01*
X619215Y377807D01*
X597625Y377807D01*
G75*
D01*
G02X593797Y381635I0J3828*
G01*
X593797Y381635D01*
X593797Y395857D01*
X557610Y432044D01*
X557610Y413272D01*
X613932Y356950D01*
X625420Y356950D01*
G74*
D01*
G02X630176Y356253I2J16590*
G01*
X630176Y356253D01*
X636215Y356253D01*
G74*
D01*
G02X640043Y352425I0J3828*
G01*
X640043Y352425D01*
X640043Y348195D01*
G75*
D01*
G02X641430Y336012I-14622J-7835*
G01*
X641430Y336012D01*
X641430Y299720D01*
G75*
D01*
G02X641381Y298450I-16590J4*
G01*
G74*
D01*
G02X641430Y297180I16540J1274*
G01*
X641430Y297180D01*
X641430Y189752D01*
X659518Y171663D01*
X689415Y171663D01*
G74*
D01*
G02X690880Y171372I1J3828*
G01*
G75*
D01*
G02X692345Y171663I1464J-3537*
G01*
X692345Y171663D01*
X722242Y171663D01*
X745410Y194832D01*
X745410Y311192D01*
G75*
D01*
G02X744830Y315540I16009J4348*
G01*
X744830Y315540D01*
X744830Y334743D01*
G75*
D01*
G02X746797Y349798I15609J5617*
G01*
X746797Y349798D01*
X746797Y352425D01*
G75*
D01*
G02X750625Y356253I3828J0*
G01*
X750625Y356253D01*
X755684Y356253D01*
G75*
D01*
G02X760440Y356950I4758J-15892*
G01*
X760440Y356950D01*
X777988Y356950D01*
X791130Y370092D01*
X791130Y378320D01*
G74*
D01*
G02X789215Y377807I1914J3315*
G01*
X789215Y377807D01*
X767625Y377807D01*
G75*
D01*
G02X763797Y381635I0J3828*
G01*
X763797Y381635D01*
X763797Y403225D01*
G75*
D01*
G02X767625Y407053I3828J0*
G01*
X767625Y407053D01*
X771401Y407053D01*
X771401Y440291D01*
G74*
D01*
G02X767715Y437497I3686J1034*
G01*
X767715Y437497D01*
X763939Y437497D01*
X763939Y416560D01*
G75*
D01*
G02X761876Y411590I-7019J0*
G01*
X761876Y411590D01*
X756933Y406647D01*
G74*
D01*
G02X759043Y403225I1719J3421*
G01*
X759043Y403225D01*
X759043Y381635D01*
G75*
D01*
G02X755215Y377807I-3828J0*
G01*
X755215Y377807D01*
X734929Y377807D01*
X734929Y356253D01*
X738215Y356253D01*
G74*
D01*
G02X742043Y352425I0J3828*
G01*
X742043Y352425D01*
X742043Y330835D01*
G75*
D01*
G02X738215Y327007I-3828J0*
G01*
X738215Y327007D01*
X716625Y327007D01*
G75*
D01*
G02X712797Y330835I0J3828*
G01*
X712797Y330835D01*
X712797Y352425D01*
G75*
D01*
G02X716625Y356253I3828J0*
G01*
X716625Y356253D01*
X720891Y356253D01*
X720891Y377807D01*
X699625Y377807D01*
G75*
D01*
G02X695797Y381635I0J3828*
G01*
X695797Y381635D01*
X695797Y403225D01*
G75*
D01*
G02X699625Y407053I3828J0*
G01*
X699625Y407053D01*
X704181Y407053D01*
X704181Y437497D01*
X695325Y437497D01*
G75*
D01*
G02X691497Y441325I0J3828*
G01*
X691497Y441325D01*
X691497Y462915D01*
G75*
D01*
G02X695325Y466743I3828J0*
G01*
X695325Y466743D01*
X716915Y466743D01*
G74*
D01*
G02X718820Y466236I1J3828*
G01*
G75*
D01*
G02X720725Y466743I1904J-3321*
G01*
X720725Y466743D01*
X742315Y466743D01*
G74*
D01*
G02X744220Y466236I1J3828*
G01*
G75*
D01*
G02X746125Y466743I1904J-3321*
G01*
X746125Y466743D01*
X767715Y466743D01*
G74*
D01*
G02X771401Y463949I0J3828*
G01*
X771401Y463949D01*
X771401Y486309D01*
G75*
D01*
G02X773457Y491283I7019J11*
G01*
X773457Y491283D01*
X782937Y500763D01*
X782937Y513315D01*
G75*
D01*
G02X786765Y517143I3828J0*
G01*
X786765Y517143D01*
X808355Y517143D01*
G74*
D01*
G02X812183Y513315I0J3828*
G01*
X812183Y513315D01*
X812183Y491725D01*
G75*
D01*
G02X808355Y487897I-3828J0*
G01*
X808355Y487897D01*
X789923Y487897D01*
X785439Y483413D01*
X785439Y466906D01*
G75*
D01*
G02X786765Y467143I1326J-3590*
G01*
X786765Y467143D01*
X790523Y467143D01*
G75*
D01*
G02X804597Y467143I7037J-15023*
G01*
X804597Y467143D01*
X808355Y467143D01*
G74*
D01*
G02X812183Y463315I0J3828*
G01*
X812183Y463315D01*
X812183Y460958D01*
X819440Y453702D01*
G74*
D01*
G02X824310Y441960I11720J11742*
G01*
X824310Y441960D01*
X824310Y363220D01*
G75*
D01*
G02X819440Y351478I-16590J0*
G01*
X819440Y351478D01*
X796602Y328640D01*
G74*
D01*
G02X784860Y323770I11742J11720*
G01*
X784860Y323770D01*
X778010Y323770D01*
X778010Y319308D01*
G74*
D01*
G02X778590Y314960I16009J4348*
G01*
X778590Y314960D01*
X778590Y187960D01*
G75*
D01*
G02X773720Y176218I-16590J0*
G01*
X773720Y176218D01*
X748243Y150742D01*
X748243Y115765D01*
G75*
D01*
G02X747952Y114300I-3828J-1*
G01*
G74*
D01*
G02X748243Y112835I3537J1464*
G01*
X748243Y112835D01*
X748243Y103390D01*
X773348Y103390D01*
X791130Y121172D01*
X791130Y171437D01*
G75*
D01*
G02X795989Y183181I16590J13*
G01*
X795989Y183181D01*
X840439Y227631D01*
G74*
D01*
G02X849550Y232282I11731J11731*
G01*
X849550Y232282D01*
X849550Y614658D01*
D02*
G37*
G36*
X718410Y473102D02*
X718410Y473102D01*
X712830Y473102D01*
X712830Y482510D01*
X722238Y482510D01*
X722238Y476930D01*
G75*
D01*
G02X718410Y473102I-3828J0*
G01*
D02*
G37*
G36*
X718410Y502258D02*
G74*
D01*
G02X722238Y498430I0J3828*
G01*
X722238Y498430D01*
X722238Y492850D01*
X712830Y492850D01*
X712830Y502258D01*
X718410Y502258D01*
D02*
G37*
G36*
X693082Y476930D02*
X693082Y476930D01*
X693082Y482510D01*
X702490Y482510D01*
X702490Y473102D01*
X696910Y473102D01*
G75*
D01*
G02X693082Y476930I0J3828*
G01*
D02*
G37*
G36*
X685963Y727075D02*
X685963Y727075D01*
X685963Y705485D01*
G75*
D01*
G02X682659Y701693I-3828J0*
G01*
X682659Y701693D01*
X682659Y675023D01*
X686435Y675023D01*
G74*
D01*
G02X690263Y671195I0J3828*
G01*
X690263Y671195D01*
X690263Y649605D01*
G75*
D01*
G02X686435Y645777I-3828J0*
G01*
X686435Y645777D01*
X664845Y645777D01*
G75*
D01*
G02X662940Y646284I-1J3828*
G01*
G74*
D01*
G02X661035Y645777I1904J3321*
G01*
X661035Y645777D01*
X639445Y645777D01*
G75*
D01*
G02X637540Y646284I-1J3828*
G01*
G74*
D01*
G02X635635Y645777I1904J3321*
G01*
X635635Y645777D01*
X614045Y645777D01*
G75*
D01*
G02X610217Y649605I0J3828*
G01*
X610217Y649605D01*
X610217Y671195D01*
G75*
D01*
G02X614045Y675023I3828J0*
G01*
X614045Y675023D01*
X617821Y675023D01*
X617821Y696146D01*
G75*
D01*
G02X619877Y701123I7019J14*
G01*
X619877Y701123D01*
X622943Y704189D01*
G75*
D01*
G02X622717Y705485I3602J1296*
G01*
X622717Y705485D01*
X622717Y727075D01*
G75*
D01*
G02X626545Y730903I3828J0*
G01*
X626545Y730903D01*
X647321Y730903D01*
X647321Y752457D01*
X643545Y752457D01*
G75*
D01*
G02X639717Y756285I0J3828*
G01*
X639717Y756285D01*
X639717Y777875D01*
G75*
D01*
G02X643545Y781703I3828J0*
G01*
X643545Y781703D01*
X665135Y781703D01*
G74*
D01*
G02X668963Y777875I0J3828*
G01*
X668963Y777875D01*
X668963Y756285D01*
G75*
D01*
G02X665135Y752457I-3828J0*
G01*
X665135Y752457D01*
X661359Y752457D01*
X661359Y730903D01*
X682135Y730903D01*
G74*
D01*
G02X685963Y727075I0J3828*
G01*
D02*
G37*
G36*
X709148Y716172D02*
G75*
D01*
G02X709148Y716172I-3808J108*
G01*
D02*
G37*
G36*
X617963Y727075D02*
X617963Y727075D01*
X617963Y705485D01*
G75*
D01*
G02X614135Y701657I-3828J0*
G01*
X614135Y701657D01*
X598643Y701657D01*
X591219Y694233D01*
X591219Y675023D01*
X594595Y675023D01*
G74*
D01*
G02X598423Y671195I0J3828*
G01*
X598423Y671195D01*
X598423Y649605D01*
G75*
D01*
G02X594595Y645777I-3828J0*
G01*
X594595Y645777D01*
X573005Y645777D01*
G75*
D01*
G02X569177Y649605I0J3828*
G01*
X569177Y649605D01*
X569177Y671195D01*
G75*
D01*
G02X573005Y675023I3828J0*
G01*
X573005Y675023D01*
X577181Y675023D01*
X577181Y697126D01*
G75*
D01*
G02X579237Y702103I7019J14*
G01*
X579237Y702103D01*
X588717Y711583D01*
X588717Y727075D01*
G75*
D01*
G02X592545Y730903I3828J0*
G01*
X592545Y730903D01*
X614135Y730903D01*
G74*
D01*
G02X617963Y727075I0J3828*
G01*
D02*
G37*
G36*
X280865Y56937D02*
X280865Y56937D01*
X228795Y56937D01*
G75*
D01*
G02X227330Y57228I-1J3828*
G01*
G74*
D01*
G02X225865Y56937I1464J3537*
G01*
X225865Y56937D01*
X173795Y56937D01*
G75*
D01*
G02X169967Y60765I0J3828*
G01*
X169967Y60765D01*
X169967Y69090D01*
X137840Y69090D01*
G75*
D01*
G02X135132Y69313I3J16590*
G01*
G74*
D01*
G02X126109Y73949I2707J16367*
G01*
X126109Y73949D01*
X21289Y178769D01*
G75*
D01*
G02X16430Y190522I11731J11731*
G01*
X16430Y190522D01*
X16430Y632039D01*
G75*
D01*
G02X21289Y643791I16590J21*
G01*
X21289Y643791D01*
X44370Y666872D01*
X44370Y710888D01*
G75*
D01*
G02X49229Y722641I16590J22*
G01*
X49229Y722641D01*
X97779Y771191D01*
G74*
D01*
G02X105790Y775627I11730J11732*
G01*
G75*
D01*
G02X109510Y776050I3722J-16166*
G01*
X109510Y776050D01*
X138357Y776050D01*
X138357Y776605D01*
G75*
D01*
G02X142185Y780433I3828J0*
G01*
X142185Y780433D01*
X143136Y780433D01*
G75*
D01*
G02X162824Y780433I9844J-13353*
G01*
X162824Y780433D01*
X163775Y780433D01*
G74*
D01*
G02X167603Y776605I0J3828*
G01*
X167603Y776605D01*
X167603Y774914D01*
G75*
D01*
G02X167603Y759246I-14623J-7834*
G01*
X167603Y759246D01*
X167603Y755015D01*
G75*
D01*
G02X163775Y751187I-3828J0*
G01*
X163775Y751187D01*
X160548Y751187D01*
X157102Y747740D01*
G74*
D01*
G02X150259Y743610I11741J11720*
G01*
G75*
D01*
G02X145348Y742870I-4899J15849*
G01*
X145348Y742870D01*
X116382Y742870D01*
X89683Y716172D01*
X89683Y716172D01*
X87257Y713745D01*
X77550Y704038D01*
X77550Y664021D01*
G75*
D01*
G02X75983Y652566I-16189J-3620*
G01*
X75983Y652566D01*
X75983Y649605D01*
G75*
D01*
G02X72155Y645777I-3828J0*
G01*
X72155Y645777D01*
X70198Y645777D01*
X49610Y625188D01*
X49610Y197372D01*
X144712Y102270D01*
X169967Y102270D01*
X169967Y112835D01*
G74*
D01*
G02X170258Y114300I3828J1*
G01*
G75*
D01*
G02X169967Y115765I3537J1464*
G01*
X169967Y115765D01*
X169967Y146932D01*
X145749Y171149D01*
G75*
D01*
G02X140890Y182899I11731J11731*
G01*
X140890Y182899D01*
X140890Y299720D01*
G74*
D01*
G02X141470Y304068I16590J0*
G01*
X141470Y304068D01*
X141470Y323770D01*
X138726Y323770D01*
G75*
D01*
G02X126989Y328629I-6J16590*
G01*
X126989Y328629D01*
X59389Y396229D01*
G75*
D01*
G02X54530Y407972I11731J11731*
G01*
X54530Y407972D01*
X54530Y442360D01*
G74*
D01*
G02X56497Y450195I16590J1*
G01*
X56497Y450195D01*
X56497Y453155D01*
G75*
D01*
G02X60325Y456983I3828J0*
G01*
X60325Y456983D01*
X63285Y456983D01*
G75*
D01*
G02X78955Y456983I7835J-14622*
G01*
X78955Y456983D01*
X81915Y456983D01*
G74*
D01*
G02X85691Y453785I0J3828*
G01*
X85691Y453785D01*
X85691Y468263D01*
X77782Y476172D01*
X76217Y477737D01*
X60325Y477737D01*
G75*
D01*
G02X56497Y481565I0J3828*
G01*
X56497Y481565D01*
X56497Y503155D01*
G75*
D01*
G02X60325Y506983I3828J0*
G01*
X60325Y506983D01*
X81915Y506983D01*
G74*
D01*
G02X85743Y503155I0J3828*
G01*
X85743Y503155D01*
X85743Y488063D01*
X97666Y476140D01*
G74*
D01*
G02X99729Y471170I4955J4970*
G01*
X99729Y471170D01*
X99729Y449720D01*
X107297Y442152D01*
X107297Y462915D01*
G75*
D01*
G02X111125Y466743I3828J0*
G01*
X111125Y466743D01*
X126310Y466743D01*
X119952Y473102D01*
X104550Y473102D01*
G75*
D01*
G02X100722Y476930I0J3828*
G01*
X100722Y476930D01*
X100722Y498430D01*
G75*
D01*
G02X104550Y502258I3828J0*
G01*
X104550Y502258D01*
X126050Y502258D01*
G74*
D01*
G02X129878Y498430I0J3828*
G01*
X129878Y498430D01*
X129878Y483028D01*
X136734Y476172D01*
X137257Y475649D01*
X164465Y475649D01*
G74*
D01*
G02X169435Y473586I0J7019*
G01*
X169435Y473586D01*
X176278Y466743D01*
X183515Y466743D01*
G74*
D01*
G02X187343Y462915I0J3828*
G01*
X187343Y462915D01*
X187343Y447423D01*
X197506Y437260D01*
G74*
D01*
G02X199569Y432290I4955J4970*
G01*
X199569Y432290D01*
X199569Y405783D01*
X203874Y405783D01*
X203874Y396346D01*
X199569Y396346D01*
X199569Y385974D01*
X203874Y385974D01*
X203874Y376537D01*
X199569Y376537D01*
X199569Y354983D01*
X202855Y354983D01*
G74*
D01*
G02X206683Y351155I0J3828*
G01*
X206683Y351155D01*
X206683Y329565D01*
G75*
D01*
G02X202855Y325737I-3828J0*
G01*
X202855Y325737D01*
X181265Y325737D01*
G75*
D01*
G02X177437Y329565I0J3828*
G01*
X177437Y329565D01*
X177437Y351155D01*
G75*
D01*
G02X181265Y354983I3828J0*
G01*
X181265Y354983D01*
X185531Y354983D01*
X185531Y376537D01*
X164265Y376537D01*
G75*
D01*
G02X160437Y380365I0J3828*
G01*
X160437Y380365D01*
X160437Y401955D01*
G74*
D01*
G02X160663Y403251I3828J0*
G01*
X160663Y403251D01*
X142357Y421557D01*
G75*
D01*
G02X140301Y426535I4962J4963*
G01*
X140301Y426535D01*
X140301Y437497D01*
X136525Y437497D01*
G75*
D01*
G02X134620Y438004I-1J3828*
G01*
G74*
D01*
G02X132715Y437497I1904J3321*
G01*
X132715Y437497D01*
X111952Y437497D01*
X130051Y419398D01*
G74*
D01*
G02X132114Y414428I4955J4970*
G01*
X132114Y414428D01*
X132114Y410032D01*
X136363Y405783D01*
X151855Y405783D01*
G74*
D01*
G02X155683Y401955I0J3828*
G01*
X155683Y401955D01*
X155683Y380365D01*
G75*
D01*
G02X151855Y376537I-3828J0*
G01*
X151855Y376537D01*
X130265Y376537D01*
G75*
D01*
G02X126437Y380365I0J3828*
G01*
X126437Y380365D01*
X126437Y395857D01*
X120132Y402162D01*
G75*
D01*
G02X118076Y407137I4962J4963*
G01*
X118076Y407137D01*
X118076Y411520D01*
X87747Y441850D01*
G74*
D01*
G02X87710Y441887I4944J4981*
G01*
X87710Y441887D01*
X87710Y414832D01*
X145592Y356950D01*
X157480Y356950D01*
G74*
D01*
G02X157770Y356947I27J16590*
G01*
G75*
D01*
G02X165895Y354983I291J-16586*
G01*
X165895Y354983D01*
X168855Y354983D01*
G74*
D01*
G02X172683Y351155I0J3828*
G01*
X172683Y351155D01*
X172683Y348195D01*
G74*
D01*
G02X174650Y340360I14622J7835*
G01*
X174650Y340360D01*
X174650Y299140D01*
G75*
D01*
G02X174070Y294792I-16590J0*
G01*
X174070Y294792D01*
X174070Y189752D01*
X192158Y171663D01*
X225865Y171663D01*
G74*
D01*
G02X227330Y171372I1J3828*
G01*
G75*
D01*
G02X228795Y171663I1464J-3537*
G01*
X228795Y171663D01*
X254882Y171663D01*
X278050Y194832D01*
X278050Y339780D01*
G74*
D01*
G02X278053Y340070I16590J27*
G01*
G75*
D01*
G02X279437Y346999I16586J290*
G01*
X279437Y346999D01*
X279437Y351155D01*
G75*
D01*
G02X283265Y354983I3828J0*
G01*
X283265Y354983D01*
X286805Y354983D01*
G75*
D01*
G02X294640Y356950I7835J-14622*
G01*
X294640Y356950D01*
X310628Y356950D01*
X328850Y375172D01*
X328850Y430408D01*
X321362Y437897D01*
X319405Y437897D01*
G75*
D01*
G02X316899Y438831I0J3828*
G01*
X316899Y438831D01*
X316899Y436875D01*
G74*
D01*
G02X318079Y432980I5838J3895*
G01*
X318079Y432980D01*
X318079Y405783D01*
X321855Y405783D01*
G74*
D01*
G02X325683Y401955I0J3828*
G01*
X325683Y401955D01*
X325683Y380365D01*
G75*
D01*
G02X321855Y376537I-3828J0*
G01*
X321855Y376537D01*
X300265Y376537D01*
G75*
D01*
G02X296437Y380365I0J3828*
G01*
X296437Y380365D01*
X296437Y401955D01*
G74*
D01*
G02X296459Y402369I3828J4*
G01*
G74*
D01*
G02X294516Y398690I6898J1291*
G01*
X294516Y398690D01*
X291683Y395857D01*
X291683Y380365D01*
G75*
D01*
G02X287855Y376537I-3828J0*
G01*
X287855Y376537D01*
X267079Y376537D01*
X267079Y354983D01*
X270855Y354983D01*
G74*
D01*
G02X274683Y351155I0J3828*
G01*
X274683Y351155D01*
X274683Y329565D01*
G75*
D01*
G02X270855Y325737I-3828J0*
G01*
X270855Y325737D01*
X249265Y325737D01*
G75*
D01*
G02X245437Y329565I0J3828*
G01*
X245437Y329565D01*
X245437Y351155D01*
G75*
D01*
G02X249265Y354983I3828J0*
G01*
X249265Y354983D01*
X253041Y354983D01*
X253041Y376537D01*
X232265Y376537D01*
G75*
D01*
G02X228437Y380365I0J3828*
G01*
X228437Y380365D01*
X228437Y401955D01*
G75*
D01*
G02X232265Y405783I3828J0*
G01*
X232265Y405783D01*
X236821Y405783D01*
X236821Y437497D01*
X227965Y437497D01*
G75*
D01*
G02X224137Y441325I0J3828*
G01*
X224137Y441325D01*
X224137Y462915D01*
G75*
D01*
G02X227965Y466743I3828J0*
G01*
X227965Y466743D01*
X249555Y466743D01*
G74*
D01*
G02X251460Y466236I1J3828*
G01*
G75*
D01*
G02X253365Y466743I1904J-3321*
G01*
X253365Y466743D01*
X274955Y466743D01*
G74*
D01*
G02X276860Y466236I1J3828*
G01*
G75*
D01*
G02X278765Y466743I1904J-3321*
G01*
X278765Y466743D01*
X300355Y466743D01*
G74*
D01*
G02X302861Y465809I0J3828*
G01*
X302861Y465809D01*
X302861Y482188D01*
G75*
D01*
G02X304917Y487163I7019J12*
G01*
X304917Y487163D01*
X315577Y497823D01*
X315577Y513315D01*
G75*
D01*
G02X319405Y517143I3828J0*
G01*
X319405Y517143D01*
X340995Y517143D01*
G74*
D01*
G02X344823Y513315I0J3828*
G01*
X344823Y513315D01*
X344823Y491725D01*
G75*
D01*
G02X340995Y487897I-3828J0*
G01*
X340995Y487897D01*
X325503Y487897D01*
X316899Y479293D01*
X316899Y466209D01*
G75*
D01*
G02X319405Y467143I2506J-2894*
G01*
X319405Y467143D01*
X322366Y467143D01*
G75*
D01*
G02X338034Y467143I7834J-14623*
G01*
X338034Y467143D01*
X340995Y467143D01*
G74*
D01*
G02X344823Y463315I0J3828*
G01*
X344823Y463315D01*
X344823Y461358D01*
X357160Y449022D01*
G74*
D01*
G02X362030Y437280I11720J11742*
G01*
X362030Y437280D01*
X362030Y368300D01*
G75*
D01*
G02X357160Y356558I-16590J0*
G01*
X357160Y356558D01*
X329242Y328640D01*
G74*
D01*
G02X322499Y324541I11742J11720*
G01*
G75*
D01*
G02X317488Y323770I-4999J15819*
G01*
X317488Y323770D01*
X311230Y323770D01*
X311230Y187960D01*
G75*
D01*
G02X306360Y176218I-16590J0*
G01*
X306360Y176218D01*
X284693Y154552D01*
X284693Y115765D01*
G75*
D01*
G02X284402Y114300I-3828J-1*
G01*
G74*
D01*
G02X284693Y112835I3537J1464*
G01*
X284693Y112835D01*
X284693Y105490D01*
X297928Y105490D01*
X321230Y128792D01*
X321230Y180317D01*
G75*
D01*
G02X326089Y192071I16590J23*
G01*
X326089Y192071D01*
X370190Y236172D01*
X407590Y273572D01*
X407590Y450328D01*
X371809Y486109D01*
G75*
D01*
G02X366950Y497850I11731J11731*
G01*
X366950Y497850D01*
X366950Y596881D01*
G75*
D01*
G02X371809Y608631I16590J19*
G01*
X371809Y608631D01*
X405050Y641872D01*
X405050Y661148D01*
X350027Y716172D01*
X350027Y716172D01*
X315708Y750490D01*
X288980Y750490D01*
G75*
D01*
G02X284224Y751187I2J16590*
G01*
X284224Y751187D01*
X278185Y751187D01*
G75*
D01*
G02X274357Y755015I0J3828*
G01*
X274357Y755015D01*
X274357Y759245D01*
G75*
D01*
G02X274357Y774915I14622J7835*
G01*
X274357Y774915D01*
X274357Y776605D01*
G75*
D01*
G02X278185Y780433I3828J0*
G01*
X278185Y780433D01*
X279136Y780433D01*
G75*
D01*
G02X288980Y783670I9845J-13352*
G01*
X288980Y783670D01*
X322580Y783670D01*
G74*
D01*
G02X334322Y778800I0J16590*
G01*
X334322Y778800D01*
X433360Y679762D01*
G74*
D01*
G02X438230Y668020I11720J11742*
G01*
X438230Y668020D01*
X438230Y635000D01*
G75*
D01*
G02X433360Y623258I-16590J0*
G01*
X433360Y623258D01*
X400130Y590028D01*
X400130Y504712D01*
X428670Y476172D01*
X435900Y468942D01*
G74*
D01*
G02X440770Y457200I11720J11742*
G01*
X440770Y457200D01*
X440770Y266700D01*
G75*
D01*
G02X435900Y254958I-16590J0*
G01*
X435900Y254958D01*
X417113Y236172D01*
X354410Y173468D01*
X354410Y121920D01*
G75*
D01*
G02X349540Y110178I-16590J0*
G01*
X349540Y110178D01*
X316542Y77180D01*
G74*
D01*
G02X308428Y72712I11741J11721*
G01*
G75*
D01*
G02X304790Y72310I-3630J16187*
G01*
X304790Y72310D01*
X284693Y72310D01*
X284693Y60765D01*
G75*
D01*
G02X280865Y56937I-3828J0*
G01*
D02*
G37*
G36*
X254878Y476930D02*
G75*
D01*
G02X251050Y473102I-3828J0*
G01*
X251050Y473102D01*
X245470Y473102D01*
X245470Y482510D01*
X254878Y482510D01*
X254878Y476930D01*
D02*
G37*
G36*
X242650Y340360D02*
X242650Y340360D01*
X242650Y215900D01*
G75*
D01*
G02X238092Y204478I-16590J0*
G01*
G74*
D01*
G02X234315Y201277I3776J627*
G01*
X234315Y201277D01*
X233895Y201277D01*
G75*
D01*
G02X218225Y201277I-7835J14622*
G01*
X218225Y201277D01*
X212725Y201277D01*
G75*
D01*
G02X208897Y205105I0J3828*
G01*
X208897Y205105D01*
X208897Y226695D01*
G74*
D01*
G02X209470Y228711I3828J1*
G01*
X209470Y228711D01*
X209470Y340360D01*
G74*
D01*
G02X211437Y348195I16590J1*
G01*
X211437Y348195D01*
X211437Y351155D01*
G75*
D01*
G02X215265Y354983I3828J0*
G01*
X215265Y354983D01*
X218225Y354983D01*
G75*
D01*
G02X233895Y354983I7835J-14622*
G01*
X233895Y354983D01*
X236855Y354983D01*
G74*
D01*
G02X240683Y351155I0J3828*
G01*
X240683Y351155D01*
X240683Y348195D01*
G74*
D01*
G02X242650Y340360I14622J7835*
G01*
D02*
G37*
G36*
X225722Y476930D02*
X225722Y476930D01*
X225722Y482510D01*
X235130Y482510D01*
X235130Y473102D01*
X229550Y473102D01*
G75*
D01*
G02X225722Y476930I0J3828*
G01*
D02*
G37*
G36*
X244185Y751187D02*
G75*
D01*
G02X240357Y755015I0J3828*
G01*
X240357Y755015D01*
X240357Y776605D01*
G75*
D01*
G02X244185Y780433I3828J0*
G01*
X244185Y780433D01*
X265775Y780433D01*
G74*
D01*
G02X269603Y776605I0J3828*
G01*
X269603Y776605D01*
X269603Y755015D01*
G75*
D01*
G02X265775Y751187I-3828J0*
G01*
X265775Y751187D01*
X261999Y751187D01*
X261999Y729633D01*
X282775Y729633D01*
G74*
D01*
G02X286603Y725805I0J3828*
G01*
X286603Y725805D01*
X286603Y704215D01*
G75*
D01*
G02X286596Y703970I-3828J-13*
G01*
X286596Y703970D01*
X304676Y685890D01*
G74*
D01*
G02X306739Y680920I4955J4970*
G01*
X306739Y680920D01*
X306739Y675023D01*
X310515Y675023D01*
G74*
D01*
G02X312420Y674516I1J3828*
G01*
G75*
D01*
G02X314325Y675023I1904J-3321*
G01*
X314325Y675023D01*
X335915Y675023D01*
G74*
D01*
G02X339743Y671195I0J3828*
G01*
X339743Y671195D01*
X339743Y649605D01*
G75*
D01*
G02X335915Y645777I-3828J0*
G01*
X335915Y645777D01*
X314325Y645777D01*
G75*
D01*
G02X312420Y646284I-1J3828*
G01*
G74*
D01*
G02X310515Y645777I1904J3321*
G01*
X310515Y645777D01*
X288925Y645777D01*
G75*
D01*
G02X288703Y645783I-8J3828*
G01*
X288703Y645783D01*
X302627Y631859D01*
X312082Y631859D01*
X312082Y635590D01*
G75*
D01*
G02X315910Y639418I3828J0*
G01*
X315910Y639418D01*
X337410Y639418D01*
G74*
D01*
G02X341238Y635590I0J3828*
G01*
X341238Y635590D01*
X341238Y614090D01*
G75*
D01*
G02X337410Y610262I-3828J0*
G01*
X337410Y610262D01*
X315910Y610262D01*
G75*
D01*
G02X312082Y614090I0J3828*
G01*
X312082Y614090D01*
X312082Y617821D01*
X299729Y617821D01*
G75*
D01*
G02X294757Y619877I-9J7019*
G01*
X294757Y619877D01*
X269357Y645277D01*
G74*
D01*
G02X268903Y645777I4963J4962*
G01*
X268903Y645777D01*
X263525Y645777D01*
G75*
D01*
G02X259697Y649605I0J3828*
G01*
X259697Y649605D01*
X259697Y665097D01*
X250017Y674777D01*
G75*
D01*
G02X247961Y679749I4962J4963*
G01*
X247961Y679749D01*
X247961Y700387D01*
X243166Y700387D01*
X243166Y709824D01*
X247961Y709824D01*
X247961Y720196D01*
X243166Y720196D01*
X243166Y729633D01*
X247961Y729633D01*
X247961Y751187D01*
X244185Y751187D01*
D02*
G37*
G36*
X236172Y711657D02*
G75*
D01*
G02X236172Y711657I1808J3353*
G01*
D02*
G37*
G36*
X236172Y484859D02*
G75*
D01*
G02X236172Y484859I4128J2821*
G01*
D02*
G37*
G36*
X291357Y725805D02*
G75*
D01*
G02X295185Y729633I3828J0*
G01*
X295185Y729633D01*
X316775Y729633D01*
G74*
D01*
G02X320603Y725805I0J3828*
G01*
X320603Y725805D01*
X320603Y711583D01*
X336827Y695359D01*
X348180Y695359D01*
G74*
D01*
G02X353150Y693296I0J7019*
G01*
X353150Y693296D01*
X371423Y675023D01*
X382035Y675023D01*
G74*
D01*
G02X385863Y671195I0J3828*
G01*
X385863Y671195D01*
X385863Y649605D01*
G75*
D01*
G02X382035Y645777I-3828J0*
G01*
X382035Y645777D01*
X360445Y645777D01*
G75*
D01*
G02X356617Y649605I0J3828*
G01*
X356617Y649605D01*
X356617Y669977D01*
X345273Y681321D01*
X333928Y681321D01*
G75*
D01*
G02X328957Y683377I-8J7019*
G01*
X328957Y683377D01*
X311947Y700387D01*
X295185Y700387D01*
G75*
D01*
G02X291357Y704215I0J3828*
G01*
X291357Y704215D01*
X291357Y725805D01*
D02*
G37*
G36*
X121357Y725805D02*
G75*
D01*
G02X125185Y729633I3828J0*
G01*
X125185Y729633D01*
X146775Y729633D01*
G74*
D01*
G02X150603Y725805I0J3828*
G01*
X150603Y725805D01*
X150603Y704215D01*
G75*
D01*
G02X146775Y700387I-3828J0*
G01*
X146775Y700387D01*
X130013Y700387D01*
X118779Y689153D01*
X118779Y675023D01*
X122155Y675023D01*
G74*
D01*
G02X125983Y671195I0J3828*
G01*
X125983Y671195D01*
X125983Y649605D01*
G75*
D01*
G02X122155Y645777I-3828J0*
G01*
X122155Y645777D01*
X100565Y645777D01*
G75*
D01*
G02X96737Y649605I0J3828*
G01*
X96737Y649605D01*
X96737Y671195D01*
G75*
D01*
G02X100565Y675023I3828J0*
G01*
X100565Y675023D01*
X104741Y675023D01*
X104741Y692047D01*
G75*
D01*
G02X106797Y697023I7019J13*
G01*
X106797Y697023D01*
X121357Y711583D01*
X121357Y725805D01*
D02*
G37*
G36*
X155357Y725805D02*
G75*
D01*
G02X159185Y729633I3828J0*
G01*
X159185Y729633D01*
X179961Y729633D01*
X179961Y751187D01*
X176185Y751187D01*
G75*
D01*
G02X172357Y755015I0J3828*
G01*
X172357Y755015D01*
X172357Y776605D01*
G75*
D01*
G02X176185Y780433I3828J0*
G01*
X176185Y780433D01*
X197775Y780433D01*
G74*
D01*
G02X201603Y776605I0J3828*
G01*
X201603Y776605D01*
X201603Y755015D01*
G75*
D01*
G02X197775Y751187I-3828J0*
G01*
X197775Y751187D01*
X193999Y751187D01*
X193999Y729633D01*
X214775Y729633D01*
G74*
D01*
G02X218603Y725805I0J3828*
G01*
X218603Y725805D01*
X218603Y704215D01*
G75*
D01*
G02X214775Y700387I-3828J0*
G01*
X214775Y700387D01*
X210219Y700387D01*
X210219Y675023D01*
X213995Y675023D01*
G74*
D01*
G02X217823Y671195I0J3828*
G01*
X217823Y671195D01*
X217823Y649605D01*
G75*
D01*
G02X213995Y645777I-3828J0*
G01*
X213995Y645777D01*
X192405Y645777D01*
G75*
D01*
G02X190500Y646284I-1J3828*
G01*
G74*
D01*
G02X188595Y645777I1904J3321*
G01*
X188595Y645777D01*
X167005Y645777D01*
G75*
D01*
G02X165100Y646284I-1J3828*
G01*
G74*
D01*
G02X163195Y645777I1904J3321*
G01*
X163195Y645777D01*
X141605Y645777D01*
G75*
D01*
G02X137777Y649605I0J3828*
G01*
X137777Y649605D01*
X137777Y671195D01*
G75*
D01*
G02X141605Y675023I3828J0*
G01*
X141605Y675023D01*
X145381Y675023D01*
X145381Y691066D01*
G75*
D01*
G02X147437Y696043I7019J14*
G01*
X147437Y696043D01*
X155364Y703970D01*
G75*
D01*
G02X155357Y704215I3821J232*
G01*
X155357Y704215D01*
X155357Y725805D01*
D02*
G37*
G36*
X1011555Y836912D02*
X1011555Y836912D01*
X1004716Y836912D01*
X1004716Y847579D01*
X1015383Y847579D01*
X1015383Y840740D01*
G75*
D01*
G02X1011555Y836912I-3828J0*
G01*
D02*
G37*
G36*
X982327Y840740D02*
X982327Y840740D01*
X982327Y847579D01*
X992994Y847579D01*
X992994Y836912D01*
X986155Y836912D01*
G75*
D01*
G02X982327Y840740I0J3828*
G01*
D02*
G37*
G36*
X986155Y869968D02*
X986155Y869968D01*
X992994Y869968D01*
X992994Y859301D01*
X982327Y859301D01*
X982327Y866140D01*
G75*
D01*
G02X986155Y869968I3828J0*
G01*
D02*
G37*
G36*
X993855Y853440D02*
G75*
D01*
G02X993855Y853440I5000J0*
G01*
D02*
G37*
G36*
X1011555Y869968D02*
G74*
D01*
G02X1015383Y866140I0J3828*
G01*
X1015383Y866140D01*
X1015383Y859301D01*
X1004716Y859301D01*
X1004716Y869968D01*
X1011555Y869968D01*
D02*
G37*
G36*
X831573Y293370D02*
G75*
D01*
G02X831573Y278130I-8612J-7620*
G01*
X831573Y278130D01*
X845838Y278130D01*
X845838Y266700D01*
G75*
D01*
G02X842010Y262872I-3828J0*
G01*
X842010Y262872D01*
X830580Y262872D01*
X830580Y277137D01*
G75*
D01*
G02X815340Y277137I-7620J8612*
G01*
X815340Y277137D01*
X815340Y262872D01*
X803910Y262872D01*
G75*
D01*
G02X800082Y266700I0J3828*
G01*
X800082Y266700D01*
X800082Y278130D01*
X814347Y278130D01*
G75*
D01*
G02X814347Y293370I8612J7620*
G01*
X814347Y293370D01*
X800082Y293370D01*
X800082Y304800D01*
G75*
D01*
G02X803910Y308628I3828J0*
G01*
X803910Y308628D01*
X815340Y308628D01*
X815340Y294363D01*
G75*
D01*
G02X830580Y294363I7620J-8612*
G01*
X830580Y294363D01*
X830580Y308628D01*
X842010Y308628D01*
G74*
D01*
G02X845838Y304800I0J3828*
G01*
X845838Y304800D01*
X845838Y293370D01*
X831573Y293370D01*
D02*
G37*
G36*
X1015383Y688340D02*
X1015383Y688340D01*
X1015383Y681501D01*
X1004716Y681501D01*
X1004716Y692168D01*
X1011555Y692168D01*
G74*
D01*
G02X1015383Y688340I0J3828*
G01*
D02*
G37*
G36*
X993855Y497840D02*
G75*
D01*
G02X993855Y497840I5000J0*
G01*
D02*
G37*
G36*
X982327Y485140D02*
X982327Y485140D01*
X982327Y491979D01*
X992994Y491979D01*
X992994Y481312D01*
X986155Y481312D01*
G75*
D01*
G02X982327Y485140I0J3828*
G01*
D02*
G37*
G36*
X1011555Y481312D02*
X1011555Y481312D01*
X1004716Y481312D01*
X1004716Y491979D01*
X1015383Y491979D01*
X1015383Y485140D01*
G75*
D01*
G02X1011555Y481312I-3828J0*
G01*
D02*
G37*
G36*
X986155Y514368D02*
X986155Y514368D01*
X992994Y514368D01*
X992994Y503701D01*
X982327Y503701D01*
X982327Y510540D01*
G75*
D01*
G02X986155Y514368I3828J0*
G01*
D02*
G37*
G36*
X1011555Y514368D02*
G74*
D01*
G02X1015383Y510540I0J3828*
G01*
X1015383Y510540D01*
X1015383Y503701D01*
X1004716Y503701D01*
X1004716Y514368D01*
X1011555Y514368D01*
D02*
G37*
G36*
X986155Y659112D02*
G75*
D01*
G02X982327Y662940I0J3828*
G01*
X982327Y662940D01*
X982327Y669779D01*
X992994Y669779D01*
X992994Y659112D01*
X986155Y659112D01*
D02*
G37*
G36*
X1011555Y659112D02*
X1011555Y659112D01*
X1004716Y659112D01*
X1004716Y669779D01*
X1015383Y669779D01*
X1015383Y662940D01*
G75*
D01*
G02X1011555Y659112I-3828J0*
G01*
D02*
G37*
G36*
X993855Y675640D02*
G75*
D01*
G02X993855Y675640I5000J0*
G01*
D02*
G37*
G36*
X986155Y692168D02*
X986155Y692168D01*
X992994Y692168D01*
X992994Y681501D01*
X982327Y681501D01*
X982327Y688340D01*
G75*
D01*
G02X986155Y692168I3828J0*
G01*
D02*
G37*
G36*
X1015383Y332740D02*
X1015383Y332740D01*
X1015383Y325901D01*
X1004716Y325901D01*
X1004716Y336568D01*
X1011555Y336568D01*
G74*
D01*
G02X1015383Y332740I0J3828*
G01*
D02*
G37*
G36*
X993855Y320040D02*
G75*
D01*
G02X993855Y320040I5000J0*
G01*
D02*
G37*
G36*
X986155Y303512D02*
G75*
D01*
G02X982327Y307340I0J3828*
G01*
X982327Y307340D01*
X982327Y314179D01*
X992994Y314179D01*
X992994Y303512D01*
X986155Y303512D01*
D02*
G37*
G36*
X1011555Y303512D02*
X1011555Y303512D01*
X1004716Y303512D01*
X1004716Y314179D01*
X1015383Y314179D01*
X1015383Y307340D01*
G75*
D01*
G02X1011555Y303512I-3828J0*
G01*
D02*
G37*
G36*
X986155Y336568D02*
X986155Y336568D01*
X992994Y336568D01*
X992994Y325901D01*
X982327Y325901D01*
X982327Y332740D01*
G75*
D01*
G02X986155Y336568I3828J0*
G01*
D02*
G37*
G36*
X577573Y293370D02*
G75*
D01*
G02X577573Y278130I-8612J-7620*
G01*
X577573Y278130D01*
X591838Y278130D01*
X591838Y266700D01*
G75*
D01*
G02X588010Y262872I-3828J0*
G01*
X588010Y262872D01*
X576580Y262872D01*
X576580Y277137D01*
G75*
D01*
G02X561340Y277137I-7620J8612*
G01*
X561340Y277137D01*
X561340Y262872D01*
X549910Y262872D01*
G75*
D01*
G02X546082Y266700I0J3828*
G01*
X546082Y266700D01*
X546082Y278130D01*
X560347Y278130D01*
G75*
D01*
G02X560347Y293370I8612J7620*
G01*
X560347Y293370D01*
X546082Y293370D01*
X546082Y304800D01*
G75*
D01*
G02X549910Y308628I3828J0*
G01*
X549910Y308628D01*
X561340Y308628D01*
X561340Y294363D01*
G75*
D01*
G02X576580Y294363I7620J-8612*
G01*
X576580Y294363D01*
X576580Y308628D01*
X588010Y308628D01*
G74*
D01*
G02X591838Y304800I0J3828*
G01*
X591838Y304800D01*
X591838Y293370D01*
X577573Y293370D01*
D02*
G37*
G36*
X110213Y292100D02*
G75*
D01*
G02X110213Y276860I-8612J-7620*
G01*
X110213Y276860D01*
X124478Y276860D01*
X124478Y265430D01*
G75*
D01*
G02X120650Y261602I-3828J0*
G01*
X120650Y261602D01*
X109220Y261602D01*
X109220Y275867D01*
G75*
D01*
G02X93980Y275867I-7620J8612*
G01*
X93980Y275867D01*
X93980Y261602D01*
X82550Y261602D01*
G75*
D01*
G02X78722Y265430I0J3828*
G01*
X78722Y265430D01*
X78722Y276860D01*
X92987Y276860D01*
G75*
D01*
G02X92987Y292100I8612J7620*
G01*
X92987Y292100D01*
X78722Y292100D01*
X78722Y303530D01*
G75*
D01*
G02X82550Y307358I3828J0*
G01*
X82550Y307358D01*
X93980Y307358D01*
X93980Y293093D01*
G75*
D01*
G02X109220Y293093I7620J-8612*
G01*
X109220Y293093D01*
X109220Y307358D01*
X120650Y307358D01*
G74*
D01*
G02X124478Y303530I0J3828*
G01*
X124478Y303530D01*
X124478Y292100D01*
X110213Y292100D01*
D02*
G37*
G36*
X364213Y292100D02*
G75*
D01*
G02X364213Y276860I-8612J-7620*
G01*
X364213Y276860D01*
X378478Y276860D01*
X378478Y265430D01*
G75*
D01*
G02X374650Y261602I-3828J0*
G01*
X374650Y261602D01*
X363220Y261602D01*
X363220Y275867D01*
G75*
D01*
G02X347980Y275867I-7620J8612*
G01*
X347980Y275867D01*
X347980Y261602D01*
X336550Y261602D01*
G75*
D01*
G02X332722Y265430I0J3828*
G01*
X332722Y265430D01*
X332722Y276860D01*
X346987Y276860D01*
G75*
D01*
G02X346987Y292100I8612J7620*
G01*
X346987Y292100D01*
X332722Y292100D01*
X332722Y303530D01*
G75*
D01*
G02X336550Y307358I3828J0*
G01*
X336550Y307358D01*
X347980Y307358D01*
X347980Y293093D01*
G75*
D01*
G02X363220Y293093I7620J-8612*
G01*
X363220Y293093D01*
X363220Y307358D01*
X374650Y307358D01*
G74*
D01*
G02X378478Y303530I0J3828*
G01*
X378478Y303530D01*
X378478Y292100D01*
X364213Y292100D01*
D02*
G37*
G36*
X219855Y376537D02*
X219855Y376537D01*
X214246Y376537D01*
X214246Y385974D01*
X223683Y385974D01*
X223683Y380365D01*
G75*
D01*
G02X219855Y376537I-3828J0*
G01*
D02*
G37*
G36*
X219855Y405783D02*
G74*
D01*
G02X223683Y401955I0J3828*
G01*
X223683Y401955D01*
X223683Y396346D01*
X214246Y396346D01*
X214246Y405783D01*
X219855Y405783D01*
D02*
G37*
G36*
X205250Y391160D02*
G75*
D01*
G02X205250Y391160I3810J0*
G01*
D02*
G37*
G36*
X687215Y377807D02*
X687215Y377807D01*
X681606Y377807D01*
X681606Y387244D01*
X691043Y387244D01*
X691043Y381635D01*
G75*
D01*
G02X687215Y377807I-3828J0*
G01*
D02*
G37*
G36*
X672610Y392430D02*
G75*
D01*
G02X672610Y392430I3810J0*
G01*
D02*
G37*
G36*
X687215Y407053D02*
G74*
D01*
G02X691043Y403225I0J3828*
G01*
X691043Y403225D01*
X691043Y397616D01*
X681606Y397616D01*
X681606Y407053D01*
X687215Y407053D01*
D02*
G37*
G36*
X804187Y815340D02*
G75*
D01*
G02X804187Y830580I8612J7620*
G01*
X804187Y830580D01*
X789922Y830580D01*
X789922Y842010D01*
G75*
D01*
G02X793750Y845838I3828J0*
G01*
X793750Y845838D01*
X805180Y845838D01*
X805180Y831573D01*
G75*
D01*
G02X820420Y831573I7620J-8612*
G01*
X820420Y831573D01*
X820420Y845838D01*
X831850Y845838D01*
G74*
D01*
G02X835678Y842010I0J3828*
G01*
X835678Y842010D01*
X835678Y830580D01*
X821413Y830580D01*
G75*
D01*
G02X821413Y815340I-8612J-7620*
G01*
X821413Y815340D01*
X835678Y815340D01*
X835678Y803910D01*
G75*
D01*
G02X831850Y800082I-3828J0*
G01*
X831850Y800082D01*
X820420Y800082D01*
X820420Y814347D01*
G75*
D01*
G02X805180Y814347I-7620J8612*
G01*
X805180Y814347D01*
X805180Y800082D01*
X793750Y800082D01*
G75*
D01*
G02X789922Y803910I0J3828*
G01*
X789922Y803910D01*
X789922Y815340D01*
X804187Y815340D01*
D02*
G37*
G36*
X254878Y498430D02*
X254878Y498430D01*
X254878Y492850D01*
X245470Y492850D01*
X245470Y502258D01*
X251050Y502258D01*
G74*
D01*
G02X254878Y498430I0J3828*
G01*
D02*
G37*
G36*
X906567Y60765D02*
X906567Y60765D01*
X906567Y79180D01*
X928810Y79180D01*
X928810Y56937D01*
X910395Y56937D01*
G75*
D01*
G02X906567Y60765I0J3828*
G01*
D02*
G37*
G36*
X906567Y112835D02*
G74*
D01*
G02X906858Y114300I3828J1*
G01*
G75*
D01*
G02X906567Y115765I3537J1464*
G01*
X906567Y115765D01*
X906567Y134180D01*
X928810Y134180D01*
X928810Y94420D01*
X906567Y94420D01*
X906567Y112835D01*
D02*
G37*
G36*
X931430Y86800D02*
G75*
D01*
G02X931430Y86800I5000J0*
G01*
D02*
G37*
G36*
X836277Y141205D02*
X836277Y141205D01*
X836277Y146814D01*
X845714Y146814D01*
X845714Y137377D01*
X840105Y137377D01*
G75*
D01*
G02X836277Y141205I0J3828*
G01*
D02*
G37*
G36*
X865523Y141205D02*
G75*
D01*
G02X861695Y137377I-3828J0*
G01*
X861695Y137377D01*
X856086Y137377D01*
X856086Y146814D01*
X865523Y146814D01*
X865523Y141205D01*
D02*
G37*
G36*
X873107Y141205D02*
X873107Y141205D01*
X873107Y146814D01*
X882544Y146814D01*
X882544Y137377D01*
X876935Y137377D01*
G75*
D01*
G02X873107Y141205I0J3828*
G01*
D02*
G37*
G36*
X898525Y137377D02*
X898525Y137377D01*
X892916Y137377D01*
X892916Y146814D01*
X902353Y146814D01*
X902353Y141205D01*
G75*
D01*
G02X898525Y137377I-3828J0*
G01*
D02*
G37*
G36*
X931430Y141800D02*
G75*
D01*
G02X931430Y141800I5000J0*
G01*
D02*
G37*
G36*
X840105Y166623D02*
X840105Y166623D01*
X845714Y166623D01*
X845714Y157186D01*
X836277Y157186D01*
X836277Y162795D01*
G75*
D01*
G02X840105Y166623I3828J0*
G01*
D02*
G37*
G36*
X865523Y162795D02*
X865523Y162795D01*
X865523Y157186D01*
X856086Y157186D01*
X856086Y166623D01*
X861695Y166623D01*
G74*
D01*
G02X865523Y162795I0J3828*
G01*
D02*
G37*
G36*
X848400Y152000D02*
G75*
D01*
G02X848400Y152000I2500J0*
G01*
D02*
G37*
G36*
X873107Y162795D02*
G75*
D01*
G02X876935Y166623I3828J0*
G01*
X876935Y166623D01*
X882544Y166623D01*
X882544Y157186D01*
X873107Y157186D01*
X873107Y162795D01*
D02*
G37*
G36*
X902353Y162795D02*
X902353Y162795D01*
X902353Y157186D01*
X892916Y157186D01*
X892916Y166623D01*
X898525Y166623D01*
G74*
D01*
G02X902353Y162795I0J3828*
G01*
D02*
G37*
G36*
X885230Y152000D02*
G75*
D01*
G02X885230Y152000I2500J0*
G01*
D02*
G37*
G36*
X906567Y167835D02*
G75*
D01*
G02X910395Y171663I3828J0*
G01*
X910395Y171663D01*
X928810Y171663D01*
X928810Y149420D01*
X906567Y149420D01*
X906567Y167835D01*
D02*
G37*
G36*
X412097Y162795D02*
G75*
D01*
G02X415925Y166623I3828J0*
G01*
X415925Y166623D01*
X421534Y166623D01*
X421534Y157186D01*
X412097Y157186D01*
X412097Y162795D01*
D02*
G37*
G36*
X400703Y162795D02*
X400703Y162795D01*
X400703Y157186D01*
X391266Y157186D01*
X391266Y166623D01*
X396875Y166623D01*
G74*
D01*
G02X400703Y162795I0J3828*
G01*
D02*
G37*
G36*
X371457Y162795D02*
G75*
D01*
G02X375285Y166623I3828J0*
G01*
X375285Y166623D01*
X380894Y166623D01*
X380894Y157186D01*
X371457Y157186D01*
X371457Y162795D01*
D02*
G37*
G36*
X371457Y141205D02*
X371457Y141205D01*
X371457Y146814D01*
X380894Y146814D01*
X380894Y137377D01*
X375285Y137377D01*
G75*
D01*
G02X371457Y141205I0J3828*
G01*
D02*
G37*
G36*
X396875Y137377D02*
X396875Y137377D01*
X391266Y137377D01*
X391266Y146814D01*
X400703Y146814D01*
X400703Y141205D01*
G75*
D01*
G02X396875Y137377I-3828J0*
G01*
D02*
G37*
G36*
X412097Y141205D02*
X412097Y141205D01*
X412097Y146814D01*
X421534Y146814D01*
X421534Y137377D01*
X415925Y137377D01*
G75*
D01*
G02X412097Y141205I0J3828*
G01*
D02*
G37*
G36*
X437515Y137377D02*
X437515Y137377D01*
X431906Y137377D01*
X431906Y146814D01*
X441343Y146814D01*
X441343Y141205D01*
G75*
D01*
G02X437515Y137377I-3828J0*
G01*
D02*
G37*
G36*
X383580Y152000D02*
G75*
D01*
G02X383580Y152000I2500J0*
G01*
D02*
G37*
G36*
X441343Y162795D02*
X441343Y162795D01*
X441343Y157186D01*
X431906Y157186D01*
X431906Y166623D01*
X437515Y166623D01*
G74*
D01*
G02X441343Y162795I0J3828*
G01*
D02*
G37*
G36*
X424220Y152000D02*
G75*
D01*
G02X424220Y152000I2500J0*
G01*
D02*
G37*
G36*
X227185Y700387D02*
G75*
D01*
G02X223357Y704215I0J3828*
G01*
X223357Y704215D01*
X223357Y709824D01*
X232794Y709824D01*
X232794Y700387D01*
X227185Y700387D01*
D02*
G37*
G36*
X229550Y502258D02*
X229550Y502258D01*
X235130Y502258D01*
X235130Y492850D01*
X225722Y492850D01*
X225722Y498430D01*
G75*
D01*
G02X229550Y502258I3828J0*
G01*
D02*
G37*
G36*
X196660Y624840D02*
G75*
D01*
G02X196660Y624840I5000J0*
G01*
D02*
G37*
G36*
X187082Y614090D02*
X187082Y614090D01*
X187082Y619670D01*
X196490Y619670D01*
X196490Y610262D01*
X190910Y610262D01*
G75*
D01*
G02X187082Y614090I0J3828*
G01*
D02*
G37*
G36*
X212410Y610262D02*
X212410Y610262D01*
X206830Y610262D01*
X206830Y619670D01*
X216238Y619670D01*
X216238Y614090D01*
G75*
D01*
G02X212410Y610262I-3828J0*
G01*
D02*
G37*
G36*
X190910Y639418D02*
X190910Y639418D01*
X196490Y639418D01*
X196490Y630010D01*
X187082Y630010D01*
X187082Y635590D01*
G75*
D01*
G02X190910Y639418I3828J0*
G01*
D02*
G37*
G36*
X212410Y639418D02*
G74*
D01*
G02X216238Y635590I0J3828*
G01*
X216238Y635590D01*
X216238Y630010D01*
X206830Y630010D01*
X206830Y639418D01*
X212410Y639418D01*
D02*
G37*
G36*
X696910Y502258D02*
X696910Y502258D01*
X702490Y502258D01*
X702490Y492850D01*
X693082Y492850D01*
X693082Y498430D01*
G75*
D01*
G02X696910Y502258I3828J0*
G01*
D02*
G37*
G36*
X702660Y487680D02*
G75*
D01*
G02X702660Y487680I5000J0*
G01*
D02*
G37*
G36*
X668430Y615342D02*
G75*
D01*
G02X664602Y619170I0J3828*
G01*
X664602Y619170D01*
X664602Y624750D01*
X674010Y624750D01*
X674010Y615342D01*
X668430Y615342D01*
D02*
G37*
G36*
X689930Y615342D02*
X689930Y615342D01*
X684350Y615342D01*
X684350Y624750D01*
X693758Y624750D01*
X693758Y619170D01*
G75*
D01*
G02X689930Y615342I-3828J0*
G01*
D02*
G37*
G36*
X668430Y644498D02*
X668430Y644498D01*
X674010Y644498D01*
X674010Y635090D01*
X664602Y635090D01*
X664602Y640670D01*
G75*
D01*
G02X668430Y644498I3828J0*
G01*
D02*
G37*
G36*
X674180Y629920D02*
G75*
D01*
G02X674180Y629920I5000J0*
G01*
D02*
G37*
G36*
X693758Y640670D02*
X693758Y640670D01*
X693758Y635090D01*
X684350Y635090D01*
X684350Y644498D01*
X689930Y644498D01*
G74*
D01*
G02X693758Y640670I0J3828*
G01*
D02*
G37*
G36*
X694545Y701657D02*
G75*
D01*
G02X690717Y705485I0J3828*
G01*
X690717Y705485D01*
X690717Y711094D01*
X700154Y711094D01*
X700154Y701657D01*
X694545Y701657D01*
D02*
G37*
G36*
X336827Y814070D02*
G75*
D01*
G02X336827Y829310I8612J7620*
G01*
X336827Y829310D01*
X322562Y829310D01*
X322562Y840740D01*
G75*
D01*
G02X326390Y844568I3828J0*
G01*
X326390Y844568D01*
X337820Y844568D01*
X337820Y830303D01*
G75*
D01*
G02X353060Y830303I7620J-8612*
G01*
X353060Y830303D01*
X353060Y844568D01*
X364490Y844568D01*
G74*
D01*
G02X368318Y840740I0J3828*
G01*
X368318Y840740D01*
X368318Y829310D01*
X354053Y829310D01*
G75*
D01*
G02X354053Y814070I-8612J-7620*
G01*
X354053Y814070D01*
X368318Y814070D01*
X368318Y802640D01*
G75*
D01*
G02X364490Y798812I-3828J0*
G01*
X364490Y798812D01*
X353060Y798812D01*
X353060Y813077D01*
G75*
D01*
G02X337820Y813077I-7620J8612*
G01*
X337820Y813077D01*
X337820Y798812D01*
X326390Y798812D01*
G75*
D01*
G02X322562Y802640I0J3828*
G01*
X322562Y802640D01*
X322562Y814070D01*
X336827Y814070D01*
D02*
G37*
G36*
X656355Y908703D02*
G74*
D01*
G02X660183Y904875I0J3828*
G01*
X660183Y904875D01*
X660183Y899266D01*
X650746Y899266D01*
X650746Y908703D01*
X656355Y908703D01*
D02*
G37*
G36*
X694545Y730903D02*
X694545Y730903D01*
X700154Y730903D01*
X700154Y721466D01*
X690717Y721466D01*
X690717Y727075D01*
G75*
D01*
G02X694545Y730903I3828J0*
G01*
D02*
G37*
G36*
X550187Y815340D02*
G75*
D01*
G02X550187Y830580I8612J7620*
G01*
X550187Y830580D01*
X535922Y830580D01*
X535922Y842010D01*
G75*
D01*
G02X539750Y845838I3828J0*
G01*
X539750Y845838D01*
X551180Y845838D01*
X551180Y831573D01*
G75*
D01*
G02X566420Y831573I7620J-8612*
G01*
X566420Y831573D01*
X566420Y845838D01*
X577850Y845838D01*
G74*
D01*
G02X581678Y842010I0J3828*
G01*
X581678Y842010D01*
X581678Y830580D01*
X567413Y830580D01*
G75*
D01*
G02X567413Y815340I-8612J-7620*
G01*
X567413Y815340D01*
X581678Y815340D01*
X581678Y803910D01*
G75*
D01*
G02X577850Y800082I-3828J0*
G01*
X577850Y800082D01*
X566420Y800082D01*
X566420Y814347D01*
G75*
D01*
G02X551180Y814347I-7620J8612*
G01*
X551180Y814347D01*
X551180Y800082D01*
X539750Y800082D01*
G75*
D01*
G02X535922Y803910I0J3828*
G01*
X535922Y803910D01*
X535922Y815340D01*
X550187Y815340D01*
D02*
G37*
G36*
X634765Y833737D02*
G75*
D01*
G02X630937Y837565I0J3828*
G01*
X630937Y837565D01*
X630937Y843174D01*
X640374Y843174D01*
X640374Y833737D01*
X634765Y833737D01*
D02*
G37*
G36*
X656355Y833737D02*
X656355Y833737D01*
X650746Y833737D01*
X650746Y843174D01*
X660183Y843174D01*
X660183Y837565D01*
G75*
D01*
G02X656355Y833737I-3828J0*
G01*
D02*
G37*
G36*
X634765Y862983D02*
X634765Y862983D01*
X640374Y862983D01*
X640374Y853546D01*
X630937Y853546D01*
X630937Y859155D01*
G75*
D01*
G02X634765Y862983I3828J0*
G01*
D02*
G37*
G36*
X660183Y859155D02*
X660183Y859155D01*
X660183Y853546D01*
X650746Y853546D01*
X650746Y862983D01*
X656355Y862983D01*
G74*
D01*
G02X660183Y859155I0J3828*
G01*
D02*
G37*
G36*
X643060Y848360D02*
G75*
D01*
G02X643060Y848360I2500J0*
G01*
D02*
G37*
G36*
X630937Y883285D02*
X630937Y883285D01*
X630937Y888894D01*
X640374Y888894D01*
X640374Y879457D01*
X634765Y879457D01*
G75*
D01*
G02X630937Y883285I0J3828*
G01*
D02*
G37*
G36*
X656355Y879457D02*
X656355Y879457D01*
X650746Y879457D01*
X650746Y888894D01*
X660183Y888894D01*
X660183Y883285D01*
G75*
D01*
G02X656355Y879457I-3828J0*
G01*
D02*
G37*
G36*
X634765Y908703D02*
X634765Y908703D01*
X640374Y908703D01*
X640374Y899266D01*
X630937Y899266D01*
X630937Y904875D01*
G75*
D01*
G02X634765Y908703I3828J0*
G01*
D02*
G37*
G36*
X643060Y894080D02*
G75*
D01*
G02X643060Y894080I2500J0*
G01*
D02*
G37*
G36*
X188995Y903623D02*
G74*
D01*
G02X192823Y899795I0J3828*
G01*
X192823Y899795D01*
X192823Y894186D01*
X183386Y894186D01*
X183386Y903623D01*
X188995Y903623D01*
D02*
G37*
G36*
X227185Y729633D02*
X227185Y729633D01*
X232794Y729633D01*
X232794Y720196D01*
X223357Y720196D01*
X223357Y725805D01*
G75*
D01*
G02X227185Y729633I3828J0*
G01*
D02*
G37*
G36*
X82827Y814070D02*
G75*
D01*
G02X82827Y829310I8612J7620*
G01*
X82827Y829310D01*
X68562Y829310D01*
X68562Y840740D01*
G75*
D01*
G02X72390Y844568I3828J0*
G01*
X72390Y844568D01*
X83820Y844568D01*
X83820Y830303D01*
G75*
D01*
G02X99060Y830303I7620J-8612*
G01*
X99060Y830303D01*
X99060Y844568D01*
X110490Y844568D01*
G74*
D01*
G02X114318Y840740I0J3828*
G01*
X114318Y840740D01*
X114318Y829310D01*
X100053Y829310D01*
G75*
D01*
G02X100053Y814070I-8612J-7620*
G01*
X100053Y814070D01*
X114318Y814070D01*
X114318Y802640D01*
G75*
D01*
G02X110490Y798812I-3828J0*
G01*
X110490Y798812D01*
X99060Y798812D01*
X99060Y813077D01*
G75*
D01*
G02X83820Y813077I-7620J8612*
G01*
X83820Y813077D01*
X83820Y798812D01*
X72390Y798812D01*
G75*
D01*
G02X68562Y802640I0J3828*
G01*
X68562Y802640D01*
X68562Y814070D01*
X82827Y814070D01*
D02*
G37*
G36*
X163577Y837565D02*
X163577Y837565D01*
X163577Y843174D01*
X173014Y843174D01*
X173014Y833737D01*
X167405Y833737D01*
G75*
D01*
G02X163577Y837565I0J3828*
G01*
D02*
G37*
G36*
X188995Y833737D02*
X188995Y833737D01*
X183386Y833737D01*
X183386Y843174D01*
X192823Y843174D01*
X192823Y837565D01*
G75*
D01*
G02X188995Y833737I-3828J0*
G01*
D02*
G37*
G36*
X167405Y862983D02*
X167405Y862983D01*
X173014Y862983D01*
X173014Y853546D01*
X163577Y853546D01*
X163577Y859155D01*
G75*
D01*
G02X167405Y862983I3828J0*
G01*
D02*
G37*
G36*
X175700Y848360D02*
G75*
D01*
G02X175700Y848360I2500J0*
G01*
D02*
G37*
G36*
X188995Y862983D02*
G74*
D01*
G02X192823Y859155I0J3828*
G01*
X192823Y859155D01*
X192823Y853546D01*
X183386Y853546D01*
X183386Y862983D01*
X188995Y862983D01*
D02*
G37*
G36*
X163577Y878205D02*
X163577Y878205D01*
X163577Y883814D01*
X173014Y883814D01*
X173014Y874377D01*
X167405Y874377D01*
G75*
D01*
G02X163577Y878205I0J3828*
G01*
D02*
G37*
G36*
X188995Y874377D02*
X188995Y874377D01*
X183386Y874377D01*
X183386Y883814D01*
X192823Y883814D01*
X192823Y878205D01*
G75*
D01*
G02X188995Y874377I-3828J0*
G01*
D02*
G37*
G36*
X167405Y903623D02*
X167405Y903623D01*
X173014Y903623D01*
X173014Y894186D01*
X163577Y894186D01*
X163577Y899795D01*
G75*
D01*
G02X167405Y903623I3828J0*
G01*
D02*
G37*
G36*
X175700Y889000D02*
G75*
D01*
G02X175700Y889000I2500J0*
G01*
D02*
G37*
%LPD*%
G36*
X624205Y466743D02*
G75*
D01*
G03X622300Y466236I-1J-3828*
G01*
G74*
D01*
G03X620395Y466743I1904J3321*
G01*
X620395Y466743D01*
X598805Y466743D01*
G75*
D01*
G03X596900Y466236I-1J-3828*
G01*
G74*
D01*
G03X594995Y466743I1904J3321*
G01*
X594995Y466743D01*
X573405Y466743D01*
G75*
D01*
G03X569577Y462915I0J-3828*
G01*
X569577Y462915D01*
X569577Y441325D01*
G75*
D01*
G03X570082Y439424I3828J-1*
G01*
X570082Y439424D01*
X568359Y441147D01*
X568359Y475500D01*
G75*
D01*
G03X571910Y473102I3551J1430*
G01*
X571910Y473102D01*
X593410Y473102D01*
G74*
D01*
G03X596993Y475581I1J3828*
G01*
X596993Y475581D01*
X624473Y475581D01*
X627981Y472073D01*
X627981Y466743D01*
X624205Y466743D01*
D02*
G37*
G36*
X624205Y437497D02*
X624205Y437497D01*
X639697Y437497D01*
X652891Y424303D01*
X652891Y407053D01*
X644073Y407053D01*
X616619Y434507D01*
X616619Y437497D01*
X620395Y437497D01*
G74*
D01*
G03X622300Y438004I1J3828*
G01*
G75*
D01*
G03X624205Y437497I1904J3321*
G01*
D02*
G37*
G36*
X158115Y437497D02*
X158115Y437497D01*
X154339Y437497D01*
X154339Y429427D01*
X177983Y405783D01*
X185531Y405783D01*
X185531Y429383D01*
X177417Y437497D01*
X161925Y437497D01*
G75*
D01*
G02X160020Y438004I-1J3828*
G01*
G74*
D01*
G02X158115Y437497I1904J3321*
G01*
D02*
G37*
G36*
X757555Y675023D02*
G74*
D01*
G02X759460Y674516I1J3828*
G01*
G75*
D01*
G02X761365Y675023I1904J-3321*
G01*
X761365Y675023D01*
X765141Y675023D01*
X765141Y675473D01*
X738957Y701657D01*
X730669Y701657D01*
X733938Y698388D01*
G74*
D01*
G02X733943Y698383I4960J4965*
G01*
X733943Y698383D01*
X751716Y680610D01*
G74*
D01*
G02X753779Y675640I4955J4970*
G01*
X753779Y675640D01*
X753779Y675023D01*
X757555Y675023D01*
D02*
G37*
G36*
X288925Y675023D02*
G75*
D01*
G03X287020Y674516I-1J-3828*
G01*
G74*
D01*
G03X285115Y675023I1904J3321*
G01*
X285115Y675023D01*
X269623Y675023D01*
X261999Y682647D01*
X261999Y700387D01*
X270327Y700387D01*
X292701Y678013D01*
X292701Y675023D01*
X288925Y675023D01*
D02*
G37*
G36*
X179825Y675023D02*
X179825Y675023D01*
X167005Y675023D01*
G75*
D01*
G03X165100Y674516I-1J-3828*
G01*
G74*
D01*
G03X163195Y675023I1904J3321*
G01*
X163195Y675023D01*
X159419Y675023D01*
X159419Y688173D01*
X171633Y700387D01*
X179961Y700387D01*
X179961Y675559D01*
G74*
D01*
G03X179825Y675023I6730J1993*
G01*
D02*
G37*
G36*
X278765Y437497D02*
G75*
D01*
G02X276860Y438004I-1J3828*
G01*
G74*
D01*
G02X274955Y437497I1904J3321*
G01*
X274955Y437497D01*
X267079Y437497D01*
X267079Y405783D01*
X281757Y405783D01*
X282541Y406567D01*
X282541Y437497D01*
X278765Y437497D01*
D02*
G37*
G36*
X735206Y419472D02*
X735206Y419472D01*
X734929Y419195D01*
X734929Y407053D01*
X738005Y407053D01*
G74*
D01*
G02X739328Y408894I6286J3121*
G01*
X739328Y408894D01*
X749901Y419467D01*
X749901Y437497D01*
X746125Y437497D01*
G75*
D01*
G02X744220Y438004I-1J3828*
G01*
G74*
D01*
G02X742315Y437497I1904J3321*
G01*
X742315Y437497D01*
X737269Y437497D01*
X737269Y424442D01*
G75*
D01*
G02X735206Y419472I-7019J0*
G01*
D02*
G37*
G36*
X639445Y675023D02*
X639445Y675023D01*
X647321Y675023D01*
X647321Y701657D01*
X640263Y701657D01*
X631859Y693253D01*
X631859Y675023D01*
X635635Y675023D01*
G74*
D01*
G02X637540Y674516I1J3828*
G01*
G75*
D01*
G02X639445Y675023I1904J-3321*
G01*
D02*
G37*
G36*
X300355Y437497D02*
X300355Y437497D01*
X296579Y437497D01*
X296579Y403660D01*
G75*
D01*
G02X296519Y402744I-7019J0*
G01*
G75*
D01*
G02X300265Y405783I3746J-789*
G01*
X300265Y405783D01*
X304041Y405783D01*
X304041Y427905D01*
G75*
D01*
G02X302861Y431800I5838J3895*
G01*
X302861Y431800D01*
X302861Y438431D01*
G74*
D01*
G02X300355Y437497I2506J2894*
G01*
D02*
G37*
G36*
X661359Y675010D02*
G74*
D01*
G02X662940Y674516I324J3814*
G01*
G75*
D01*
G02X664845Y675023I1904J-3321*
G01*
X664845Y675023D01*
X668621Y675023D01*
X668621Y701657D01*
X661359Y701657D01*
X661359Y675010D01*
D02*
G37*
G36*
X786765Y437897D02*
G75*
D01*
G02X785439Y438134I0J3828*
G01*
X785439Y438134D01*
X785439Y407053D01*
X789215Y407053D01*
G74*
D01*
G02X791130Y406540I1J3828*
G01*
X791130Y406540D01*
X791130Y435088D01*
X788322Y437897D01*
X786765Y437897D01*
D02*
G37*
G36*
X720891Y422090D02*
G75*
D01*
G02X722947Y427065I7019J12*
G01*
X722947Y427065D01*
X723231Y427349D01*
X723231Y437497D01*
X720725Y437497D01*
G75*
D01*
G02X718820Y438004I-1J3828*
G01*
G74*
D01*
G02X718219Y437725I1906J3320*
G01*
X718219Y437725D01*
X718219Y407053D01*
X720891Y407053D01*
X720891Y422090D01*
D02*
G37*
G36*
X253041Y437510D02*
G74*
D01*
G02X251460Y438004I324J3814*
G01*
G74*
D01*
G02X250859Y437725I1906J3320*
G01*
X250859Y437725D01*
X250859Y405783D01*
X253041Y405783D01*
X253041Y437510D01*
D02*
G37*
G36*
X196181Y675023D02*
X196181Y675023D01*
X196181Y700387D01*
X193999Y700387D01*
X193999Y675023D01*
X196181Y675023D01*
D02*
G37*
G54D11*
X223520Y18970D02*
G75*
D01*
G02X215685Y20937I1J16590*
G01*
X212725Y20937D01*
G75*
D01*
G02X208897Y24765I0J3828*
G01*
X208897Y27725D01*
G75*
D01*
G02X208897Y43395I14622J7835*
G01*
X208897Y46355D01*
G75*
D01*
G02X212725Y50183I3828J0*
G01*
X215685Y50183D01*
G75*
D01*
G02X223520Y52150I7835J-14622*
G01*
X410130Y52150D01*
X410130Y85010D01*
X384610Y85010D01*
G75*
D01*
G02X376071Y87377I1J16590*
G01*
X375285Y87377D01*
G75*
D01*
G02X371457Y91205I0J3828*
G01*
X371457Y91490D01*
G75*
D01*
G02X371457Y111710I13152J10110*
G01*
X371457Y112795D01*
G75*
D01*
G02X375285Y116623I3828J0*
G01*
X377573Y116623D01*
G75*
D01*
G02X384610Y118190I7038J-15022*
G01*
X426720Y118190D01*
G74*
D01*
G02X433757Y116623I1J16590*
G01*
X437515Y116623D01*
G74*
D01*
G02X441343Y112795I0J3828*
G01*
X441343Y109435D01*
G74*
D01*
G02X443310Y101600I14622J7835*
G01*
X443310Y52150D01*
X864790Y52150D01*
X864790Y85010D01*
X850900Y85010D01*
G75*
D01*
G02X842361Y87377I1J16590*
G01*
X840105Y87377D01*
G75*
D01*
G02X836277Y91205I0J3828*
G01*
X836277Y93765D01*
G75*
D01*
G02X836277Y109435I14622J7835*
G01*
X836277Y112795D01*
G75*
D01*
G02X840105Y116623I3828J0*
G01*
X843863Y116623D01*
G75*
D01*
G02X850900Y118190I7038J-15022*
G01*
X887330Y118190D01*
G74*
D01*
G02X894367Y116623I1J16590*
G01*
X898525Y116623D01*
G74*
D01*
G02X902353Y112795I0J3828*
G01*
X902353Y108637D01*
G75*
D01*
G02X902353Y94563I-15023J-7037*
G01*
X902353Y91205D01*
G75*
D01*
G02X898525Y87377I-3828J0*
G01*
X897970Y87377D01*
X897970Y52150D01*
X1027450Y52150D01*
X1042851Y67551D01*
G75*
D01*
G02X1041228Y78199I34109J10647*
G01*
X1041228Y186610D01*
X1036320Y186610D01*
G75*
D01*
G02X1027958Y188872I1J16590*
G01*
X1025500Y188872D01*
G75*
D01*
G02X1022236Y190699I-1J3828*
G01*
G74*
D01*
G02X1019951Y186695I26556J12501*
G01*
X1019951Y170746D01*
G74*
D01*
G02X1021293Y167835I2486J2911*
G01*
X1021293Y115765D01*
G75*
D01*
G02X1021002Y114300I-3828J-1*
G01*
G74*
D01*
G02X1021293Y112835I3537J1464*
G01*
X1021293Y60765D01*
G75*
D01*
G02X1017465Y56937I-3828J0*
G01*
X965395Y56937D01*
G75*
D01*
G02X963930Y57228I-1J3828*
G01*
G74*
D01*
G02X962465Y56937I1464J3537*
G01*
X944050Y56937D01*
X944050Y79180D01*
X961567Y79180D01*
X961567Y82052D01*
G75*
D01*
G02X961249Y86360I29032J4309*
G01*
X961249Y94420D01*
X944050Y94420D01*
X944050Y134180D01*
X961249Y134180D01*
X961249Y149420D01*
X944050Y149420D01*
X944050Y171663D01*
X961249Y171663D01*
X961249Y173849D01*
X956000Y173849D01*
G75*
D01*
G02X956000Y232551I0J29351*
G01*
X995680Y232551D01*
G74*
D01*
G02X1022236Y215701I0J29351*
G01*
G75*
D01*
G02X1025500Y217528I3263J-2001*
G01*
X1027958Y217528D01*
G75*
D01*
G02X1036320Y219790I8363J-14327*
G01*
X1038688Y219790D01*
X1038688Y852805D01*
G74*
D01*
G02X1040311Y863452I35732J0*
G01*
X1023733Y880030D01*
X708371Y880030D01*
G74*
D01*
G02X706355Y879457I2015J3255*
G01*
X704930Y879457D01*
X704930Y862983D01*
X706355Y862983D01*
G74*
D01*
G02X710183Y859155I0J3828*
G01*
X710183Y837565D01*
G75*
D01*
G02X706355Y833737I-3828J0*
G01*
X704930Y833737D01*
X704930Y767080D01*
G75*
D01*
G02X702963Y759245I-16590J1*
G01*
X702963Y756285D01*
G75*
D01*
G02X699135Y752457I-3828J0*
G01*
X696175Y752457D01*
G75*
D01*
G02X680505Y752457I-7835J14622*
G01*
X677545Y752457D01*
G75*
D01*
G02X673717Y756285I0J3828*
G01*
X673717Y759245D01*
G75*
D01*
G02X671750Y767080I14622J7835*
G01*
X671750Y891517D01*
G75*
D01*
G02X671750Y891563I16590J23*
G01*
X671750Y892810D01*
G74*
D01*
G02X672302Y897055I16590J1*
G01*
G75*
D01*
G02X671750Y901323I16038J4244*
G01*
X671750Y912408D01*
X663488Y920670D01*
X548668Y920670D01*
G74*
D01*
G02X546100Y920470I2568J16389*
G01*
X280992Y920470D01*
X248644Y888122D01*
G74*
D01*
G02X244141Y879809I16233J3417*
G01*
X242823Y878492D01*
X242823Y878205D01*
G75*
D01*
G02X238995Y874377I-3828J0*
G01*
X238708Y874377D01*
X237570Y873238D01*
X237570Y862983D01*
X238995Y862983D01*
G74*
D01*
G02X242823Y859155I0J3828*
G01*
X242823Y837565D01*
G75*
D01*
G02X238995Y833737I-3828J0*
G01*
X237570Y833737D01*
X237570Y765810D01*
G75*
D01*
G02X235603Y757975I-16590J1*
G01*
X235603Y755015D01*
G75*
D01*
G02X231775Y751187I-3828J0*
G01*
X228815Y751187D01*
G75*
D01*
G02X213145Y751187I-7835J14622*
G01*
X210185Y751187D01*
G75*
D01*
G02X206357Y755015I0J3828*
G01*
X206357Y757975D01*
G75*
D01*
G02X204390Y765810I14622J7835*
G01*
X204390Y880086D01*
G75*
D01*
G02X209249Y891841I16590J24*
G01*
X212366Y894958D01*
G74*
D01*
G02X213577Y898577I16233J3420*
G01*
X213577Y899795D01*
G74*
D01*
G02X217217Y903619I3828J1*
G01*
X236172Y922573D01*
X236172Y922573D01*
X262389Y948791D01*
G74*
D01*
G02X273360Y953632I11730J11732*
G01*
G75*
D01*
G02X274120Y953650I773J-16571*
G01*
X543732Y953650D01*
G75*
D01*
G02X546300Y953850I2568J-16389*
G01*
X670560Y953850D01*
G74*
D01*
G02X683719Y947362I1J16590*
G01*
X700060Y931022D01*
G74*
D01*
G02X704930Y919280I11720J11742*
G01*
X704930Y913210D01*
X1030590Y913210D01*
G75*
D01*
G02X1036684Y912056I15J-16590*
G01*
G74*
D01*
G02X1042347Y908340I6078J15435*
G01*
X1063773Y886914D01*
G75*
D01*
G02X1110152Y852805I10647J-34109*
G01*
X1110152Y215471D01*
G74*
D01*
G02X1112692Y202240I33191J13231*
G01*
X1112692Y78199D01*
G75*
D01*
G02X1066313Y44090I-35732J0*
G01*
X1046063Y23840D01*
G74*
D01*
G02X1040046Y19989I11741J11719*
G01*
G75*
D01*
G02X1034308Y18970I-5725J15570*
G01*
X223520Y18970D01*
X710010Y340360D02*
X710010Y213360D01*
G75*
D01*
G02X682053Y201277I-16590J1*
G01*
X680085Y201277D01*
G75*
D01*
G02X676257Y205105I0J3828*
G01*
X676257Y226695D01*
G74*
D01*
G02X676830Y228711I3828J1*
G01*
X676830Y340360D01*
G74*
D01*
G02X678797Y348195I16590J1*
G01*
X678797Y352425D01*
G75*
D01*
G02X682625Y356253I3828J0*
G01*
X688664Y356253D01*
G75*
D01*
G02X698176Y356253I4756J-15893*
G01*
X704215Y356253D01*
G74*
D01*
G02X708043Y352425I0J3828*
G01*
X708043Y348195D01*
G74*
D01*
G02X710010Y340360I14622J7835*
G01*
X753963Y727075D02*
X753963Y706503D01*
X777116Y683350D01*
G74*
D01*
G02X779179Y678380I4955J4970*
G01*
X779179Y675023D01*
X782955Y675023D01*
G74*
D01*
G02X784860Y674516I1J3828*
G01*
G75*
D01*
G02X786765Y675023I1904J-3321*
G01*
X808355Y675023D01*
G74*
D01*
G02X812183Y671195I0J3828*
G01*
X812183Y649605D01*
G75*
D01*
G02X808355Y645777I-3828J0*
G01*
X786765Y645777D01*
G75*
D01*
G02X784860Y646284I-1J3828*
G01*
G74*
D01*
G02X782955Y645777I1904J3321*
G01*
X761365Y645777D01*
G75*
D01*
G02X759460Y646284I-1J3828*
G01*
G74*
D01*
G02X758493Y645893I1905J3320*
G01*
X762367Y642019D01*
X789847Y642019D01*
G75*
D01*
G02X793430Y644498I3582J-1349*
G01*
X814930Y644498D01*
G74*
D01*
G02X818758Y640670I0J3828*
G01*
X818758Y619170D01*
G75*
D01*
G02X814930Y615342I-3828J0*
G01*
X793430Y615342D01*
G75*
D01*
G02X789602Y619170I0J3828*
G01*
X789602Y627981D01*
X759460Y627981D01*
G75*
D01*
G02X757430Y628281I0J7019*
G01*
G74*
D01*
G02X754497Y630037I2030J6718*
G01*
X741797Y642737D01*
G74*
D01*
G02X740010Y645777I4963J4962*
G01*
X735965Y645777D01*
G75*
D01*
G02X732137Y649605I0J3828*
G01*
X732137Y671195D01*
G75*
D01*
G02X735965Y675023I3828J0*
G01*
X737450Y675023D01*
X724022Y688452D01*
G74*
D01*
G02X724017Y688457I4960J4965*
G01*
X717377Y695097D01*
G75*
D01*
G02X715321Y700071I4962J4963*
G01*
X715321Y701657D01*
X710526Y701657D01*
X710526Y711094D01*
X715321Y711094D01*
X715321Y721466D01*
X710526Y721466D01*
X710526Y730903D01*
X715321Y730903D01*
X715321Y752457D01*
X711545Y752457D01*
G75*
D01*
G02X707717Y756285I0J3828*
G01*
X707717Y777875D01*
G75*
D01*
G02X711545Y781703I3828J0*
G01*
X733135Y781703D01*
G74*
D01*
G02X736963Y777875I0J3828*
G01*
X736963Y756285D01*
G75*
D01*
G02X733135Y752457I-3828J0*
G01*
X729359Y752457D01*
X729359Y730903D01*
X750135Y730903D01*
G74*
D01*
G02X753963Y727075I0J3828*
G01*
X787963Y727075D02*
X787963Y711583D01*
X806727Y692819D01*
X816810Y692819D01*
G74*
D01*
G02X821780Y690756I0J7019*
G01*
X837513Y675023D01*
X849395Y675023D01*
G74*
D01*
G02X853223Y671195I0J3828*
G01*
X853223Y649605D01*
G75*
D01*
G02X849395Y645777I-3828J0*
G01*
X827805Y645777D01*
G75*
D01*
G02X823977Y649605I0J3828*
G01*
X823977Y668707D01*
X813903Y678781D01*
X803827Y678781D01*
G75*
D01*
G02X798857Y680837I-7J7019*
G01*
X778037Y701657D01*
X762545Y701657D01*
G75*
D01*
G02X758717Y705485I0J3828*
G01*
X758717Y727075D01*
G75*
D01*
G02X762545Y730903I3828J0*
G01*
X784135Y730903D01*
G74*
D01*
G02X787963Y727075I0J3828*
G01*
X849550Y614658D02*
G75*
D01*
G02X854409Y626411I16590J22*
G01*
X870960Y642961D01*
X870960Y672759D01*
X793228Y750490D01*
X756340Y750490D01*
G75*
D01*
G02X748505Y752457I1J16590*
G01*
X745545Y752457D01*
G75*
D01*
G02X741717Y756285I0J3828*
G01*
X741717Y759245D01*
G75*
D01*
G02X741717Y774915I14622J7835*
G01*
X741717Y777875D01*
G75*
D01*
G02X745545Y781703I3828J0*
G01*
X748505Y781703D01*
G75*
D01*
G02X756340Y783670I7835J-14622*
G01*
X800100Y783670D01*
G74*
D01*
G02X811842Y778800I0J16590*
G01*
X900524Y690118D01*
G74*
D01*
G02X903742Y685589I11724J11738*
G01*
G75*
D01*
G02X904139Y672061I-14942J-7208*
G01*
X904139Y636090D01*
G75*
D01*
G02X899269Y624348I-16589J-1*
G01*
X882730Y607808D01*
X882730Y222266D01*
G75*
D01*
G02X867410Y199310I-15320J-6366*
G01*
X859042Y199310D01*
X824310Y164578D01*
X824310Y114300D01*
G75*
D01*
G02X819440Y102558I-16590J0*
G01*
X791962Y75080D01*
G74*
D01*
G02X780220Y70210I11742J11720*
G01*
X748243Y70210D01*
X748243Y60765D01*
G75*
D01*
G02X744415Y56937I-3828J0*
G01*
X692345Y56937D01*
G75*
D01*
G02X690880Y57228I-1J3828*
G01*
G74*
D01*
G02X689415Y56937I1464J3537*
G01*
X637345Y56937D01*
G75*
D01*
G02X633517Y60765I0J3828*
G01*
X633517Y69090D01*
X605200Y69090D01*
G75*
D01*
G02X602492Y69313I3J16590*
G01*
G74*
D01*
G02X593469Y73949I2707J16367*
G01*
X488649Y178769D01*
G75*
D01*
G02X483790Y190522I11731J11731*
G01*
X483790Y515605D01*
G75*
D01*
G02X488649Y527351I16590J15*
G01*
X493950Y532652D01*
X493950Y543537D01*
G75*
D01*
G02X498809Y555291I16590J23*
G01*
X519350Y575832D01*
X519350Y648465D01*
G75*
D01*
G02X519177Y649605I3655J1138*
G01*
X519177Y671195D01*
G74*
D01*
G02X519350Y672335I3828J2*
G01*
X519350Y718798D01*
G75*
D01*
G02X524209Y730551I16590J22*
G01*
X572469Y778811D01*
G74*
D01*
G02X581145Y783386I11730J11731*
G01*
G75*
D01*
G02X584200Y783670I3056J-16305*
G01*
X620340Y783670D01*
G74*
D01*
G02X628175Y781703I1J16590*
G01*
X631135Y781703D01*
G74*
D01*
G02X634963Y777875I0J3828*
G01*
X634963Y774915D01*
G75*
D01*
G02X634963Y759245I-14622J-7835*
G01*
X634963Y756285D01*
G75*
D01*
G02X631135Y752457I-3828J0*
G01*
X628175Y752457D01*
G74*
D01*
G02X620340Y750490I7835J14622*
G01*
X591072Y750490D01*
X556753Y716172D01*
X552530Y711948D01*
X552530Y568960D01*
G75*
D01*
G02X547660Y557218I-16590J0*
G01*
X527130Y536688D01*
X527130Y525780D01*
G75*
D01*
G02X522260Y514038I-16590J0*
G01*
X516970Y508748D01*
X516970Y197372D01*
X612072Y102270D01*
X633517Y102270D01*
X633517Y112835D01*
G74*
D01*
G02X633808Y114300I3828J1*
G01*
G75*
D01*
G02X633517Y115765I3537J1464*
G01*
X633517Y150742D01*
X613109Y171149D01*
G75*
D01*
G02X608250Y182899I11731J11731*
G01*
X608250Y297180D01*
G74*
D01*
G02X608299Y298450I16590J4*
G01*
G75*
D01*
G02X608250Y299720I16540J1274*
G01*
X608250Y323770D01*
X604920Y323770D01*
G75*
D01*
G02X589364Y334594I0J16590*
G01*
X529289Y394669D01*
G75*
D01*
G02X524430Y406423I11731J11731*
G01*
X524430Y444500D01*
G74*
D01*
G02X528937Y455867I16590J1*
G01*
X528937Y458235D01*
G75*
D01*
G02X532765Y462063I3828J0*
G01*
X554321Y462063D01*
X554321Y476953D01*
X548457Y482817D01*
X532765Y482817D01*
G75*
D01*
G02X528937Y486645I0J3828*
G01*
X528937Y508235D01*
G75*
D01*
G02X532765Y512063I3828J0*
G01*
X554355Y512063D01*
G74*
D01*
G02X558183Y508235I0J3828*
G01*
X558183Y492943D01*
X566296Y484830D01*
G74*
D01*
G02X568082Y481813I4955J4970*
G01*
X568082Y498430D01*
G75*
D01*
G02X571910Y502258I3828J0*
G01*
X593410Y502258D01*
G74*
D01*
G02X597238Y498430I0J3828*
G01*
X597238Y489619D01*
X627380Y489619D01*
G74*
D01*
G02X632350Y487556I0J7019*
G01*
X639956Y479950D01*
G74*
D01*
G02X642019Y474980I4955J4970*
G01*
X642019Y466743D01*
X645795Y466743D01*
G74*
D01*
G02X649623Y462915I0J3828*
G01*
X649623Y447423D01*
X664887Y432159D01*
G75*
D01*
G02X666929Y426755I-4962J-4963*
G01*
X666929Y407053D01*
X671234Y407053D01*
X671234Y397616D01*
X666929Y397616D01*
X666929Y387244D01*
X671234Y387244D01*
X671234Y377807D01*
X666929Y377807D01*
X666929Y356253D01*
X670215Y356253D01*
G74*
D01*
G02X674043Y352425I0J3828*
G01*
X674043Y330835D01*
G75*
D01*
G02X670215Y327007I-3828J0*
G01*
X648625Y327007D01*
G75*
D01*
G02X644797Y330835I0J3828*
G01*
X644797Y352425D01*
G75*
D01*
G02X648625Y356253I3828J0*
G01*
X652891Y356253D01*
X652891Y377807D01*
X631625Y377807D01*
G75*
D01*
G02X627797Y381635I0J3828*
G01*
X627797Y403225D01*
G74*
D01*
G02X627804Y403470I3828J13*
G01*
X604637Y426637D01*
G75*
D01*
G02X602581Y431615I4962J4963*
G01*
X602581Y437497D01*
X598805Y437497D01*
G75*
D01*
G02X596900Y438004I-1J3828*
G01*
G74*
D01*
G02X594995Y437497I1904J3321*
G01*
X573405Y437497D01*
G75*
D01*
G02X571504Y438002I-1J3828*
G01*
X602453Y407053D01*
X619215Y407053D01*
G74*
D01*
G02X623043Y403225I0J3828*
G01*
X623043Y381635D01*
G75*
D01*
G02X619215Y377807I-3828J0*
G01*
X597625Y377807D01*
G75*
D01*
G02X593797Y381635I0J3828*
G01*
X593797Y395857D01*
X557610Y432044D01*
X557610Y413272D01*
X613932Y356950D01*
X625420Y356950D01*
G74*
D01*
G02X630176Y356253I2J16590*
G01*
X636215Y356253D01*
G74*
D01*
G02X640043Y352425I0J3828*
G01*
X640043Y348195D01*
G75*
D01*
G02X641430Y336012I-14622J-7835*
G01*
X641430Y299720D01*
G75*
D01*
G02X641381Y298450I-16590J4*
G01*
G74*
D01*
G02X641430Y297180I16540J1274*
G01*
X641430Y189752D01*
X659518Y171663D01*
X689415Y171663D01*
G74*
D01*
G02X690880Y171372I1J3828*
G01*
G75*
D01*
G02X692345Y171663I1464J-3537*
G01*
X722242Y171663D01*
X745410Y194832D01*
X745410Y311192D01*
G75*
D01*
G02X744830Y315540I16009J4348*
G01*
X744830Y334743D01*
G75*
D01*
G02X746797Y349798I15609J5617*
G01*
X746797Y352425D01*
G75*
D01*
G02X750625Y356253I3828J0*
G01*
X755684Y356253D01*
G75*
D01*
G02X760440Y356950I4758J-15892*
G01*
X777988Y356950D01*
X791130Y370092D01*
X791130Y378320D01*
G74*
D01*
G02X789215Y377807I1914J3315*
G01*
X767625Y377807D01*
G75*
D01*
G02X763797Y381635I0J3828*
G01*
X763797Y403225D01*
G75*
D01*
G02X767625Y407053I3828J0*
G01*
X771401Y407053D01*
X771401Y440291D01*
G74*
D01*
G02X767715Y437497I3686J1034*
G01*
X763939Y437497D01*
X763939Y416560D01*
G75*
D01*
G02X761876Y411590I-7019J0*
G01*
X756933Y406647D01*
G74*
D01*
G02X759043Y403225I1719J3421*
G01*
X759043Y381635D01*
G75*
D01*
G02X755215Y377807I-3828J0*
G01*
X734929Y377807D01*
X734929Y356253D01*
X738215Y356253D01*
G74*
D01*
G02X742043Y352425I0J3828*
G01*
X742043Y330835D01*
G75*
D01*
G02X738215Y327007I-3828J0*
G01*
X716625Y327007D01*
G75*
D01*
G02X712797Y330835I0J3828*
G01*
X712797Y352425D01*
G75*
D01*
G02X716625Y356253I3828J0*
G01*
X720891Y356253D01*
X720891Y377807D01*
X699625Y377807D01*
G75*
D01*
G02X695797Y381635I0J3828*
G01*
X695797Y403225D01*
G75*
D01*
G02X699625Y407053I3828J0*
G01*
X704181Y407053D01*
X704181Y437497D01*
X695325Y437497D01*
G75*
D01*
G02X691497Y441325I0J3828*
G01*
X691497Y462915D01*
G75*
D01*
G02X695325Y466743I3828J0*
G01*
X716915Y466743D01*
G74*
D01*
G02X718820Y466236I1J3828*
G01*
G75*
D01*
G02X720725Y466743I1904J-3321*
G01*
X742315Y466743D01*
G74*
D01*
G02X744220Y466236I1J3828*
G01*
G75*
D01*
G02X746125Y466743I1904J-3321*
G01*
X767715Y466743D01*
G74*
D01*
G02X771401Y463949I0J3828*
G01*
X771401Y486309D01*
G75*
D01*
G02X773457Y491283I7019J11*
G01*
X782937Y500763D01*
X782937Y513315D01*
G75*
D01*
G02X786765Y517143I3828J0*
G01*
X808355Y517143D01*
G74*
D01*
G02X812183Y513315I0J3828*
G01*
X812183Y491725D01*
G75*
D01*
G02X808355Y487897I-3828J0*
G01*
X789923Y487897D01*
X785439Y483413D01*
X785439Y466906D01*
G75*
D01*
G02X786765Y467143I1326J-3590*
G01*
X790523Y467143D01*
G75*
D01*
G02X804597Y467143I7037J-15023*
G01*
X808355Y467143D01*
G74*
D01*
G02X812183Y463315I0J3828*
G01*
X812183Y460958D01*
X819440Y453702D01*
G74*
D01*
G02X824310Y441960I11720J11742*
G01*
X824310Y363220D01*
G75*
D01*
G02X819440Y351478I-16590J0*
G01*
X796602Y328640D01*
G74*
D01*
G02X784860Y323770I11742J11720*
G01*
X778010Y323770D01*
X778010Y319308D01*
G74*
D01*
G02X778590Y314960I16009J4348*
G01*
X778590Y187960D01*
G75*
D01*
G02X773720Y176218I-16590J0*
G01*
X748243Y150742D01*
X748243Y115765D01*
G75*
D01*
G02X747952Y114300I-3828J-1*
G01*
G74*
D01*
G02X748243Y112835I3537J1464*
G01*
X748243Y103390D01*
X773348Y103390D01*
X791130Y121172D01*
X791130Y171437D01*
G75*
D01*
G02X795989Y183181I16590J13*
G01*
X840439Y227631D01*
G74*
D01*
G02X849550Y232282I11731J11731*
G01*
X849550Y614658D01*
X718410Y473102D02*
X712830Y473102D01*
X712830Y482510D01*
X722238Y482510D01*
X722238Y476930D01*
G75*
D01*
G02X718410Y473102I-3828J0*
G01*
X718410Y502258D02*
G74*
D01*
G02X722238Y498430I0J3828*
G01*
X722238Y492850D01*
X712830Y492850D01*
X712830Y502258D01*
X718410Y502258D01*
X693082Y476930D02*
X693082Y482510D01*
X702490Y482510D01*
X702490Y473102D01*
X696910Y473102D01*
G75*
D01*
G02X693082Y476930I0J3828*
G01*
X685963Y727075D02*
X685963Y705485D01*
G75*
D01*
G02X682659Y701693I-3828J0*
G01*
X682659Y675023D01*
X686435Y675023D01*
G74*
D01*
G02X690263Y671195I0J3828*
G01*
X690263Y649605D01*
G75*
D01*
G02X686435Y645777I-3828J0*
G01*
X664845Y645777D01*
G75*
D01*
G02X662940Y646284I-1J3828*
G01*
G74*
D01*
G02X661035Y645777I1904J3321*
G01*
X639445Y645777D01*
G75*
D01*
G02X637540Y646284I-1J3828*
G01*
G74*
D01*
G02X635635Y645777I1904J3321*
G01*
X614045Y645777D01*
G75*
D01*
G02X610217Y649605I0J3828*
G01*
X610217Y671195D01*
G75*
D01*
G02X614045Y675023I3828J0*
G01*
X617821Y675023D01*
X617821Y696146D01*
G75*
D01*
G02X619877Y701123I7019J14*
G01*
X622943Y704189D01*
G75*
D01*
G02X622717Y705485I3602J1296*
G01*
X622717Y727075D01*
G75*
D01*
G02X626545Y730903I3828J0*
G01*
X647321Y730903D01*
X647321Y752457D01*
X643545Y752457D01*
G75*
D01*
G02X639717Y756285I0J3828*
G01*
X639717Y777875D01*
G75*
D01*
G02X643545Y781703I3828J0*
G01*
X665135Y781703D01*
G74*
D01*
G02X668963Y777875I0J3828*
G01*
X668963Y756285D01*
G75*
D01*
G02X665135Y752457I-3828J0*
G01*
X661359Y752457D01*
X661359Y730903D01*
X682135Y730903D01*
G74*
D01*
G02X685963Y727075I0J3828*
G01*
X709148Y716172D02*
G75*
D01*
G02X709148Y716172I-3808J108*
G01*
X617963Y727075D02*
X617963Y705485D01*
G75*
D01*
G02X614135Y701657I-3828J0*
G01*
X598643Y701657D01*
X591219Y694233D01*
X591219Y675023D01*
X594595Y675023D01*
G74*
D01*
G02X598423Y671195I0J3828*
G01*
X598423Y649605D01*
G75*
D01*
G02X594595Y645777I-3828J0*
G01*
X573005Y645777D01*
G75*
D01*
G02X569177Y649605I0J3828*
G01*
X569177Y671195D01*
G75*
D01*
G02X573005Y675023I3828J0*
G01*
X577181Y675023D01*
X577181Y697126D01*
G75*
D01*
G02X579237Y702103I7019J14*
G01*
X588717Y711583D01*
X588717Y727075D01*
G75*
D01*
G02X592545Y730903I3828J0*
G01*
X614135Y730903D01*
G74*
D01*
G02X617963Y727075I0J3828*
G01*
X280865Y56937D02*
X228795Y56937D01*
G75*
D01*
G02X227330Y57228I-1J3828*
G01*
G74*
D01*
G02X225865Y56937I1464J3537*
G01*
X173795Y56937D01*
G75*
D01*
G02X169967Y60765I0J3828*
G01*
X169967Y69090D01*
X137840Y69090D01*
G75*
D01*
G02X135132Y69313I3J16590*
G01*
G74*
D01*
G02X126109Y73949I2707J16367*
G01*
X21289Y178769D01*
G75*
D01*
G02X16430Y190522I11731J11731*
G01*
X16430Y632039D01*
G75*
D01*
G02X21289Y643791I16590J21*
G01*
X44370Y666872D01*
X44370Y710888D01*
G75*
D01*
G02X49229Y722641I16590J22*
G01*
X97779Y771191D01*
G74*
D01*
G02X105790Y775627I11730J11732*
G01*
G75*
D01*
G02X109510Y776050I3722J-16166*
G01*
X138357Y776050D01*
X138357Y776605D01*
G75*
D01*
G02X142185Y780433I3828J0*
G01*
X143136Y780433D01*
G75*
D01*
G02X162824Y780433I9844J-13353*
G01*
X163775Y780433D01*
G74*
D01*
G02X167603Y776605I0J3828*
G01*
X167603Y774914D01*
G75*
D01*
G02X167603Y759246I-14623J-7834*
G01*
X167603Y755015D01*
G75*
D01*
G02X163775Y751187I-3828J0*
G01*
X160548Y751187D01*
X157102Y747740D01*
G74*
D01*
G02X150259Y743610I11741J11720*
G01*
G75*
D01*
G02X145348Y742870I-4899J15849*
G01*
X116382Y742870D01*
X89683Y716172D01*
X89683Y716172D01*
X87257Y713745D01*
X77550Y704038D01*
X77550Y664021D01*
G75*
D01*
G02X75983Y652566I-16189J-3620*
G01*
X75983Y649605D01*
G75*
D01*
G02X72155Y645777I-3828J0*
G01*
X70198Y645777D01*
X49610Y625188D01*
X49610Y197372D01*
X144712Y102270D01*
X169967Y102270D01*
X169967Y112835D01*
G74*
D01*
G02X170258Y114300I3828J1*
G01*
G75*
D01*
G02X169967Y115765I3537J1464*
G01*
X169967Y146932D01*
X145749Y171149D01*
G75*
D01*
G02X140890Y182899I11731J11731*
G01*
X140890Y299720D01*
G74*
D01*
G02X141470Y304068I16590J0*
G01*
X141470Y323770D01*
X138726Y323770D01*
G75*
D01*
G02X126989Y328629I-6J16590*
G01*
X59389Y396229D01*
G75*
D01*
G02X54530Y407972I11731J11731*
G01*
X54530Y442360D01*
G74*
D01*
G02X56497Y450195I16590J1*
G01*
X56497Y453155D01*
G75*
D01*
G02X60325Y456983I3828J0*
G01*
X63285Y456983D01*
G75*
D01*
G02X78955Y456983I7835J-14622*
G01*
X81915Y456983D01*
G74*
D01*
G02X85691Y453785I0J3828*
G01*
X85691Y468263D01*
X77782Y476172D01*
X76217Y477737D01*
X60325Y477737D01*
G75*
D01*
G02X56497Y481565I0J3828*
G01*
X56497Y503155D01*
G75*
D01*
G02X60325Y506983I3828J0*
G01*
X81915Y506983D01*
G74*
D01*
G02X85743Y503155I0J3828*
G01*
X85743Y488063D01*
X97666Y476140D01*
G74*
D01*
G02X99729Y471170I4955J4970*
G01*
X99729Y449720D01*
X107297Y442152D01*
X107297Y462915D01*
G75*
D01*
G02X111125Y466743I3828J0*
G01*
X126310Y466743D01*
X119952Y473102D01*
X104550Y473102D01*
G75*
D01*
G02X100722Y476930I0J3828*
G01*
X100722Y498430D01*
G75*
D01*
G02X104550Y502258I3828J0*
G01*
X126050Y502258D01*
G74*
D01*
G02X129878Y498430I0J3828*
G01*
X129878Y483028D01*
X136734Y476172D01*
X137257Y475649D01*
X164465Y475649D01*
G74*
D01*
G02X169435Y473586I0J7019*
G01*
X176278Y466743D01*
X183515Y466743D01*
G74*
D01*
G02X187343Y462915I0J3828*
G01*
X187343Y447423D01*
X197506Y437260D01*
G74*
D01*
G02X199569Y432290I4955J4970*
G01*
X199569Y405783D01*
X203874Y405783D01*
X203874Y396346D01*
X199569Y396346D01*
X199569Y385974D01*
X203874Y385974D01*
X203874Y376537D01*
X199569Y376537D01*
X199569Y354983D01*
X202855Y354983D01*
G74*
D01*
G02X206683Y351155I0J3828*
G01*
X206683Y329565D01*
G75*
D01*
G02X202855Y325737I-3828J0*
G01*
X181265Y325737D01*
G75*
D01*
G02X177437Y329565I0J3828*
G01*
X177437Y351155D01*
G75*
D01*
G02X181265Y354983I3828J0*
G01*
X185531Y354983D01*
X185531Y376537D01*
X164265Y376537D01*
G75*
D01*
G02X160437Y380365I0J3828*
G01*
X160437Y401955D01*
G74*
D01*
G02X160663Y403251I3828J0*
G01*
X142357Y421557D01*
G75*
D01*
G02X140301Y426535I4962J4963*
G01*
X140301Y437497D01*
X136525Y437497D01*
G75*
D01*
G02X134620Y438004I-1J3828*
G01*
G74*
D01*
G02X132715Y437497I1904J3321*
G01*
X111952Y437497D01*
X130051Y419398D01*
G74*
D01*
G02X132114Y414428I4955J4970*
G01*
X132114Y410032D01*
X136363Y405783D01*
X151855Y405783D01*
G74*
D01*
G02X155683Y401955I0J3828*
G01*
X155683Y380365D01*
G75*
D01*
G02X151855Y376537I-3828J0*
G01*
X130265Y376537D01*
G75*
D01*
G02X126437Y380365I0J3828*
G01*
X126437Y395857D01*
X120132Y402162D01*
G75*
D01*
G02X118076Y407137I4962J4963*
G01*
X118076Y411520D01*
X87747Y441850D01*
G74*
D01*
G02X87710Y441887I4944J4981*
G01*
X87710Y414832D01*
X145592Y356950D01*
X157480Y356950D01*
G74*
D01*
G02X157770Y356947I27J16590*
G01*
G75*
D01*
G02X165895Y354983I291J-16586*
G01*
X168855Y354983D01*
G74*
D01*
G02X172683Y351155I0J3828*
G01*
X172683Y348195D01*
G74*
D01*
G02X174650Y340360I14622J7835*
G01*
X174650Y299140D01*
G75*
D01*
G02X174070Y294792I-16590J0*
G01*
X174070Y189752D01*
X192158Y171663D01*
X225865Y171663D01*
G74*
D01*
G02X227330Y171372I1J3828*
G01*
G75*
D01*
G02X228795Y171663I1464J-3537*
G01*
X254882Y171663D01*
X278050Y194832D01*
X278050Y339780D01*
G74*
D01*
G02X278053Y340070I16590J27*
G01*
G75*
D01*
G02X279437Y346999I16586J290*
G01*
X279437Y351155D01*
G75*
D01*
G02X283265Y354983I3828J0*
G01*
X286805Y354983D01*
G75*
D01*
G02X294640Y356950I7835J-14622*
G01*
X310628Y356950D01*
X328850Y375172D01*
X328850Y430408D01*
X321362Y437897D01*
X319405Y437897D01*
G75*
D01*
G02X316899Y438831I0J3828*
G01*
X316899Y436875D01*
G74*
D01*
G02X318079Y432980I5838J3895*
G01*
X318079Y405783D01*
X321855Y405783D01*
G74*
D01*
G02X325683Y401955I0J3828*
G01*
X325683Y380365D01*
G75*
D01*
G02X321855Y376537I-3828J0*
G01*
X300265Y376537D01*
G75*
D01*
G02X296437Y380365I0J3828*
G01*
X296437Y401955D01*
G74*
D01*
G02X296459Y402369I3828J4*
G01*
G74*
D01*
G02X294516Y398690I6898J1291*
G01*
X291683Y395857D01*
X291683Y380365D01*
G75*
D01*
G02X287855Y376537I-3828J0*
G01*
X267079Y376537D01*
X267079Y354983D01*
X270855Y354983D01*
G74*
D01*
G02X274683Y351155I0J3828*
G01*
X274683Y329565D01*
G75*
D01*
G02X270855Y325737I-3828J0*
G01*
X249265Y325737D01*
G75*
D01*
G02X245437Y329565I0J3828*
G01*
X245437Y351155D01*
G75*
D01*
G02X249265Y354983I3828J0*
G01*
X253041Y354983D01*
X253041Y376537D01*
X232265Y376537D01*
G75*
D01*
G02X228437Y380365I0J3828*
G01*
X228437Y401955D01*
G75*
D01*
G02X232265Y405783I3828J0*
G01*
X236821Y405783D01*
X236821Y437497D01*
X227965Y437497D01*
G75*
D01*
G02X224137Y441325I0J3828*
G01*
X224137Y462915D01*
G75*
D01*
G02X227965Y466743I3828J0*
G01*
X249555Y466743D01*
G74*
D01*
G02X251460Y466236I1J3828*
G01*
G75*
D01*
G02X253365Y466743I1904J-3321*
G01*
X274955Y466743D01*
G74*
D01*
G02X276860Y466236I1J3828*
G01*
G75*
D01*
G02X278765Y466743I1904J-3321*
G01*
X300355Y466743D01*
G74*
D01*
G02X302861Y465809I0J3828*
G01*
X302861Y482188D01*
G75*
D01*
G02X304917Y487163I7019J12*
G01*
X315577Y497823D01*
X315577Y513315D01*
G75*
D01*
G02X319405Y517143I3828J0*
G01*
X340995Y517143D01*
G74*
D01*
G02X344823Y513315I0J3828*
G01*
X344823Y491725D01*
G75*
D01*
G02X340995Y487897I-3828J0*
G01*
X325503Y487897D01*
X316899Y479293D01*
X316899Y466209D01*
G75*
D01*
G02X319405Y467143I2506J-2894*
G01*
X322366Y467143D01*
G75*
D01*
G02X338034Y467143I7834J-14623*
G01*
X340995Y467143D01*
G74*
D01*
G02X344823Y463315I0J3828*
G01*
X344823Y461358D01*
X357160Y449022D01*
G74*
D01*
G02X362030Y437280I11720J11742*
G01*
X362030Y368300D01*
G75*
D01*
G02X357160Y356558I-16590J0*
G01*
X329242Y328640D01*
G74*
D01*
G02X322499Y324541I11742J11720*
G01*
G75*
D01*
G02X317488Y323770I-4999J15819*
G01*
X311230Y323770D01*
X311230Y187960D01*
G75*
D01*
G02X306360Y176218I-16590J0*
G01*
X284693Y154552D01*
X284693Y115765D01*
G75*
D01*
G02X284402Y114300I-3828J-1*
G01*
G74*
D01*
G02X284693Y112835I3537J1464*
G01*
X284693Y105490D01*
X297928Y105490D01*
X321230Y128792D01*
X321230Y180317D01*
G75*
D01*
G02X326089Y192071I16590J23*
G01*
X370190Y236172D01*
X407590Y273572D01*
X407590Y450328D01*
X371809Y486109D01*
G75*
D01*
G02X366950Y497850I11731J11731*
G01*
X366950Y596881D01*
G75*
D01*
G02X371809Y608631I16590J19*
G01*
X405050Y641872D01*
X405050Y661148D01*
X350027Y716172D01*
X350027Y716172D01*
X315708Y750490D01*
X288980Y750490D01*
G75*
D01*
G02X284224Y751187I2J16590*
G01*
X278185Y751187D01*
G75*
D01*
G02X274357Y755015I0J3828*
G01*
X274357Y759245D01*
G75*
D01*
G02X274357Y774915I14622J7835*
G01*
X274357Y776605D01*
G75*
D01*
G02X278185Y780433I3828J0*
G01*
X279136Y780433D01*
G75*
D01*
G02X288980Y783670I9845J-13352*
G01*
X322580Y783670D01*
G74*
D01*
G02X334322Y778800I0J16590*
G01*
X433360Y679762D01*
G74*
D01*
G02X438230Y668020I11720J11742*
G01*
X438230Y635000D01*
G75*
D01*
G02X433360Y623258I-16590J0*
G01*
X400130Y590028D01*
X400130Y504712D01*
X428670Y476172D01*
X435900Y468942D01*
G74*
D01*
G02X440770Y457200I11720J11742*
G01*
X440770Y266700D01*
G75*
D01*
G02X435900Y254958I-16590J0*
G01*
X417113Y236172D01*
X354410Y173468D01*
X354410Y121920D01*
G75*
D01*
G02X349540Y110178I-16590J0*
G01*
X316542Y77180D01*
G74*
D01*
G02X308428Y72712I11741J11721*
G01*
G75*
D01*
G02X304790Y72310I-3630J16187*
G01*
X284693Y72310D01*
X284693Y60765D01*
G75*
D01*
G02X280865Y56937I-3828J0*
G01*
X254878Y476930D02*
G75*
D01*
G02X251050Y473102I-3828J0*
G01*
X245470Y473102D01*
X245470Y482510D01*
X254878Y482510D01*
X254878Y476930D01*
X242650Y340360D02*
X242650Y215900D01*
G75*
D01*
G02X238092Y204478I-16590J0*
G01*
G74*
D01*
G02X234315Y201277I3776J627*
G01*
X233895Y201277D01*
G75*
D01*
G02X218225Y201277I-7835J14622*
G01*
X212725Y201277D01*
G75*
D01*
G02X208897Y205105I0J3828*
G01*
X208897Y226695D01*
G74*
D01*
G02X209470Y228711I3828J1*
G01*
X209470Y340360D01*
G74*
D01*
G02X211437Y348195I16590J1*
G01*
X211437Y351155D01*
G75*
D01*
G02X215265Y354983I3828J0*
G01*
X218225Y354983D01*
G75*
D01*
G02X233895Y354983I7835J-14622*
G01*
X236855Y354983D01*
G74*
D01*
G02X240683Y351155I0J3828*
G01*
X240683Y348195D01*
G74*
D01*
G02X242650Y340360I14622J7835*
G01*
X225722Y476930D02*
X225722Y482510D01*
X235130Y482510D01*
X235130Y473102D01*
X229550Y473102D01*
G75*
D01*
G02X225722Y476930I0J3828*
G01*
X244185Y751187D02*
G75*
D01*
G02X240357Y755015I0J3828*
G01*
X240357Y776605D01*
G75*
D01*
G02X244185Y780433I3828J0*
G01*
X265775Y780433D01*
G74*
D01*
G02X269603Y776605I0J3828*
G01*
X269603Y755015D01*
G75*
D01*
G02X265775Y751187I-3828J0*
G01*
X261999Y751187D01*
X261999Y729633D01*
X282775Y729633D01*
G74*
D01*
G02X286603Y725805I0J3828*
G01*
X286603Y704215D01*
G75*
D01*
G02X286596Y703970I-3828J-13*
G01*
X304676Y685890D01*
G74*
D01*
G02X306739Y680920I4955J4970*
G01*
X306739Y675023D01*
X310515Y675023D01*
G74*
D01*
G02X312420Y674516I1J3828*
G01*
G75*
D01*
G02X314325Y675023I1904J-3321*
G01*
X335915Y675023D01*
G74*
D01*
G02X339743Y671195I0J3828*
G01*
X339743Y649605D01*
G75*
D01*
G02X335915Y645777I-3828J0*
G01*
X314325Y645777D01*
G75*
D01*
G02X312420Y646284I-1J3828*
G01*
G74*
D01*
G02X310515Y645777I1904J3321*
G01*
X288925Y645777D01*
G75*
D01*
G02X288703Y645783I-8J3828*
G01*
X302627Y631859D01*
X312082Y631859D01*
X312082Y635590D01*
G75*
D01*
G02X315910Y639418I3828J0*
G01*
X337410Y639418D01*
G74*
D01*
G02X341238Y635590I0J3828*
G01*
X341238Y614090D01*
G75*
D01*
G02X337410Y610262I-3828J0*
G01*
X315910Y610262D01*
G75*
D01*
G02X312082Y614090I0J3828*
G01*
X312082Y617821D01*
X299729Y617821D01*
G75*
D01*
G02X294757Y619877I-9J7019*
G01*
X269357Y645277D01*
G74*
D01*
G02X268903Y645777I4963J4962*
G01*
X263525Y645777D01*
G75*
D01*
G02X259697Y649605I0J3828*
G01*
X259697Y665097D01*
X250017Y674777D01*
G75*
D01*
G02X247961Y679749I4962J4963*
G01*
X247961Y700387D01*
X243166Y700387D01*
X243166Y709824D01*
X247961Y709824D01*
X247961Y720196D01*
X243166Y720196D01*
X243166Y729633D01*
X247961Y729633D01*
X247961Y751187D01*
X244185Y751187D01*
X236172Y711657D02*
G75*
D01*
G02X236172Y711657I1808J3353*
G01*
X236172Y484859D02*
G75*
D01*
G02X236172Y484859I4128J2821*
G01*
X291357Y725805D02*
G75*
D01*
G02X295185Y729633I3828J0*
G01*
X316775Y729633D01*
G74*
D01*
G02X320603Y725805I0J3828*
G01*
X320603Y711583D01*
X336827Y695359D01*
X348180Y695359D01*
G74*
D01*
G02X353150Y693296I0J7019*
G01*
X371423Y675023D01*
X382035Y675023D01*
G74*
D01*
G02X385863Y671195I0J3828*
G01*
X385863Y649605D01*
G75*
D01*
G02X382035Y645777I-3828J0*
G01*
X360445Y645777D01*
G75*
D01*
G02X356617Y649605I0J3828*
G01*
X356617Y669977D01*
X345273Y681321D01*
X333928Y681321D01*
G75*
D01*
G02X328957Y683377I-8J7019*
G01*
X311947Y700387D01*
X295185Y700387D01*
G75*
D01*
G02X291357Y704215I0J3828*
G01*
X291357Y725805D01*
X121357Y725805D02*
G75*
D01*
G02X125185Y729633I3828J0*
G01*
X146775Y729633D01*
G74*
D01*
G02X150603Y725805I0J3828*
G01*
X150603Y704215D01*
G75*
D01*
G02X146775Y700387I-3828J0*
G01*
X130013Y700387D01*
X118779Y689153D01*
X118779Y675023D01*
X122155Y675023D01*
G74*
D01*
G02X125983Y671195I0J3828*
G01*
X125983Y649605D01*
G75*
D01*
G02X122155Y645777I-3828J0*
G01*
X100565Y645777D01*
G75*
D01*
G02X96737Y649605I0J3828*
G01*
X96737Y671195D01*
G75*
D01*
G02X100565Y675023I3828J0*
G01*
X104741Y675023D01*
X104741Y692047D01*
G75*
D01*
G02X106797Y697023I7019J13*
G01*
X121357Y711583D01*
X121357Y725805D01*
X155357Y725805D02*
G75*
D01*
G02X159185Y729633I3828J0*
G01*
X179961Y729633D01*
X179961Y751187D01*
X176185Y751187D01*
G75*
D01*
G02X172357Y755015I0J3828*
G01*
X172357Y776605D01*
G75*
D01*
G02X176185Y780433I3828J0*
G01*
X197775Y780433D01*
G74*
D01*
G02X201603Y776605I0J3828*
G01*
X201603Y755015D01*
G75*
D01*
G02X197775Y751187I-3828J0*
G01*
X193999Y751187D01*
X193999Y729633D01*
X214775Y729633D01*
G74*
D01*
G02X218603Y725805I0J3828*
G01*
X218603Y704215D01*
G75*
D01*
G02X214775Y700387I-3828J0*
G01*
X210219Y700387D01*
X210219Y675023D01*
X213995Y675023D01*
G74*
D01*
G02X217823Y671195I0J3828*
G01*
X217823Y649605D01*
G75*
D01*
G02X213995Y645777I-3828J0*
G01*
X192405Y645777D01*
G75*
D01*
G02X190500Y646284I-1J3828*
G01*
G74*
D01*
G02X188595Y645777I1904J3321*
G01*
X167005Y645777D01*
G75*
D01*
G02X165100Y646284I-1J3828*
G01*
G74*
D01*
G02X163195Y645777I1904J3321*
G01*
X141605Y645777D01*
G75*
D01*
G02X137777Y649605I0J3828*
G01*
X137777Y671195D01*
G75*
D01*
G02X141605Y675023I3828J0*
G01*
X145381Y675023D01*
X145381Y691066D01*
G75*
D01*
G02X147437Y696043I7019J14*
G01*
X155364Y703970D01*
G75*
D01*
G02X155357Y704215I3821J232*
G01*
X155357Y725805D01*
X1011555Y836912D02*
X1004716Y836912D01*
X1004716Y847579D01*
X1015383Y847579D01*
X1015383Y840740D01*
G75*
D01*
G02X1011555Y836912I-3828J0*
G01*
X982327Y840740D02*
X982327Y847579D01*
X992994Y847579D01*
X992994Y836912D01*
X986155Y836912D01*
G75*
D01*
G02X982327Y840740I0J3828*
G01*
X986155Y869968D02*
X992994Y869968D01*
X992994Y859301D01*
X982327Y859301D01*
X982327Y866140D01*
G75*
D01*
G02X986155Y869968I3828J0*
G01*
X993855Y853440D02*
G75*
D01*
G02X993855Y853440I5000J0*
G01*
X1011555Y869968D02*
G74*
D01*
G02X1015383Y866140I0J3828*
G01*
X1015383Y859301D01*
X1004716Y859301D01*
X1004716Y869968D01*
X1011555Y869968D01*
X831573Y293370D02*
G75*
D01*
G02X831573Y278130I-8612J-7620*
G01*
X845838Y278130D01*
X845838Y266700D01*
G75*
D01*
G02X842010Y262872I-3828J0*
G01*
X830580Y262872D01*
X830580Y277137D01*
G75*
D01*
G02X815340Y277137I-7620J8612*
G01*
X815340Y262872D01*
X803910Y262872D01*
G75*
D01*
G02X800082Y266700I0J3828*
G01*
X800082Y278130D01*
X814347Y278130D01*
G75*
D01*
G02X814347Y293370I8612J7620*
G01*
X800082Y293370D01*
X800082Y304800D01*
G75*
D01*
G02X803910Y308628I3828J0*
G01*
X815340Y308628D01*
X815340Y294363D01*
G75*
D01*
G02X830580Y294363I7620J-8612*
G01*
X830580Y308628D01*
X842010Y308628D01*
G74*
D01*
G02X845838Y304800I0J3828*
G01*
X845838Y293370D01*
X831573Y293370D01*
X1015383Y688340D02*
X1015383Y681501D01*
X1004716Y681501D01*
X1004716Y692168D01*
X1011555Y692168D01*
G74*
D01*
G02X1015383Y688340I0J3828*
G01*
X993855Y497840D02*
G75*
D01*
G02X993855Y497840I5000J0*
G01*
X982327Y485140D02*
X982327Y491979D01*
X992994Y491979D01*
X992994Y481312D01*
X986155Y481312D01*
G75*
D01*
G02X982327Y485140I0J3828*
G01*
X1011555Y481312D02*
X1004716Y481312D01*
X1004716Y491979D01*
X1015383Y491979D01*
X1015383Y485140D01*
G75*
D01*
G02X1011555Y481312I-3828J0*
G01*
X986155Y514368D02*
X992994Y514368D01*
X992994Y503701D01*
X982327Y503701D01*
X982327Y510540D01*
G75*
D01*
G02X986155Y514368I3828J0*
G01*
X1011555Y514368D02*
G74*
D01*
G02X1015383Y510540I0J3828*
G01*
X1015383Y503701D01*
X1004716Y503701D01*
X1004716Y514368D01*
X1011555Y514368D01*
X986155Y659112D02*
G75*
D01*
G02X982327Y662940I0J3828*
G01*
X982327Y669779D01*
X992994Y669779D01*
X992994Y659112D01*
X986155Y659112D01*
X1011555Y659112D02*
X1004716Y659112D01*
X1004716Y669779D01*
X1015383Y669779D01*
X1015383Y662940D01*
G75*
D01*
G02X1011555Y659112I-3828J0*
G01*
X993855Y675640D02*
G75*
D01*
G02X993855Y675640I5000J0*
G01*
X986155Y692168D02*
X992994Y692168D01*
X992994Y681501D01*
X982327Y681501D01*
X982327Y688340D01*
G75*
D01*
G02X986155Y692168I3828J0*
G01*
X1015383Y332740D02*
X1015383Y325901D01*
X1004716Y325901D01*
X1004716Y336568D01*
X1011555Y336568D01*
G74*
D01*
G02X1015383Y332740I0J3828*
G01*
X993855Y320040D02*
G75*
D01*
G02X993855Y320040I5000J0*
G01*
X986155Y303512D02*
G75*
D01*
G02X982327Y307340I0J3828*
G01*
X982327Y314179D01*
X992994Y314179D01*
X992994Y303512D01*
X986155Y303512D01*
X1011555Y303512D02*
X1004716Y303512D01*
X1004716Y314179D01*
X1015383Y314179D01*
X1015383Y307340D01*
G75*
D01*
G02X1011555Y303512I-3828J0*
G01*
X986155Y336568D02*
X992994Y336568D01*
X992994Y325901D01*
X982327Y325901D01*
X982327Y332740D01*
G75*
D01*
G02X986155Y336568I3828J0*
G01*
X577573Y293370D02*
G75*
D01*
G02X577573Y278130I-8612J-7620*
G01*
X591838Y278130D01*
X591838Y266700D01*
G75*
D01*
G02X588010Y262872I-3828J0*
G01*
X576580Y262872D01*
X576580Y277137D01*
G75*
D01*
G02X561340Y277137I-7620J8612*
G01*
X561340Y262872D01*
X549910Y262872D01*
G75*
D01*
G02X546082Y266700I0J3828*
G01*
X546082Y278130D01*
X560347Y278130D01*
G75*
D01*
G02X560347Y293370I8612J7620*
G01*
X546082Y293370D01*
X546082Y304800D01*
G75*
D01*
G02X549910Y308628I3828J0*
G01*
X561340Y308628D01*
X561340Y294363D01*
G75*
D01*
G02X576580Y294363I7620J-8612*
G01*
X576580Y308628D01*
X588010Y308628D01*
G74*
D01*
G02X591838Y304800I0J3828*
G01*
X591838Y293370D01*
X577573Y293370D01*
X110213Y292100D02*
G75*
D01*
G02X110213Y276860I-8612J-7620*
G01*
X124478Y276860D01*
X124478Y265430D01*
G75*
D01*
G02X120650Y261602I-3828J0*
G01*
X109220Y261602D01*
X109220Y275867D01*
G75*
D01*
G02X93980Y275867I-7620J8612*
G01*
X93980Y261602D01*
X82550Y261602D01*
G75*
D01*
G02X78722Y265430I0J3828*
G01*
X78722Y276860D01*
X92987Y276860D01*
G75*
D01*
G02X92987Y292100I8612J7620*
G01*
X78722Y292100D01*
X78722Y303530D01*
G75*
D01*
G02X82550Y307358I3828J0*
G01*
X93980Y307358D01*
X93980Y293093D01*
G75*
D01*
G02X109220Y293093I7620J-8612*
G01*
X109220Y307358D01*
X120650Y307358D01*
G74*
D01*
G02X124478Y303530I0J3828*
G01*
X124478Y292100D01*
X110213Y292100D01*
X364213Y292100D02*
G75*
D01*
G02X364213Y276860I-8612J-7620*
G01*
X378478Y276860D01*
X378478Y265430D01*
G75*
D01*
G02X374650Y261602I-3828J0*
G01*
X363220Y261602D01*
X363220Y275867D01*
G75*
D01*
G02X347980Y275867I-7620J8612*
G01*
X347980Y261602D01*
X336550Y261602D01*
G75*
D01*
G02X332722Y265430I0J3828*
G01*
X332722Y276860D01*
X346987Y276860D01*
G75*
D01*
G02X346987Y292100I8612J7620*
G01*
X332722Y292100D01*
X332722Y303530D01*
G75*
D01*
G02X336550Y307358I3828J0*
G01*
X347980Y307358D01*
X347980Y293093D01*
G75*
D01*
G02X363220Y293093I7620J-8612*
G01*
X363220Y307358D01*
X374650Y307358D01*
G74*
D01*
G02X378478Y303530I0J3828*
G01*
X378478Y292100D01*
X364213Y292100D01*
X219855Y376537D02*
X214246Y376537D01*
X214246Y385974D01*
X223683Y385974D01*
X223683Y380365D01*
G75*
D01*
G02X219855Y376537I-3828J0*
G01*
X219855Y405783D02*
G74*
D01*
G02X223683Y401955I0J3828*
G01*
X223683Y396346D01*
X214246Y396346D01*
X214246Y405783D01*
X219855Y405783D01*
X205250Y391160D02*
G75*
D01*
G02X205250Y391160I3810J0*
G01*
X687215Y377807D02*
X681606Y377807D01*
X681606Y387244D01*
X691043Y387244D01*
X691043Y381635D01*
G75*
D01*
G02X687215Y377807I-3828J0*
G01*
X672610Y392430D02*
G75*
D01*
G02X672610Y392430I3810J0*
G01*
X687215Y407053D02*
G74*
D01*
G02X691043Y403225I0J3828*
G01*
X691043Y397616D01*
X681606Y397616D01*
X681606Y407053D01*
X687215Y407053D01*
X804187Y815340D02*
G75*
D01*
G02X804187Y830580I8612J7620*
G01*
X789922Y830580D01*
X789922Y842010D01*
G75*
D01*
G02X793750Y845838I3828J0*
G01*
X805180Y845838D01*
X805180Y831573D01*
G75*
D01*
G02X820420Y831573I7620J-8612*
G01*
X820420Y845838D01*
X831850Y845838D01*
G74*
D01*
G02X835678Y842010I0J3828*
G01*
X835678Y830580D01*
X821413Y830580D01*
G75*
D01*
G02X821413Y815340I-8612J-7620*
G01*
X835678Y815340D01*
X835678Y803910D01*
G75*
D01*
G02X831850Y800082I-3828J0*
G01*
X820420Y800082D01*
X820420Y814347D01*
G75*
D01*
G02X805180Y814347I-7620J8612*
G01*
X805180Y800082D01*
X793750Y800082D01*
G75*
D01*
G02X789922Y803910I0J3828*
G01*
X789922Y815340D01*
X804187Y815340D01*
X254878Y498430D02*
X254878Y492850D01*
X245470Y492850D01*
X245470Y502258D01*
X251050Y502258D01*
G74*
D01*
G02X254878Y498430I0J3828*
G01*
X906567Y60765D02*
X906567Y79180D01*
X928810Y79180D01*
X928810Y56937D01*
X910395Y56937D01*
G75*
D01*
G02X906567Y60765I0J3828*
G01*
X906567Y112835D02*
G74*
D01*
G02X906858Y114300I3828J1*
G01*
G75*
D01*
G02X906567Y115765I3537J1464*
G01*
X906567Y134180D01*
X928810Y134180D01*
X928810Y94420D01*
X906567Y94420D01*
X906567Y112835D01*
X931430Y86800D02*
G75*
D01*
G02X931430Y86800I5000J0*
G01*
X836277Y141205D02*
X836277Y146814D01*
X845714Y146814D01*
X845714Y137377D01*
X840105Y137377D01*
G75*
D01*
G02X836277Y141205I0J3828*
G01*
X865523Y141205D02*
G75*
D01*
G02X861695Y137377I-3828J0*
G01*
X856086Y137377D01*
X856086Y146814D01*
X865523Y146814D01*
X865523Y141205D01*
X873107Y141205D02*
X873107Y146814D01*
X882544Y146814D01*
X882544Y137377D01*
X876935Y137377D01*
G75*
D01*
G02X873107Y141205I0J3828*
G01*
X898525Y137377D02*
X892916Y137377D01*
X892916Y146814D01*
X902353Y146814D01*
X902353Y141205D01*
G75*
D01*
G02X898525Y137377I-3828J0*
G01*
X931430Y141800D02*
G75*
D01*
G02X931430Y141800I5000J0*
G01*
X840105Y166623D02*
X845714Y166623D01*
X845714Y157186D01*
X836277Y157186D01*
X836277Y162795D01*
G75*
D01*
G02X840105Y166623I3828J0*
G01*
X865523Y162795D02*
X865523Y157186D01*
X856086Y157186D01*
X856086Y166623D01*
X861695Y166623D01*
G74*
D01*
G02X865523Y162795I0J3828*
G01*
X848400Y152000D02*
G75*
D01*
G02X848400Y152000I2500J0*
G01*
X873107Y162795D02*
G75*
D01*
G02X876935Y166623I3828J0*
G01*
X882544Y166623D01*
X882544Y157186D01*
X873107Y157186D01*
X873107Y162795D01*
X902353Y162795D02*
X902353Y157186D01*
X892916Y157186D01*
X892916Y166623D01*
X898525Y166623D01*
G74*
D01*
G02X902353Y162795I0J3828*
G01*
X885230Y152000D02*
G75*
D01*
G02X885230Y152000I2500J0*
G01*
X906567Y167835D02*
G75*
D01*
G02X910395Y171663I3828J0*
G01*
X928810Y171663D01*
X928810Y149420D01*
X906567Y149420D01*
X906567Y167835D01*
X412097Y162795D02*
G75*
D01*
G02X415925Y166623I3828J0*
G01*
X421534Y166623D01*
X421534Y157186D01*
X412097Y157186D01*
X412097Y162795D01*
X400703Y162795D02*
X400703Y157186D01*
X391266Y157186D01*
X391266Y166623D01*
X396875Y166623D01*
G74*
D01*
G02X400703Y162795I0J3828*
G01*
X371457Y162795D02*
G75*
D01*
G02X375285Y166623I3828J0*
G01*
X380894Y166623D01*
X380894Y157186D01*
X371457Y157186D01*
X371457Y162795D01*
X371457Y141205D02*
X371457Y146814D01*
X380894Y146814D01*
X380894Y137377D01*
X375285Y137377D01*
G75*
D01*
G02X371457Y141205I0J3828*
G01*
X396875Y137377D02*
X391266Y137377D01*
X391266Y146814D01*
X400703Y146814D01*
X400703Y141205D01*
G75*
D01*
G02X396875Y137377I-3828J0*
G01*
X412097Y141205D02*
X412097Y146814D01*
X421534Y146814D01*
X421534Y137377D01*
X415925Y137377D01*
G75*
D01*
G02X412097Y141205I0J3828*
G01*
X437515Y137377D02*
X431906Y137377D01*
X431906Y146814D01*
X441343Y146814D01*
X441343Y141205D01*
G75*
D01*
G02X437515Y137377I-3828J0*
G01*
X383580Y152000D02*
G75*
D01*
G02X383580Y152000I2500J0*
G01*
X441343Y162795D02*
X441343Y157186D01*
X431906Y157186D01*
X431906Y166623D01*
X437515Y166623D01*
G74*
D01*
G02X441343Y162795I0J3828*
G01*
X424220Y152000D02*
G75*
D01*
G02X424220Y152000I2500J0*
G01*
X227185Y700387D02*
G75*
D01*
G02X223357Y704215I0J3828*
G01*
X223357Y709824D01*
X232794Y709824D01*
X232794Y700387D01*
X227185Y700387D01*
X229550Y502258D02*
X235130Y502258D01*
X235130Y492850D01*
X225722Y492850D01*
X225722Y498430D01*
G75*
D01*
G02X229550Y502258I3828J0*
G01*
X196660Y624840D02*
G75*
D01*
G02X196660Y624840I5000J0*
G01*
X187082Y614090D02*
X187082Y619670D01*
X196490Y619670D01*
X196490Y610262D01*
X190910Y610262D01*
G75*
D01*
G02X187082Y614090I0J3828*
G01*
X212410Y610262D02*
X206830Y610262D01*
X206830Y619670D01*
X216238Y619670D01*
X216238Y614090D01*
G75*
D01*
G02X212410Y610262I-3828J0*
G01*
X190910Y639418D02*
X196490Y639418D01*
X196490Y630010D01*
X187082Y630010D01*
X187082Y635590D01*
G75*
D01*
G02X190910Y639418I3828J0*
G01*
X212410Y639418D02*
G74*
D01*
G02X216238Y635590I0J3828*
G01*
X216238Y630010D01*
X206830Y630010D01*
X206830Y639418D01*
X212410Y639418D01*
X696910Y502258D02*
X702490Y502258D01*
X702490Y492850D01*
X693082Y492850D01*
X693082Y498430D01*
G75*
D01*
G02X696910Y502258I3828J0*
G01*
X702660Y487680D02*
G75*
D01*
G02X702660Y487680I5000J0*
G01*
X668430Y615342D02*
G75*
D01*
G02X664602Y619170I0J3828*
G01*
X664602Y624750D01*
X674010Y624750D01*
X674010Y615342D01*
X668430Y615342D01*
X689930Y615342D02*
X684350Y615342D01*
X684350Y624750D01*
X693758Y624750D01*
X693758Y619170D01*
G75*
D01*
G02X689930Y615342I-3828J0*
G01*
X668430Y644498D02*
X674010Y644498D01*
X674010Y635090D01*
X664602Y635090D01*
X664602Y640670D01*
G75*
D01*
G02X668430Y644498I3828J0*
G01*
X674180Y629920D02*
G75*
D01*
G02X674180Y629920I5000J0*
G01*
X693758Y640670D02*
X693758Y635090D01*
X684350Y635090D01*
X684350Y644498D01*
X689930Y644498D01*
G74*
D01*
G02X693758Y640670I0J3828*
G01*
X694545Y701657D02*
G75*
D01*
G02X690717Y705485I0J3828*
G01*
X690717Y711094D01*
X700154Y711094D01*
X700154Y701657D01*
X694545Y701657D01*
X336827Y814070D02*
G75*
D01*
G02X336827Y829310I8612J7620*
G01*
X322562Y829310D01*
X322562Y840740D01*
G75*
D01*
G02X326390Y844568I3828J0*
G01*
X337820Y844568D01*
X337820Y830303D01*
G75*
D01*
G02X353060Y830303I7620J-8612*
G01*
X353060Y844568D01*
X364490Y844568D01*
G74*
D01*
G02X368318Y840740I0J3828*
G01*
X368318Y829310D01*
X354053Y829310D01*
G75*
D01*
G02X354053Y814070I-8612J-7620*
G01*
X368318Y814070D01*
X368318Y802640D01*
G75*
D01*
G02X364490Y798812I-3828J0*
G01*
X353060Y798812D01*
X353060Y813077D01*
G75*
D01*
G02X337820Y813077I-7620J8612*
G01*
X337820Y798812D01*
X326390Y798812D01*
G75*
D01*
G02X322562Y802640I0J3828*
G01*
X322562Y814070D01*
X336827Y814070D01*
X656355Y908703D02*
G74*
D01*
G02X660183Y904875I0J3828*
G01*
X660183Y899266D01*
X650746Y899266D01*
X650746Y908703D01*
X656355Y908703D01*
X694545Y730903D02*
X700154Y730903D01*
X700154Y721466D01*
X690717Y721466D01*
X690717Y727075D01*
G75*
D01*
G02X694545Y730903I3828J0*
G01*
X550187Y815340D02*
G75*
D01*
G02X550187Y830580I8612J7620*
G01*
X535922Y830580D01*
X535922Y842010D01*
G75*
D01*
G02X539750Y845838I3828J0*
G01*
X551180Y845838D01*
X551180Y831573D01*
G75*
D01*
G02X566420Y831573I7620J-8612*
G01*
X566420Y845838D01*
X577850Y845838D01*
G74*
D01*
G02X581678Y842010I0J3828*
G01*
X581678Y830580D01*
X567413Y830580D01*
G75*
D01*
G02X567413Y815340I-8612J-7620*
G01*
X581678Y815340D01*
X581678Y803910D01*
G75*
D01*
G02X577850Y800082I-3828J0*
G01*
X566420Y800082D01*
X566420Y814347D01*
G75*
D01*
G02X551180Y814347I-7620J8612*
G01*
X551180Y800082D01*
X539750Y800082D01*
G75*
D01*
G02X535922Y803910I0J3828*
G01*
X535922Y815340D01*
X550187Y815340D01*
X634765Y833737D02*
G75*
D01*
G02X630937Y837565I0J3828*
G01*
X630937Y843174D01*
X640374Y843174D01*
X640374Y833737D01*
X634765Y833737D01*
X656355Y833737D02*
X650746Y833737D01*
X650746Y843174D01*
X660183Y843174D01*
X660183Y837565D01*
G75*
D01*
G02X656355Y833737I-3828J0*
G01*
X634765Y862983D02*
X640374Y862983D01*
X640374Y853546D01*
X630937Y853546D01*
X630937Y859155D01*
G75*
D01*
G02X634765Y862983I3828J0*
G01*
X660183Y859155D02*
X660183Y853546D01*
X650746Y853546D01*
X650746Y862983D01*
X656355Y862983D01*
G74*
D01*
G02X660183Y859155I0J3828*
G01*
X643060Y848360D02*
G75*
D01*
G02X643060Y848360I2500J0*
G01*
X630937Y883285D02*
X630937Y888894D01*
X640374Y888894D01*
X640374Y879457D01*
X634765Y879457D01*
G75*
D01*
G02X630937Y883285I0J3828*
G01*
X656355Y879457D02*
X650746Y879457D01*
X650746Y888894D01*
X660183Y888894D01*
X660183Y883285D01*
G75*
D01*
G02X656355Y879457I-3828J0*
G01*
X634765Y908703D02*
X640374Y908703D01*
X640374Y899266D01*
X630937Y899266D01*
X630937Y904875D01*
G75*
D01*
G02X634765Y908703I3828J0*
G01*
X643060Y894080D02*
G75*
D01*
G02X643060Y894080I2500J0*
G01*
X188995Y903623D02*
G74*
D01*
G02X192823Y899795I0J3828*
G01*
X192823Y894186D01*
X183386Y894186D01*
X183386Y903623D01*
X188995Y903623D01*
X227185Y729633D02*
X232794Y729633D01*
X232794Y720196D01*
X223357Y720196D01*
X223357Y725805D01*
G75*
D01*
G02X227185Y729633I3828J0*
G01*
X82827Y814070D02*
G75*
D01*
G02X82827Y829310I8612J7620*
G01*
X68562Y829310D01*
X68562Y840740D01*
G75*
D01*
G02X72390Y844568I3828J0*
G01*
X83820Y844568D01*
X83820Y830303D01*
G75*
D01*
G02X99060Y830303I7620J-8612*
G01*
X99060Y844568D01*
X110490Y844568D01*
G74*
D01*
G02X114318Y840740I0J3828*
G01*
X114318Y829310D01*
X100053Y829310D01*
G75*
D01*
G02X100053Y814070I-8612J-7620*
G01*
X114318Y814070D01*
X114318Y802640D01*
G75*
D01*
G02X110490Y798812I-3828J0*
G01*
X99060Y798812D01*
X99060Y813077D01*
G75*
D01*
G02X83820Y813077I-7620J8612*
G01*
X83820Y798812D01*
X72390Y798812D01*
G75*
D01*
G02X68562Y802640I0J3828*
G01*
X68562Y814070D01*
X82827Y814070D01*
X163577Y837565D02*
X163577Y843174D01*
X173014Y843174D01*
X173014Y833737D01*
X167405Y833737D01*
G75*
D01*
G02X163577Y837565I0J3828*
G01*
X188995Y833737D02*
X183386Y833737D01*
X183386Y843174D01*
X192823Y843174D01*
X192823Y837565D01*
G75*
D01*
G02X188995Y833737I-3828J0*
G01*
X167405Y862983D02*
X173014Y862983D01*
X173014Y853546D01*
X163577Y853546D01*
X163577Y859155D01*
G75*
D01*
G02X167405Y862983I3828J0*
G01*
X175700Y848360D02*
G75*
D01*
G02X175700Y848360I2500J0*
G01*
X188995Y862983D02*
G74*
D01*
G02X192823Y859155I0J3828*
G01*
X192823Y853546D01*
X183386Y853546D01*
X183386Y862983D01*
X188995Y862983D01*
X163577Y878205D02*
X163577Y883814D01*
X173014Y883814D01*
X173014Y874377D01*
X167405Y874377D01*
G75*
D01*
G02X163577Y878205I0J3828*
G01*
X188995Y874377D02*
X183386Y874377D01*
X183386Y883814D01*
X192823Y883814D01*
X192823Y878205D01*
G75*
D01*
G02X188995Y874377I-3828J0*
G01*
X167405Y903623D02*
X173014Y903623D01*
X173014Y894186D01*
X163577Y894186D01*
X163577Y899795D01*
G75*
D01*
G02X167405Y903623I3828J0*
G01*
X175700Y889000D02*
G75*
D01*
G02X175700Y889000I2500J0*
G01*
X1126172Y3828D02*
X1126172Y996172D01*
X3828Y996172D01*
X3828Y3828D01*
X1126172Y3828D01*
X300355Y437497D02*
X296579Y437497D01*
X296579Y403660D01*
G75*
D01*
G02X296519Y402744I-7019J0*
G01*
G75*
D01*
G02X300265Y405783I3746J-789*
G01*
X304041Y405783D01*
X304041Y427905D01*
G75*
D01*
G02X302861Y431800I5838J3895*
G01*
X302861Y438431D01*
G74*
D01*
G02X300355Y437497I2506J2894*
G01*
X158115Y437497D02*
X154339Y437497D01*
X154339Y429427D01*
X177983Y405783D01*
X185531Y405783D01*
X185531Y429383D01*
X177417Y437497D01*
X161925Y437497D01*
G75*
D01*
G02X160020Y438004I-1J3828*
G01*
G74*
D01*
G02X158115Y437497I1904J3321*
G01*
X253041Y437510D02*
G74*
D01*
G02X251460Y438004I324J3814*
G01*
G74*
D01*
G02X250859Y437725I1906J3320*
G01*
X250859Y405783D01*
X253041Y405783D01*
X253041Y437510D01*
X278765Y437497D02*
G75*
D01*
G02X276860Y438004I-1J3828*
G01*
G74*
D01*
G02X274955Y437497I1904J3321*
G01*
X267079Y437497D01*
X267079Y405783D01*
X281757Y405783D01*
X282541Y406567D01*
X282541Y437497D01*
X278765Y437497D01*
X624205Y437497D02*
X639697Y437497D01*
X652891Y424303D01*
X652891Y407053D01*
X644073Y407053D01*
X616619Y434507D01*
X616619Y437497D01*
X620395Y437497D01*
G74*
D01*
G03X622300Y438004I1J3828*
G01*
G75*
D01*
G03X624205Y437497I1904J3321*
G01*
X720891Y422090D02*
G75*
D01*
G02X722947Y427065I7019J12*
G01*
X723231Y427349D01*
X723231Y437497D01*
X720725Y437497D01*
G75*
D01*
G02X718820Y438004I-1J3828*
G01*
G74*
D01*
G02X718219Y437725I1906J3320*
G01*
X718219Y407053D01*
X720891Y407053D01*
X720891Y422090D01*
X735206Y419472D02*
X734929Y419195D01*
X734929Y407053D01*
X738005Y407053D01*
G74*
D01*
G02X739328Y408894I6286J3121*
G01*
X749901Y419467D01*
X749901Y437497D01*
X746125Y437497D01*
G75*
D01*
G02X744220Y438004I-1J3828*
G01*
G74*
D01*
G02X742315Y437497I1904J3321*
G01*
X737269Y437497D01*
X737269Y424442D01*
G75*
D01*
G02X735206Y419472I-7019J0*
G01*
X786765Y437897D02*
G75*
D01*
G02X785439Y438134I0J3828*
G01*
X785439Y407053D01*
X789215Y407053D01*
G74*
D01*
G02X791130Y406540I1J3828*
G01*
X791130Y435088D01*
X788322Y437897D01*
X786765Y437897D01*
X624205Y466743D02*
G75*
D01*
G03X622300Y466236I-1J-3828*
G01*
G74*
D01*
G03X620395Y466743I1904J3321*
G01*
X598805Y466743D01*
G75*
D01*
G03X596900Y466236I-1J-3828*
G01*
G74*
D01*
G03X594995Y466743I1904J3321*
G01*
X573405Y466743D01*
G75*
D01*
G03X569577Y462915I0J-3828*
G01*
X569577Y441325D01*
G75*
D01*
G03X570082Y439424I3828J-1*
G01*
X568359Y441147D01*
X568359Y475500D01*
G75*
D01*
G03X571910Y473102I3551J1430*
G01*
X593410Y473102D01*
G74*
D01*
G03X596993Y475581I1J3828*
G01*
X624473Y475581D01*
X627981Y472073D01*
X627981Y466743D01*
X624205Y466743D01*
X179825Y675023D02*
X167005Y675023D01*
G75*
D01*
G03X165100Y674516I-1J-3828*
G01*
G74*
D01*
G03X163195Y675023I1904J3321*
G01*
X159419Y675023D01*
X159419Y688173D01*
X171633Y700387D01*
X179961Y700387D01*
X179961Y675559D01*
G74*
D01*
G03X179825Y675023I6730J1993*
G01*
X196181Y675023D02*
X196181Y700387D01*
X193999Y700387D01*
X193999Y675023D01*
X196181Y675023D01*
X288925Y675023D02*
G75*
D01*
G03X287020Y674516I-1J-3828*
G01*
G74*
D01*
G03X285115Y675023I1904J3321*
G01*
X269623Y675023D01*
X261999Y682647D01*
X261999Y700387D01*
X270327Y700387D01*
X292701Y678013D01*
X292701Y675023D01*
X288925Y675023D01*
X639445Y675023D02*
X647321Y675023D01*
X647321Y701657D01*
X640263Y701657D01*
X631859Y693253D01*
X631859Y675023D01*
X635635Y675023D01*
G74*
D01*
G02X637540Y674516I1J3828*
G01*
G75*
D01*
G02X639445Y675023I1904J-3321*
G01*
X661359Y675010D02*
G74*
D01*
G02X662940Y674516I324J3814*
G01*
G75*
D01*
G02X664845Y675023I1904J-3321*
G01*
X668621Y675023D01*
X668621Y701657D01*
X661359Y701657D01*
X661359Y675010D01*
X757555Y675023D02*
G74*
D01*
G02X759460Y674516I1J3828*
G01*
G75*
D01*
G02X761365Y675023I1904J-3321*
G01*
X765141Y675023D01*
X765141Y675473D01*
X738957Y701657D01*
X730669Y701657D01*
X733938Y698388D01*
G74*
D01*
G02X733943Y698383I4960J4965*
G01*
X751716Y680610D01*
G74*
D01*
G02X753779Y675640I4955J4970*
G01*
X753779Y675023D01*
X757555Y675023D01*
G54D12*
X111760Y692060D02*
X111760Y660600D01*
X203200Y715500D02*
X203200Y660400D01*
X325120Y660400D02*
X299720Y660400D01*
X370840Y665680D02*
X370840Y660600D01*
X584200Y697140D02*
X584200Y660600D01*
X675640Y711980D02*
X675640Y660400D01*
X772160Y660400D02*
X797560Y660400D01*
X816810Y685800D02*
X838200Y664410D01*
X838200Y660600D01*
X135980Y716280D02*
X111760Y692060D01*
X603340Y716280D02*
X584200Y697140D01*
X773340Y716280D02*
X803820Y685800D01*
X816810Y685800D01*
X671340Y716280D02*
X675640Y711980D01*
X608420Y391160D02*
X561340Y438240D01*
X604120Y391160D02*
X607060Y391160D01*
X711200Y447040D02*
X711200Y391550D01*
X778420Y391160D02*
X778420Y486320D01*
X120650Y452120D02*
X147320Y452120D01*
X561340Y438240D02*
X561340Y479860D01*
X609600Y452120D02*
X607060Y454660D01*
X706120Y452120D02*
X711200Y447040D01*
X585470Y454660D02*
X584200Y453390D01*
X607060Y454660D02*
X585470Y454660D01*
X561340Y479860D02*
X543560Y497640D01*
X778420Y486320D02*
X795020Y502920D01*
X800100Y502920D02*
X795020Y502920D01*
X582660Y487680D02*
X587740Y482600D01*
X627380Y482600D01*
X115300Y487680D02*
X134350Y468630D01*
X327160Y624840D02*
X299720Y624840D01*
X627380Y482600D02*
X635000Y474980D01*
X134350Y468630D02*
X164465Y468630D01*
X274320Y650240D02*
X299720Y624840D01*
X804180Y629920D02*
X799100Y635000D01*
X635000Y474980D02*
X635000Y452120D01*
X164465Y468630D02*
X172720Y460375D01*
X274320Y660400D02*
X274320Y650240D01*
X799100Y635000D02*
X759460Y635000D01*
X731520Y452120D02*
X730250Y450850D01*
X172720Y460375D02*
X172720Y452120D01*
X254980Y679740D02*
X274320Y660400D01*
X186690Y673562D02*
X186690Y671830D01*
X176158Y661298D01*
X759460Y635000D02*
X746760Y647700D01*
X254980Y767080D02*
X254980Y679740D01*
X186980Y767080D02*
X186980Y673852D01*
X746760Y647700D02*
X746760Y675640D01*
X727910Y341830D02*
X726786Y340706D01*
X728980Y693420D02*
X746760Y675640D01*
X722340Y700060D02*
X728980Y693420D01*
X654340Y664500D02*
X650240Y660400D01*
X722340Y767080D02*
X722340Y700060D01*
X654340Y767080D02*
X654340Y664500D01*
X238760Y452120D02*
X243840Y447040D01*
X243840Y391550D01*
X311060Y391160D02*
X311060Y432980D01*
X277060Y391160D02*
X289560Y403660D01*
X141060Y391160D02*
X125095Y407125D01*
X330200Y502520D02*
X309880Y482200D01*
X192550Y432290D02*
X192550Y342410D01*
X260060Y340360D02*
X260060Y448020D01*
X192550Y342410D02*
X191052Y340912D01*
X172720Y452120D02*
X192550Y432290D01*
X260060Y448020D02*
X264160Y452120D01*
X309880Y482200D02*
X309880Y431800D01*
X289560Y403660D02*
X289560Y453390D01*
X125095Y407125D02*
X125095Y414428D01*
X635000Y452120D02*
X659924Y427196D01*
X659910Y427182D02*
X659910Y340850D01*
X92710Y446813D02*
X92710Y471170D01*
X71261Y492619D01*
X125095Y414428D02*
X92710Y446813D01*
X730250Y424442D02*
X727910Y422102D01*
X730250Y450850D02*
X730250Y424442D01*
X727910Y422102D02*
X727910Y341830D01*
X642420Y391160D02*
X641785Y391795D01*
X641785Y399415D02*
X609600Y431600D01*
X609600Y452120D01*
X641785Y399415D02*
X641785Y391795D01*
X175060Y398780D02*
X147320Y426520D01*
X147320Y452120D01*
X175060Y398780D02*
X175060Y391160D01*
X169980Y716280D02*
X169345Y715645D01*
X169345Y708025D02*
X152400Y691080D01*
X152400Y660400D01*
X169345Y708025D02*
X169345Y715645D01*
X271980Y716280D02*
X272615Y715645D01*
X272615Y708025D02*
X299720Y680920D01*
X272615Y708025D02*
X272615Y715645D01*
X299720Y680920D02*
X299720Y660400D01*
X756920Y416560D02*
X744291Y403931D01*
X756920Y452120D02*
X756920Y416560D01*
X744291Y403931D02*
X744291Y391231D01*
X739340Y711200D02*
X772160Y678380D01*
X772160Y660400D01*
X739340Y711200D02*
X739340Y716280D01*
X637340Y708660D02*
X624840Y696160D01*
X637340Y708660D02*
X637340Y716280D01*
X624840Y696160D02*
X624840Y660400D01*
X333920Y688340D02*
X348180Y688340D01*
X370840Y665680D01*
X305980Y716280D02*
X333920Y688340D01*
G54D13*
X152980Y767080D02*
X145360Y759460D01*
X607060Y340360D02*
X541020Y406400D01*
X604920Y340360D02*
X625420Y340360D01*
X624840Y340360D02*
X624840Y299720D01*
X541020Y406400D02*
X541020Y444500D01*
X669880Y137840D02*
X624840Y182880D01*
X624840Y297180D01*
X535940Y568960D02*
X510540Y543560D01*
X693420Y896620D02*
X688340Y891540D01*
X807720Y441960D02*
X797560Y452120D01*
X807720Y363220D02*
X807720Y441960D01*
X784860Y340360D02*
X807720Y363220D01*
X784860Y340360D02*
X760440Y340360D01*
X761420Y340360D02*
X761420Y315540D01*
X762000Y187960D02*
X762000Y314960D01*
X711880Y137840D02*
X762000Y187960D01*
X1073785Y853440D02*
X1030605Y896620D01*
X693420Y896620D02*
X1030605Y896620D01*
X688340Y892810D02*
X688340Y767080D01*
X1073630Y203200D02*
X1036320Y203200D01*
X934720Y320040D02*
X998855Y320040D01*
X934720Y320040D02*
X942340Y327660D01*
X942340Y403860D01*
X998855Y497840D02*
X996315Y495300D01*
X977900Y495300D01*
X972820Y500380D02*
X955040Y500380D01*
X679180Y629920D02*
X597900Y548640D01*
X576580Y548640D01*
X998855Y497840D02*
X952500Y544195D01*
X998855Y675640D02*
X996315Y673100D01*
X952500Y673100D01*
X220980Y767080D02*
X220980Y765810D01*
X220980Y880110D02*
X220980Y767080D01*
X232410Y891540D02*
X220980Y880110D01*
X448310Y567690D02*
X429260Y548640D01*
X695560Y894080D02*
X688340Y901300D01*
X688340Y919280D01*
X670560Y937060D01*
X274120Y937060D02*
X228600Y891540D01*
X431800Y35560D02*
X426720Y40640D01*
X426720Y101600D01*
X384610Y101600D02*
X426720Y101600D01*
X932180Y541020D02*
X896620Y541020D01*
X977900Y495300D02*
X932180Y541020D01*
X192360Y85680D02*
X137840Y85680D01*
X192360Y85680D02*
X202520Y95840D01*
X252140Y88220D02*
X244520Y95840D01*
X659720Y85680D02*
X605200Y85680D01*
X659720Y85680D02*
X669880Y95840D01*
X605200Y85680D02*
X500380Y190500D01*
X719500Y88220D02*
X738460Y88220D01*
X719500Y88220D02*
X711880Y95840D01*
X546100Y937060D02*
X274120Y937060D01*
X158060Y340360D02*
X158060Y299140D01*
X138720Y340360D02*
X157480Y340360D01*
X345440Y368300D02*
X345440Y437280D01*
X202520Y137840D02*
X157480Y182880D01*
X330200Y452520D02*
X345440Y437280D01*
X157480Y182880D02*
X157480Y299720D01*
X345440Y368300D02*
X317500Y340360D01*
X294640Y187960D02*
X294640Y339780D01*
X317500Y340360D02*
X294640Y340360D01*
X244520Y137840D02*
X294640Y187960D01*
X546300Y937260D02*
X670560Y937260D01*
X252140Y88220D02*
X273640Y88220D01*
X304800Y88900D02*
X274320Y88900D01*
X1076960Y78199D02*
X1034322Y35560D01*
X223520Y35560D01*
X881380Y88900D02*
X881380Y38100D01*
X887330Y101600D02*
X850900Y101600D01*
X866140Y215900D02*
X866140Y614680D01*
X383540Y596900D02*
X383540Y497840D01*
X226060Y340360D02*
X226060Y215900D01*
X693420Y340360D02*
X693420Y213360D01*
X288980Y767080D02*
X322580Y767080D01*
X421640Y668020D02*
X421640Y635000D01*
X383540Y596900D01*
X322580Y767080D02*
X421640Y668020D01*
X109510Y759460D02*
X60960Y710910D01*
X60960Y660400D01*
X145360Y759460D02*
X109510Y759460D01*
X800100Y767080D02*
X888800Y678380D01*
X756340Y767080D02*
X800100Y767080D01*
X887550Y677130D02*
X887550Y636090D01*
X887550Y677130D02*
X888800Y678380D01*
X887550Y636090D02*
X866140Y614680D01*
X584200Y767080D02*
X535940Y718820D01*
X620340Y767080D02*
X584200Y767080D01*
X535940Y568960D02*
X535940Y718820D01*
X33020Y190500D02*
X33020Y632060D01*
X137840Y85680D02*
X33020Y190500D01*
X61360Y660400D02*
X33020Y632060D01*
X500380Y515620D02*
X510540Y525780D01*
X500380Y515620D02*
X500380Y190500D01*
X510540Y525780D02*
X510540Y543560D01*
X71120Y442360D02*
X71120Y407960D01*
X138720Y340360D01*
X383540Y497840D02*
X424180Y457200D01*
X424180Y266700D01*
X337820Y180340D02*
X337820Y121920D01*
X424180Y266700D02*
X337820Y180340D01*
X337820Y121920D02*
X304800Y88900D01*
X718380Y86800D02*
X780220Y86800D01*
X807720Y114300D01*
X807720Y171450D01*
X852170Y215900D01*
X867410Y215900D01*
G54D14*
X995680Y203200D02*
X956000Y203200D01*
X990600Y86360D02*
X990600Y203200D01*
G54D15*
X1074420Y203990D02*
X1074420Y852805D01*
X1076960Y202240D02*
X1076960Y78199D01*
G54D16*
X1076000Y203200D03*
X1036000Y203200D03*
X996000Y203200D03*
X956000Y203200D03*
G54D17*
X1073785Y320040D03*
X998855Y320040D03*
X1073785Y497840D03*
X998855Y497840D03*
X1073785Y675640D03*
X998855Y675640D03*
X1073785Y853440D03*
X998855Y853440D03*
G54D18*
X326660Y624840D03*
X201660Y624840D03*
X679180Y629920D03*
X804180Y629920D03*
X115300Y487680D03*
X240300Y487680D03*
X707660Y487680D03*
X582660Y487680D03*
G54D19*
X61360Y660400D03*
X111360Y660400D03*
X203200Y660400D03*
X177800Y660400D03*
X152400Y660400D03*
X274320Y660400D03*
X299720Y660400D03*
X325120Y660400D03*
X421240Y660400D03*
X371240Y660400D03*
X533800Y660400D03*
X583800Y660400D03*
X624840Y660400D03*
X675640Y660400D03*
X650240Y660400D03*
X772160Y660400D03*
X797560Y660400D03*
X746760Y660400D03*
X888600Y660400D03*
X838600Y660400D03*
X71120Y442360D03*
X71120Y492360D03*
X172720Y452120D03*
X147320Y452120D03*
X121920Y452120D03*
X289560Y452120D03*
X264160Y452120D03*
X238760Y452120D03*
X330200Y502520D03*
X330200Y452520D03*
X543560Y497440D03*
X543560Y447440D03*
X609600Y452120D03*
X584200Y452120D03*
X635000Y452120D03*
X706120Y452120D03*
X731520Y452120D03*
X756920Y452120D03*
X797560Y452520D03*
X797560Y502520D03*
X467360Y548640D03*
X581660Y548640D03*
X426720Y553720D03*
X320040Y553720D03*
X228200Y848360D03*
X178200Y848360D03*
X228200Y889000D03*
X178200Y889000D03*
X695560Y894080D03*
X645560Y894080D03*
X695560Y848360D03*
X645560Y848360D03*
X386080Y102000D03*
X386080Y152000D03*
X426720Y102000D03*
X426720Y152000D03*
X899160Y543560D03*
X797560Y543560D03*
X223520Y35560D03*
X223520Y215900D03*
X690880Y35560D03*
X690880Y215900D03*
X850900Y102000D03*
X850900Y152000D03*
X887730Y102000D03*
X887730Y152000D03*
X778420Y392430D03*
X744420Y392430D03*
X710420Y392430D03*
X676420Y392430D03*
X642420Y392430D03*
X608420Y392430D03*
X761420Y341630D03*
X727420Y341630D03*
X693420Y341630D03*
X659420Y341630D03*
X625420Y341630D03*
X311060Y391160D03*
X277060Y391160D03*
X243060Y391160D03*
X209060Y391160D03*
X175060Y391160D03*
X141060Y391160D03*
X294060Y340360D03*
X260060Y340360D03*
X226060Y340360D03*
X192060Y340360D03*
X158060Y340360D03*
X135980Y715010D03*
X169980Y715010D03*
X203980Y715010D03*
X237980Y715010D03*
X271980Y715010D03*
X305980Y715010D03*
X152980Y765810D03*
X186980Y765810D03*
X220980Y765810D03*
X254980Y765810D03*
X288980Y765810D03*
X603340Y716280D03*
X637340Y716280D03*
X671340Y716280D03*
X705340Y716280D03*
X739340Y716280D03*
X773340Y716280D03*
X620340Y767080D03*
X654340Y767080D03*
X688340Y767080D03*
X722340Y767080D03*
X756340Y767080D03*
G54D20*
X568960Y285750D03*
X822960Y285750D03*
X101600Y284480D03*
X355600Y284480D03*
X345440Y821690D03*
X91440Y821690D03*
X812800Y822960D03*
X558800Y822960D03*
G54D21*
X663380Y141800D03*
X718380Y141800D03*
X663380Y86800D03*
X718380Y86800D03*
X199830Y141800D03*
X254830Y141800D03*
X199830Y86800D03*
X254830Y86800D03*
X936430Y86800D03*
X936430Y141800D03*
X991430Y86800D03*
X991430Y141800D03*

M02*
