M48
METRIC,TZ
VER,1
FMAT,2
DETECT,ON
ATC,ON
T1C1.0000
T2C0.5000
T3C0.6400
T4C0.7620
T5C2.3000
T6C0.1778
%
T1
X107.6000Y20.3200
X103.6000
X99.6000
X95.6000
X107.3785Y32.0040
X99.8855
X107.3785Y49.7840
X99.8855
X107.3785Y67.5640
X99.8855
X32.6660Y62.4840
X20.1660
X67.9180Y62.9920
X80.4180
X107.3785Y85.3440
X99.8855
X11.5300Y48.7680
X24.0300
X70.7660
X58.2660
X66.3380Y14.1800
X71.8380
X66.3380Y8.6800
X71.8380
X19.9830Y14.1800
X25.4830
X19.9830Y8.6800
X25.4830
X93.6430
Y14.1800
X99.1430Y8.6800
Y14.1800
T2
X6.1360Y66.0400
X11.1360
X42.1240
X37.1240
X53.3800
X58.3800
X88.8600
X83.8600
X7.1120Y44.2360
Y49.2360
X33.0200Y50.2520
Y45.2520
X54.3560Y49.7440
Y44.7440
X79.7560Y45.2520
Y50.2520
X22.8200Y84.8360
X17.8200
X22.8200Y88.9000
X17.8200
X69.5560Y89.4080
X64.5560
X69.5560Y84.8360
X64.5560
X38.6080Y10.2000
Y15.2000
X42.6720Y10.2000
Y15.2000
X85.0900Y10.2000
Y15.2000
X88.7730Y10.2000
Y15.2000
T3
X20.3200Y66.0400
X17.7800
X15.2400
X27.4320
X29.9720
X32.5120
X62.4840
X67.5640
X65.0240
X77.2160
X79.7560
X74.6760
X17.2720Y45.2120
X14.7320
X12.1920
X28.9560
X26.4160
X23.8760
X60.9600
X58.4200
X63.5000
X70.6120
X73.1520
X75.6920
T4
X77.8420Y39.2430
X74.4420
X71.0420
X67.6420
X64.2420
X60.8420
X76.1420Y34.1630
X72.7420
X69.3420
X65.9420
X62.5420
X31.1060Y39.1160
X27.7060
X24.3060
X20.9060
X17.5060
X14.1060
X29.4060Y34.0360
X26.0060
X22.6060
X19.2060
X15.8060
X13.5980Y71.5010
X16.9980
X20.3980
X23.7980
X27.1980
X30.5980
X15.2980Y76.5810
X18.6980
X22.0980
X25.4980
X28.8980
X60.3340Y71.6280
X63.7340
X67.1340
X70.5340
X73.9340
X77.3340
X62.0340Y76.7080
X65.4340
X68.8340
X72.2340
X75.6340
T5
X56.8960Y28.5750
X82.2960
X10.1600Y28.4480
X35.5600
X34.5440Y82.1690
X9.1440
X81.2800Y82.2960
X55.8800
T6
X46.7360Y54.8640
X58.1660
X42.6720Y55.3720
X32.0040
X89.9160Y54.3560
X79.7560
X22.3520Y3.5560
Y21.5900
X69.0880Y3.5560
Y21.5900
M30
